<svg xmlns="http://www.w3.org/2000/svg" width="674" height="613.052" viewBox="0 0 674 613.052">
  <g id="ecommerce_image" data-name="ecommerce image" transform="translate(-260.818 -3485.07)">
    <circle id="Ellipse_190" data-name="Ellipse 190" cx="306.526" cy="306.526" r="306.526" transform="translate(260.818 3485.07)" fill="#410f6e"/>
    <g id="Group_595" data-name="Group 595" transform="translate(302.071 3861.718)">
      <g id="Group_586" data-name="Group 586" transform="translate(62.499 105.902)">
        <g id="Group_585" data-name="Group 585">
          <rect id="Rectangle_189" data-name="Rectangle 189" width="46.457" height="59.655" fill="#f5b391"/>
          <path id="Path_787" data-name="Path 787" d="M1324.286,3719.214v-59.655h27.278l-.425,59.655Z" transform="translate(-1277.829 -3659.559)" fill="#e8976a"/>
        </g>
        <rect id="Rectangle_190" data-name="Rectangle 190" width="6.943" height="13.577" transform="translate(24.295 13.577) rotate(180)" fill="#fff" style="mix-blend-mode: soft-light;isolation: isolate"/>
      </g>
      <g id="Group_588" data-name="Group 588" transform="translate(41.056 105.902)">
        <g id="Group_587" data-name="Group 587">
          <path id="Path_788" data-name="Path 788" d="M918.249,3719.213v-59.655h21.443l-.334,59.655Z" transform="translate(-918.249 -3659.558)" fill="#e8976a"/>
        </g>
      </g>
      <g id="Group_590" data-name="Group 590" transform="translate(7.526 59.367)">
        <g id="Group_589" data-name="Group 589">
          <rect id="Rectangle_191" data-name="Rectangle 191" width="34.419" height="46.535" transform="translate(23.1)" fill="#f5ae89"/>
          <path id="Path_789" data-name="Path 789" d="M744.86,3427.817v-46.534H717.741l.36,46.534Z" transform="translate(-717.741 -3381.283)" fill="#e8976a"/>
        </g>
        <rect id="Rectangle_192" data-name="Rectangle 192" width="5.416" height="10.591" transform="translate(38.566)" fill="#fff" style="mix-blend-mode: soft-light;isolation: isolate"/>
      </g>
      <g id="Group_592" data-name="Group 592" transform="translate(64.826 59.367)">
        <g id="Group_591" data-name="Group 591">
          <rect id="Rectangle_193" data-name="Rectangle 193" width="34.419" height="46.535" transform="translate(23.1)" fill="#f5b391"/>
          <path id="Path_790" data-name="Path 790" d="M1083.491,3427.817v-46.534h-23.1l.36,46.534Z" transform="translate(-1060.391 -3381.283)" fill="#e8976a"/>
        </g>
      </g>
      <g id="Group_594" data-name="Group 594" transform="translate(37.789 13.328)">
        <g id="Group_593" data-name="Group 593">
          <rect id="Rectangle_194" data-name="Rectangle 194" width="34.419" height="46.535" transform="translate(23.1)" fill="#f5b391"/>
          <path id="Path_791" data-name="Path 791" d="M921.811,3152.5v-46.535h-23.1l.36,46.535Z" transform="translate(-898.711 -3105.965)" fill="#e8976a"/>
        </g>
      </g>
      <path id="Path_792" data-name="Path 792" d="M1079.571,3119.292h-34.419l-8.306-13.328h34.419Z" transform="translate(-975.958 -3092.638)" fill="#fae1d4"/>
      <path id="Path_793" data-name="Path 793" d="M890.247,3039.594H855.828l-8.306-13.328h34.418Z" transform="translate(-818.293 -3026.266)" fill="#f5b391"/>
      <path id="Path_794" data-name="Path 794" d="M853.7,3118.706h23.1l7.526-12.741h-23.1Z" transform="translate(-823.44 -3092.638)" fill="#fae1d4"/>
      <path id="Path_795" data-name="Path 795" d="M672.733,3394.024h27.119l7.526-12.741H680.26Z" transform="translate(-672.733 -3321.916)" fill="#fae1d4"/>
      <rect id="Rectangle_195" data-name="Rectangle 195" width="20.647" height="46.535" transform="translate(101.697 59.367)" fill="#e8976a"/>
      <path id="Path_796" data-name="Path 796" d="M1323.606,3394.61h-34.418l-8.306-13.327H1315.3Z" transform="translate(-1179.184 -3321.916)" fill="#fae1d4"/>
    </g>
    <rect id="Rectangle_196" data-name="Rectangle 196" width="48.124" height="59.655" transform="translate(304.623 3967.62)" fill="#fabfa0"/>
    <rect id="Rectangle_197" data-name="Rectangle 197" width="6.943" height="13.577" transform="translate(332.156 3981.196) rotate(180)" fill="#fff" style="mix-blend-mode: soft-light;isolation: isolate"/>
    <rect id="Rectangle_198" data-name="Rectangle 198" width="122.985" height="76.184" rx="5" transform="translate(308.697 3730.308)" fill="#b918ab"/>
    <path id="Path_797" data-name="Path 797" d="M778.445,2326.643h9.031v-3.619a2.183,2.183,0,0,0-2.183-2.183H772.654v8.735c0,.523-.278.947-.8.947h0c-.523,0-.728-.424-.728-.947v-8.735h-2.187a2.183,2.183,0,0,0-2.183,2.183V2333.6h11.854a.732.732,0,0,1,.741.632.7.7,0,0,1-.7.777H766.755v4.365a2.183,2.183,0,0,0,2.183,2.183h16.355a2.183,2.183,0,0,0,2.183-2.183v-11.3H778.4a.718.718,0,0,1-.715-.792A.746.746,0,0,1,778.445,2326.643Z" transform="translate(-448.961 1422.912)" fill="#f8bdf0"/>
    <rect id="Rectangle_199" data-name="Rectangle 199" width="25.054" height="12.641" transform="translate(397.393 3785.275)" fill="#f8bdf0"/>
    <g id="Group_596" data-name="Group 596" transform="translate(317.793 3772.183)">
      <rect id="Rectangle_200" data-name="Rectangle 200" width="23.379" height="5.899" fill="#f8bdf0"/>
      <rect id="Rectangle_201" data-name="Rectangle 201" width="23.816" height="5.899" transform="translate(26.669)" fill="#f8bdf0"/>
      <rect id="Rectangle_202" data-name="Rectangle 202" width="24.326" height="5.899" transform="translate(80.188)" fill="#f8bdf0"/>
      <rect id="Rectangle_203" data-name="Rectangle 203" width="22.505" height="5.899" transform="translate(54.211)" fill="#f8bdf0"/>
    </g>
    <rect id="Rectangle_204" data-name="Rectangle 204" width="72.103" height="7.616" transform="translate(317.933 3785.275)" fill="#f8bdf0"/>
    <rect id="Rectangle_205" data-name="Rectangle 205" width="31.02" height="8.88" transform="translate(391.426 3737.472)" fill="#f8bdf0"/>
    <path id="Path_798" data-name="Path 798" d="M2713.016,3896.99l4.446,17.39h14.057c.735-3.007-1.6-6.766-7.581-7.582a17.236,17.236,0,0,1,.46-9.257c1.684-4.591-6.936-5.281-6.936-5.281Z" transform="translate(-2069.76 114.273)" fill="#09001d"/>
    <path id="Path_799" data-name="Path 799" d="M3761.109,3204.9c-.22,0-.4-.236-.416-.542,0-.012,0-.056,0-.127.032-2.4-.109-14.461-5.988-15.737-.638-.14-1.764.2-2.838,1.606-1.159,1.516-3,5.324-2.341,13.788a.556.556,0,0,1-.369.63c-.23.033-.434-.194-.458-.508-.7-8.954,1.324-13.078,2.594-14.74,1.293-1.693,2.678-2.1,3.542-1.909,6.561,1.425,6.726,14.32,6.692,16.89v.064c0,.308-.169.567-.394.583Z" transform="translate(-2932.131 701.332)" fill="#003459"/>
    <path id="Path_800" data-name="Path 800" d="M3695.88,3271.632l-4.524,75.431h18.353l-2.216-75.431Z" transform="translate(-2884.497 631.117)" fill="#8524d9"/>
    <path id="Path_801" data-name="Path 801" d="M3801.7,3271.632l-.592,75.431h30.131l-4.457-75.431Z" transform="translate(-2975.895 631.117)" fill="#f8bdf0"/>
    <path id="Path_802" data-name="Path 802" d="M3754.152,3271.632l-3.115,66.161,8.373,9.27.593-75.431Z" transform="translate(-2934.199 631.117)" fill="#9b3bee"/>
    <path id="Path_803" data-name="Path 803" d="M3701.336,3667.269l-9.98,9.271h18.353Z" transform="translate(-2884.497 301.64)" fill="#9b3bee"/>
    <path id="Path_804" data-name="Path 804" d="M3851.323,3204.9c-.22,0-.4-.237-.416-.542,0-.012,0-.055,0-.127.032-2.4-.109-14.461-5.988-15.738-.638-.138-1.763.2-2.838,1.607-1.159,1.516-3,5.323-2.341,13.788a.555.555,0,0,1-.369.63c-.229.033-.434-.193-.458-.508-.7-8.953,1.324-13.078,2.594-14.739,1.294-1.694,2.678-2.1,3.542-1.909,6.56,1.424,6.725,14.319,6.692,16.889v.064c.005.309-.168.567-.394.583Z" transform="translate(-3007.259 701.332)" fill="#003459"/>
    <path id="Path_805" data-name="Path 805" d="M3873.261,3271.632h-11.229l-5.11,75.431h20.8Z" transform="translate(-3022.376 631.117)" fill="#e18ed6"/>
    <path id="Path_806" data-name="Path 806" d="M3936.836,3204.9c-.22,0-.4-.236-.415-.542,0-.012,0-.056,0-.127.031-2.4-.11-14.461-5.989-15.737-.638-.14-1.763.2-2.838,1.606-1.159,1.516-3,5.324-2.341,13.788a.555.555,0,0,1-.369.63c-.229.033-.434-.194-.458-.508-.7-8.954,1.325-13.078,2.594-14.74,1.293-1.693,2.678-2.1,3.542-1.909,6.561,1.425,6.726,14.32,6.692,16.89v.064c0,.308-.168.567-.394.583Z" transform="translate(-3078.472 701.332)" fill="#003459"/>
    <path id="Path_807" data-name="Path 807" d="M3871.607,3271.632l-4.524,75.431h18.353l-2.217-75.431Z" transform="translate(-3030.839 631.117)" fill="#ff64d0"/>
    <path id="Path_808" data-name="Path 808" d="M3977.426,3271.632l-.592,75.431h30.131l-4.457-75.431Z" transform="translate(-3122.236 631.117)" fill="#8524d9"/>
    <path id="Path_809" data-name="Path 809" d="M3929.879,3271.632l-3.114,66.161,8.373,9.27.592-75.431Z" transform="translate(-3080.54 631.117)" fill="#e13fb0"/>
    <path id="Path_810" data-name="Path 810" d="M3877.063,3667.269l-9.98,9.271h18.353Z" transform="translate(-3030.839 301.64)" fill="#e13fb0"/>
    <path id="Path_811" data-name="Path 811" d="M4027.049,3204.9c-.22,0-.4-.237-.416-.542,0-.012,0-.055,0-.127.032-2.4-.109-14.461-5.99-15.738-.637-.138-1.763.2-2.837,1.607-1.159,1.516-3,5.323-2.341,13.788a.555.555,0,0,1-.369.63c-.229.033-.434-.193-.458-.508-.7-8.953,1.324-13.078,2.594-14.739,1.294-1.694,2.678-2.1,3.542-1.909,6.561,1.424,6.726,14.319,6.692,16.889v.064c.005.309-.169.567-.394.583Z" transform="translate(-3153.6 701.332)" fill="#003459"/>
    <path id="Path_812" data-name="Path 812" d="M4055.925,3271.921h-10.4l-4.3,75.43h19.151Z" transform="translate(-3175.865 630.876)" fill="#690abb"/>
    <path id="Path_813" data-name="Path 813" d="M4115.04,3204.9c-.22,0-.4-.236-.415-.542,0-.012,0-.056,0-.127.031-2.4-.11-14.461-5.99-15.737-.637-.14-1.763.2-2.837,1.606-1.159,1.516-3,5.324-2.341,13.788a.557.557,0,0,1-.37.63c-.229.033-.434-.194-.459-.508-.7-8.954,1.325-13.078,2.595-14.74,1.294-1.693,2.677-2.1,3.542-1.909,6.56,1.425,6.725,14.32,6.692,16.89v.064c0,.308-.17.567-.4.583Z" transform="translate(-3226.875 701.332)" fill="#003459"/>
    <path id="Path_814" data-name="Path 814" d="M4049.909,3272.272l-4.622,75.324,18.451.107-2.216-75.431Z" transform="translate(-3179.242 630.584)" fill="#b918ab"/>
    <path id="Path_815" data-name="Path 815" d="M4156.215,3272.272l-.594,75.431h30.132l-4.458-75.431Z" transform="translate(-3271.126 630.584)" fill="#8524d9"/>
    <path id="Path_816" data-name="Path 816" d="M4108.668,3272.272l-3.115,66.16,8.373,9.271.592-75.431Z" transform="translate(-3229.43 630.584)" fill="#f25ae5"/>
    <path id="Path_817" data-name="Path 817" d="M4055.267,3667.269l-9.98,9.271h18.354Z" transform="translate(-3179.242 301.64)" fill="#f25ae5"/>
    <path id="Path_818" data-name="Path 818" d="M4190.645,3284.563c.219-.012.414.214.439.518,0,.011,0,.055.007.127.081,2.4.788,14.435,6.718,15.38.645.1,1.753-.3,2.76-1.765,1.084-1.579,2.749-5.486,1.69-13.9a.564.564,0,0,1,.339-.651c.227-.045.442.169.481.482,1.121,8.9-.708,13.135-1.9,14.866-1.212,1.764-2.576,2.245-3.448,2.106-6.618-1.053-7.388-13.922-7.476-16.49l0-.064a.535.535,0,0,1,.366-.6Z" transform="translate(-3299.968 620.597)" fill="#003459"/>
    <path id="Path_819" data-name="Path 819" d="M2790.349,3118.721s-14.331,8.6-16.911,20.637-.277,50.875-.277,50.875l-33.561,57.843,6.935,5.281s44.1-49.221,50.119-61.833c3.079-14.9,7.166-69.363,7.166-69.363Z" transform="translate(-2091.898 758.458)" fill="#220041"/>
    <path id="Path_820" data-name="Path 820" d="M3030.041,3133.71l28.813,133.489c-.521,2.043-7.015,3.588-8.256,1.9,0,0-48.8-112.323-48.771-129.809S3025.922,3121.19,3030.041,3133.71Z" transform="translate(-2310.274 753.122)" fill="#220041"/>
    <path id="Path_821" data-name="Path 821" d="M3292.509,3950.706c14.046-1.578,13.795-10.158,22.127-5.959.75,2.438-6.448,12.756-21.081,12.756A9.984,9.984,0,0,1,3292.509,3950.706Z" transform="translate(-2552.185 71.517)" fill="#09001d"/>
    <path id="Path_822" data-name="Path 822" d="M3052.382,2903.492a107.688,107.688,0,0,1-3.178,10.9c-1.673,4.844-3.4,9.007-4.945,13.841-.582,1.828-1.138,3.753-1.652,5.846,0,.024-.012.049-.017.072a40.94,40.94,0,0,1-23.5-4.836c.287-1.924.519-3.782.708-5.576,2.171-20.6-1.225-32.706,10.579-39.342,6.558,1.693,8.461,2.649,15.015,4.281C3048.014,2892.239,3051.983,2898.5,3052.382,2903.492Z" transform="translate(-2324.648 953.594)" fill="#575988"/>
    <path id="Path_823" data-name="Path 823" d="M3101.6,2810.031c-.055-.4,2.119-16.211,2.119-16.211l-10.77-3.865-6.365,15.795C3091.608,2807.093,3096.6,2808.552,3101.6,2810.031Z" transform="translate(-2380.855 1032.245)" fill="#ffb1a3"/>
    <path id="Path_824" data-name="Path 824" d="M2978.8,3149.951c-14.059,10.439-43.529,1.565-43.529,1.565-3.033-18.01,14.426-31.851,14.426-31.851h0l18.79,3.45,5.675,1.044.041.007,2.241,12.571Z" transform="translate(-2254.555 757.671)" fill="#575988"/>
    <path id="Path_825" data-name="Path 825" d="M3068.507,3012.849l2.241,12.572c-5.192-8.886-17.247-29.53-22.593-38.68,9.587-3.2,18.773,4.44,25.257,12.26-1.674,4.844-3.4,9.007-4.946,13.841Z" transform="translate(-2348.855 868.989)" fill="#373965"/>
    <g id="Group_602" data-name="Group 602" transform="translate(694.756 3794.996)">
      <path id="Path_826" data-name="Path 826" d="M3107.352,2687.38c-7.48,2.523-18.19-6.56-19.363-15.517s4.221-17.051,12.047-18.074a11.976,11.976,0,0,1,10.188,3.354,17.69,17.69,0,0,1,4.823,10.483q.119.89.174,1.78C3115.779,2677.735,3112.6,2685.611,3107.352,2687.38Z" transform="translate(-3076.651 -2649.258)" fill="#20065e"/>
      <path id="Path_827" data-name="Path 827" d="M3112.7,2678.431a14.806,14.806,0,0,0,2.236,1.7c.616.27,1.246.505,1.885.716,1.01.23,2.035.408,3.061.55a37.337,37.337,0,0,0,9.073.123,42.549,42.549,0,0,0,6.1-1.109v0a17.69,17.69,0,0,0-4.823-10.483c-2.843-.88-5.708-1.189-7.617-.6-5.4,1.673-11.407,5.407-10.7,8.856A.91.91,0,0,1,3112.7,2678.431Z" transform="translate(-3096.658 -2662.042)" fill="#20065e"/>
      <path id="Path_828" data-name="Path 828" d="M3038.483,2627.682c8.708-1.511,16.625,1.119,20.639,8.279,6.321,11.273-21.372,9.211-21.372,9.211s-5.4,15.181,9.289,22.327c0,0-16.044,5.008-22.961-4.532C3016.262,2642.753,3024.078,2630.181,3038.483,2627.682Z" transform="translate(-3020.987 -2627.271)" fill="#20065e"/>
      <ellipse id="Ellipse_169" data-name="Ellipse 169" cx="3.558" cy="3.08" rx="3.558" ry="3.08" transform="translate(12.312 27.092) rotate(-87.938)" fill="#20065e"/>
    </g>
    <path id="Path_829" data-name="Path 829" d="M3427.253,3142.727l-7.124,3.124c-.95,5.346,9.986,8.786,11.4,3.758C3432.617,3145.761,3427.253,3142.727,3427.253,3142.727Z" transform="translate(-2658.578 738.466)" fill="#ffb1a3"/>
    <path id="Path_830" data-name="Path 830" d="M3418.662,3177.56s1.341,2.823,3.6,3.328c1.352.3,4.862,1.208,4.109-2.4C3425.3,3173.355,3419.451,3175.6,3418.662,3177.56Z" transform="translate(-2657.404 711.305)" fill="#ffb1a3"/>
    <g id="Group_609" data-name="Group 609" transform="translate(764.949 3885.117)">
      <g id="Group_603" data-name="Group 603" transform="translate(38.7 120.767)">
        <circle id="Ellipse_170" data-name="Ellipse 170" cx="9.855" cy="9.855" r="9.855" transform="translate(0.313 8.389) rotate(-22.5)" fill="#f8bdf0"/>
        <circle id="Ellipse_171" data-name="Ellipse 171" cx="5.951" cy="5.951" r="5.951" transform="translate(6.362 18.643) rotate(-80.783)" fill="#f8bdf0"/>
        <path id="Path_831" data-name="Path 831" d="M3686.472,3900.035l-5.923-2.951v-8.7h-8.385V3898.4l11.838,5.918C3687.7,3905.634,3689.345,3901.359,3686.472,3900.035Z" transform="translate(-3672.164 -3888.382)" fill="#f8bdf0"/>
      </g>
      <g id="Group_604" data-name="Group 604" transform="translate(127.021 120.552)">
        <circle id="Ellipse_172" data-name="Ellipse 172" cx="9.855" cy="9.855" r="9.855" transform="translate(0 13.938) rotate(-45)" fill="#f8bdf0"/>
        <circle id="Ellipse_173" data-name="Ellipse 173" cx="5.951" cy="5.951" r="5.951" transform="translate(7.11 18.859) rotate(-80.783)" fill="#f8bdf0"/>
        <path id="Path_832" data-name="Path 832" d="M4219.1,3900.035l-5.922-2.951v-8.7H4204.8V3898.4l11.837,5.918C4220.333,3905.634,4221.976,3901.359,4219.1,3900.035Z" transform="translate(-4204.047 -3888.167)" fill="#f8bdf0"/>
      </g>
      <g id="Group_608" data-name="Group 608" transform="translate(0 0)">
        <circle id="Ellipse_174" data-name="Ellipse 174" cx="3.654" cy="3.654" r="3.654" transform="translate(0 7.112) rotate(-76.717)" fill="#f8bdf0"/>
        <g id="Group_607" data-name="Group 607" transform="translate(32.445 26.055)">
          <g id="Group_605" data-name="Group 605">
            <path id="Path_833" data-name="Path 833" d="M3754.216,3390.706l-118.864-.054c-.359,0-.59-.155-.59-.394l.24-67.269a.932.932,0,0,1,.475-.665,1.807,1.807,0,0,1,.972-.321l135.121.458c.433,0,.676.2.6.5l-16.408,66.862a1.118,1.118,0,0,1-.565.608,2.2,2.2,0,0,1-.619.235A1.778,1.778,0,0,1,3754.216,3390.706ZM3637,3323.38l-.258,65.955,117.052-.015,16.015-65.408Z" transform="translate(-3634.762 -3322.003)" fill="#f8bdf0"/>
            <path id="Path_834" data-name="Path 834" d="M3769.673,3457.265l.606-.858-129.628-1.076-.526.813Z" transform="translate(-3639.228 -3433.035)" fill="#f8bdf0"/>
            <path id="Path_835" data-name="Path 835" d="M3763.733,3593.99l.583-.845-124.141-.912-.508.8Z" transform="translate(-3638.847 -3547.045)" fill="#f8bdf0"/>
          </g>
          <g id="Group_606" data-name="Group 606" transform="translate(9.807 0.503)">
            <path id="Path_836" data-name="Path 836" d="M4286.338,3394.773a.5.5,0,0,0,.375-.268l16.4-66.874c.03-.122-.1-.188-.3-.148a.538.538,0,0,0-.408.292l-16.386,66.85c-.028.117.1.186.294.152Z" transform="translate(-4186.919 -3327.061)" fill="#f8bdf0"/>
            <path id="Path_837" data-name="Path 837" d="M4227.354,3394.567a.485.485,0,0,0,.372-.269l14.913-66.914c.026-.121-.109-.185-.3-.144a.533.533,0,0,0-.4.292l-14.9,66.891c-.026.116.106.182.3.148Z" transform="translate(-4137.799 -3326.857)" fill="#f8bdf0"/>
            <path id="Path_838" data-name="Path 838" d="M4168.307,3394.362c.183-.04.346-.159.368-.271l13.42-66.954c.023-.12-.113-.181-.307-.139a.514.514,0,0,0-.392.293l-13.4,66.931c-.023.116.111.18.3.144Z" transform="translate(-4088.629 -3326.653)" fill="#f8bdf0"/>
            <path id="Path_839" data-name="Path 839" d="M4109.2,3394.153c.182-.039.345-.16.365-.272l11.923-67c.021-.118-.117-.178-.309-.135a.5.5,0,0,0-.384.293l-11.908,66.972c-.02.114.114.177.3.14Z" transform="translate(-4039.407 -3326.448)" fill="#f8bdf0"/>
            <path id="Path_840" data-name="Path 840" d="M4050.029,3393.947c.185-.04.346-.162.363-.274l10.423-67.036c.018-.117-.121-.175-.311-.13s-.358.177-.375.294l-10.41,67.012c-.017.114.119.174.3.136Z" transform="translate(-3990.134 -3326.244)" fill="#f8bdf0"/>
            <path id="Path_841" data-name="Path 841" d="M3990.8,3393.739c.185-.04.345-.163.36-.275l8.919-67.076c.015-.116-.125-.172-.312-.126h0c-.187.047-.352.178-.367.293l-8.907,67.053c-.015.112.122.171.307.131Z" transform="translate(-3940.81 -3326.04)" fill="#f8bdf0"/>
            <path id="Path_842" data-name="Path 842" d="M3931.5,3393.533h0c.183-.042.341-.165.354-.277l7.412-67.117c.012-.114-.126-.168-.311-.122h0c-.186.048-.347.18-.36.294l-7.4,67.093C3931.185,3393.516,3931.321,3393.573,3931.5,3393.533Z" transform="translate(-3891.432 -3325.836)" fill="#f8bdf0"/>
            <path id="Path_843" data-name="Path 843" d="M3872.147,3393.326h.007c.182-.042.336-.167.346-.277l5.9-67.157c.011-.114-.123-.166-.315-.117s-.341.18-.352.294l-5.891,67.134C3871.835,3393.31,3871.97,3393.365,3872.147,3393.326Z" transform="translate(-3842.006 -3325.631)" fill="#f8bdf0"/>
            <path id="Path_844" data-name="Path 844" d="M3812.73,3393.115h.011c.18-.044.331-.168.338-.277l4.389-67.2c.007-.113-.14-.163-.317-.113s-.336.182-.344.294l-4.378,67.175C3812.422,3393.1,3812.555,3393.154,3812.73,3393.115Z" transform="translate(-3792.525 -3325.423)" fill="#f8bdf0"/>
            <path id="Path_845" data-name="Path 845" d="M3753.249,3392.9l.015,0c.179-.044.327-.168.332-.277l2.872-67.239c0-.111-.137-.162-.319-.108s-.331.182-.335.294l-2.863,67.215C3752.946,3392.889,3753.078,3392.941,3753.249,3392.9Z" transform="translate(-3742.993 -3325.213)" fill="#f8bdf0"/>
            <path id="Path_846" data-name="Path 846" d="M3693.707,3392.7l.02,0c.177-.046.322-.17.324-.278l1.351-67.279c0-.11-.142-.157-.32-.1s-.325.184-.327.293l-1.343,67.257C3693.408,3392.687,3693.539,3392.737,3693.707,3392.7Z" transform="translate(-3693.411 -3325.012)" fill="#f8bdf0"/>
          </g>
        </g>
        <path id="Path_847" data-name="Path 847" d="M3700.976,3755.811H3589.912a13.31,13.31,0,1,1,0-26.62h116.279a1.417,1.417,0,1,1,0,2.834H3589.912a10.476,10.476,0,1,0,0,20.952h111.064a1.417,1.417,0,1,1,0,2.834Z" transform="translate(-3553.882 -3635.044)" fill="#f8bdf0"/>
        <path id="Path_848" data-name="Path 848" d="M3488.017,3278.556a1.418,1.418,0,0,1-1.417-1.417v-83.668a6.641,6.641,0,0,0-6.633-6.634h-20a1.417,1.417,0,0,1,0-2.834h20a9.479,9.479,0,0,1,9.468,9.468v83.668A1.418,1.418,0,0,1,3488.017,3278.556Z" transform="translate(-3455.572 -3181.025)" fill="#f8bdf0"/>
      </g>
    </g>
    <path id="Path_849" data-name="Path 849" d="M3020.178,2957.722l-.477-.077c.077-.477,7.566-47.73-3.946-51.643-2.755-.936-5.04-.787-6.986.456-6,3.833-7.439,17.258-8.828,30.241a142,142,0,0,1-2.421,16.8l-.469-.113a141.661,141.661,0,0,0,2.41-16.743c1.4-13.1,2.851-26.638,9.049-30.6,2.05-1.309,4.54-1.479,7.4-.506,5.022,1.707,7.262,11.027,6.656,27.7A228.451,228.451,0,0,1,3020.178,2957.722Z" transform="translate(-2306.297 936.503)" fill="#8a5046"/>
    <g id="Group_610" data-name="Group 610" transform="translate(686.104 3889.663)">
      <path id="Path_850" data-name="Path 850" d="M2995.813,3214.222c-4.333,2.525-23.919-.91-26.564-4.657a37.624,37.624,0,0,1,4.64-16.023,58.564,58.564,0,0,1,23.011,4.034A35.527,35.527,0,0,1,2995.813,3214.222Z" transform="translate(-2969.248 -3193.494)" fill="#ba6b5d"/>
      <path id="Path_851" data-name="Path 851" d="M2997,3193.428s-.091,9.444,10.583,11.249,12.428-7.215,12.428-7.215A57.281,57.281,0,0,0,2997,3193.428Z" transform="translate(-2992.357 -3193.381)" fill="#e88574"/>
      <path id="Path_852" data-name="Path 852" d="M3048.436,3250.449h0a1.059,1.059,0,0,1-.858-1.223l.661-3.771a1.059,1.059,0,0,1,1.223-.858h0a1.059,1.059,0,0,1,.858,1.223l-.661,3.771A1.059,1.059,0,0,1,3048.436,3250.449Z" transform="translate(-3034.466 -3236.019)" fill="#ffd690"/>
    </g>
    <g id="Group_611" data-name="Group 611" transform="translate(698.893 3843.449)">
      <path id="Path_853" data-name="Path 853" d="M3399.637,3149.56l-9.751-3.177-1.913,7.859c5.347.74,9.181,1.259,9.181,1.259C3403.512,3156.37,3403.512,3150.985,3399.637,3149.56Z" transform="translate(-3330.74 -3108.028)" fill="#575988"/>
      <path id="Path_854" data-name="Path 854" d="M3078.363,2946.739l-16.706-25.954c-9.617-10.352-19.753,3.121-14.492,10.592,0,0,17.913,25.864,23.913,27.116,4.016.838,21.052,3.242,31.879,4.74l1.913-7.859Z" transform="translate(-3045.724 -2917.018)" fill="#575988"/>
    </g>
    <path id="Path_855" data-name="Path 855" d="M1404.683,1583.907c3.327-19.707,33.676-28.6,33.081-15.742l139.125.814c9.636.057,17.45,8.726,17.458,19.373l.288,365.9c.009,11.03-7.941,20.048-17.762,20.132l-142.025,1.219a11.367,11.367,0,0,1-5.131,4.942c-16.288.347-24.1-7.7-26.954-16.79a21.9,21.9,0,0,1-1.412-7.982C1401.921,1951.009,1403.653,1588.529,1404.683,1583.907Z" transform="translate(-977.438 2054.737)" fill="#2f2e41"/>
    <path id="Path_856" data-name="Path 856" d="M1488.354,1980.861l163.024-1.051c10.173-.065,18.4-9.328,18.383-20.677l-.612-376.294c-.018-10.944-8.116-19.834-18.092-19.866l-159.857-.519c-10.055-.032-18.278,8.845-18.363,19.838l-2.9,378.034C1469.853,1971.728,1478.1,1980.927,1488.354,1980.861Z" transform="translate(-1034.557 2054.479)" fill="#2f2e41"/>
    <path id="Path_857" data-name="Path 857" d="M1497.729,1990.619a14.649,14.649,0,0,0,2.059.129l162.974-1.233c8.742-.066,15.886-8.186,15.871-18.092l-.563-375.882c-.014-9.554-7.046-17.351-15.621-17.388l-159.846-.7c-.25,0-.5,0-.751.016a15.125,15.125,0,0,0-10.591,5.155,18.068,18.068,0,0,0-4.5,11.967l-2.859,378.417C1483.832,1981.981,1489.757,1989.55,1497.729,1990.619Z" transform="translate(-1046.182 2041.984)" fill="#3f3d56"/>
    <path id="Path_858" data-name="Path 858" d="M1520.829,1691.316l-2.749,377.1,183.6-1.1-.468-376Z" transform="translate(-1074.646 1947.165)" fill="#fff"/>
    <path id="Path_859" data-name="Path 859" d="M1852.414,1691.321l43.535,59.127c0,.026,0,.049,0,.075-.428,11.611,24.4,11.635,25.156.026a.665.665,0,0,0,.007-.076l-42.937-59.152Z" transform="translate(-1353.071 1947.161)" fill="#ffd4cc"/>
    <path id="Path_860" data-name="Path 860" d="M2006.46,1691.324l42.937,59.152c0,.026,0,.05,0,.076-.547,11.609,24.271,11.633,25.149.026,0-.026.006-.05.008-.076l-42.34-59.177Z" transform="translate(-1481.357 1947.159)" fill="#ff64d0"/>
    <path id="Path_861" data-name="Path 861" d="M1698.335,1691.319l44.13,59.1,0,.076c0,.044,0,.089-.007.134-.385,10.807,24.513,12.121,25.174-.108,0-.026,0-.049.006-.076l-43.534-59.127Z" transform="translate(-1224.758 1947.163)" fill="#ff64d0"/>
    <path id="Path_862" data-name="Path 862" d="M1533.55,1691.316l45.718,59.076,0,.076c-.291,15.063,25.227,13.282,25.96.16,0-.044.006-.089.007-.133l0-.076-44.13-59.1Z" transform="translate(-1087.529 1947.165)" fill="#ffd4cc"/>
    <path id="Path_863" data-name="Path 863" d="M2494.063,1691.331h-25.729l41.137,59.228c0,.026,0,.05,0,.076-.9,11.6,24.761,11.627,26.006.026,0-.026.008-.05.01-.075Z" transform="translate(-1865.994 1947.153)" fill="#ffd4cc"/>
    <path id="Path_864" data-name="Path 864" d="M2160.45,1691.326l42.34,59.177a.657.657,0,0,0,0,.076c-.667,11.607,24.142,11.631,25.138.026,0-.026.006-.05.008-.076l-41.737-59.2Z" transform="translate(-1609.596 1947.157)" fill="#ffd4cc"/>
    <path id="Path_865" data-name="Path 865" d="M2314.42,1691.328l41.737,59.2a.557.557,0,0,0,0,.075c-.787,11.605,24.017,11.629,25.132.026.005-.026.007-.049.01-.076l-41.138-59.228Z" transform="translate(-1737.819 1947.155)" fill="#ff64d0"/>
    <path id="Path_866" data-name="Path 866" d="M1858.052,2045.092c-.661,12.228-25.559,10.915-25.174.107-.733,13.123-26.251,14.9-25.96-.159Z" transform="translate(-1315.181 1652.593)" opacity="0.1" style="mix-blend-mode: hard-light;isolation: isolate"/>
    <path id="Path_867" data-name="Path 867" d="M2112.716,2045.351l25.156.025C2137.115,2056.986,2112.288,2056.962,2112.716,2045.351Z" transform="translate(-1569.84 1652.334)" opacity="0.1" style="mix-blend-mode: hard-light;isolation: isolate"/>
    <path id="Path_868" data-name="Path 868" d="M2263.164,2045.505l25.148.025C2287.436,2057.137,2262.616,2057.114,2263.164,2045.505Z" transform="translate(-1695.127 1652.205)" opacity="0.1" style="mix-blend-mode: hard-light;isolation: isolate"/>
    <path id="Path_869" data-name="Path 869" d="M2413.562,2045.658l25.138.025C2437.7,2057.289,2412.895,2057.265,2413.562,2045.658Z" transform="translate(-1820.371 1652.078)" opacity="0.1" style="mix-blend-mode: hard-light;isolation: isolate"/>
    <path id="Path_870" data-name="Path 870" d="M2563.894,2045.811l25.133.026C2587.91,2057.44,2563.107,2057.416,2563.894,2045.811Z" transform="translate(-1945.559 1651.951)" opacity="0.1" style="mix-blend-mode: hard-light;isolation: isolate"/>
    <path id="Path_871" data-name="Path 871" d="M2740.2,2045.99c-1.245,11.6-26.907,11.577-26.005-.027Z" transform="translate(-2070.722 1651.823)" opacity="0.1" style="mix-blend-mode: hard-light;isolation: isolate"/>
    <path id="Path_872" data-name="Path 872" d="M1763.589,3778.157H1603.414v-6.2l160.175.024Z" transform="translate(-1145.71 214.46)" fill="#8524d9"/>
    <path id="Path_873" data-name="Path 873" d="M1763.589,3416.412l-160.175-.237v-6.2l160.175.261Z" transform="translate(-1145.71 515.909)" fill="#8524d9"/>
    <path id="Path_874" data-name="Path 874" d="M1763.589,3054.668l-160.175-.474v-6.2l160.175.5Z" transform="translate(-1145.71 817.358)" fill="#8524d9"/>
    <path id="Path_875" data-name="Path 875" d="M1763.589,2692.924l-160.175-.711v-6.2l160.175.735Z" transform="translate(-1145.71 1118.807)" fill="#8524d9"/>
    <g id="Group_658" data-name="Group 658" transform="translate(463.713 3721.639)">
      <path id="Path_876" data-name="Path 876" d="M1779.2,2206.836l-131.282-.769a8.728,8.728,0,0,1-8.572-8.788,8.6,8.6,0,0,1,8.572-8.681l131.282.864a8.659,8.659,0,0,1,8.474,8.74A8.53,8.53,0,0,1,1779.2,2206.836Zm-131.282-17.657a8.026,8.026,0,0,0-8,8.1,8.148,8.148,0,0,0,8,8.2l131.282.772a7.964,7.964,0,0,0,7.912-8.061,8.084,8.084,0,0,0-7.912-8.159Z" transform="translate(-1639.35 -2188.598)" fill="#b918ab"/>
      <path id="Path_877" data-name="Path 877" d="M2407.657,2195.041l-13.659-.09v16.806l13.659.08a8.237,8.237,0,0,0,8.193-8.347A8.362,8.362,0,0,0,2407.657,2195.041Z" transform="translate(-2267.802 -2193.889)" fill="#b918ab"/>
    </g>
    <g id="Group_618" data-name="Group 618" transform="translate(594.263 3724.895)">
      <path id="Path_878" data-name="Path 878" d="M2424.282,2216.769a4.2,4.2,0,0,1-3-1.293,4.432,4.432,0,0,1,0-6.154,4.144,4.144,0,0,1,3-1.255,4.2,4.2,0,0,1,3,1.294h0a4.432,4.432,0,0,1,0,6.152A4.145,4.145,0,0,1,2424.282,2216.769Zm0-7.651a3.14,3.14,0,0,0-2.278.952,3.362,3.362,0,0,0,0,4.669,3.182,3.182,0,0,0,2.278.981,3.142,3.142,0,0,0,2.277-.953,3.362,3.362,0,0,0,0-4.668A3.182,3.182,0,0,0,2424.282,2209.117Z" transform="translate(-2420.037 -2208.067)" fill="#fff"/>
      <path id="Path_879" data-name="Path 879" d="M2462.262,2252.236l-3.218-3.346.724-.738,3.218,3.346Z" transform="translate(-2452.521 -2241.449)" fill="#fff"/>
      <path id="Path_880" data-name="Path 880" d="M2466.961,2256.5h0a.906.906,0,0,1-1.3-.007l-2.7-2.779,1.3-1.328,2.7,2.779A.96.96,0,0,1,2466.961,2256.5Z" transform="translate(-2455.783 -2244.973)" fill="#fff"/>
    </g>
    <g id="Group_659" data-name="Group 659" transform="translate(463.713 3753.669)">
      <path id="Path_881" data-name="Path 881" d="M1684.274,2426.235l-44.925-.212V2380.14l44.925.262Z" transform="translate(-1639.349 -2380.14)" fill="#ff64d0"/>
      <path id="Path_882" data-name="Path 882" d="M1997.528,2428.008l-44.81-.212v-45.824l44.81.262Z" transform="translate(-1900.316 -2381.665)" fill="#ff64d0"/>
      <path id="Path_883" data-name="Path 883" d="M2303,2429.735l-44.7-.211v-45.767l44.7.261Z" transform="translate(-2154.797 -2383.152)" fill="#ff64d0"/>
      <path id="Path_884" data-name="Path 884" d="M1684.274,2794.516l-44.925-.145v-45.883l44.925.195Z" transform="translate(-1639.349 -2686.892)" fill="#ff64d0"/>
      <path id="Path_885" data-name="Path 885" d="M1997.528,2795.815l-44.81-.143v-45.824l44.81.194Z" transform="translate(-1900.316 -2688.023)" fill="#ff64d0"/>
      <path id="Path_886" data-name="Path 886" d="M2303,2797.084l-44.7-.144v-45.767l44.7.194Z" transform="translate(-2154.797 -2689.127)" fill="#ff64d0"/>
      <path id="Path_887" data-name="Path 887" d="M1684.274,3156.377l-44.925-.078v-45.883l44.925.128Z" transform="translate(-1639.349 -2988.296)" fill="#ff64d0"/>
      <path id="Path_888" data-name="Path 888" d="M1997.528,3157.214l-44.81-.078v-45.824l44.81.128Z" transform="translate(-1900.316 -2989.042)" fill="#ff64d0"/>
      <path id="Path_889" data-name="Path 889" d="M2303,3158.03l-44.7-.078v-45.767l44.7.127Z" transform="translate(-2154.797 -2989.769)" fill="#ff64d0"/>
      <path id="Path_890" data-name="Path 890" d="M1684.274,3518.239l-44.925-.011v-45.883l44.925.062Z" transform="translate(-1639.349 -3289.701)" fill="#ff64d0"/>
      <path id="Path_891" data-name="Path 891" d="M1997.528,3518.612l-44.81-.011v-45.824l44.81.062Z" transform="translate(-1900.316 -3290.06)" fill="#ff64d0"/>
      <path id="Path_892" data-name="Path 892" d="M2303,3518.976l-44.7-.012V3473.2l44.7.062Z" transform="translate(-2154.797 -3290.411)" fill="#ff64d0"/>
    </g>
    <path id="Union_4" data-name="Union 4" d="M23.4,28.541a1.393,1.393,0,0,1-.184-.029l-2.918-.651,2.2-10.483,2.917.652a1.46,1.46,0,0,1,.163.046,1.6,1.6,0,0,1,1.068,1.6,46.637,46.637,0,0,0,.814-5.432,11.932,11.932,0,0,0-3.08-8.914A14.276,14.276,0,0,0,13.948,1.066,13.157,13.157,0,0,0,4.053,4.931,12.113,12.113,0,0,0,1.069,14.1c.066,1.2.353,3.154.668,5.04a1.574,1.574,0,0,1,1.091-1.266,1.222,1.222,0,0,1,.163-.04l2.935-.547,1.941,10.56L4.932,28.4a1.6,1.6,0,0,1-.185.022l-.1,0a1.578,1.578,0,0,1-1.54-1.306l-.49-2.667-.939.191c-.06-.3-1.49-7.49-1.654-10.484A13.16,13.16,0,0,1,3.293,4.194,14.174,14.174,0,0,1,13.948,0,15.308,15.308,0,0,1,25.129,4.6,12.989,12.989,0,0,1,28.5,14.3,92.042,92.042,0,0,1,26.56,25.112l-.977-.3-.52,2.485a1.559,1.559,0,0,1-1.514,1.25C23.5,28.548,23.447,28.546,23.4,28.541Z" transform="translate(471.926 3763.296)" fill="#8524d9" stroke="rgba(0,0,0,0)" stroke-miterlimit="10" stroke-width="1"/>
    <g id="Group_621" data-name="Group 621" transform="translate(476.861 3779.308)">
      <path id="Path_896" data-name="Path 896" d="M1721.683,2546.341h0a1.663,1.663,0,0,1-1.927-1.355l-1.752-9.54a1.674,1.674,0,0,1,1.318-1.961h0a1.664,1.664,0,0,1,1.928,1.356l1.752,9.538A1.675,1.675,0,0,1,1721.683,2546.341Z" transform="translate(-1717.975 -2533.458)" fill="#f8bdf0"/>
    </g>
    <g id="Group_624" data-name="Group 624" transform="translate(490.111 3779.37)">
      <path id="Path_899" data-name="Path 899" d="M1798.514,2546.629h0a1.642,1.642,0,0,0,1.958-1.286l1.985-9.469a1.7,1.7,0,0,0-1.269-2.006h0a1.642,1.642,0,0,0-1.959,1.285l-1.985,9.469A1.694,1.694,0,0,0,1798.514,2546.629Z" transform="translate(-1797.208 -2533.829)" fill="#f8bdf0"/>
    </g>
    <path id="Path_900" data-name="Path 900" d="M2019.558,2479.822l-1.055,1.92-19.237-.1v16.825l29.256.146V2482l-1.158-2.134Z" transform="translate(-1475.367 1290.516)" fill="#f8bdf0"/>
    <path id="Path_901" data-name="Path 901" d="M2073.347,2482.338l-6.746-.036v-2.773l6.746.037Z" transform="translate(-1531.442 1290.761)" fill="#f8bdf0"/>
    <path id="Path_902" data-name="Path 902" d="M2019.546,2482.045l-6.748-.036v-2.774l6.748.037Z" transform="translate(-1486.635 1291.006)" fill="#f8bdf0"/>
    <path id="Path_903" data-name="Path 903" d="M2028.523,2523.582l-29.256-.148v-9.71l29.256.155Z" transform="translate(-1475.367 1262.284)" fill="#8524d9"/>
    <path id="Path_904" data-name="Path 904" d="M2095.263,2509.289a6.74,6.74,0,0,1-6.705,6.82,6.824,6.824,0,0,1-6.707-6.89,6.74,6.74,0,0,1,6.707-6.82A6.825,6.825,0,0,1,2095.263,2509.289Z" transform="translate(-1544.141 1271.716)" fill="#8524d9"/>
    <path id="Path_905" data-name="Path 905" d="M2101.263,2516.952a5.225,5.225,0,0,1-5.2,5.288,5.29,5.29,0,0,1-5.2-5.341,5.225,5.225,0,0,1,5.2-5.288A5.292,5.292,0,0,1,2101.263,2516.952Z" transform="translate(-1551.647 1264.044)" fill="#f8bdf0"/>
    <path id="Path_906" data-name="Path 906" d="M2112.063,2530.747a2.5,2.5,0,0,1-2.486,2.529,2.53,2.53,0,0,1-2.487-2.555,2.5,2.5,0,0,1,2.487-2.529A2.53,2.53,0,0,1,2112.063,2530.747Z" transform="translate(-1565.159 1250.235)" fill="#8524d9"/>
    <g id="Group_628" data-name="Group 628" transform="translate(472.012 3889.045)">
      <path id="Path_907" data-name="Path 907" d="M1720.538,3212.818c-.229-4.616-10.554-7.523-10.554-7.523s-9.45-10.4-13.4-15.613c-6.728,2.624-8.332,5.876-7.329,11.539,3.279-2.784,8.872,2.334,15.671,11.567Z" transform="translate(-1688.979 -3189.682)" fill="#8524d9"/>
      <path id="Path_908" data-name="Path 908" d="M1690.614,3250.873l2.243,12.034,1.082,0c.3-5.416.975-11.554,4.559-9.59C1698.5,3248.49,1690.614,3248.471,1690.614,3250.873Z" transform="translate(-1690.34 -3239.334)" fill="#8524d9"/>
    </g>
    <g id="Group_629" data-name="Group 629" transform="translate(473.904 3820.591)">
      <path id="Path_909" data-name="Path 909" d="M1743.7,2782.225a8.152,8.152,0,0,1-.393-1.867l-.5,0a7,7,0,0,1-.226,1.5,2.962,2.962,0,0,1-2.515,2.37,2.994,2.994,0,0,1-2.515-2.391,7.016,7.016,0,0,1-.226-1.5l-.5,0a8.094,8.094,0,0,1-.393,1.864,9.774,9.774,0,0,1-2.4,3.73l.8,7.523,5.016.02h.438l5.015.02.8-7.514A9.889,9.889,0,0,1,1743.7,2782.225Z" transform="translate(-1728.383 -2780.331)" fill="#f8bdf0"/>
      <path id="Path_910" data-name="Path 910" d="M1723.64,2878.511c-2.23,2.284-20.572,2.452-23.348-.08,1.252-7.114,2.891-13.987,6.439-19.669l10.475.041C1720.379,2863.731,1722.191,2870.832,1723.64,2878.511Z" transform="translate(-1700.292 -2845.646)" fill="#f8bdf0"/>
    </g>
    <path id="Path_911" data-name="Path 911" d="M1743.765,2858.768c-4.242-.016-6.25-1.832-6.333-1.909a.162.162,0,0,1-.011-.225.154.154,0,0,1,.22-.011c.02.018,2.012,1.81,6.124,1.826h.006c3.661.012,4.166-1.494,4.171-1.509a.155.155,0,0,1,.194-.105.16.16,0,0,1,.105.2c-.02.072-.545,1.749-4.471,1.736Z" transform="translate(-1257.274 976.761)" fill="#8524d9"/>
    <path id="Path_912" data-name="Path 912" d="M1770.4,2869.6a.437.437,0,0,1-.34-.194c-.766-.959,1.145-2.766,1.365-2.969l.343-.315-.084.464c-.12.663-.561,2.839-1.193,3A.386.386,0,0,1,1770.4,2869.6Zm.875-2.566c-.593.635-1.373,1.67-.973,2.171.031.039.075.084.111.074C1770.676,2869.212,1771.036,2868.141,1771.277,2867.034Z" transform="translate(-1284.34 968.816)" fill="#8524d9"/>
    <path id="Path_913" data-name="Path 913" d="M1778.762,2852.426l.009-.391c0-.1.063-2.343.926-3.094a.964.964,0,0,1,.793-.24.557.557,0,0,1,.51.366c.268.823-1.588,2.716-1.963,3.088Zm1.586-3.417a.661.661,0,0,0-.448.175,4.247,4.247,0,0,0-.791,2.442c.784-.828,1.735-2.025,1.594-2.46-.01-.029-.039-.12-.254-.15A.8.8,0,0,0,1780.348,2849.009Z" transform="translate(-1291.736 983.332)" fill="#8524d9"/>
    <path id="Path_914" data-name="Path 914" d="M1781.939,2870.644a.155.155,0,0,1-.141-.09,4.906,4.906,0,0,0-2.867-2.475.16.16,0,0,1-.112-.195.156.156,0,0,1,.191-.114,5.151,5.151,0,0,1,3.069,2.644.161.161,0,0,1-.072.213A.155.155,0,0,1,1781.939,2870.644Z" transform="translate(-1291.78 967.447)" fill="#8524d9"/>
    <g id="Group_631" data-name="Group 631" transform="translate(529.199 3946.475)">
      <path id="Path_915" data-name="Path 915" d="M2056.611,3535.261a9.337,9.337,0,0,1-.45-2.139h-.575a7.979,7.979,0,0,1-.259,1.721,2.885,2.885,0,0,1-5.762-.006,7.994,7.994,0,0,1-.259-1.722h-.575a9.321,9.321,0,0,1-.45,2.139,11.264,11.264,0,0,1-2.749,4.287l.917,8.625,5.746,0h.5l5.744,0,.917-8.621A11.292,11.292,0,0,1,2056.611,3535.261Z" transform="translate(-2043.094 -3533.114)" fill="#f8bdf0"/>
      <path id="Path_916" data-name="Path 916" d="M2049.619,3629.954a35.587,35.587,0,0,0-3.313-6.832l-12-.008a40.351,40.351,0,0,0-3.352,6.83C2033.638,3632.742,2047.219,3633.212,2049.619,3629.954Z" transform="translate(-2030.955 -3608.064)" fill="#f8bdf0"/>
    </g>
    <path id="Path_917" data-name="Path 917" d="M2056.688,3623.1c-4.859,0-7.159-2.079-7.255-2.167a.186.186,0,0,1-.012-.258.176.176,0,0,1,.252-.013c.022.021,2.305,2.069,7.016,2.072h.006c4.194,0,4.773-1.728,4.778-1.745a.178.178,0,0,1,.223-.121.182.182,0,0,1,.12.225c-.023.082-.624,2.008-5.12,2.007Z" transform="translate(-1517.096 340.492)" fill="#8524d9"/>
    <path id="Path_918" data-name="Path 918" d="M2087.2,3635.4a.5.5,0,0,1-.39-.221c-.877-1.1,1.311-3.177,1.564-3.41l.392-.363-.1.533c-.138.761-.643,3.258-1.366,3.448A.428.428,0,0,1,2087.2,3635.4Zm1-2.945c-.68.729-1.573,1.92-1.115,2.493.036.044.086.1.127.084C2087.515,3634.952,2087.928,3633.722,2088.2,3632.452Z" transform="translate(-1548.1 331.508)" fill="#8524d9"/>
    <path id="Path_919" data-name="Path 919" d="M2096.778,3615.675l.011-.448c0-.109.072-2.687,1.06-3.552a1.108,1.108,0,0,1,.908-.28.637.637,0,0,1,.584.419c.306.942-1.82,3.121-2.249,3.549Zm1.816-3.924a.755.755,0,0,0-.512.2c-.634.554-.84,2.035-.907,2.8.9-.953,1.988-2.329,1.826-2.828-.011-.034-.045-.138-.292-.171A.852.852,0,0,0,2098.594,3611.751Z" transform="translate(-1556.571 348.179)" fill="#8524d9"/>
    <path id="Path_920" data-name="Path 920" d="M2100.417,3636.585a.179.179,0,0,1-.161-.1,5.59,5.59,0,0,0-3.284-2.828.184.184,0,0,1-.128-.224.18.18,0,0,1,.219-.131,5.879,5.879,0,0,1,3.515,3.022.184.184,0,0,1-.082.244A.174.174,0,0,1,2100.417,3636.585Z" transform="translate(-1556.622 329.934)" fill="#8524d9"/>
    <path id="Path_921" data-name="Path 921" d="M2055.141,2820.6a14.78,14.78,0,0,0,7.767-.128c2.956,3.653-2.251,5.4-5.5,4.6S2055.141,2820.6,2055.141,2820.6Z" transform="translate(-1521.781 1006.834)" fill="#cbe4fb"/>
    <path id="Path_922" data-name="Path 922" d="M2041.77,2820.47a3.748,3.748,0,0,1-1.712,2.422c-2.212,1.3-5.068-.094-6.055-2.294a21.161,21.161,0,0,0-4.385.977v25.2l17.4.059v-25.189A20.244,20.244,0,0,0,2041.77,2820.47Z" transform="translate(-1500.643 1006.834)" fill="#8524d9"/>
    <path id="Path_923" data-name="Path 923" d="M1992.278,2827.074l-7.5,5.9,4.931,6.606,7.34-5.564Z" transform="translate(-1463.303 1001.334)" fill="#8524d9"/>
    <path id="Path_924" data-name="Path 924" d="M2110.257,2827.494l7.5,5.959-4.925,6.564-7.342-5.617Z" transform="translate(-1563.825 1000.984)" fill="#8524d9"/>
    <path id="Path_925" data-name="Path 925" d="M2290.723,2935.141h-.346v1.5s18.732,1.361,26.105.09,7.875-3.751,7.875-3.751v-1.542h-.253Z" transform="translate(-1717.796 914.423)" fill="#8524d9"/>
    <path id="Path_926" data-name="Path 926" d="M2325.479,2883.239c-1.931,2.553-7.784,3.318-15.11,3.414-3.017.046-6.283-.027-9.628-.135-2.845-.1-5.751-.213-8.6-.3-.282-2.141.461-6.125,1.046-8.32a8.715,8.715,0,0,1,.476-1.449l.109-.04a6.654,6.654,0,0,0,4.79,2.148c2.32-.047,4.931-1.666,4.183-3.621a5.419,5.419,0,0,1-.282-.727c-.595-1.944,1.036-1.953,3.479-.433a28.788,28.788,0,0,0,11.285,4.255c.644.1,1.253.187,1.833.26C2323.419,2878.853,2325.87,2878.877,2325.479,2883.239Z" transform="translate(-1719.212 963.35)" fill="#f8bdf0"/>
    <path id="Path_927" data-name="Path 927" d="M2414.635,2911.143c-1.931,2.553-7.784,3.318-15.11,3.414-.213-1.076-.4-3.906,3.374-4.6a7.79,7.79,0,0,0,5.314-3.767C2412.576,2906.757,2415.026,2906.781,2414.635,2911.143Z" transform="translate(-1808.613 935.446)" fill="#8524d9"/>
    <path id="Path_928" data-name="Path 928" d="M2299.272,2912.454c-2.845-.1-5.75-.213-8.6-.3-.283-2.142.461-6.126,1.046-8.32A10.883,10.883,0,0,1,2299.272,2912.454Z" transform="translate(-1717.989 937.413)" fill="#8524d9"/>
    <path id="Path_929" data-name="Path 929" d="M2368.322,2878.029a2.278,2.278,0,0,1-2.234.9c-7.407-.52-11.163-3.469-12.531-4.728-.594-1.944,1.036-1.953,3.479-.433A28.785,28.785,0,0,0,2368.322,2878.029Z" transform="translate(-1770.309 963.35)" fill="#8524d9"/>
    <path id="Path_930" data-name="Path 930" d="M2306.881,2934.867c-3.8-.013-7.6-.228-10.71-.4a51.008,51.008,0,0,0-5.773-.171l-.143.017-.034-.292.142-.017a50.642,50.642,0,0,1,5.822.169c8.7.491,24.88,1.406,27.663-3.8l.069-.128.251.141-.069.128C2322.183,2934.1,2314.539,2934.894,2306.881,2934.867Z" transform="translate(-1717.667 915.416)" fill="#d5e9fb"/>
    <path id="Path_931" data-name="Path 931" d="M2375.665,2465.541l-9.416-.046v-29.3l9.416.053Z" transform="translate(-1780.98 1326.849)" fill="#8524d9"/>
    <path id="Path_932" data-name="Path 932" d="M2358.872,2478.919a8.371,8.371,0,0,1-8.324,8.476,8.479,8.479,0,0,1-8.328-8.564,8.372,8.372,0,0,1,8.328-8.477A8.479,8.479,0,0,1,2358.872,2478.919Z" transform="translate(-1760.969 1298.402)" fill="#f8bdf0"/>
    <path id="Path_933" data-name="Path 933" d="M2365.335,2487.182a6.739,6.739,0,0,1-6.7,6.824,6.826,6.826,0,0,1-6.7-6.895,6.739,6.739,0,0,1,6.7-6.824A6.826,6.826,0,0,1,2365.335,2487.182Z" transform="translate(-1769.055 1290.13)" fill="#8524d9"/>
    <path id="Path_934" data-name="Path 934" d="M2346.106,2485.507l-1.066-.773,1.27-1.841,1.066.773Z" transform="translate(-1763.318 1287.96)" fill="#f8bdf0"/>
    <rect id="Rectangle_206" data-name="Rectangle 206" width="1.303" height="2.26" transform="translate(580.516 3777.378) rotate(-7.515)" fill="#f8bdf0"/>
    <path id="Path_935" data-name="Path 935" d="M2426.078,2485.647l1.076-.745-1.243-1.874-1.077.746Z" transform="translate(-1829.769 1287.847)" fill="#f8bdf0"/>
    <path id="Path_936" data-name="Path 936" d="M2436.508,2524.217l1.292.184.293-2.237-1.291-.184Z" transform="translate(-1839.49 1255.408)" fill="#f8bdf0"/>
    <path id="Path_937" data-name="Path 937" d="M2374.985,2506.123l-3.272-1.744a.325.325,0,0,1-.134-.432.307.307,0,0,1,.421-.135l2.951,1.573,4.157-2.7a.309.309,0,0,1,.432.1.324.324,0,0,1-.095.441Z" transform="translate(-1785.39 1271.522)" fill="#f8bdf0"/>
    <path id="Path_938" data-name="Path 938" d="M1989.467,3202.512a35.674,35.674,0,0,0,6.354,1.162,96.372,96.372,0,0,0,13.614.454c4.291-.171,7.874-.675,9.222-1.555,0,0,2.865-17.369-14.013-17.8-.189-.005-.383-.008-.576-.009C1986.537,3184.724,1989.467,3202.512,1989.467,3202.512Z" transform="translate(-1467.053 703.455)" fill="#8524d9"/>
    <path id="Path_939" data-name="Path 939" d="M2027.974,3203.675a96.409,96.409,0,0,0,13.614.455c2.384-15.777-4.426-19.181-4.791-19.352l-.015-.007-.561,0C2027.327,3189.824,2027.761,3201.156,2027.974,3203.675Z" transform="translate(-1499.206 703.455)" fill="#f8bdf0"/>
    <path id="Path_940" data-name="Path 940" d="M1998.345,3291.6s-4.774,8.1-26.931,6.227c-9.486-.8-.434-6.949-.434-6.949C1976.951,3292.352,1988.45,3293.047,1998.345,3291.6Z" transform="translate(-1448.564 615.087)" fill="#9c3cef"/>
    <g id="Group_639" data-name="Group 639" transform="translate(573.593 3888.358)">
      <path id="Path_941" data-name="Path 941" d="M2307.1,3213.886l10.209.025a10.7,10.7,0,0,1,10.624,10.742c-.014,2.373-.754,4.475-2.54,5.575l-26.915-.055c-1.7-.812-2.355-3.632-1.9-7.008A10.644,10.644,0,0,1,2307.1,3213.886Z" transform="translate(-2296.431 -3209.151)" fill="#8524d9"/>
      <path id="Path_942" data-name="Path 942" d="M2362.882,3190.589l.008-.091a3.881,3.881,0,0,1,7.739.019l.007.091,1.317,0-.017-.2a5.192,5.192,0,0,0-10.356-.025l-.017.2Z" transform="translate(-2350.672 -3185.575)" fill="#8524d9"/>
    </g>
    <path id="Path_943" data-name="Path 943" d="M2372.663,3261.093l-2.524-.005v-10.105l2.524.006Z" transform="translate(-1784.22 648.314)" fill="#f8bdf0"/>
    <path id="Path_944" data-name="Path 944" d="M2402.554,3261.16l-2.524-.005v-10.1l2.524.006Z" transform="translate(-1809.113 648.257)" fill="#f8bdf0"/>
    <path id="Path_945" data-name="Path 945" d="M1720.323,3583.314c-3.938,3.393-24.388,3.383-27.736-.015a40.264,40.264,0,0,1,1.856-17.414,59.015,59.015,0,0,1,24.026.024A38.022,38.022,0,0,1,1720.323,3583.314Z" transform="translate(-1219.784 387.089)" fill="#8524d9"/>
    <path id="Path_946" data-name="Path 946" d="M1704.809,3565.725s1.586,9.787,12.721,9.725,11.3-9.7,11.3-9.7A57.74,57.74,0,0,0,1704.809,3565.725Z" transform="translate(-1230.15 387.249)" fill="#9c3cef"/>
    <path id="Path_947" data-name="Path 947" d="M1771.208,3619.812h0a1.1,1.1,0,0,1-1.086-1.11v-4.019a1.1,1.1,0,0,1,1.086-1.108h0a1.1,1.1,0,0,1,1.086,1.109v4.019A1.1,1.1,0,0,1,1771.208,3619.812Z" transform="translate(-1284.541 346.354)" fill="#cbe4fb"/>
    <path id="Path_948" data-name="Path 948" d="M2373.647,3542.44a13.432,13.432,0,0,0,7.069-.138c2.69,3.321-2.049,4.922-5.008,4.209S2373.647,3542.44,2373.647,3542.44Z" transform="translate(-1787.035 405.709)" fill="#8524d9"/>
    <path id="Path_949" data-name="Path 949" d="M2361.478,3542.3a3.428,3.428,0,0,1-1.557,2.212c-2.013,1.193-4.613-.072-5.511-2.074a19.262,19.262,0,0,0-3.991.9V3566.3l15.836.008v-22.956A18.368,18.368,0,0,0,2361.478,3542.3Z" transform="translate(-1767.797 405.709)" fill="#f8bdf0"/>
    <path id="Path_950" data-name="Path 950" d="M2316.439,3548.516l-6.823,5.4,4.488,6.006,6.679-5.089Z" transform="translate(-1733.818 400.535)" fill="#f8bdf0"/>
    <path id="Path_951" data-name="Path 951" d="M2423.808,3548.618l6.823,5.41-4.482,5.995-6.682-5.1Z" transform="translate(-1825.299 400.45)" fill="#f8bdf0"/>
    <rect id="Rectangle_207" data-name="Rectangle 207" width="4.635" height="4.744" transform="translate(591.378 3955.723)" fill="#8524d9"/>
    <g id="Group_647" data-name="Group 647" transform="translate(492.652 3558.011)">
      <circle id="Ellipse_175" data-name="Ellipse 175" cx="7.652" cy="7.652" r="7.652" transform="translate(25.952 33.314)" fill="#b918ab"/>
      <g id="Group_646" data-name="Group 646" transform="translate(0)">
        <path id="Path_952" data-name="Path 952" d="M1873.093,1227.092l3.248-3.7c-18.217-18.287-46.612-17.611-63.936,1.507l3.425,3.534C1831.362,1211.356,1856.765,1210.754,1873.093,1227.092Z" transform="translate(-1812.405 -1210.11)" fill="#b918ab"/>
        <path id="Path_953" data-name="Path 953" d="M1901.769,1287.636l3.249-3.7c-14.294-14.241-36.475-13.718-50.078,1.168l3.425,3.534A29.7,29.7,0,0,1,1901.769,1287.636Z" transform="translate(-1847.826 -1262.975)" fill="#b918ab"/>
        <path id="Path_954" data-name="Path 954" d="M1929.53,1346.235l3.248-3.7a25.18,25.18,0,0,0-36.662.841l3.425,3.534A20.711,20.711,0,0,1,1929.53,1346.235Z" transform="translate(-1882.117 -1314.142)" fill="#b918ab"/>
      </g>
    </g>
    <g id="Group_648" data-name="Group 648" transform="translate(661.064 3721.097)">
      <rect id="Rectangle_208" data-name="Rectangle 208" width="130.902" height="26.033" rx="13.017" transform="translate(0)" fill="#fff"/>
      <path id="Path_955" data-name="Path 955" d="M2915.619,2230.2l1.369,4.215h4.432l-3.586,2.6,1.369,4.215-3.585-2.6-3.586,2.6,1.369-4.215-3.585-2.6h4.432Z" transform="translate(-2894.715 -2222.706)" fill="#fff37c"/>
      <path id="Path_956" data-name="Path 956" d="M3045.914,2230.2l1.369,4.215h4.432l-3.586,2.6,1.37,4.215-3.586-2.6-3.586,2.6,1.369-4.215-3.585-2.6h4.431Z" transform="translate(-3003.222 -2222.706)" fill="#fff37c"/>
      <path id="Path_957" data-name="Path 957" d="M3176.209,2230.2l1.369,4.215h4.432l-3.585,2.6,1.37,4.215-3.586-2.6-3.585,2.6,1.369-4.215-3.585-2.6h4.432Z" transform="translate(-3111.729 -2222.706)" fill="#fff37c"/>
      <path id="Path_958" data-name="Path 958" d="M3306.5,2230.2l1.369,4.215h4.432l-3.586,2.6,1.37,4.215-3.585-2.6-3.585,2.6,1.369-4.215-3.585-2.6h4.432Z" transform="translate(-3220.234 -2222.706)" fill="#fff37c"/>
      <path id="Path_959" data-name="Path 959" d="M3436.8,2230.2l1.37,4.215h4.432l-3.585,2.6,1.37,4.215-3.586-2.6-3.585,2.6,1.37-4.215-3.586-2.6h4.433Z" transform="translate(-3328.741 -2222.706)" fill="#fff37c"/>
    </g>
    <rect id="Rectangle_209" data-name="Rectangle 209" width="87.764" height="54.366" rx="4" transform="translate(647.542 3592.491)" fill="#b918ab"/>
    <path id="Path_960" data-name="Path 960" d="M2785.8,1477.812h6.445v-2.583a1.558,1.558,0,0,0-1.558-1.557h-9.019v6.233c0,.373-.2.676-.572.676h0c-.373,0-.519-.3-.519-.676v-6.233h-1.561a1.558,1.558,0,0,0-1.558,1.557v7.551h8.459a.522.522,0,0,1,.529.451.5.5,0,0,1-.5.555h-8.488v3.115a1.558,1.558,0,0,0,1.558,1.558h11.671a1.558,1.558,0,0,0,1.558-1.558v-8.064h-6.474a.513.513,0,0,1-.51-.566A.534.534,0,0,1,2785.8,1477.812Z" transform="translate(-2123.427 2128.414)" fill="#f8bdf0"/>
    <g id="Group_661" data-name="Group 661" transform="translate(654.033 3597.603)">
      <rect id="Rectangle_210" data-name="Rectangle 210" width="17.879" height="9.021" transform="translate(56.803 34.113)" fill="#f8bdf0"/>
      <g id="Group_649" data-name="Group 649" transform="translate(0 24.771)">
        <rect id="Rectangle_211" data-name="Rectangle 211" width="16.684" height="4.21" fill="#f8bdf0"/>
        <rect id="Rectangle_212" data-name="Rectangle 212" width="16.995" height="4.21" transform="translate(19.031)" fill="#f8bdf0"/>
        <rect id="Rectangle_213" data-name="Rectangle 213" width="17.359" height="4.21" transform="translate(57.223)" fill="#f8bdf0"/>
        <rect id="Rectangle_214" data-name="Rectangle 214" width="16.06" height="4.21" transform="translate(38.686)" fill="#f8bdf0"/>
      </g>
      <rect id="Rectangle_215" data-name="Rectangle 215" width="51.454" height="5.435" transform="translate(0.099 34.113)" fill="#f8bdf0"/>
      <rect id="Rectangle_216" data-name="Rectangle 216" width="22.137" height="6.337" transform="translate(52.546)" fill="#f8bdf0"/>
    </g>
    <path id="Path_961" data-name="Path 961" d="M894.845,1252.667c-5.857-14.955-14.215-14.745-78.5-14.745a10.7,10.7,0,0,1-10.7-10.7v-18.173a10.7,10.7,0,0,1,10.7-10.7h67.8a10.7,10.7,0,0,1,10.7,10.7Z" transform="translate(-481.342 2357.702)" fill="#fff"/>
    <g id="Group_660" data-name="Group 660" transform="translate(334.845 3569.943)">
      <circle id="Ellipse_176" data-name="Ellipse 176" cx="3.635" cy="3.635" r="3.635" transform="translate(0 8.1) rotate(-80.143)" fill="#b918ab"/>
      <circle id="Ellipse_177" data-name="Ellipse 177" cx="3.635" cy="3.635" r="3.635" transform="matrix(0.33, -0.944, 0.944, 0.33, 18.555, 7.371)" fill="#b918ab"/>
      <circle id="Ellipse_178" data-name="Ellipse 178" cx="3.635" cy="3.635" r="3.635" transform="translate(37.798 7.844) rotate(-76.718)" fill="#b918ab"/>
      <circle id="Ellipse_179" data-name="Ellipse 179" cx="3.635" cy="3.635" r="3.635" transform="translate(56.014 5.141) rotate(-45)" fill="#b918ab"/>
    </g>
    <circle id="Ellipse_180" data-name="Ellipse 180" cx="12.239" cy="12.239" r="12.239" transform="matrix(0.23, -0.973, 0.973, 0.23, 805.348, 3743.214)" fill="#ff64d0"/>
    <path id="Path_962" data-name="Path 962" d="M3738.158,2207.992l-5.583-8.988.972-1,4.665,4.535,14.46-12.532.913,1.2Z" transform="translate(-2918.823 1531.867)" fill="#fff"/>
  </g>
</svg>
