<svg xmlns="http://www.w3.org/2000/svg" xmlns:xlink="http://www.w3.org/1999/xlink" width="659" height="457.686" viewBox="0 0 659 457.686">
  <defs>
    <linearGradient id="linear-gradient" x1="0.37" y1="0.127" x2="0.5" y2="1" gradientUnits="objectBoundingBox">
      <stop offset="0" stop-color="#18012c"/>
      <stop offset="1" stop-color="#220041"/>
    </linearGradient>
  </defs>
  <g id="mobile_app_development_image" data-name="mobile app development image" transform="translate(-213 -2059)">
    <circle id="Ellipse_190" data-name="Ellipse 190" cx="228.843" cy="228.843" r="228.843" transform="translate(281.977 2059)" fill="#410f6e"/>
    <g id="Group_654" data-name="Group 654" transform="translate(0 -94.42)">
      <ellipse id="Ellipse_166" data-name="Ellipse 166" cx="329.5" cy="16.5" rx="329.5" ry="16.5" transform="translate(213 2566)" fill="#410f6e"/>
      <path id="Path_646" data-name="Path 646" d="M281.807,170.668V158.95a2.074,2.074,0,0,0-2.075-2.075h-3.016a1.9,1.9,0,0,1-1.862-1.461,41.45,41.45,0,0,0-5.22-12.668,1.934,1.934,0,0,1,.253-2.4l2.121-2.121a2.076,2.076,0,0,0,0-2.936l-8.285-8.285a2.075,2.075,0,0,0-2.935,0l-2.118,2.118a1.932,1.932,0,0,1-2.4.251,41.487,41.487,0,0,0-12.671-5.226,1.9,1.9,0,0,1-1.46-1.861v-3.007a2.076,2.076,0,0,0-2.076-2.076H228.348a2.076,2.076,0,0,0-2.076,2.076v3.005a1.9,1.9,0,0,1-1.461,1.862,41.463,41.463,0,0,0-12.672,5.224,1.932,1.932,0,0,1-2.4-.253l-2.116-2.116a2.075,2.075,0,0,0-2.935,0l-8.285,8.285a2.076,2.076,0,0,0,0,2.936l2.118,2.118a1.931,1.931,0,0,1,.251,2.4,41.529,41.529,0,0,0-5.221,12.671,1.9,1.9,0,0,1-1.861,1.461H188.68a2.075,2.075,0,0,0-2.076,2.075v11.718a2.076,2.076,0,0,0,2.076,2.075h3.014a1.9,1.9,0,0,1,1.861,1.46,41.506,41.506,0,0,0,5.222,12.668,1.932,1.932,0,0,1-.252,2.4L196.4,191.39a2.075,2.075,0,0,0,0,2.935l8.285,8.286a2.075,2.075,0,0,0,2.935,0l2.123-2.124a1.934,1.934,0,0,1,2.4-.251,41.491,41.491,0,0,0,12.666,5.215,1.9,1.9,0,0,1,1.461,1.862v3.021a2.076,2.076,0,0,0,2.076,2.076h11.717a2.076,2.076,0,0,0,2.076-2.076v-3.023a1.9,1.9,0,0,1,1.461-1.862,41.48,41.48,0,0,0,12.664-5.215,1.932,1.932,0,0,1,2.4.251l2.125,2.125a2.075,2.075,0,0,0,2.935,0l8.285-8.286a2.075,2.075,0,0,0,0-2.935l-2.123-2.123a1.934,1.934,0,0,1-.253-2.4,41.446,41.446,0,0,0,5.221-12.666,1.9,1.9,0,0,1,1.861-1.461h3.018A2.075,2.075,0,0,0,281.807,170.668Zm-47.6,27.178A33.033,33.033,0,1,1,267.222,164.8,33.028,33.028,0,0,1,234.2,197.846Z" transform="translate(98.561 2101.682)" fill="none" stroke="#dee3fc" stroke-miterlimit="10" stroke-width="0.79"/>
      <path id="Path_647" data-name="Path 647" d="M325.151,203.23v-7.985a1.414,1.414,0,0,0-1.414-1.414h-2.055a1.3,1.3,0,0,1-1.269-1,28.266,28.266,0,0,0-3.556-8.632,1.316,1.316,0,0,1,.171-1.635l1.445-1.445a1.415,1.415,0,0,0,0-2l-5.646-5.646a1.414,1.414,0,0,0-2,0l-1.444,1.444a1.319,1.319,0,0,1-1.635.171,28.247,28.247,0,0,0-8.635-3.561,1.3,1.3,0,0,1-1-1.269v-2.049A1.414,1.414,0,0,0,296.7,166.8h-7.985a1.414,1.414,0,0,0-1.414,1.414v2.049a1.3,1.3,0,0,1-1,1.269,28.275,28.275,0,0,0-8.637,3.56,1.319,1.319,0,0,1-1.635-.171l-1.442-1.442a1.414,1.414,0,0,0-2,0l-5.645,5.646a1.415,1.415,0,0,0,0,2l1.444,1.444a1.317,1.317,0,0,1,.171,1.634,28.258,28.258,0,0,0-3.558,8.636,1.3,1.3,0,0,1-1.269.995h-2.053a1.414,1.414,0,0,0-1.414,1.414v7.985a1.415,1.415,0,0,0,1.414,1.415h2.054a1.3,1.3,0,0,1,1.268.995,28.308,28.308,0,0,0,3.559,8.633,1.316,1.316,0,0,1-.171,1.635l-1.445,1.445a1.415,1.415,0,0,0,0,2L272.595,225a1.415,1.415,0,0,0,2,0l1.447-1.447a1.316,1.316,0,0,1,1.634-.171,28.293,28.293,0,0,0,8.632,3.554,1.3,1.3,0,0,1,1,1.269v2.06a1.414,1.414,0,0,0,1.414,1.414H296.7a1.414,1.414,0,0,0,1.414-1.414V228.2a1.3,1.3,0,0,1,1-1.268,28.3,28.3,0,0,0,8.631-3.555,1.317,1.317,0,0,1,1.634.171L310.827,225a1.414,1.414,0,0,0,2,0l5.646-5.646a1.415,1.415,0,0,0,0-2l-1.447-1.446a1.319,1.319,0,0,1-.171-1.635,28.271,28.271,0,0,0,3.558-8.632,1.3,1.3,0,0,1,1.269-.995h2.057A1.415,1.415,0,0,0,325.151,203.23Zm-32.442,17.253a21.242,21.242,0,1,1,21.233-21.251A21.239,21.239,0,0,1,292.709,220.484Z" transform="translate(109.11 2108.783)" fill="#f8bdf0"/>
      <g id="Group_522" data-name="Group 522" transform="translate(240.487 2181.832)">
        <ellipse id="Ellipse_153" data-name="Ellipse 153" cx="3.871" cy="3.871" rx="3.871" ry="3.871" transform="translate(39.535 333.874)" fill="#f8bdf0"/>
        <ellipse id="Ellipse_154" data-name="Ellipse 154" cx="3.871" cy="3.871" rx="3.871" ry="3.871" transform="translate(558.125 228.103)" fill="#f8bdf0"/>
        <ellipse id="Ellipse_155" data-name="Ellipse 155" cx="3.871" cy="3.871" rx="3.871" ry="3.871" transform="translate(550.383 89.88)" fill="#f8bdf0"/>
        <ellipse id="Ellipse_156" data-name="Ellipse 156" cx="2.428" cy="2.428" rx="2.428" ry="2.428" transform="translate(412.649 44.342)" fill="#f8bdf0"/>
        <path id="Path_648" data-name="Path 648" d="M199.354,97.714a2.428,2.428,0,1,1-2.428-2.428A2.428,2.428,0,0,1,199.354,97.714Z" transform="translate(-140.795 -83.289)" fill="#f8bdf0"/>
        <path id="Path_649" data-name="Path 649" d="M246.364,228.51a2.428,2.428,0,1,1-2.428-2.428A2.428,2.428,0,0,1,246.364,228.51Z" transform="translate(-134.063 -64.559)" fill="#f8bdf0"/>
        <path id="Path_650" data-name="Path 650" d="M168.443,383.919a2.428,2.428,0,1,1-2.428-2.427A2.428,2.428,0,0,1,168.443,383.919Z" transform="translate(-145.222 -42.304)" fill="#f8bdf0"/>
        <ellipse id="Ellipse_157" data-name="Ellipse 157" cx="3.871" cy="3.871" rx="3.871" ry="3.871" transform="translate(501.341 336.16)" fill="#f8bdf0"/>
        <ellipse id="Ellipse_158" data-name="Ellipse 158" cx="3.871" cy="3.871" rx="3.871" ry="3.871" transform="translate(583.652 336.16)" fill="#f8bdf0"/>
        <ellipse id="Ellipse_159" data-name="Ellipse 159" cx="3.871" cy="3.871" rx="3.871" ry="3.871" transform="translate(121.426)" fill="#f8bdf0"/>
        <path id="Path_651" data-name="Path 651" d="M492.048,242.885a5.179,5.179,0,1,1-5.18-5.18A5.179,5.179,0,0,1,492.048,242.885Z" transform="translate(-99.67 -62.894)" fill="#f8bdf0"/>
        <path id="Path_652" data-name="Path 652" d="M157.881,186.859a5.179,5.179,0,1,1-5.179-5.179A5.179,5.179,0,0,1,157.881,186.859Z" transform="translate(-147.522 -70.917)" fill="#f8bdf0"/>
      </g>
      <g id="Group_523" data-name="Group 523" transform="translate(228.999 2212.427)">
        <rect id="Rectangle_145" data-name="Rectangle 145" width="8.032" height="8.032" rx="0.664" fill="#fff"/>
        <rect id="Rectangle_146" data-name="Rectangle 146" width="8.032" height="8.032" rx="0.664" transform="translate(10.744)" fill="#fff"/>
        <rect id="Rectangle_147" data-name="Rectangle 147" width="8.032" height="8.032" rx="0.664" transform="translate(21.487)" fill="#fff"/>
      </g>
      <g id="Group_525" data-name="Group 525" transform="translate(776.11 2494.491)">
        <g id="Group_524" data-name="Group 524">
          <rect id="Rectangle_148" data-name="Rectangle 148" width="8.032" height="8.032" rx="0.664" fill="#dee3fc"/>
          <rect id="Rectangle_149" data-name="Rectangle 149" width="8.032" height="8.032" rx="0.664" transform="translate(10.744)" fill="#dee3fc"/>
          <rect id="Rectangle_150" data-name="Rectangle 150" width="8.032" height="8.032" rx="0.664" transform="translate(21.487)" fill="#dee3fc"/>
        </g>
      </g>
      <g id="Group_527" data-name="Group 527" transform="translate(279.43 2490.09)">
        <g id="Group_526" data-name="Group 526">
          <rect id="Rectangle_151" data-name="Rectangle 151" width="8.032" height="8.032" rx="0.664" fill="#dee3fc"/>
          <rect id="Rectangle_152" data-name="Rectangle 152" width="8.032" height="8.032" rx="0.664" transform="translate(10.744)" fill="#dee3fc"/>
          <rect id="Rectangle_153" data-name="Rectangle 153" width="8.032" height="8.032" rx="0.664" transform="translate(21.487)" fill="#dee3fc"/>
        </g>
      </g>
      <rect id="Rectangle_154" data-name="Rectangle 154" width="203.489" height="393.1" rx="21.349" transform="translate(398.795 2174.055)" fill="#2f2e41"/>
      <rect id="Rectangle_155" data-name="Rectangle 155" width="195.869" height="384.071" rx="18.7" transform="translate(402.605 2177.497)" fill="#3f3d56"/>
      <path id="Path_653" data-name="Path 653" d="M475.554,100.928V441.847a14.478,14.478,0,0,1-14.477,14.478H311.31a14.478,14.478,0,0,1-14.477-14.478V100.928A14.478,14.478,0,0,1,311.31,86.449h24.974a3.662,3.662,0,0,1,3.274,2.022l2.652,5.294a7.153,7.153,0,0,0,6.416,3.973H423.76a7.154,7.154,0,0,0,6.416-3.973l2.652-5.294a3.662,3.662,0,0,1,3.274-2.022h24.974A14.478,14.478,0,0,1,475.554,100.928Z" transform="translate(114.346 2097.278)" fill="#c20ab1"/>
      <path id="Path_654" data-name="Path 654" d="M404.865,89.844H349.739c-1.282,0-2.32-.76-2.32-1.7h0c0-.938,1.038-1.7,2.32-1.7h55.126c1.282,0,2.321.76,2.321,1.7h0C407.187,89.084,406.147,89.844,404.865,89.844Z" transform="translate(124.51 2098.128)" fill="#dee3fc"/>
      <rect id="Rectangle_156" data-name="Rectangle 156" width="153.817" height="66.706" rx="8.379" transform="translate(421.887 2475.063)" fill="none" stroke="#fff" stroke-linecap="round" stroke-linejoin="round" stroke-width="1" stroke-dasharray="2.837"/>
      <rect id="Rectangle_157" data-name="Rectangle 157" width="80.619" height="46.834" rx="6.044" transform="translate(485.591 2331.244)" fill="none" stroke="#fff" stroke-linecap="round" stroke-linejoin="round" stroke-width="1" stroke-dasharray="2.837"/>
      <rect id="Rectangle_158" data-name="Rectangle 158" width="154.428" height="74.654" rx="7.201" transform="translate(427.486 2389.313)" fill="#641ba3" opacity="0.66"/>
      <path id="Path_655" data-name="Path 655" d="M460.017,269.22v58.223a8.211,8.211,0,0,1-8.22,8.208H314.42a8.211,8.211,0,0,1-8.22-8.208V269.22a8.221,8.221,0,0,1,8.22-8.22H451.8A8.221,8.221,0,0,1,460.017,269.22Z" transform="translate(115.687 2122.273)" fill="#7f95f4"/>
      <rect id="Rectangle_159" data-name="Rectangle 159" width="51.586" height="51.586" rx="4.861" transform="translate(428.994 2400.271)" fill="#fff"/>
      <g id="Group_530" data-name="Group 530" transform="translate(485.591 2403.288)">
        <path id="Path_656" data-name="Path 656" d="M399.323,282.018H363.679a1.754,1.754,0,0,1-1.755-1.755h0a1.754,1.754,0,0,1,1.755-1.755h35.644a1.755,1.755,0,0,1,1.756,1.755h0A1.755,1.755,0,0,1,399.323,282.018Z" transform="translate(-361.924 -278.508)" fill="#b2c1f9"/>
        <path id="Path_657" data-name="Path 657" d="M383.08,288.148h-19.4a1.755,1.755,0,0,1-1.755-1.755h0a1.755,1.755,0,0,1,1.755-1.756h19.4a1.755,1.755,0,0,1,1.755,1.756h0A1.755,1.755,0,0,1,383.08,288.148Z" transform="translate(-361.924 -277.63)" fill="#b2c1f9"/>
        <path id="Path_658" data-name="Path 658" d="M439.394,288.148H386.9a1.755,1.755,0,0,1-1.755-1.755h0a1.755,1.755,0,0,1,1.755-1.756h52.5a1.756,1.756,0,0,1,1.755,1.756h0A1.756,1.756,0,0,1,439.394,288.148Z" transform="translate(-358.599 -277.63)" fill="#b2c1f9"/>
        <path id="Path_659" data-name="Path 659" d="M393.7,294.277H363.679a1.755,1.755,0,0,1-1.755-1.755h0a1.754,1.754,0,0,1,1.755-1.755H393.7a1.755,1.755,0,0,1,1.755,1.755h0A1.756,1.756,0,0,1,393.7,294.277Z" transform="translate(-361.924 -276.753)" fill="#b2c1f9"/>
        <path id="Path_660" data-name="Path 660" d="M414.589,294.277H395.718a1.755,1.755,0,0,1-1.755-1.755h0a1.754,1.754,0,0,1,1.755-1.755h18.871a1.755,1.755,0,0,1,1.755,1.755h0A1.756,1.756,0,0,1,414.589,294.277Z" transform="translate(-357.336 -276.753)" fill="#b2c1f9"/>
        <path id="Path_661" data-name="Path 661" d="M434.995,294.277H417.616a1.756,1.756,0,0,1-1.755-1.755h0a1.755,1.755,0,0,1,1.755-1.755h17.379a1.755,1.755,0,0,1,1.755,1.755h0A1.756,1.756,0,0,1,434.995,294.277Z" transform="translate(-354.2 -276.753)" fill="#b2c1f9"/>
        <path id="Path_662" data-name="Path 662" d="M442.718,300.406h-79.04a1.754,1.754,0,0,1-1.755-1.755h0a1.754,1.754,0,0,1,1.755-1.755h79.04a1.755,1.755,0,0,1,1.755,1.755h0A1.755,1.755,0,0,1,442.718,300.406Z" transform="translate(-361.924 -275.875)" fill="#b2c1f9"/>
        <path id="Path_663" data-name="Path 663" d="M407.18,306.535h-43.5a1.754,1.754,0,0,1-1.755-1.755h0a1.754,1.754,0,0,1,1.755-1.755h43.5a1.755,1.755,0,0,1,1.755,1.755h0A1.755,1.755,0,0,1,407.18,306.535Z" transform="translate(-361.924 -274.997)" fill="#b2c1f9"/>
        <path id="Path_664" data-name="Path 664" d="M436.391,306.535H407.865a1.755,1.755,0,0,1-1.755-1.755h0a1.755,1.755,0,0,1,1.755-1.755h28.526a1.755,1.755,0,0,1,1.755,1.755h0A1.755,1.755,0,0,1,436.391,306.535Z" transform="translate(-355.597 -274.997)" fill="#b2c1f9"/>
        <path id="Path_665" data-name="Path 665" d="M389.237,312.664H363.679a1.754,1.754,0,0,1-1.755-1.755h0a1.755,1.755,0,0,1,1.755-1.755h25.559a1.755,1.755,0,0,1,1.755,1.755h0A1.754,1.754,0,0,1,389.237,312.664Z" transform="translate(-361.924 -274.12)" fill="#b2c1f9"/>
        <path id="Path_666" data-name="Path 666" d="M417.645,312.664H392.087a1.754,1.754,0,0,1-1.755-1.755h0a1.755,1.755,0,0,1,1.755-1.755h25.559a1.755,1.755,0,0,1,1.755,1.755h0A1.754,1.754,0,0,1,417.645,312.664Z" transform="translate(-357.856 -274.12)" fill="#b2c1f9"/>
        <path id="Path_667" data-name="Path 667" d="M434.676,312.664H419.845a1.754,1.754,0,0,1-1.755-1.755h0a1.755,1.755,0,0,1,1.755-1.755h14.831a1.756,1.756,0,0,1,1.755,1.755h0A1.755,1.755,0,0,1,434.676,312.664Z" transform="translate(-353.881 -274.12)" fill="#b2c1f9"/>
        <path id="Path_668" data-name="Path 668" d="M399.323,318.794H363.679a1.755,1.755,0,0,1-1.755-1.756h0a1.755,1.755,0,0,1,1.755-1.755h35.644a1.756,1.756,0,0,1,1.756,1.755h0A1.756,1.756,0,0,1,399.323,318.794Z" transform="translate(-361.924 -273.242)" fill="#b2c1f9"/>
        <path id="Path_669" data-name="Path 669" d="M437.283,282.018H401.638a1.754,1.754,0,0,1-1.755-1.755h0a1.754,1.754,0,0,1,1.755-1.755h35.645a1.755,1.755,0,0,1,1.755,1.755h0A1.755,1.755,0,0,1,437.283,282.018Z" transform="translate(-356.488 -278.508)" fill="#b2c1f9"/>
      </g>
      <path id="Path_670" data-name="Path 670" d="M460.017,269.22v2.446H306.2V269.22a8.221,8.221,0,0,1,8.22-8.22H451.8A8.221,8.221,0,0,1,460.017,269.22Z" transform="translate(115.687 2122.273)" fill="#8524d9"/>
      <g id="Group_531" data-name="Group 531" transform="translate(542.901 2386.893)">
        <path id="Path_671" data-name="Path 671" d="M415.866,266.072a1.906,1.906,0,1,1-1.906-1.9A1.906,1.906,0,0,1,415.866,266.072Z" transform="translate(-412.055 -264.167)" fill="#dee3fc"/>
        <path id="Path_672" data-name="Path 672" d="M424.394,266.072a1.906,1.906,0,1,1-1.906-1.9A1.906,1.906,0,0,1,424.394,266.072Z" transform="translate(-410.834 -264.167)" fill="#dee3fc"/>
        <path id="Path_673" data-name="Path 673" d="M432.922,266.072a1.906,1.906,0,1,1-1.906-1.9A1.906,1.906,0,0,1,432.922,266.072Z" transform="translate(-409.613 -264.167)" fill="#dee3fc"/>
      </g>
      <g id="Group_535" data-name="Group 535" transform="translate(430.892 2331.287)">
        <rect id="Rectangle_160" data-name="Rectangle 160" width="46.792" height="46.792" rx="7.151" fill="none" stroke="#fff" stroke-miterlimit="10" stroke-width="0.896"/>
        <g id="Group_534" data-name="Group 534" transform="translate(9.356 16.628)">
          <path id="Path_674" data-name="Path 674" d="M329,230.071l-6.742,6.742,6.795,6.794" transform="translate(-322.26 -230.071)" fill="none" stroke="#fff" stroke-linecap="round" stroke-linejoin="round" stroke-width="1.672"/>
          <path id="Path_675" data-name="Path 675" d="M340.933,230.071l6.741,6.742-6.794,6.794" transform="translate(-319.594 -230.071)" fill="none" stroke="#fff" stroke-linecap="round" stroke-linejoin="round" stroke-width="1.672"/>
          <line id="Line_19" data-name="Line 19" x1="6.313" y2="13.536" transform="translate(10.884)" fill="none" stroke="#fff" stroke-linecap="round" stroke-linejoin="round" stroke-width="1.672"/>
        </g>
      </g>
      <rect id="Rectangle_162" data-name="Rectangle 162" width="59.762" height="89.813" transform="translate(641.258 2498.508)" fill="#8524d9"/>
      <rect id="Rectangle_163" data-name="Rectangle 163" width="22.883" height="89.813" transform="translate(723.903 2588.321) rotate(180)" fill="#5a1199"/>
      <g id="Group_538" data-name="Group 538" transform="translate(704.296 2501.957)">
        <rect id="Rectangle_164" data-name="Rectangle 164" width="16.801" height="2.866" fill="#aa50f8"/>
        <rect id="Rectangle_165" data-name="Rectangle 165" width="16.801" height="2.866" transform="translate(0 6.158)" fill="#aa50f8"/>
        <rect id="Rectangle_166" data-name="Rectangle 166" width="16.801" height="2.866" transform="translate(0 12.315)" fill="#aa50f8"/>
        <rect id="Rectangle_167" data-name="Rectangle 167" width="16.801" height="2.866" transform="translate(0 18.473)" fill="#aa50f8"/>
        <rect id="Rectangle_168" data-name="Rectangle 168" width="16.801" height="2.866" transform="translate(0 24.63)" fill="#aa50f8"/>
        <rect id="Rectangle_169" data-name="Rectangle 169" width="16.801" height="2.866" transform="translate(0 30.788)" fill="#aa50f8"/>
        <rect id="Rectangle_170" data-name="Rectangle 170" width="16.801" height="2.866" transform="translate(0 36.945)" fill="#aa50f8"/>
        <rect id="Rectangle_171" data-name="Rectangle 171" width="16.801" height="2.866" transform="translate(0 43.103)" fill="#aa50f8"/>
        <rect id="Rectangle_172" data-name="Rectangle 172" width="16.801" height="2.866" transform="translate(0 49.261)" fill="#aa50f8"/>
        <rect id="Rectangle_173" data-name="Rectangle 173" width="16.801" height="2.866" transform="translate(0 55.418)" fill="#aa50f8"/>
        <rect id="Rectangle_174" data-name="Rectangle 174" width="16.801" height="2.866" transform="translate(0 61.576)" fill="#aa50f8"/>
        <rect id="Rectangle_175" data-name="Rectangle 175" width="16.801" height="2.866" transform="translate(0 67.733)" fill="#aa50f8"/>
        <rect id="Rectangle_176" data-name="Rectangle 176" width="16.801" height="2.866" transform="translate(0 73.891)" fill="#aa50f8"/>
        <rect id="Rectangle_177" data-name="Rectangle 177" width="16.801" height="2.866" transform="translate(0 80.048)" fill="#aa50f8"/>
      </g>
      <path id="Path_678" data-name="Path 678" d="M489.6,441.88h30.372s1.7-5.408-1.981-12.109c0,0-2.444,1.961-9.767.634a32.575,32.575,0,0,1-5.166,3.61C500.941,435.041,488.786,437.428,489.6,441.88Z" transform="translate(141.945 2146.44)" fill="#09001d"/>
      <path id="Path_679" data-name="Path 679" d="M491.54,366.22c1.962,11.705,11.014,51.307,14.905,74.7,7.112.606,10.528-.21,12.337-.628-.354-8.158-1.056-27.671-.974-36.229.135-14.463.814-33.535-5.552-44l-21.408,1.685c.13,1.129.249,2.05.353,2.707C491.3,365.086,491.422,365.668,491.54,366.22Z" transform="translate(142.128 2136.459)" fill="#220041"/>
      <path id="Path_680" data-name="Path 680" d="M441.549,441.88h30.374s1.7-5.408-1.981-12.109c0,0-2.445,1.961-9.767.634a32.6,32.6,0,0,1-5.167,3.61C452.885,435.041,440.73,437.428,441.549,441.88Z" transform="translate(135.063 2146.44)" fill="#09001d"/>
      <path id="Path_681" data-name="Path 681" d="M457.066,441.118a34.847,34.847,0,0,0,12,1.073c1.615-9.4,4.166-30.095,6.461-39.792,3.562-15.075,7.049-35.807,4.627-43.2l-21.058-5.288C459.023,354.573,457.31,418.023,457.066,441.118Z" transform="translate(137.291 2135.577)" fill="#1d0037"/>
      <path id="Path_682" data-name="Path 682" d="M540.629,335.927h0c-.423-4.161-.91-7.2-.91-7.2l-23.527,5.758-19.985,4.553c-7.409,1.651-16.359,3.638-24.251,5.421-8.854,2.012-14.732,8.737-12.792,17.6l2.219,10.754c12.384-.169,70.61-5.75,75.589-8.265C542.6,361.71,544.293,351.663,540.629,335.927Z" transform="translate(137.538 2131.971)" fill="#1d0037"/>
      <path id="Path_683" data-name="Path 683" d="M571.351,336.106h0a32.505,32.505,0,0,0-2.452-8.627l-21.985,7.184-19.985,4.553c-7.409,1.651-16.36,3.638-24.251,5.421-8.854,2.012-14.732,8.737-12.794,17.6L492.1,373c12.383-.169,64.145-1.973,75.589-8.265C573.218,361.693,575.015,351.842,571.351,336.106Z" transform="translate(141.937 2131.792)" fill="#220041"/>
      <g id="Group_540" data-name="Group 540" transform="translate(612.85 2432.086)">
        <path id="Path_684" data-name="Path 684" d="M507.829,305.792s10.45-4.72,13.325.014c1.574,2.592.486,7.406-3.079,9.427s-23.7,10.539-42.712,15.289a46.13,46.13,0,0,0-2.121-5.423,100.084,100.084,0,0,0,17.005-9.491,108.4,108.4,0,0,1,17.581-9.816Z" transform="translate(-473.243 -303.698)" fill="#e5918f"/>
      </g>
      <path id="Path_685" data-name="Path 685" d="M506.9,276.985l-8.956,35.772s.925,9.043,10.058,4.6,15.186-32.938,15.186-32.938Z" transform="translate(143.145 2124.562)" fill="#e5918f"/>
      <path id="Path_686" data-name="Path 686" d="M521.451,299.572c-1.108-.267-2.165-.561-3.185-.867q-1.567-.46-2.981-.956a50.246,50.246,0,0,1-13.109-6.421c2.675-11.631,5.9-19.44,8.765-24.588a3.643,3.643,0,0,0,.217-.382l.229-.382a22.365,22.365,0,0,1,6.23-6.484c.255-.178.5-.344.751-.522l1.057,18.676.178,1.923Z" transform="translate(143.751 2121.982)" fill="#fff"/>
      <path id="Path_687" data-name="Path 687" d="M519.808,297.28c-1.108-.267-2.165-.561-3.185-.867q-1.567-.46-2.981-.956c1.787-12.581,3.4-20.486,3.4-20.486l.917,2.306Z" transform="translate(145.392 2124.273)" fill="#8524d9" opacity="0.52"/>
      <path id="Path_688" data-name="Path 688" d="M572.656,268.158c-.217,5.529-1.185,14.409-2.026,23.326-.268,2.828-.522,5.669-.74,8.408-.152,1.707-2.725,10.817-2.828,12.447-.458,7.8-4.28,13.632-.662,25.5a18.693,18.693,0,0,1,1.083,5.478c0,.815-1.057,1.669-1.477,1.9-1.517.879-4.5,1.49-8.116,1.937h-.013a210.532,210.532,0,0,1-22.524,1.031c-7.784,0-19.466-1.236-20.944-3.2-1.35-1.8-.1-4.408.535-8.014,2.867-16.269,1.847-24.753,1.669-36.5,0-.293-.013-.586-.013-.892-.293-18.116-1.491-33.62-.649-39.213.255-.178.5-.344.751-.522,1.236-.841,2.446-1.593,3.618-2.256.1-.05.23-.127.357-.2.357-.2.726-.394,1.07-.587a4.112,4.112,0,0,1,.408-.2,88.782,88.782,0,0,1,8.688-3.427c.28-.089.535-.178.752-.242,2.076-.127,4.33-.152,6.764-.088,2.115.063,5.351.343,8.867.8h.013a91.625,91.625,0,0,1,11.771,2.2.689.689,0,0,1,.064.026,24.232,24.232,0,0,1,9.262,6.484A31.381,31.381,0,0,1,572.656,268.158Z" transform="translate(145.416 2121.1)" fill="#fff"/>
      <path id="Path_689" data-name="Path 689" d="M561.089,334.427a18.7,18.7,0,0,1,1.083,5.478c0,.815-1.057,1.669-1.477,1.9-1.517.879-4.5,1.49-8.116,1.937,1.491-.18,4.063-2.544,4.064-4.676,0-1.494-1.937-11.581-1.4-18.091s1.593-16.842-.421-25.123-3.923-19.174-3.923-19.174l11.351,6.855s1.466,2.051,3.071,4.535c-.268,2.828-.523,5.669-.74,8.408C564.427,298.182,557.47,322.554,561.089,334.427Z" transform="translate(150.728 2124.518)" fill="#8524d9" opacity="0.52"/>
      <path id="Path_690" data-name="Path 690" d="M516.13,224.354s.982,11.872,4.918,12.67,2.97-4.247,2.97-4.247l-.55-5.637Z" transform="translate(145.749 2117.025)" fill="#002c54"/>
      <path id="Path_691" data-name="Path 691" d="M532.657,265.716c-7.707-.918-4.829-8.408-3.771-10.129.28-.089,1.605-.5,1.707-.56a.043.043,0,0,1,.026-.013,2.114,2.114,0,0,0,.6-.892c.752-1.975.408-5.911.383-6.166v-.726c.127-.471.255-.918.357-1.338l4.051-3.185,8.573-6.74s-2.28,11.275-.446,18.384a2.678,2.678,0,0,0,1.134,1.708c0,.013.013,0,.013,0a2.075,2.075,0,0,0,.854.305C548.238,257.358,545.308,267.22,532.657,265.716Z" transform="translate(147.373 2118.688)" fill="#e5918f"/>
      <path id="Path_692" data-name="Path 692" d="M538.982,242.236a12.788,12.788,0,0,1-8.239,10.984c.759-1.963.409-5.9.385-6.155l3.421-2.687Z" transform="translate(147.841 2119.586)" fill="#cc6362"/>
      <path id="Path_693" data-name="Path 693" d="M517.776,227.308s1.782,24.632,8.433,26.726a17.3,17.3,0,0,0,14.557-7.386c1.754-2.358,3.968-2.888,4.692-5.735,1.175-4.625,2.833-13.156.718-18.3C543.165,215.294,518.062,209.48,517.776,227.308Z" transform="translate(145.984 2115.761)" fill="#e5918f"/>
      <path id="Path_694" data-name="Path 694" d="M547.182,219.091c-.109-4.474-4.638-6.146-4.638-6.146-4.509-2.11-13.878-1.2-23.538.955-2.265.505-5.107-.885-6.689.213-1.911,1.326-.008,7.385-.008,7.385,3.727,11.285,17.438,7.615,21.558,6.222.98,2.906.854,6.945,3.3,9.028,1.391,1.188,3.811,1.221,6.27.812.3.575,1.44,1.083,1.671,1.873.775,2.638.664,6.762.64,9.946l1.163-.568C547.061,247.947,559.087,219.46,547.182,219.091Z" transform="translate(145.081 2115.22)" fill="#20065e"/>
      <g id="Group_541" data-name="Group 541" transform="translate(664.748 2346.616)">
        <path id="Path_695" data-name="Path 695" d="M524.475,233.5c.347,2.045-.661,3.922-2.253,4.193s-3.164-1.167-3.513-3.212.661-3.923,2.253-4.194S524.126,231.449,524.475,233.5Z" transform="translate(-518.64 -228.747)" fill="none" stroke="#fff" stroke-miterlimit="10" stroke-width="0.501"/>
        <path id="Path_696" data-name="Path 696" d="M531.5,232.182c.349,2.045-.659,3.923-2.252,4.194s-3.166-1.167-3.513-3.214.661-3.923,2.252-4.194S531.157,230.136,531.5,232.182Z" transform="translate(-517.633 -228.935)" fill="none" stroke="#fff" stroke-miterlimit="10" stroke-width="0.501"/>
        <path id="Path_697" data-name="Path 697" d="M523.744,233.144s.352-.573,2.2-.412" transform="translate(-517.909 -228.396)" fill="none" stroke="#fff" stroke-miterlimit="10" stroke-width="0.501"/>
        <line id="Line_20" data-name="Line 20" y1="1.098" x2="6.87" transform="translate(13.941 2.639)" fill="none" stroke="#fff" stroke-miterlimit="10" stroke-width="0.501"/>
      </g>
      <g id="Group_542" data-name="Group 542" transform="translate(684.1 2347.604)">
        <path id="Path_698" data-name="Path 698" d="M537.532,240.171c4.732,1.812,6.209-9.833,1.716-10.349-3.407-.391-3.546,4.362-3.546,4.362S534.831,239.137,537.532,240.171Z" transform="translate(-535.568 -229.799)" fill="#e5918f"/>
      </g>
      <g id="Group_543" data-name="Group 543" transform="translate(686.023 2349.383)" opacity="0.5">
        <path id="Path_699" data-name="Path 699" d="M538.852,231.355s-2.8,1.479-1,6.019" transform="translate(-537.25 -231.355)" fill="none" stroke="#cc6362" stroke-miterlimit="10" stroke-width="0.724"/>
        <path id="Path_700" data-name="Path 700" d="M539.585,233.289a2.471,2.471,0,0,0-2.3,1.706" transform="translate(-537.244 -231.078)" fill="none" stroke="#cc6362" stroke-miterlimit="10" stroke-width="0.724"/>
      </g>
      <path id="Path_701" data-name="Path 701" d="M580.105,314.376v.011c-2.08,2.412-9.97,4.17-13.766.833-1.194-1.063-2.54-3.864-3.863-7.339a227.253,227.253,0,0,1-6.553-22.18l17.658-9.023s2.272,10.186,4.229,19.865c0,0,.017.1.054.27.637,3.1,1.23,6.15,1.7,8.767a1.227,1.227,0,0,1,.034.208A37.083,37.083,0,0,1,580.105,314.376Z" transform="translate(151.447 2124.518)" fill="#e5918f"/>
      <path id="Path_702" data-name="Path 702" d="M550.089,276.121c1.706,7.09,7.065,20.527,7.065,20.527a27.968,27.968,0,0,0,12.959-1.567,23.879,23.879,0,0,0,8.255-5.362s-3.555-9.989-6.745-17.167c-2.864-6.443-4.583-8.848-5.822-10.125a28.065,28.065,0,0,0-7.011-5.214Z" transform="translate(150.612 2121.731)" fill="#fff"/>
      <path id="Path_703" data-name="Path 703" d="M571.942,281l-10.362-4.471-8.165-21.037s1.5.455,3.467,1.251h.009c.038.018.122.047.265.1a1.086,1.086,0,0,1,.151.066c1.762.824,8.591,4.849,13.318,19.474l.113.369c.5,1.686.871,3.041,1.07,3.742.02.066.039.133.057.208C571.895,280.8,571.914,280.9,571.942,281Z" transform="translate(151.088 2121.484)" fill="#fff"/>
      <g id="Group_545" data-name="Group 545" transform="translate(665.284 2420.799)">
        <path id="Path_704" data-name="Path 704" d="M583.879,311.921v.011c-.152,1.293-.509,2.222-1.148,2.552-.1.065-1.551.928-1.653.993a88.149,88.149,0,0,1-10.945,5.66A396.551,396.551,0,0,1,531.91,334.87a45.055,45.055,0,0,0-2.338-5.335,100.131,100.131,0,0,0,16.592-10.186c8.237-6.286,20.084-13.923,20.084-13.923l2.992-3.519s10.634-9.788,12.342-7.819c0,0,.017.1.054.27.254,1.021,1.1,4.776,1.7,8.767a1.233,1.233,0,0,1,.034.208A37.089,37.089,0,0,1,583.879,311.921Z" transform="translate(-517.611 -293.826)" fill="#e5918f"/>
        <path id="Path_705" data-name="Path 705" d="M532.294,324.722a6.578,6.578,0,0,1-4.2.807c-1.172-.246-1.645-.726-2.512-.878a19.512,19.512,0,0,1-4.318-1c-1.142-.56-1.588-.623-1.548.525s2.294,2.139,2.906,2.457a5.792,5.792,0,0,1,1.461,1.463c.083.128-3.758,2.138-4.79,1.73a2.99,2.99,0,0,0-.133,1.441c.175.516.965.7,1.027.957s-.182.789-.01,1.2.876.413,1.16,1.082-.029.68.178,1.378,1.1.824,1.269,1.183.08.781.454,1.029,3.828-.861,5.089-1.4,4.63-5.391,8.358-7.044Z" transform="translate(-519.109 -289.611)" fill="#e5918f"/>
      </g>
      <path id="Path_706" data-name="Path 706" d="M549.447,343.806H522.585v-2.628h26.862a1.314,1.314,0,0,1,1.315,1.314h0A1.315,1.315,0,0,1,549.447,343.806Z" transform="translate(146.673 2133.754)" fill="#3f3d56"/>
      <path id="Path_707" data-name="Path 707" d="M543.743,350.122H476.485a1.792,1.792,0,0,1-1.727-1.313l-13.766-49.554a1.722,1.722,0,0,1,1.659-2.182h65.04a3.374,3.374,0,0,1,3.25,2.472l13.716,49.376A.949.949,0,0,1,543.743,350.122Z" transform="translate(137.844 2127.438)" fill="#3f3d56"/>
      <path id="Path_708" data-name="Path 708" d="M541.613,350.122H474.356a1.794,1.794,0,0,1-1.729-1.313l-13.765-49.554a1.722,1.722,0,0,1,1.659-2.182H525.56a3.374,3.374,0,0,1,3.251,2.472l13.716,49.376A.949.949,0,0,1,541.613,350.122Z" transform="translate(137.539 2127.438)" fill="#2f2e41"/>
      <path id="Path_709" data-name="Path 709" d="M298.064,318.094l7.791-7.988a20.891,20.891,0,0,1,.694-4.313c.424-.751,1.52-3.534,2.066-3.837a2.822,2.822,0,0,1,1.638,0,7.5,7.5,0,0,1,1.567-.365,4.6,4.6,0,0,1,1.394.444s1.165-.079,1.65-.079a1.036,1.036,0,0,1,.641.136,34.4,34.4,0,0,1,2.788-2.889c.91-.727,2.3-2.068,2.714-2.062.389,0,.56.688.277,1.416a8.07,8.07,0,0,1-1.515,1.9l-3.55,5.379a7.635,7.635,0,0,0,.929-.445c.323-.2,2.489-2.225,2.62-2.306s1.1-.727,1.668-.08-3.717,5.777-4.4,6.465a37.512,37.512,0,0,1-4.624,2.681s-4.157,7.478-4.561,7.962S298.064,318.094,298.064,318.094Z" transform="translate(114.522 2127.448)" fill="#e49191"/>
      <path id="Path_710" data-name="Path 710" d="M308.1,284.869s-4.352,25.21-8.448,25.8c0,0-16.354.66-20-19.179-3.16-17.2,9.513-20.873,15.439-19.557S309.376,274.1,308.1,284.869Z" transform="translate(111.815 2123.803)" fill="#e49191"/>
      <path id="Path_711" data-name="Path 711" d="M293.862,303.97s-2.291,3.088-3.093,10.568a24.278,24.278,0,0,1-13.09-2.259,92.651,92.651,0,0,0,3.8-22.007" transform="translate(111.603 2126.465)" fill="#e49191"/>
      <path id="Path_712" data-name="Path 712" d="M289.463,268.243c-8.936,1.974-8.222,7.542-8.222,7.542-4.183,1.036-5.083,2.763-5.048,10.485s2.829,17,4.37,17.75,10.277.791,11.007.526,3.786-7.35,3.074-8.6.035-6.148,2.07-6.333,1.636,2.968,1.636,2.968l1.673-.367,1.292-3.167c11.809.7,14.86-12.755,14.86-12.755C313.338,274.447,298.4,266.269,289.463,268.243Z" transform="translate(111.39 2123.267)" fill="#20065e"/>
      <path id="Path_713" data-name="Path 713" d="M201.658,417.5l9.036,1.306L207.7,429.361l-9.786-2.468a6.362,6.362,0,0,1,2.029-9.389A3.291,3.291,0,0,1,201.658,417.5Z" transform="translate(99.995 2144.668)" fill="#e5918f"/>
      <path id="Path_714" data-name="Path 714" d="M268.035,398.914l-13.318-40.325s-4.037-1.438-6.1,0c0,0-13.874,7.461-12.395,28.733,1.116,16.037,4.5,33.431,5.874,40.405l-35.532-1.315a12.107,12.107,0,0,0-1.548,11.993s44.649,12.008,50.938,13.117c5.111.9,10.706,1.6,13.407-.717C274.117,446.73,268.035,398.914,268.035,398.914Z" transform="translate(101.06 2136.156)" fill="url(#linear-gradient)"/>
      <path id="Path_715" data-name="Path 715" d="M238.459,417.5l9.036,1.306L244.5,429.361l-9.786-2.468a6.362,6.362,0,0,1,2.029-9.389A3.291,3.291,0,0,1,238.459,417.5Z" transform="translate(105.265 2144.668)" fill="#e5918f"/>
      <path id="Path_716" data-name="Path 716" d="M236.945,423.375c-.2,2.077,1.615,3.948,1.283,4.465s-6.406,10.708-6.406,10.708,4.585,2,3.846,4.881H224.055a9.64,9.64,0,0,1-2.959-6.657,33.689,33.689,0,0,1,2.86-8.505c2.07-3.994,6.779-13.012,6.779-13.012a6.575,6.575,0,0,1,3.871.074,23.475,23.475,0,0,1,5.618,2.513S237.445,418.242,236.945,423.375Z" transform="translate(103.5 2144.328)" fill="#8524d9"/>
      <path id="Path_717" data-name="Path 717" d="M327.268,442.255c-2.867-10.7-29.843-56.37-38.969-68.7-18.744-8.138-38.722-15.045-38.722-15.045-8.262,1.973-12.332,18.622-7.646,29.72,3.215,7.615,23.609,26.778,36.1,38.06l-34.657-.041s-4.084,6.1-.383,11.9c0,0,57.641,13.107,62.7,13.846s16.4,0,16.4,0S329.682,451.261,327.268,442.255Z" transform="translate(106.2 2136.236)" fill="#220041"/>
      <path id="Path_718" data-name="Path 718" d="M200.144,423.375c-.2,2.077,1.615,3.948,1.283,4.465s-6.408,10.708-6.408,10.708,4.587,2,3.847,4.881H187.254a9.635,9.635,0,0,1-2.959-6.657,33.688,33.688,0,0,1,2.86-8.505c2.07-3.994,6.779-13.012,6.779-13.012a6.573,6.573,0,0,1,3.871.074,23.5,23.5,0,0,1,5.618,2.513S200.644,418.242,200.144,423.375Z" transform="translate(98.23 2144.328)" fill="#8524d9"/>
      <path id="Path_719" data-name="Path 719" d="M359.667,308.679l-18.59,32.7-13.314-13.27-11.019,16.4,3.2,1.536-1.151.958s25.692,12.512,28.771,9.753S364.988,312.4,364.988,312.4Z" transform="translate(117.197 2129.1)" fill="#e49191"/>
      <path id="Path_720" data-name="Path 720" d="M341.159,330.933s-3.51,14.8-10.529,21.824l-17.96-6.836s-8.334,14.016-16.485,24.762c-3.132,4.15-4.173,9.992-7.854,10.757-.229-.08-.446-.149-.674-.206-9.98-3-24.7.183-36.857-4.333-13.421-5-10.815-7.808-10.815-7.808a173.372,173.372,0,0,0,12.758-30.2,185.181,185.181,0,0,0,4.436-18.211,20.969,20.969,0,0,1,17.651-16.885c.1-.011.194-.034.3-.046,10.174-1.292,36.811,1.852,41.99,4.07S341.159,330.933,341.159,330.933Z" transform="translate(106.176 2128.351)" fill="#575988"/>
      <path id="Path_721" data-name="Path 721" d="M306.589,340.9s-8.334,14.016-16.485,24.762c-3.132,4.15-4.173,9.992-7.854,10.758,1.612-.572,4.287-9.054,5.236-10.963s2.481-3.807,5.773-10.472,7.735-16.461,7.735-16.461Z" transform="translate(112.257 2133.374)" fill="#e438d4"/>
      <path id="Path_722" data-name="Path 722" d="M273.26,417.8a58.158,58.158,0,0,1,17.916,2.574" transform="translate(110.97 2144.725)" fill="none" stroke="#1b0133" stroke-miterlimit="10" stroke-width="1.065"/>
      <path id="Path_723" data-name="Path 723" d="M368.319,298.884a17.393,17.393,0,0,0-3.126,2.254l1.06-2.029a19.976,19.976,0,0,0,1.906-2.1c.505-.743.239-1.486-.159-1.526a15.572,15.572,0,0,0-2.928,2.093l.214-.408a19.969,19.969,0,0,0,1.906-2.1c.5-.743.239-1.486-.159-1.526s-3.623,2.667-3.623,2.667l-1.571,2.1,1.183-2.3a9.922,9.922,0,0,0,1.04-1.594c.415-.831.115-1.086-.116-1.363s-2.4,1.34-2.956,1.986a33.525,33.525,0,0,0-2.448,3.638l-1.814,3.753c-.117-1.087-.3-2.948-.426-4.134-.185-1.709-1.732-2.114-1.786-1.283s-.916,4.919-.72,7.136.566,3.672.7,4.919-1.155,3.74-1.155,3.74,5.173,3.212,6.029,2.251a40.405,40.405,0,0,0,3.555-4.535,24.153,24.153,0,0,0,2.025-4.573l1.616-3.454a19.973,19.973,0,0,0,1.906-2.1C368.983,299.666,368.717,298.923,368.319,298.884Z" transform="translate(122.438 2126.86)" fill="#e49191"/>
      <g id="Group_550" data-name="Group 550" transform="translate(719.999 2321.625)">
        <path id="Path_724" data-name="Path 724" d="M634.673,207.074H574.01a7.04,7.04,0,0,0-7.04,7.04v14.33a7.043,7.043,0,0,0,6.152,6.985,1.013,1.013,0,0,1,.888,1.007v7.846a.467.467,0,0,0,.846.271l6.179-8.64a1.024,1.024,0,0,1,.832-.429h52.806a7.04,7.04,0,0,0,7.04-7.04v-14.33A7.04,7.04,0,0,0,634.673,207.074Z" transform="translate(-566.97 -207.074)" fill="none" stroke="#fff" stroke-miterlimit="10" stroke-width="0.896"/>
        <g id="Group_549" data-name="Group 549" transform="translate(11.711 11.865)">
          <path id="Path_725" data-name="Path 725" d="M581.85,219.771a2.318,2.318,0,1,1-2.318-2.318A2.317,2.317,0,0,1,581.85,219.771Z" transform="translate(-577.214 -217.453)" fill="none" stroke="#fff" stroke-miterlimit="10" stroke-width="0.896"/>
          <path id="Path_726" data-name="Path 726" d="M592.059,219.771a2.318,2.318,0,1,1-2.317-2.318A2.317,2.317,0,0,1,592.059,219.771Z" transform="translate(-575.752 -217.453)" fill="none" stroke="#fff" stroke-miterlimit="10" stroke-width="0.896"/>
          <path id="Path_727" data-name="Path 727" d="M602.268,219.771a2.317,2.317,0,1,1-2.317-2.318A2.317,2.317,0,0,1,602.268,219.771Z" transform="translate(-574.29 -217.453)" fill="none" stroke="#fff" stroke-miterlimit="10" stroke-width="0.896"/>
          <path id="Path_728" data-name="Path 728" d="M612.478,219.771a2.318,2.318,0,1,1-2.318-2.318A2.317,2.317,0,0,1,612.478,219.771Z" transform="translate(-572.828 -217.453)" fill="none" stroke="#fff" stroke-miterlimit="10" stroke-width="0.896"/>
          <path id="Path_729" data-name="Path 729" d="M622.687,219.771a2.318,2.318,0,1,1-2.317-2.318A2.317,2.317,0,0,1,622.687,219.771Z" transform="translate(-571.366 -217.453)" fill="none" stroke="#fff" stroke-miterlimit="10" stroke-width="0.896"/>
        </g>
      </g>
      <g id="Group_552" data-name="Group 552" transform="translate(301.317 2384.451)">
        <path id="Path_730" data-name="Path 730" d="M207.773,262.031h60.663a7.039,7.039,0,0,1,7.039,7.039V283.4a7.04,7.04,0,0,1-6.15,6.984,1.015,1.015,0,0,0-.888,1.008v7.845a.466.466,0,0,1-.846.271l-6.179-8.64a1.022,1.022,0,0,0-.832-.428H207.773a7.04,7.04,0,0,1-7.04-7.04V269.07A7.04,7.04,0,0,1,207.773,262.031Z" transform="translate(-200.733 -262.031)" fill="none" stroke="#fff" stroke-miterlimit="10" stroke-width="0.896"/>
        <g id="Group_551" data-name="Group 551" transform="translate(11.711 11.865)">
          <path id="Path_731" data-name="Path 731" d="M251.814,274.728a2.318,2.318,0,1,0,2.318-2.318A2.318,2.318,0,0,0,251.814,274.728Z" transform="translate(-205.129 -272.41)" fill="none" stroke="#fff" stroke-miterlimit="10" stroke-width="0.896"/>
          <path id="Path_732" data-name="Path 732" d="M241.6,274.728a2.318,2.318,0,1,0,2.317-2.318A2.318,2.318,0,0,0,241.6,274.728Z" transform="translate(-206.591 -272.41)" fill="none" stroke="#fff" stroke-miterlimit="10" stroke-width="0.896"/>
          <path id="Path_733" data-name="Path 733" d="M231.4,274.728a2.318,2.318,0,1,0,2.318-2.318A2.318,2.318,0,0,0,231.4,274.728Z" transform="translate(-208.053 -272.41)" fill="none" stroke="#fff" stroke-miterlimit="10" stroke-width="0.896"/>
          <path id="Path_734" data-name="Path 734" d="M221.186,274.728a2.318,2.318,0,1,0,2.317-2.318A2.318,2.318,0,0,0,221.186,274.728Z" transform="translate(-209.515 -272.41)" fill="none" stroke="#fff" stroke-miterlimit="10" stroke-width="0.896"/>
          <path id="Path_735" data-name="Path 735" d="M210.977,274.728a2.318,2.318,0,1,0,2.317-2.318A2.317,2.317,0,0,0,210.977,274.728Z" transform="translate(-210.977 -272.41)" fill="none" stroke="#fff" stroke-miterlimit="10" stroke-width="0.896"/>
        </g>
      </g>
      <rect id="Rectangle_178" data-name="Rectangle 178" width="45.439" height="45.439" rx="7.708" transform="translate(470.601 2543.414)" fill="#5a1199"/>
      <rect id="Rectangle_179" data-name="Rectangle 179" width="45.439" height="45.439" rx="7.708" transform="translate(462.32 2543.414)" fill="#8524d9"/>
      <path id="Path_738" data-name="Path 738" d="M356.974,413.473,370.018,421a1.208,1.208,0,0,1,0,2.092l-13.044,7.53a1.207,1.207,0,0,1-1.811-1.046V414.52A1.208,1.208,0,0,1,356.974,413.473Z" transform="translate(122.698 2144.084)" fill="#fff"/>
      <rect id="Rectangle_180" data-name="Rectangle 180" width="59.399" height="59.399" rx="10.076" transform="translate(747.072 2529.454)" fill="#5a1199"/>
      <rect id="Rectangle_181" data-name="Rectangle 181" width="59.399" height="59.399" rx="10.076" transform="translate(736.247 2529.454)" fill="#5a1199"/>
      <path id="Path_739" data-name="Path 739" d="M615.193,402.512a7.136,7.136,0,1,1-7.137-7.137A7.137,7.137,0,0,1,615.193,402.512Z" transform="translate(157.89 2141.516)" fill="#fff"/>
      <path id="Path_740" data-name="Path 740" d="M623.9,424.618v10.536a1.724,1.724,0,0,1-1.723,1.724H595.872a1.724,1.724,0,0,1-1.724-1.724V424.618a14.877,14.877,0,0,1,14.878-14.876h0A14.877,14.877,0,0,1,623.9,424.618Z" transform="translate(156.921 2143.573)" fill="#fff"/>
      <g id="Group_557" data-name="Group 557" transform="translate(608.001 2297.773)">
        <path id="Path_741" data-name="Path 741" d="M494.11,189.72H470.756A1.755,1.755,0,0,1,469,187.965h0a1.756,1.756,0,0,1,1.755-1.755H494.11a1.755,1.755,0,0,1,1.755,1.755h0A1.754,1.754,0,0,1,494.11,189.72Z" transform="translate(-469.001 -186.21)" fill="#f0f4ff"/>
        <path id="Path_742" data-name="Path 742" d="M513.739,189.72h-16.9a1.755,1.755,0,0,1-1.755-1.755h0a1.756,1.756,0,0,1,1.755-1.755h16.9a1.755,1.755,0,0,1,1.755,1.755h0A1.755,1.755,0,0,1,513.739,189.72Z" transform="translate(-465.266 -186.21)" fill="#f0f4ff"/>
        <path id="Path_743" data-name="Path 743" d="M480.679,196.47h-9.923A1.755,1.755,0,0,1,469,194.715h0a1.756,1.756,0,0,1,1.755-1.755h9.923a1.756,1.756,0,0,1,1.755,1.755h0A1.755,1.755,0,0,1,480.679,196.47Z" transform="translate(-469.001 -185.243)" fill="#f0f4ff"/>
        <path id="Path_744" data-name="Path 744" d="M515.493,196.47H484.588a1.755,1.755,0,0,1-1.755-1.755h0a1.756,1.756,0,0,1,1.755-1.755h30.905a1.755,1.755,0,0,1,1.755,1.755h0A1.754,1.754,0,0,1,515.493,196.47Z" transform="translate(-467.02 -185.243)" fill="#f0f4ff"/>
        <path id="Path_745" data-name="Path 745" d="M501.541,203.22H470.756A1.755,1.755,0,0,1,469,201.465h0a1.756,1.756,0,0,1,1.755-1.755h30.785a1.755,1.755,0,0,1,1.755,1.755h0A1.754,1.754,0,0,1,501.541,203.22Z" transform="translate(-469.001 -184.277)" fill="#f0f4ff"/>
        <path id="Path_746" data-name="Path 746" d="M512.865,203.22h-9.922a1.755,1.755,0,0,1-1.756-1.755h0a1.756,1.756,0,0,1,1.756-1.755h9.922a1.755,1.755,0,0,1,1.755,1.755h0A1.755,1.755,0,0,1,512.865,203.22Z" transform="translate(-464.392 -184.277)" fill="#f0f4ff"/>
      </g>
      <rect id="Rectangle_182" data-name="Rectangle 182" width="90.269" height="49.897" rx="3.823" transform="translate(251.483 2430.632)" fill="#8524d9"/>
      <line id="Line_22" data-name="Line 22" x2="82.596" transform="translate(255.319 2437.373)" fill="none" stroke="#fff" stroke-linecap="round" stroke-miterlimit="10" stroke-width="0.896"/>
      <ellipse id="Ellipse_161" data-name="Ellipse 161" cx="1" cy="1" rx="1" ry="1" transform="translate(334.735 2432.943)" fill="#fff"/>
      <ellipse id="Ellipse_162" data-name="Ellipse 162" cx="1" cy="1" rx="1" ry="1" transform="translate(329.519 2432.943)" fill="#fff"/>
      <ellipse id="Ellipse_163" data-name="Ellipse 163" cx="1" cy="1" rx="1" ry="1" transform="translate(324.303 2432.943)" fill="#fff"/>
      <g id="Group_558" data-name="Group 558" transform="translate(255.32 2441.326)">
        <path id="Path_747" data-name="Path 747" d="M175.894,314.544H161.878a1.381,1.381,0,0,1-1.381-1.381h0a1.382,1.382,0,0,1,1.381-1.382h14.016a1.382,1.382,0,0,1,1.381,1.382h0A1.381,1.381,0,0,1,175.894,314.544Z" transform="translate(-160.497 -311.781)" fill="#fff"/>
        <path id="Path_748" data-name="Path 748" d="M175.894,320.127H161.878a1.381,1.381,0,0,1-1.381-1.381h0a1.381,1.381,0,0,1,1.381-1.381h14.016a1.381,1.381,0,0,1,1.381,1.381h0A1.381,1.381,0,0,1,175.894,320.127Z" transform="translate(-160.497 -310.981)" fill="#fff"/>
        <path id="Path_749" data-name="Path 749" d="M175.894,325.711H161.878a1.381,1.381,0,0,1-1.381-1.382h0a1.381,1.381,0,0,1,1.381-1.381h14.016a1.381,1.381,0,0,1,1.381,1.381h0A1.381,1.381,0,0,1,175.894,325.711Z" transform="translate(-160.497 -310.182)" fill="#fff"/>
        <path id="Path_750" data-name="Path 750" d="M175.894,331.294H161.878a1.381,1.381,0,0,1-1.381-1.381h0a1.382,1.382,0,0,1,1.381-1.382h14.016a1.382,1.382,0,0,1,1.381,1.382h0A1.381,1.381,0,0,1,175.894,331.294Z" transform="translate(-160.497 -309.382)" fill="#fff"/>
        <path id="Path_751" data-name="Path 751" d="M175.894,336.877H161.878A1.381,1.381,0,0,1,160.5,335.5h0a1.381,1.381,0,0,1,1.381-1.381h14.016a1.381,1.381,0,0,1,1.381,1.381h0A1.381,1.381,0,0,1,175.894,336.877Z" transform="translate(-160.497 -308.583)" fill="#fff"/>
        <path id="Path_752" data-name="Path 752" d="M175.894,342.461H161.878a1.381,1.381,0,0,1-1.381-1.382h0a1.381,1.381,0,0,1,1.381-1.381h14.016a1.381,1.381,0,0,1,1.381,1.381h0A1.381,1.381,0,0,1,175.894,342.461Z" transform="translate(-160.497 -307.783)" fill="#fff"/>
      </g>
      <g id="Group_559" data-name="Group 559" transform="translate(274.754 2441.326)">
        <path id="Path_753" data-name="Path 753" d="M239.277,314.544h-60.4a1.381,1.381,0,0,1-1.381-1.381h0a1.382,1.382,0,0,1,1.381-1.382h60.4a1.382,1.382,0,0,1,1.382,1.382h0A1.381,1.381,0,0,1,239.277,314.544Z" transform="translate(-177.497 -311.781)" fill="#aa50f8"/>
        <path id="Path_754" data-name="Path 754" d="M239.277,320.127h-60.4a1.381,1.381,0,0,1-1.381-1.381h0a1.381,1.381,0,0,1,1.381-1.381h60.4a1.381,1.381,0,0,1,1.382,1.381h0A1.381,1.381,0,0,1,239.277,320.127Z" transform="translate(-177.497 -310.981)" fill="#aa50f8"/>
        <path id="Path_755" data-name="Path 755" d="M239.277,325.711h-60.4a1.381,1.381,0,0,1-1.381-1.382h0a1.381,1.381,0,0,1,1.381-1.381h60.4a1.381,1.381,0,0,1,1.382,1.381h0A1.382,1.382,0,0,1,239.277,325.711Z" transform="translate(-177.497 -310.182)" fill="#aa50f8"/>
        <path id="Path_756" data-name="Path 756" d="M239.277,331.294h-60.4a1.381,1.381,0,0,1-1.381-1.381h0a1.382,1.382,0,0,1,1.381-1.382h60.4a1.382,1.382,0,0,1,1.382,1.382h0A1.381,1.381,0,0,1,239.277,331.294Z" transform="translate(-177.497 -309.382)" fill="#aa50f8"/>
        <path id="Path_757" data-name="Path 757" d="M239.277,336.877h-60.4A1.381,1.381,0,0,1,177.5,335.5h0a1.381,1.381,0,0,1,1.381-1.381h60.4a1.381,1.381,0,0,1,1.382,1.381h0A1.381,1.381,0,0,1,239.277,336.877Z" transform="translate(-177.497 -308.583)" fill="#aa50f8"/>
        <path id="Path_758" data-name="Path 758" d="M239.277,342.461h-60.4a1.381,1.381,0,0,1-1.381-1.382h0a1.381,1.381,0,0,1,1.381-1.381h60.4a1.381,1.381,0,0,1,1.382,1.381h0A1.382,1.382,0,0,1,239.277,342.461Z" transform="translate(-177.497 -307.783)" fill="#aa50f8"/>
      </g>
      <ellipse id="Ellipse_164" data-name="Ellipse 164" cx="37.16" cy="37.16" rx="37.16" ry="37.16" transform="matrix(0.233, -0.972, 0.972, 0.233, 679.656, 2238.695)" fill="none" stroke="#dee3fc" stroke-miterlimit="10" stroke-width="0.79"/>
      <ellipse id="Ellipse_165" data-name="Ellipse 165" cx="32.307" cy="32.307" rx="32.307" ry="32.307" transform="translate(681.836 2194.744) rotate(-23.868)" fill="#8524d9"/>
      <path id="Path_759" data-name="Path 759" d="M574.174,110.863a2.94,2.94,0,1,1-2.94-2.941A2.94,2.94,0,0,1,574.174,110.863Z" transform="translate(153.218 2100.353)" fill="#fff"/>
      <path id="Path_760" data-name="Path 760" d="M571.946,112.352h0a.92.92,0,0,1-1.251-.358l-9.5-17.138a.92.92,0,0,1,.358-1.251h0a.92.92,0,0,1,1.251.358l9.5,17.138A.92.92,0,0,1,571.946,112.352Z" transform="translate(152.185 2098.286)" fill="#fff"/>
      <path id="Path_761" data-name="Path 761" d="M571.308,110.937h0a.92.92,0,0,1,1.3,0l8.22,8.221a.919.919,0,0,1,0,1.3h0a.918.918,0,0,1-1.3,0l-8.22-8.22A.921.921,0,0,1,571.308,110.937Z" transform="translate(153.611 2100.746)" fill="#fff"/>
      <g id="Group_562" data-name="Group 562" transform="translate(694.878 2181.641)">
        <line id="Line_23" data-name="Line 23" y1="3.715" transform="translate(29.772)" fill="none" stroke="#fff" stroke-linecap="round" stroke-miterlimit="10" stroke-width="2"/>
        <line id="Line_24" data-name="Line 24" x2="3.715" transform="translate(55.433 29.772)" fill="none" stroke="#fff" stroke-linecap="round" stroke-miterlimit="10" stroke-width="2"/>
        <line id="Line_25" data-name="Line 25" y2="3.715" transform="translate(29.376 55.433)" fill="none" stroke="#fff" stroke-linecap="round" stroke-miterlimit="10" stroke-width="2"/>
        <line id="Line_26" data-name="Line 26" x1="3.715" transform="translate(0 29.376)" fill="none" stroke="#fff" stroke-linecap="round" stroke-miterlimit="10" stroke-width="2"/>
      </g>
      <g id="Group_563" data-name="Group 563" transform="translate(698.741 2185.505)" opacity="0.5">
        <line id="Line_27" data-name="Line 27" x1="1.858" y1="3.218" transform="translate(11.095)" fill="none" stroke="#dee3fc" stroke-linecap="round" stroke-miterlimit="10" stroke-width="1"/>
        <line id="Line_28" data-name="Line 28" y1="1.858" x2="3.218" transform="translate(48.204 11.095)" fill="none" stroke="#dee3fc" stroke-linecap="round" stroke-miterlimit="10" stroke-width="1"/>
        <line id="Line_29" data-name="Line 29" x2="1.858" y2="3.218" transform="translate(38.469 48.204)" fill="none" stroke="#dee3fc" stroke-linecap="round" stroke-miterlimit="10" stroke-width="1"/>
        <line id="Line_30" data-name="Line 30" x1="3.218" y2="1.858" transform="translate(0 38.469)" fill="none" stroke="#dee3fc" stroke-linecap="round" stroke-miterlimit="10" stroke-width="1"/>
      </g>
      <g id="Group_564" data-name="Group 564" transform="translate(698.939 2185.702)" opacity="0.5">
        <line id="Line_31" data-name="Line 31" x1="3.218" y1="1.858" transform="translate(0 10.555)" fill="none" stroke="#dee3fc" stroke-linecap="round" stroke-miterlimit="10" stroke-width="1"/>
        <line id="Line_32" data-name="Line 32" y1="3.218" x2="1.858" transform="translate(38.614)" fill="none" stroke="#dee3fc" stroke-linecap="round" stroke-miterlimit="10" stroke-width="1"/>
        <line id="Line_33" data-name="Line 33" x2="3.218" y2="1.858" transform="translate(47.808 38.614)" fill="none" stroke="#dee3fc" stroke-linecap="round" stroke-miterlimit="10" stroke-width="1"/>
        <line id="Line_34" data-name="Line 34" x1="1.858" y2="3.218" transform="translate(10.555 47.808)" fill="none" stroke="#dee3fc" stroke-linecap="round" stroke-miterlimit="10" stroke-width="1"/>
      </g>
      <rect id="Rectangle_183" data-name="Rectangle 183" width="62.685" height="62.685" rx="9.569" transform="translate(231.194 2335.538)" fill="#5a1199"/>
      <rect id="Rectangle_184" data-name="Rectangle 184" width="62.685" height="62.685" rx="7.667" transform="translate(226.336 2330.108)" fill="#8524d9"/>
      <g id="Group_567" data-name="Group 567" transform="translate(243.759 2339.993)">
        <g id="Group_566" data-name="Group 566">
          <path id="Path_762" data-name="Path 762" d="M175.158,237.422h-.327v-3.591a10.688,10.688,0,1,0-21.376,0v3.591h-.072a3,3,0,0,0-3,3v13.532a3,3,0,0,0,3,3h21.775a3,3,0,0,0,3-3V240.42A3,3,0,0,0,175.158,237.422Zm-19-3.591a7.981,7.981,0,1,1,15.961,0v3.591H156.163Z" transform="translate(-150.385 -223.141)" fill="#dee3fc"/>
          <path id="Path_763" data-name="Path 763" d="M166.485,242.154a3.488,3.488,0,1,0-5.246,3.007.625.625,0,0,1,.317.7l-.607,2.241a2.095,2.095,0,1,0,4.043,0l-.6-2.217a.627.627,0,0,1,.325-.705A3.473,3.473,0,0,0,166.485,242.154Z" transform="translate(-149.078 -220.918)" fill="#7e89fd"/>
        </g>
        <path id="Path_764" data-name="Path 764" d="M176.872,257.19h-25.2a1.285,1.285,0,0,1-1.286-1.286h0a1.286,1.286,0,0,1,1.286-1.286h25.2a1.287,1.287,0,0,1,1.286,1.286h0A1.286,1.286,0,0,1,176.872,257.19Z" transform="translate(-150.385 -218.634)" fill="#dee3fc"/>
        <path id="Path_765" data-name="Path 765" d="M176.872,261h-25.2a1.286,1.286,0,0,1-1.286-1.286h0a1.285,1.285,0,0,1,1.286-1.286h25.2a1.286,1.286,0,0,1,1.286,1.286h0A1.287,1.287,0,0,1,176.872,261Z" transform="translate(-150.385 -218.088)" fill="#dee3fc"/>
      </g>
      <path id="Rectangle_185" data-name="Rectangle 185" d="M5.634,0H31.27A5.634,5.634,0,0,1,36.9,5.634V31.27A5.633,5.633,0,0,1,31.27,36.9H5.634A5.634,5.634,0,0,1,0,31.27V5.634A5.634,5.634,0,0,1,5.634,0Z" transform="translate(746.241 2435.004)" fill="#5a1199"/>
      <rect id="Rectangle_186" data-name="Rectangle 186" width="36.904" height="36.904" rx="4.513" transform="translate(743.381 2431.807)" fill="#8524d9"/>
      <g id="Group_574" data-name="Group 574" transform="translate(750.811 2439.236)">
        <g id="Group_570" data-name="Group 570" transform="translate(2.421)">
          <path id="Path_766" data-name="Path 766" d="M597.185,332a1.087,1.087,0,0,1-.312-.043,1.141,1.141,0,0,1-.789-1.41l5.581-19.756a1.143,1.143,0,1,1,2.2.621l-5.581,19.756A1.142,1.142,0,0,1,597.185,332Z" transform="translate(-596.041 -309.953)" fill="#fff"/>
        </g>
        <g id="Group_571" data-name="Group 571" transform="translate(11.753)">
          <path id="Path_767" data-name="Path 767" d="M605.348,332a1.073,1.073,0,0,1-.311-.043,1.14,1.14,0,0,1-.79-1.41l5.582-19.756a1.143,1.143,0,1,1,2.2.621l-5.582,19.756A1.141,1.141,0,0,1,605.348,332Z" transform="translate(-604.204 -309.953)" fill="#fff"/>
        </g>
        <g id="Group_572" data-name="Group 572" transform="translate(0 5.403)">
          <path id="Path_768" data-name="Path 768" d="M614.822,316.965H595.066a1.143,1.143,0,1,1,0-2.286h19.756a1.143,1.143,0,1,1,0,2.286Z" transform="translate(-593.923 -314.679)" fill="#fff"/>
        </g>
        <g id="Group_573" data-name="Group 573" transform="translate(0 14.427)">
          <path id="Path_769" data-name="Path 769" d="M614.822,324.859H595.066a1.143,1.143,0,1,1,0-2.286h19.756a1.143,1.143,0,1,1,0,2.286Z" transform="translate(-593.923 -322.573)" fill="#fff"/>
        </g>
      </g>
      <g id="Group_576" data-name="Group 576" transform="translate(315.346 2351.549)">
        <path id="Path_770" data-name="Path 770" d="M228.859,236.383H214.571A1.568,1.568,0,0,1,213,234.816h0a1.567,1.567,0,0,1,1.567-1.566h14.288a1.566,1.566,0,0,1,1.566,1.566h0A1.567,1.567,0,0,1,228.859,236.383Z" transform="translate(-213.004 -233.25)" fill="#f0f4ff"/>
        <path id="Path_771" data-name="Path 771" d="M243.252,242.466H214.571A1.567,1.567,0,0,1,213,240.9h0a1.568,1.568,0,0,1,1.567-1.567h28.681a1.567,1.567,0,0,1,1.566,1.567h0A1.566,1.566,0,0,1,243.252,242.466Z" transform="translate(-213.004 -232.379)" fill="#f0f4ff"/>
        <path id="Path_772" data-name="Path 772" d="M217.959,248.551h-3.387A1.568,1.568,0,0,1,213,246.983h0a1.567,1.567,0,0,1,1.567-1.566h3.387a1.566,1.566,0,0,1,1.566,1.566h0A1.567,1.567,0,0,1,217.959,248.551Z" transform="translate(-213.004 -231.508)" fill="#f0f4ff"/>
        <path id="Path_773" data-name="Path 773" d="M242.161,248.551H222.19a1.567,1.567,0,0,1-1.566-1.567h0a1.566,1.566,0,0,1,1.566-1.566h19.971a1.566,1.566,0,0,1,1.566,1.566h0A1.567,1.567,0,0,1,242.161,248.551Z" transform="translate(-211.913 -231.508)" fill="#f0f4ff"/>
        <path id="Path_774" data-name="Path 774" d="M240.744,236.383h-8.661a1.567,1.567,0,0,1-1.566-1.567h0a1.567,1.567,0,0,1,1.566-1.566h8.661a1.566,1.566,0,0,1,1.566,1.566h0A1.567,1.567,0,0,1,240.744,236.383Z" transform="translate(-210.496 -233.25)" fill="#f0f4ff"/>
      </g>
      <rect id="Rectangle_161" data-name="Rectangle 161" width="153.817" height="113.897" rx="8.18" transform="translate(423.63 2207.728)" fill="#8524d9"/>
      <path id="Intersection_12" data-name="Intersection 12" d="M0,87.188,38.311,49.782,84.671,4.521a15.887,15.887,0,0,1,23.466,1.392l26.132,32.393v40.7a8.18,8.18,0,0,1-8.179,8.18Z" transform="translate(443.179 2234.436)" fill="#fff" stroke="rgba(0,0,0,0)" stroke-miterlimit="10" stroke-width="1"/>
      <path id="Intersection_13" data-name="Intersection 13" d="M8.18,54.991A8.18,8.18,0,0,1,0,46.811V23.436L20.845,4.409c6.391-6.39,16.318-5.756,23.46,1.392L57.859,17.585l43.028,37.406Z" transform="translate(423.63 2266.634)" fill="#fff" stroke="rgba(0,0,0,0)" stroke-miterlimit="10" stroke-width="1"/>
      <ellipse id="Ellipse_168" data-name="Ellipse 168" cx="16.777" cy="16.777" rx="16.777" ry="16.777" transform="translate(450.079 2220.579)" fill="#fff"/>
      <path id="Path_736" data-name="Path 736" d="M542.591,180.92H432.025a11.041,11.041,0,0,1-11.041-11.041h0a11.041,11.041,0,0,1,11.041-11.041H542.591a11.041,11.041,0,0,1,11.041,11.041h0A11.041,11.041,0,0,1,542.591,180.92Z" transform="translate(133.371 2106.6)" fill="#fff" stroke="#b918ab" stroke-miterlimit="10" stroke-width="0.896"/>
      <g id="Group_553" data-name="Group 553" transform="translate(661.352 2270.89)">
        <path id="Path_737" data-name="Path 737" d="M527.412,168.567a5.871,5.871,0,1,1-5.872-5.873A5.871,5.871,0,0,1,527.412,168.567Z" transform="translate(-515.669 -162.694)" fill="none" stroke="#c20ab1" stroke-miterlimit="10" stroke-width="1.672"/>
        <line id="Line_21" data-name="Line 21" x2="3.242" y2="3.242" transform="translate(10.023 10.024)" fill="none" stroke="#c20ab1" stroke-linecap="round" stroke-miterlimit="10" stroke-width="1.672"/>
      </g>
    </g>
  </g>
</svg>
