<svg xmlns="http://www.w3.org/2000/svg" xmlns:xlink="http://www.w3.org/1999/xlink" width="535.722" height="530.309" viewBox="0 0 535.722 530.309">
  <defs>
    <clipPath id="clip-path">
      <rect id="Rectangle_230" data-name="Rectangle 230" width="179.572" height="136.969" fill="none"/>
    </clipPath>
  </defs>
  <g id="payment_integration_image" data-name="payment integration image" transform="translate(-1074.969 -4188)">
    <ellipse id="Ellipse_190" data-name="Ellipse 190" cx="231.401" cy="231.401" rx="231.401" ry="231.401" transform="translate(1123.936 4255.506)" fill="#410f6e"/>
    <g id="Group_695" data-name="Group 695" transform="translate(1074.969 4188)">
      <g id="Group_667" data-name="Group 667" transform="translate(82.739 139.479)">
        <g id="Group_664" data-name="Group 664" transform="translate(3.424 3.424)">
          <g id="Group_663" data-name="Group 663" transform="translate(0 0)">
            <g id="Group_662" data-name="Group 662" transform="translate(0)">
              <ellipse id="Ellipse_181" data-name="Ellipse 181" cx="36.992" cy="36.992" rx="36.992" ry="36.992" transform="translate(11.768 84.811) rotate(-99.152)" fill="#ff6110"/>
            </g>
          </g>
        </g>
        <circle id="Ellipse_182" data-name="Ellipse 182" cx="32.406" cy="32.406" r="32.406" transform="translate(45.83 91.659) rotate(-135)" fill="#ffd36b"/>
        <g id="Group_666" data-name="Group 666" transform="translate(34.941 22.287)">
          <g id="Group_665" data-name="Group 665" transform="translate(0)">
            <path id="Path_968" data-name="Path 968" d="M355.083,246.265v-5.88a16.953,16.953,0,0,0,8.91-2.563l-1.4-3.9a15.512,15.512,0,0,1-8.384,2.5c-4.134,0-6.928-2.386-6.928-5.705,0-3.2,2.27-5.184,6.58-6.93,5.939-2.329,9.607-5.006,9.607-10.072,0-4.833-3.436-8.5-8.792-9.375v-5.88h-3.611v5.646a15.543,15.543,0,0,0-7.569,2.038l1.455,3.843a14.087,14.087,0,0,1,7.337-1.98c4.483,0,6.172,2.679,6.172,5.008,0,3.028-2.156,4.542-7.221,6.638-6,2.445-9.026,5.473-9.026,10.656,0,4.6,3.2,8.91,9.2,9.9v6.055Z" transform="translate(-342.214 -198.462)" fill="#ff6110"/>
          </g>
        </g>
      </g>
      <g id="Group_673" data-name="Group 673" transform="translate(32.635 80.186)">
        <g id="Group_670" data-name="Group 670" transform="translate(0 0)">
          <g id="Group_669" data-name="Group 669" transform="translate(0)">
            <g id="Group_668" data-name="Group 668" transform="translate(0)">
              <ellipse id="Ellipse_183" data-name="Ellipse 183" cx="31.747" cy="31.747" rx="31.747" ry="31.747" transform="translate(24.155 82.875) rotate(-112.36)" fill="#ff6110"/>
            </g>
          </g>
        </g>
        <circle id="Ellipse_184" data-name="Ellipse 184" cx="27.811" cy="27.811" r="27.811" transform="translate(41.437 80.769) rotate(-135)" fill="#ffd36b"/>
        <g id="Group_672" data-name="Group 672" transform="translate(32.093 21.232)">
          <g id="Group_671" data-name="Group 671" transform="translate(0)">
            <path id="Path_969" data-name="Path 969" d="M387.568,202.538v-5.045a14.56,14.56,0,0,0,7.647-2.2l-1.2-3.348a13.307,13.307,0,0,1-7.195,2.149c-3.549,0-5.947-2.048-5.947-4.9,0-2.749,1.949-4.449,5.646-5.947,5.1-2,8.246-4.3,8.246-8.645,0-4.149-2.95-7.3-7.546-8.046v-5.047h-3.1v4.846a13.353,13.353,0,0,0-6.5,1.749l1.25,3.3a12.076,12.076,0,0,1,6.3-1.7c3.848,0,5.3,2.3,5.3,4.3,0,2.6-1.849,3.9-6.2,5.7-5.146,2.1-7.745,4.7-7.745,9.143,0,3.948,2.749,7.647,7.9,8.5v5.2Z" transform="translate(-376.525 -161.513)" fill="#ff6110"/>
          </g>
        </g>
      </g>
      <g id="Group_679" data-name="Group 679" transform="translate(88.263 12.757)">
        <g id="Group_676" data-name="Group 676" transform="translate(2.215 2.215)">
          <g id="Group_675" data-name="Group 675" transform="translate(0 0)">
            <g id="Group_674" data-name="Group 674" transform="translate(0)">
              <ellipse id="Ellipse_185" data-name="Ellipse 185" cx="27.189" cy="27.189" rx="27.189" ry="27.189" transform="translate(8.666 62.349) rotate(-99.17)" fill="#ff6110"/>
            </g>
          </g>
        </g>
        <ellipse id="Ellipse_186" data-name="Ellipse 186" cx="23.819" cy="23.819" rx="23.819" ry="23.819" transform="translate(28.941 66.779) rotate(-127.411)" fill="#ffd36b"/>
        <g id="Group_678" data-name="Group 678" transform="translate(25.387 16.086)">
          <g id="Group_677" data-name="Group 677" transform="translate(0)">
            <path id="Path_970" data-name="Path 970" d="M357.673,152.212V147.89a12.463,12.463,0,0,0,6.548-1.885l-1.029-2.866a11.4,11.4,0,0,1-6.161,1.841c-3.04,0-5.094-1.754-5.094-4.194,0-2.354,1.669-3.809,4.836-5.093,4.366-1.713,7.062-3.681,7.062-7.4,0-3.552-2.525-6.249-6.463-6.891v-4.322h-2.654v4.15a11.427,11.427,0,0,0-5.561,1.5l1.068,2.826a10.337,10.337,0,0,1,5.393-1.455c3.294,0,4.536,1.968,4.536,3.68,0,2.226-1.583,3.338-5.307,4.879-4.408,1.8-6.633,4.024-6.633,7.833,0,3.379,2.354,6.546,6.76,7.275v4.451Z" transform="translate(-348.215 -117.077)" fill="#ff6110"/>
          </g>
        </g>
      </g>
      <path id="Path_971" data-name="Path 971" d="M126.625,238.689l.354,80.07.088,22.876.354,80.052c0,43.181,18.446,78.387,41.551,80,.549.036,1.1.054,1.648.054H306.062v-.018c-11.394-.461-21.688-9.091-29.272-22.858-8.008-14.53-12.97-34.781-12.97-57.178l-.088-159.29-.018-23.707c0-44.208-28.439-80.053-63.539-80.053-17.311,0-32.992,8.736-44.473,22.876-11.766,14.528-19.065,34.781-19.065,57.178Z" transform="translate(185.512 -61.916)" fill="#8524d9"/>
      <path id="Path_972" data-name="Path 972" d="M99.6,222.165l.018,40.257.018,10.17v22.786l.016,12.615v22.77l.018,10.187v22.77l.018,12.615v5.12c0,1.7.036,3.384.088,5.05q.213,6.458.975,12.6c.408,3.49.957,6.892,1.612,10.188a117.607,117.607,0,0,0,3.244,12.6,93.574,93.574,0,0,0,3.827,10.17,72.72,72.72,0,0,0,3.224,6.574,68.867,68.867,0,0,0,3.721,6.043,48.669,48.669,0,0,0,9.215,10.17c5.014,4.057,10.543,6.414,16.336,6.644.318.018.639.018.957.018,23.867,0,43.2-35.846,43.2-80.053V222.165Z" transform="translate(349.643 -21.685)" fill="#dbf1fe"/>
      <g id="Group_680" data-name="Group 680" transform="translate(449.255 240.737)">
        <path id="Path_973" data-name="Path 973" d="M112.569,246.813l.018,10.17h65.258v-10.17Z" transform="translate(-112.569 -246.813)" fill="#8524d9"/>
        <rect id="Rectangle_217" data-name="Rectangle 217" width="65.258" height="10.17" transform="translate(0.018 22.786)" fill="#8524d9"/>
        <rect id="Rectangle_218" data-name="Rectangle 218" width="65.24" height="10.171" transform="translate(0.035 45.572)" fill="#8524d9"/>
        <path id="Path_974" data-name="Path 974" d="M112.569,288.655l.018,10.188h65.222V288.655Z" transform="translate(-112.534 -220.315)" fill="#8524d9"/>
        <rect id="Rectangle_219" data-name="Rectangle 219" width="65.222" height="10.171" transform="translate(0.053 91.127)" fill="#8524d9"/>
        <path id="Path_975" data-name="Path 975" d="M112.569,316.558v5.12c0,1.7.036,3.384.088,5.05h65.117v-10.17Z" transform="translate(-112.498 -202.645)" fill="#8524d9"/>
        <path id="Path_976" data-name="Path 976" d="M113.231,330.5c.408,3.49.957,6.892,1.612,10.188H174.68c.673-3.3,1.222-6.7,1.612-10.188Z" transform="translate(-112.097 -193.817)" fill="#8524d9"/>
        <path id="Path_977" data-name="Path 977" d="M116.193,344.449a93.574,93.574,0,0,0,3.827,10.17h45.732a93.558,93.558,0,0,0,3.809-10.17Z" transform="translate(-110.203 -184.982)" fill="#8524d9"/>
        <path id="Path_978" data-name="Path 978" d="M122.8,358.4a48.667,48.667,0,0,0,9.215,10.17h13.377a48.224,48.224,0,0,0,9.215-10.17Z" transform="translate(-106.038 -176.147)" fill="#8524d9"/>
      </g>
      <path id="Path_979" data-name="Path 979" d="M191.456,238.689H328.545c0-22.4,7.3-42.65,19.065-57.178,11.48-14.139,27.161-22.876,44.473-22.876H254.994C219.895,158.636,191.456,194.482,191.456,238.689Z" transform="translate(-6.396 -61.916)" fill="#dbf1fe"/>
      <g id="Group_682" data-name="Group 682" transform="translate(204.473 100.991)">
        <path id="Path_980" data-name="Path 980" d="M209.88,171.439H327.834a59.563,59.563,0,0,1,15.893-10.188H225.738A59.715,59.715,0,0,0,209.88,171.439Z" transform="translate(-192.605 -161.251)" fill="#8524d9"/>
        <path id="Path_981" data-name="Path 981" d="M226.468,185.372h117.97A78.282,78.282,0,0,1,350.5,175.2H232.528A80.161,80.161,0,0,0,226.468,185.372Z" transform="translate(-226.468 -152.416)" fill="#8524d9"/>
      </g>
      <path id="Path_982" data-name="Path 982" d="M163.743,207.852V529.526h196a29.467,29.467,0,0,0,3.969-.273,30.639,30.639,0,0,0,3.217-.608,29.554,29.554,0,0,0,22.332-28.638V362.886A95.37,95.37,0,0,0,344.1,187.826c-2.321-.176-4.642-.256-7-.256H184.025A20.277,20.277,0,0,0,163.743,207.852Z" transform="translate(-1.577 -43.593)" fill="#43425d"/>
      <rect id="Rectangle_220" data-name="Rectangle 220" width="195.779" height="332.643" rx="4.286" transform="translate(153.106 158.194)" fill="#2f2e41"/>
      <rect id="Rectangle_221" data-name="Rectangle 221" width="177.652" height="280.562" transform="translate(162.167 176.781)" fill="#c20ab1"/>
      <ellipse id="Ellipse_187" data-name="Ellipse 187" cx="11.842" cy="11.842" rx="11.842" ry="11.842" transform="translate(240.059 462.246)" fill="#ecf0fb"/>
      <rect id="Rectangle_222" data-name="Rectangle 222" width="45.319" height="6.798" rx="1.607" transform="translate(228.336 164.028)" fill="#fff"/>
      <path id="Rectangle_223" data-name="Rectangle 223" d="M3.1,0H7.879a3.1,3.1,0,0,1,3.1,3.1V172.821a3.1,3.1,0,0,1-3.1,3.1H3.1a3.1,3.1,0,0,1-3.1-3.1V3.1A3.1,3.1,0,0,1,3.1,0Z" transform="translate(179.571 229.102)" fill="#99008b"/>
      <g id="Group_686" data-name="Group 686" transform="translate(212.333 261.772)">
        <path id="Path_983" data-name="Path 983" d="M250.251,340.054h77.325l-8.146-67.944H258.4Z" transform="translate(-250.251 -251.828)" fill="#ecf0fb"/>
        <path id="Path_984" data-name="Path 984" d="M264.575,279.972H266.7c0-9.646,5.868-17.452,13.122-17.452s13.122,7.805,13.122,17.452h2.146c0-11.2-6.837-20.28-15.268-20.28S264.575,268.77,264.575,279.972Z" transform="translate(-241.161 -259.692)" fill="#051445"/>
        <path id="Path_985" data-name="Path 985" d="M327.576,316.994l-38.662-8.472-38.663,8.472Z" transform="translate(-250.251 -228.769)" fill="#bdd2ff"/>
      </g>
      <g id="Mask_Group_4" data-name="Mask Group 4" transform="translate(0 248.577)" clip-path="url(#clip-path)">
        <g id="Group_694" data-name="Group 694" transform="translate(5.761)">
          <rect id="Rectangle_224" data-name="Rectangle 224" width="219.792" height="136.969" rx="7.906" fill="#8524d9"/>
          <rect id="Rectangle_225" data-name="Rectangle 225" width="47.96" height="12.912" transform="translate(7.617 79.233)" fill="#fff"/>
          <rect id="Rectangle_226" data-name="Rectangle 226" width="47.96" height="12.912" transform="translate(59.816 79.233)" fill="#fff"/>
          <rect id="Rectangle_227" data-name="Rectangle 227" width="47.96" height="12.912" transform="translate(112.016 79.233)" fill="#fff"/>
          <rect id="Rectangle_228" data-name="Rectangle 228" width="47.96" height="12.912" transform="translate(164.215 79.233)" fill="#fff"/>
          <rect id="Rectangle_229" data-name="Rectangle 229" width="42.738" height="27.497" rx="3.536" transform="translate(17.907 16.852)" fill="#ff64d0"/>
        </g>
      </g>
      <path id="Path_986" data-name="Path 986" d="M203.907,187.727a94.7,94.7,0,0,1,11.75,1.586,26.836,26.836,0,0,1,11.077,21.721V528.546a30.6,30.6,0,0,1-3.218.608,2.089,2.089,0,0,0,.016-.32v-317.8A23.684,23.684,0,0,0,203.907,187.727Z" transform="translate(138.618 -43.494)" fill="#2f2e41"/>
      <ellipse id="Ellipse_188" data-name="Ellipse 188" cx="28.842" cy="28.842" rx="28.842" ry="28.842" transform="translate(454.24 84.659)" fill="#7f95f4"/>
      <g id="Group_690" data-name="Group 690" transform="translate(466.802 89.228)">
        <path id="Path_987" data-name="Path 987" d="M133.925,191.826,118.664,174.3l6.468-5.633,9.551,10.967,28.6-25.59L169,160.442Z" transform="translate(-118.664 -154.049)" fill="#fff"/>
      </g>
      <ellipse id="Ellipse_189" data-name="Ellipse 189" cx="28.842" cy="28.842" rx="28.842" ry="28.842" transform="translate(454.24)" fill="#7f95f4"/>
      <g id="Group_692" data-name="Group 692" transform="translate(466.802 4.569)">
        <path id="Path_988" data-name="Path 988" d="M133.925,139.992,118.664,122.47l6.468-5.633,9.551,10.967,28.6-25.59L169,108.608Z" transform="translate(-118.664 -102.215)" fill="#fff"/>
      </g>
    </g>
  </g>
</svg>
