<svg xmlns="http://www.w3.org/2000/svg" width="674" height="497.09" viewBox="0 0 674 497.09">
  <g id="seo_integration_image" data-name="seo integration image" transform="translate(-274 -4870)">
    <g id="Group_701" data-name="Group 701" transform="translate(274 4870)">
      <rect id="Rectangle_235" data-name="Rectangle 235" width="44.649" height="0.337" transform="translate(561.818 463.094)" fill="#ebebeb"/>
      <rect id="Rectangle_236" data-name="Rectangle 236" width="11.719" height="0.337" transform="translate(434.766 466.752)" fill="#ebebeb"/>
      <rect id="Rectangle_237" data-name="Rectangle 237" width="25.871" height="0.337" transform="translate(534.598 450.576)" fill="#ebebeb"/>
      <rect id="Rectangle_238" data-name="Rectangle 238" width="58.225" height="0.337" transform="translate(70.715 452.841)" fill="#ebebeb"/>
      <rect id="Rectangle_239" data-name="Rectangle 239" width="8.537" height="0.337" transform="translate(140.941 452.841)" fill="#ebebeb"/>
      <rect id="Rectangle_240" data-name="Rectangle 240" width="126.275" height="0.337" transform="translate(177.223 458.533)" fill="#ebebeb"/>
      <path id="Path_989" data-name="Path 989" d="M306.2,436.231H45.9a7.7,7.7,0,0,1-7.694-7.694V62.646A7.7,7.7,0,0,1,45.9,54.953H306.2a7.7,7.7,0,0,1,7.693,7.693v365.89A7.7,7.7,0,0,1,306.2,436.231ZM45.9,55.29a7.365,7.365,0,0,0-7.357,7.356v365.89a7.365,7.365,0,0,0,7.357,7.357H306.2a7.365,7.365,0,0,0,7.356-7.357V62.646A7.364,7.364,0,0,0,306.2,55.29Z" transform="translate(13.296 -54.953)" fill="#ebebeb"/>
      <path id="Path_990" data-name="Path 990" d="M522.5,436.231H262.2a7.7,7.7,0,0,1-7.693-7.694V62.646a7.7,7.7,0,0,1,7.693-7.693H522.5a7.7,7.7,0,0,1,7.694,7.693v365.89A7.7,7.7,0,0,1,522.5,436.231ZM262.2,55.29a7.364,7.364,0,0,0-7.356,7.356v365.89a7.365,7.365,0,0,0,7.356,7.357H522.5a7.366,7.366,0,0,0,7.357-7.357V62.646A7.366,7.366,0,0,0,522.5,55.29Z" transform="translate(88.568 -54.953)" fill="#ebebeb"/>
      <rect id="Rectangle_241" data-name="Rectangle 241" width="674" height="0.337" transform="translate(0 441.396)" fill="#ebebeb"/>
    </g>
    <g id="Group_702" data-name="Group 702" transform="translate(612.19 5160.815)">
      <path id="Path_991" data-name="Path 991" d="M262.524,276.512a5.821,5.821,0,1,1-5.821-5.821A5.82,5.82,0,0,1,262.524,276.512Z" transform="translate(-250.883 -270.691)" fill="none" stroke="#263238" stroke-miterlimit="10" stroke-width="3"/>
      <line id="Line_35" data-name="Line 35" x2="9.29" y2="9.301" transform="translate(9.83 10.028)" fill="none" stroke="#263238" stroke-miterlimit="10" stroke-width="3"/>
    </g>
    <g id="Group_719" data-name="Group 719" transform="translate(788.426 4889.858)">
      <circle id="Ellipse_190" data-name="Ellipse 190" cx="40.415" cy="40.415" r="40.415" transform="translate(0 79.787) rotate(-80.783)" fill="#e0e0e0"/>
      <g id="Group_718" data-name="Group 718" transform="translate(5.158 5.033)">
        <g id="Group_703" data-name="Group 703">
          <path id="Path_992" data-name="Path 992" d="M426.771,156.069a41.325,41.325,0,0,1,0-82.65v1.818a39.507,39.507,0,0,0,0,79.013Z" transform="translate(-385.448 -73.419)" fill="#fff"/>
        </g>
        <g id="Group_713" data-name="Group 713" transform="translate(20.208)">
          <g id="Group_712" data-name="Group 712">
            <g id="Group_704" data-name="Group 704" transform="translate(21.115)">
              <path id="Path_993" data-name="Path 993" d="M416.1,156.069V154.25a39.507,39.507,0,1,0,0-79.013V73.419a41.325,41.325,0,1,1,0,82.65Z" transform="translate(-416.103 -73.419)" fill="#fff"/>
            </g>
            <g id="Group_707" data-name="Group 707" transform="translate(20.626 0.154)">
              <g id="Group_705" data-name="Group 705">
                <path id="Path_994" data-name="Path 994" d="M437.347,114.713h-1.818c0-13.394-6.8-31.314-19.789-39.65l.98-1.53C430.262,82.221,437.347,100.826,437.347,114.713Z" transform="translate(-415.74 -73.533)" fill="#fff"/>
              </g>
              <g id="Group_706" data-name="Group 706" transform="translate(0 39.947)">
                <path id="Path_995" data-name="Path 995" d="M416.72,144.348l-.98-1.531c12.992-8.335,19.789-26.255,19.789-39.65h1.818C437.347,117.055,430.262,135.661,416.72,144.348Z" transform="translate(-415.74 -103.167)" fill="#fff"/>
              </g>
            </g>
            <g id="Group_710" data-name="Group 710" transform="translate(0 0.143)">
              <g id="Group_708" data-name="Group 708">
                <path id="Path_996" data-name="Path 996" d="M402.257,114.708h-1.818c0-13.888,7.085-32.492,20.623-41.183l.984,1.531C409.054,83.392,402.257,101.314,402.257,114.708Z" transform="translate(-400.439 -73.525)" fill="#fff"/>
              </g>
              <g id="Group_709" data-name="Group 709" transform="translate(0 39.949)">
                <path id="Path_997" data-name="Path 997" d="M421.062,144.341c-13.538-8.689-20.623-27.293-20.623-41.18h1.818c0,13.392,6.8,31.314,19.789,39.65Z" transform="translate(-400.439 -103.161)" fill="#fff"/>
              </g>
            </g>
            <g id="Group_711" data-name="Group 711" transform="translate(20.206 0.909)">
              <rect id="Rectangle_242" data-name="Rectangle 242" width="1.819" height="80.832" fill="#fff"/>
            </g>
          </g>
        </g>
        <g id="Group_717" data-name="Group 717" transform="translate(0.927 18.887)">
          <g id="Group_714" data-name="Group 714" transform="translate(6.188)">
            <rect id="Rectangle_243" data-name="Rectangle 243" width="68.42" height="1.819" fill="#fff"/>
          </g>
          <g id="Group_715" data-name="Group 715" transform="translate(0 22.217)">
            <rect id="Rectangle_244" data-name="Rectangle 244" width="80.795" height="1.819" fill="#fff"/>
          </g>
          <g id="Group_716" data-name="Group 716" transform="translate(7.092 44.415)">
            <rect id="Rectangle_245" data-name="Rectangle 245" width="66.611" height="1.819" fill="#fff"/>
          </g>
        </g>
      </g>
    </g>
    <g id="Group_722" data-name="Group 722" transform="translate(341.746 4885.197)">
      <g id="Group_720" data-name="Group 720" transform="translate(0 0)">
        <path id="Path_998" data-name="Path 998" d="M111.371,102.33a27.418,27.418,0,0,0-1.186-8.023l7.038-6.19-4.431-7.677-8.882,3a27.607,27.607,0,0,0-13.894-8.029l-1.845-9.188H79.309L77.47,75.415a27.617,27.617,0,0,0-13.9,8.029l-8.883-3-4.431,7.677,7.038,6.19a27.745,27.745,0,0,0,0,16.052l-7.038,6.183,4.431,7.677,8.883-3a27.675,27.675,0,0,0,13.9,8.034l1.839,9.189h8.862l1.845-9.189a27.664,27.664,0,0,0,13.894-8.034l8.882,3,4.431-7.677-7.038-6.183A27.467,27.467,0,0,0,111.371,102.33ZM83.74,117.246A14.362,14.362,0,1,1,98.1,102.883,14.359,14.359,0,0,1,83.74,117.246Z" transform="translate(-50.257 -66.227)" fill="#f8bdf0"/>
      </g>
      <g id="Group_721" data-name="Group 721" transform="translate(52.579 46.805)">
        <path id="Path_999" data-name="Path 999" d="M135.8,128.441a20.867,20.867,0,0,0-.9-6.109l5.36-4.714-3.374-5.846-6.764,2.288a21.01,21.01,0,0,0-10.579-6.113l-1.4-7h-6.749l-1.4,7A21.026,21.026,0,0,0,99.4,114.06l-6.764-2.288-3.374,5.846,5.36,4.714a21.127,21.127,0,0,0,0,12.222l-5.36,4.71,3.374,5.845,6.764-2.288a21.073,21.073,0,0,0,10.585,6.119l1.4,7h6.749l1.4-7a21.057,21.057,0,0,0,10.579-6.119l6.764,2.288,3.374-5.845-5.36-4.71A20.9,20.9,0,0,0,135.8,128.441ZM114.759,139.8A10.937,10.937,0,1,1,125.7,128.863,10.934,10.934,0,0,1,114.759,139.8Z" transform="translate(-89.262 -100.949)" fill="#f8bdf0"/>
      </g>
    </g>
    <g id="Group_723" data-name="Group 723" transform="translate(533.731 4917.479)">
      <path id="Path_1000" data-name="Path 1000" d="M200.678,97.427l3.572-7.252,3.583,7.246,8,1.156-5.784,5.647,1.373,7.967-7.159-3.756-7.152,3.768,1.36-7.969L192.679,98.6Z" transform="translate(-192.679 -90.175)" fill="#f8bdf0"/>
      <path id="Path_1001" data-name="Path 1001" d="M224.844,97.427l3.572-7.252L232,97.421l8,1.156-5.784,5.647,1.373,7.967-7.159-3.756-7.152,3.768,1.36-7.969L216.845,98.6Z" transform="translate(-184.269 -90.175)" fill="#f8bdf0"/>
      <path id="Path_1002" data-name="Path 1002" d="M249.01,97.427l3.572-7.252,3.584,7.246,8,1.156-5.784,5.647,1.373,7.967-7.159-3.756-7.152,3.768,1.36-7.969L241.011,98.6Z" transform="translate(-175.859 -90.175)" fill="#f8bdf0"/>
      <path id="Path_1003" data-name="Path 1003" d="M273.177,97.427l3.572-7.252,3.584,7.246,8,1.156-5.784,5.647,1.373,7.967-7.159-3.756-7.152,3.768,1.36-7.969L265.178,98.6Z" transform="translate(-167.449 -90.175)" fill="#f8bdf0"/>
      <path id="Path_1004" data-name="Path 1004" d="M297.343,97.427l3.572-7.252,3.583,7.246,8,1.156-5.784,5.647,1.373,7.967-7.159-3.756-7.152,3.768,1.36-7.969L289.344,98.6Z" transform="translate(-159.039 -90.175)" fill="#f8bdf0"/>
    </g>
    <g id="Shadow" transform="translate(343.137 5336.562)">
      <ellipse id="_Path_" data-name="&lt;Path&gt;" cx="261.363" cy="15.264" rx="261.363" ry="15.264" transform="translate(0 0)" fill="#410f6e"/>
    </g>
    <path id="Path_1005" data-name="Path 1005" d="M328.239,350.017" transform="translate(388.227 4917.729)" fill="none" stroke="#263238" stroke-miterlimit="10" stroke-width="2"/>
    <g id="Group_727" data-name="Group 727" transform="translate(512.333 5274.186)">
      <path id="Path_1006" data-name="Path 1006" d="M179.737,419.007l-.271,3.1a2.951,2.951,0,0,0,.123,1.13l.011.012a2.4,2.4,0,0,0,.214.477,2.658,2.658,0,0,0,.324.43,1.957,1.957,0,0,0,.4.361,2.636,2.636,0,0,0,1.574.5H293.175a2.658,2.658,0,0,0,.79-.116,4.052,4.052,0,0,0,.507-.209,3.146,3.146,0,0,0,1.018-.851,3.065,3.065,0,0,0,.283-.454,2.8,2.8,0,0,0,.3-1.047l.26-2.979a2.547,2.547,0,0,0-.117-1.049,2.629,2.629,0,0,0-.2-.454,2.425,2.425,0,0,0-.868-.849,3.38,3.38,0,0,0-.472-.209,2.414,2.414,0,0,0-.77-.117H266.28a4.9,4.9,0,0,1-1.026-.1h-.012a4.063,4.063,0,0,1-.4-.105.085.085,0,0,1-.057-.023.037.037,0,0,1-.034-.012,3.14,3.14,0,0,1-.429-.163,1.632,1.632,0,0,1-.39-.2,3.141,3.141,0,0,1-.541-.349,4.221,4.221,0,0,1-.581-.547,3.854,3.854,0,0,1-.282-.36c-.074-.093-.136-.187-.2-.28l-.061-.1c-.012,0-.011-.012-.009-.024a2.352,2.352,0,0,1-.2-.395,3.1,3.1,0,0,1-.155-.361c-.009-.023-.019-.058-.028-.081a.745.745,0,0,0-.027-.094.167.167,0,0,1-.018-.058,1.552,1.552,0,0,1-.078-.314,3.02,3.02,0,0,1-.076-.465.039.039,0,0,1-.008-.035c-.011-.14-.022-.291-.032-.431s0-.29.015-.43l.009-.105a2.574,2.574,0,0,1,.049-.43c.026-.152.061-.291.1-.444v-.011l10.864-41.686,2.085-8L276.4,354.8H213.315l-3.389,6.274-4.308,8-24.538,45.492c-.084.163-.167.314-.251.477,0,.023,0,.035-.016.046-.086.186-.159.361-.245.547s-.15.372-.213.57c-.047.128-.092.245-.125.373A11.031,11.031,0,0,0,179.737,419.007Z" transform="translate(-175.882 -354.793)" fill="#263238"/>
      <path id="Path_1007" data-name="Path 1007" d="M296.338,419.35l-.262,2.993a2.962,2.962,0,0,1-2.9,2.669H182.122a2.632,2.632,0,0,1-2.662-2.9l.271-3.1a11.323,11.323,0,0,1,.491-2.439,12.7,12.7,0,0,1,.856-2.021L213.32,354.8h63.085l-14.584,55.958a4.4,4.4,0,0,0-.163.987,4.537,4.537,0,0,0,3.588,4.829,4.469,4.469,0,0,0,1.039.109H293.9A2.407,2.407,0,0,1,296.338,419.35Z" transform="translate(-175.884 -354.793)" fill="#fff" opacity="0.2"/>
      <g id="Group_726" data-name="Group 726" transform="translate(0 0.001)">
        <g id="Group_725" data-name="Group 725">
          <path id="Path_1008" data-name="Path 1008" d="M178.436,414.557l32.237-59.762h3.57l-32.236,59.762a11.525,11.525,0,0,0-1.351,4.455l-.27,3.1a2.618,2.618,0,0,0,2.649,2.9h-3.57a2.619,2.619,0,0,1-2.65-2.9l.271-3.1A11.5,11.5,0,0,1,178.436,414.557Z" transform="translate(-176.805 -354.795)" fill="#263238"/>
        </g>
      </g>
      <path id="Path_1009" data-name="Path 1009" d="M206.567,354.794h63.077l-3.721,14.282H198.863Z" transform="translate(-169.128 -354.794)" opacity="0.3"/>
    </g>
    <path id="Path_1010" data-name="Path 1010" d="M125.183,210.42l.005,173.447v21.023a9.841,9.841,0,0,0,9.836,9.847H404.157a9.846,9.846,0,0,0,9.836-9.847V383.868l0-173.447a9.827,9.827,0,0,0-9.838-9.836H135.03a9.837,9.837,0,0,0-5.986,2.026,6.772,6.772,0,0,0-.679.582,9.449,9.449,0,0,0-1.705,2.06,8.4,8.4,0,0,0-.8,1.607A9.829,9.829,0,0,0,125.183,210.42Z" transform="translate(317.564 4865.727)" fill="#263238"/>
    <path id="Path_1011" data-name="Path 1011" d="M413.991,336.548v21.03a9.839,9.839,0,0,1-9.839,9.839H135.025a9.839,9.839,0,0,1-9.839-9.839v-21.03Z" transform="translate(317.565 4913.042)" fill="#407bff"/>
    <path id="Path_1012" data-name="Path 1012" d="M413.991,336.548v21.03a9.839,9.839,0,0,1-9.839,9.839H135.025a9.839,9.839,0,0,1-9.839-9.839v-21.03Z" transform="translate(317.565 4913.042)" fill="#f8bdf0" opacity="0.6"/>
    <path id="Path_1013" data-name="Path 1013" d="M134,376.391h268.77a5.335,5.335,0,0,0,5.334-5.335V210.325a5.335,5.335,0,0,0-5.334-5.335H134a5.335,5.335,0,0,0-5.335,5.335v160.73A5.335,5.335,0,0,0,134,376.391Z" transform="translate(318.774 4867.26)" fill="#8524d9"/>
    <path id="Path_1014" data-name="Path 1014" d="M130.611,200.584h5.95a9.839,9.839,0,0,0-9.839,9.839V404.894a9.839,9.839,0,0,0,9.839,9.839h-5.95a9.839,9.839,0,0,1-9.839-9.839V210.423A9.839,9.839,0,0,1,130.611,200.584Z" transform="translate(316.029 4865.727)" fill="#263238"/>
    <path id="Path_1015" data-name="Path 1015" d="M130.611,200.584h5.95a9.839,9.839,0,0,0-9.839,9.839V404.894a9.839,9.839,0,0,0,9.839,9.839h-5.95a9.839,9.839,0,0,1-9.839-9.839V210.423A9.839,9.839,0,0,1,130.611,200.584Z" transform="translate(316.029 4865.727)" fill="#2f2e41"/>
    <path id="Path_1016" data-name="Path 1016" d="M409.809,302.811c-6.918-1.329-17.9,3.145-19.949,9.885a10.817,10.817,0,0,0-5.19-10.46c-3.571-2.065-8.243-3.526-11.532-1.038a36.663,36.663,0,0,0-12.218-36.551c-10.544-8.531-25.915-9.458-38.1-3.49a26.1,26.1,0,0,0-15.277-36.951,111.329,111.329,0,0,0-52.776-5c-10.256,1.518-20.719,4.723-28.176,11.927s-9.39,20.178-4.43,29.283a33.26,33.26,0,0,0-33.557,7.951,32.842,32.842,0,0,0-7.318,33.459,11.081,11.081,0,0,0-10.578-.395,10.852,10.852,0,0,0-5.875,8.662,22.285,22.285,0,0,0-36.38,1.247v60.523h279.71Z" transform="translate(318.704 4871.793)" fill="#fff" opacity="0.5"/>
    <rect id="Rectangle_246" data-name="Rectangle 246" width="170.682" height="26.555" rx="9.85" transform="translate(508.765 5148.036)" fill="#fff"/>
    <path id="Path_1017" data-name="Path 1017" d="M190.724,270.512a5.821,5.821,0,1,1-5.821-5.821A5.82,5.82,0,0,1,190.724,270.512Z" transform="translate(336.321 4888.036)" fill="none" stroke="#263238" stroke-miterlimit="10" stroke-width="3"/>
    <line id="Line_36" data-name="Line 36" x2="9.29" y2="9.301" transform="translate(525.234 5162.754)" fill="none" stroke="#263238" stroke-miterlimit="10" stroke-width="3"/>
    <path id="Path_1018" data-name="Path 1018" d="M268.466,204.99H278.8l21.437,171.4H289.9Z" transform="translate(367.426 4867.26)" fill="#fff"/>
    <path id="Path_1019" data-name="Path 1019" d="M305.322,376.391l-21.437-171.4h38.841l21.437,171.4Z" transform="translate(372.792 4867.26)" fill="#fff"/>
    <path id="Path_1020" data-name="Path 1020" d="M193.941,403.422l-.248,2.843a2.523,2.523,0,0,0,2.553,2.8H288.22a2.977,2.977,0,0,0,2.908-2.674l.26-2.98a2.411,2.411,0,0,0-2.44-2.674H261.326a4.611,4.611,0,0,1-1.026-.111H196.985A3.117,3.117,0,0,0,193.941,403.422Z" transform="translate(341.401 4935.34)" fill="#fff" opacity="0.2"/>
    <path id="Path_1021" data-name="Path 1021" d="M180.028,401.871h85.024a4.527,4.527,0,0,1-3.594-4.83H182.619Z" transform="translate(336.65 4934.094)" opacity="0.2"/>
    <g id="Group_737" data-name="Group 737" transform="translate(560.139 5110.317)">
      <path id="Path_1022" data-name="Path 1022" d="M212.269,255.014l1.863-4.133a13.954,13.954,0,0,0,7.825,2.472c3.253,0,4.574-1.084,4.574-2.541,0-4.438-13.787-1.388-13.787-10.2,0-4.031,3.251-7.386,9.993-7.386a15.913,15.913,0,0,1,8.232,2.1l-1.694,4.167a13.387,13.387,0,0,0-6.572-1.863c-3.253,0-4.505,1.219-4.505,2.709,0,4.37,13.787,1.356,13.787,10.061,0,3.963-3.286,7.352-10.061,7.352C218.164,257.758,214.369,256.641,212.269,255.014Z" transform="translate(-212.269 -233.23)" fill="#263238"/>
      <path id="Path_1023" data-name="Path 1023" d="M248.048,252.842v4.4H229.687V233.532h17.92v4.4H235.141v5.149h11.01v4.269h-11.01v5.488Z" transform="translate(-206.208 -233.125)" fill="#263238"/>
      <path id="Path_1024" data-name="Path 1024" d="M245.4,245.494c0-7.046,5.488-12.264,12.976-12.264,7.452,0,12.974,5.183,12.974,12.264s-5.523,12.264-12.974,12.264C250.885,257.758,245.4,252.541,245.4,245.494Zm20.394,0a7.421,7.421,0,1,0-7.418,7.588A7.234,7.234,0,0,0,265.791,245.494Z" transform="translate(-200.74 -233.23)" fill="#263238"/>
    </g>
    <g id="Group_738" data-name="Group 738" transform="translate(524.964 5192.017)">
      <rect id="Rectangle_247" data-name="Rectangle 247" width="67.264" height="22.406" rx="3.851" transform="translate(0 0)" fill="#fff" opacity="0.8"/>
      <rect id="Rectangle_248" data-name="Rectangle 248" width="67.264" height="22.406" rx="3.851" transform="translate(82.487 0)" fill="#fff" opacity="0.8"/>
    </g>
    <g id="Group_770" data-name="Group 770" transform="translate(735.463 5172.039)">
      <path id="Path_1070" data-name="Path 1070" d="M346.7,282.039l-1.552.333a3.389,3.389,0,0,0-2.653,2.891l-.138,1.092a3.356,3.356,0,0,0,1.1,2.951c2.549,2.228,8.556,6.352,15.835,3.689l5.817-4.373-.957-7.852-12.082-1.752a3.4,3.4,0,0,0-2.01.76Z" transform="translate(-342.332 -279.018)" fill="#fab27b"/>
      <path id="Path_1071" data-name="Path 1071" d="M359.479,288.618l16.129-.813-2.492-8.774-14.594,1.736Z" transform="translate(-336.697 -279.014)" fill="#fab27b"/>
    </g>
    <path id="Path_1072" data-name="Path 1072" d="M369.188,279.164a6.4,6.4,0,0,0-.655,4.1,12.5,12.5,0,0,0,2.611,6.128h0a17.686,17.686,0,0,0-7.826,1.928l-.131.067c-8.413-5.751-3.553-12.558-3.553-12.558l.551.079A43.354,43.354,0,0,0,369.188,279.164Z" transform="translate(398.667 4892.956)" fill="#565888"/>
    <g id="Group_772" data-name="Group 772" transform="translate(766.448 5110.621)">
      <g id="Group_771" data-name="Group 771" transform="translate(0 0)">
        <path id="Path_1073" data-name="Path 1073" d="M399.76,302.2c-14.986,3.447-33.633,3.113-33.633,3.113a5.9,5.9,0,0,1-.8-3.431c.142-2.515.474-5.655,1.394-6.926.981-1.359,7.363-1.937,7.363-1.937s12.513-5.811,14.887-7.711c2.348-1.891,2.285-10.754,1.839-16.626-2.385-31.368,3.133-33.726,8.135-35.133C409.337,230.624,413.028,299.14,399.76,302.2Z" transform="translate(-365.317 -233.456)" fill="#407bff"/>
      </g>
    </g>
    <path id="Path_1074" data-name="Path 1074" d="M318.379,296.817h41.89c1.364,0,1.977-1.105,1.371-2.469l-10.512-23.633a4.331,4.331,0,0,0-3.568-2.47H305.672c-1.364,0-1.979,1.105-1.372,2.47l10.512,23.633A4.331,4.331,0,0,0,318.379,296.817Z" transform="translate(379.815 4889.272)" fill="#3f3d56"/>
    <path id="Path_1076" data-name="Path 1076" d="M304.328,268.245h1.81c-1.364,0-1.979,1.105-1.372,2.47l10.512,23.633a4.331,4.331,0,0,0,3.568,2.469h-1.809a4.331,4.331,0,0,1-3.568-2.469l-10.512-23.633C302.351,269.35,302.964,268.245,304.328,268.245Z" transform="translate(379.348 4889.272)" fill="#2f2e41"/>
    <g id="Group_775" data-name="Group 775" transform="translate(688.68 5160.236)">
      <path id="Path_1078" data-name="Path 1078" d="M317.917,293.4h37.92l-10.291-23.137h-37.92Z" transform="translate(-307.626 -270.261)" fill="#263238"/>
      <path id="Path_1079" data-name="Path 1079" d="M317.917,293.4h37.92l-10.291-23.137h-37.92Z" transform="translate(-307.626 -270.261)" fill="#fff" opacity="0.8"/>
    </g>
    <path id="Path_1080" data-name="Path 1080" d="M450.867,288.142s1.042,13.82,1.193,18.682c1,32.413-25.458,34.888-44.927,31.313l-70.488-19.709c-2.8,9.37-35.389,60.959-35.389,60.959l-17.133-9.838s17.763-42.591,29.23-72.227c6.546-16.919,59.831-5.218,79.454-1.736,5.965,1.608,4.814-7.707,4.814-7.707Z" transform="translate(372.874 4896.105)" fill="#220041"/>
    <path id="Path_1081" data-name="Path 1081" d="M298.428,357l-6.543,10.907-12.206-6.072,6.349-12.419Z" transform="translate(371.328 4917.521)" fill="#fab27b"/>
    <path id="Path_1082" data-name="Path 1082" d="M275.735,358.094c-1.611-.736-3.141-1.793-3.358-2.728a1.27,1.27,0,0,1,.634-1.324,1.762,1.762,0,0,1,1.3-.276c2.435.395,5.773,5.043,5.92,5.248a.336.336,0,0,1,0,.388.353.353,0,0,1-.363.137A24.993,24.993,0,0,1,275.735,358.094Zm-.907-3.462a2.232,2.232,0,0,0-.621-.193.931.931,0,0,0-.8.154c-.4.278-.407.5-.367.643.214,1.117,3.472,2.633,6.019,3.437A15.582,15.582,0,0,0,274.827,354.633Z" transform="translate(368.781 4919.024)" fill="#407bff"/>
    <path id="Path_1083" data-name="Path 1083" d="M278.539,359.956a.192.192,0,0,1-.123-.069c-1.235-1.4-3.063-5.628-2.12-6.958.193-.337.652-.644,1.535-.342a2.5,2.5,0,0,1,1.468,1.306c1.03,2.111-.222,5.761-.279,5.933a.335.335,0,0,1-.264.214A.309.309,0,0,1,278.539,359.956Zm-.768-6.694-.169-.1c-.573-.2-.71,0-.77.069-.481.842.554,3.973,1.725,5.656a7.929,7.929,0,0,0,.1-4.758,1.758,1.758,0,0,0-.884-.869Z" transform="translate(370.061 4918.581)" fill="#407bff"/>
    <path id="Path_1084" data-name="Path 1084" d="M285.951,357.286l14.139,6.468a1.251,1.251,0,0,1,.705,1.4l-2.705,12.673a2.085,2.085,0,0,1-2.879,1.486c-5.056-2.421-9.462-4.773-15.811-7.666-7.491-3.424-6-1.658-14.862-5.561-5.337-2.356-3.549-8.831-1.165-8.1,10.888,3.413,13.379.794,19.035-1.074A5,5,0,0,1,285.951,357.286Z" transform="translate(364.847 4920.07)" fill="#09001d"/>
    <path id="Path_1085" data-name="Path 1085" d="M294.257,362.543,297.581,357l-12.4-7.584-3.068,6Z" transform="translate(372.175 4917.521)" opacity="0.2"/>
    <path id="Path_1086" data-name="Path 1086" d="M305.047,358.421,283.8,345.166s-3.419,1.887-2.665,5.566l20.4,13.034S304.287,363.643,305.047,358.421Z" transform="translate(371.798 4916.041)" fill="#340261"/>
    <path id="Path_1087" data-name="Path 1087" d="M324.462,396.076,321.9,408.167l-13.137-1.723,1.911-13.419Z" transform="translate(381.448 4932.695)" fill="#fab27b"/>
    <g id="Group_779" data-name="Group 779" transform="translate(667.448 5332.597)">
      <path id="Path_1088" data-name="Path 1088" d="M304.867,403.9c-1.713-.169-3.452-.656-3.948-1.448a1.236,1.236,0,0,1,.164-1.417,1.71,1.71,0,0,1,1.1-.663c2.363-.407,6.9,2.809,7.1,2.952a.327.327,0,0,1,.125.356.344.344,0,0,1-.29.241A24.365,24.365,0,0,1,304.867,403.9ZM302.94,401a2.16,2.16,0,0,0-.632.02.9.9,0,0,0-.686.394c-.282.383-.216.586-.133.706.55.96,4.024,1.322,6.619,1.258A15.158,15.158,0,0,0,302.94,401Z" transform="translate(-288.781 -397.358)" fill="#09001d"/>
      <path id="Path_1089" data-name="Path 1089" d="M308.043,404.676a.19.19,0,0,1-.135-.026c-1.574-.892-4.593-4.2-4.148-5.725.071-.371.4-.8,1.3-.8a2.428,2.428,0,0,1,1.762.736c1.614,1.615,1.616,5.366,1.618,5.54a.327.327,0,0,1-.175.282A.309.309,0,0,1,308.043,404.676Zm-2.821-5.91-.185-.035c-.592-.008-.654.225-.686.306-.177.926,1.765,3.475,3.374,4.653a7.718,7.718,0,0,0-1.415-4.4,1.716,1.716,0,0,0-1.088-.52Z" transform="translate(-287.755 -398.126)" fill="#09001d"/>
      <path id="Path_1090" data-name="Path 1090" d="M313.811,401.676l15.038,1.475a1.218,1.218,0,0,1,1.089,1.062l1.518,12.5a2.022,2.022,0,0,1-1.747,2.265,1.979,1.979,0,0,1-.429.009c-5.412-.625-10.2-1.4-16.954-2.049-7.965-.779-6.038.372-15.414-.414-5.65-.478-6.054-6.993-3.63-7.074,11.085-.3,12.546-3.5,17.153-7A4.867,4.867,0,0,1,313.811,401.676Z" transform="translate(-291.876 -396.907)" fill="#09001d"/>
    </g>
    <path id="Path_1091" data-name="Path 1091" d="M309.432,400.076l13.719,1.077,1.078-5.077-13.792-3.052Z" transform="translate(381.682 4932.695)" opacity="0.2"/>
    <path id="Path_1092" data-name="Path 1092" d="M328.59,392.15l-.382,1.528-20.127-1.589.214-1.528Z" transform="translate(381.212 4931.838)" fill="#263238"/>
    <path id="Path_1093" data-name="Path 1093" d="M330.233,398.513l-4.951-.443-13.969-1.254L306.8,396.4c-2.292-2.843-.2-5.991-.2-5.991l2.507.2,20.3,1.589,1.467.123C332.556,397.168,330.233,398.513,330.233,398.513Z" transform="translate(380.395 4931.787)" fill="#340261"/>
    <path id="Path_1094" data-name="Path 1094" d="M411.078,343.076c-18.217,1.6-60.214,2.275-65.9,1.45L328.535,420.8l-20.3-1.589s2.15-65.958,11.1-93.225c7.19-21.921,122.339-17.376,122.339-17.376l.412,6.174C442.882,336.061,431.924,341.226,411.078,343.076Z" transform="translate(381.268 4903.185)" fill="#220041"/>
    <path id="Path_1096" data-name="Path 1096" d="M316.232,327.4s.016-.137.062-.367l-.046.367Z" transform="translate(384.049 4909.732)" fill="#263238"/>
    <path id="Path_1097" data-name="Path 1097" d="M317.293,319.951l-.2,1.5A10.407,10.407,0,0,1,317.293,319.951Z" transform="translate(384.349 4907.266)" fill="#263238"/>
    <path id="Path_1098" data-name="Path 1098" d="M365.057,234.755l5.6,8.168,12.583-10.755-7.861-9.66Z" transform="translate(401.04 4873.356)" fill="#fab27b"/>
    <path id="Path_1099" data-name="Path 1099" d="M367.859,236.809c2.436-3.563,1.326-9.11,1.326-9.11l-2.213,2.815-1.914,2.434Z" transform="translate(401.04 4875.163)" opacity="0.2"/>
    <path id="Path_1100" data-name="Path 1100" d="M349.13,218.714c.271.8.911,1.294,1.44,1.105s.762-1.037.476-1.8-.913-1.3-1.44-1.1S348.866,217.915,349.13,218.714Z" transform="translate(395.458 4871.397)" fill="#263238"/>
    <path id="Path_1101" data-name="Path 1101" d="M351.723,218.423l-1.787,7.63a5.954,5.954,0,0,0,5.128-1.367Z" transform="translate(395.778 4871.935)" fill="#ed893e"/>
    <path id="Path_1102" data-name="Path 1102" d="M348.561,214.212a.457.457,0,0,1,.419-.055,3.432,3.432,0,0,0,3.16-.249.436.436,0,0,1,.612.1.467.467,0,0,1-.112.63,4.27,4.27,0,0,1-3.991.365.445.445,0,0,1-.247-.58h0A.5.5,0,0,1,348.561,214.212Z" transform="translate(395.233 4870.333)" fill="#263238"/>
    <path id="Path_1103" data-name="Path 1103" d="M378.981,210.485c4.087,10.42,6.05,14.746,3.282,22.439-5.465,9.111-18.047,14.633-25.21,5.707-6.45-8.027-12.038-23.683-3.874-32.62a15.551,15.551,0,0,1,21.855-1.313A14.9,14.9,0,0,1,378.981,210.485Z" transform="translate(395.489 4865.81)" fill="#fab27b"/>
    <path id="Path_1104" data-name="Path 1104" d="M390,215.083a81.463,81.463,0,0,0-1.035,10.574,16.474,16.474,0,0,1-10.691,14.917h0s-14.692-.174-20.941-18.66a10.562,10.562,0,0,1-11.1-13.584c1.194-3.933,6.17-6.391,10.278-6.536a13.538,13.538,0,0,1,11.542-5.233c4.438.168,8.664,1.955,12.519,4.157,3.3,1.883,6.512,4.206,8.358,7.522A10.634,10.634,0,0,1,390,215.083Z" transform="translate(394.337 4864.322)" fill="#263238"/>
    <path id="Path_1105" data-name="Path 1105" d="M356.824,217.722a8.646,8.646,0,0,0-.162,6.651c1.131,2.816,4.152,2.337,5.889-.019,1.576-2.134,2.86-6.155.732-8.228S358,215.129,356.824,217.722Z" transform="translate(397.914 4870.755)" fill="#fab27b"/>
    <g id="Group_782" data-name="Group 782" transform="translate(765.282 5099.443)">
      <path id="Path_1106" data-name="Path 1106" d="M383.549,225.164c-4,.166-10.021,2.906-17.993,8.412a3.262,3.262,0,0,0-1.084,2.966c.1,1.07,1.177,2.089,2.2,1.747.535,1.3.888,2.825,1.423,4.126,2.305-1.428,5.24-2.18,7.738-3.235a105.7,105.7,0,0,1,12.333-4.051c-1.119-1.709-2.615-3.374-3.057-5.369a2.22,2.22,0,0,0,1.252-2.534A3.333,3.333,0,0,0,383.549,225.164Z" transform="translate(-364.453 -225.163)" fill="#565888"/>
      <path id="Path_1107" data-name="Path 1107" d="M383.549,225.164c-4,.166-10.021,2.906-17.993,8.412a3.262,3.262,0,0,0-1.084,2.966c.1,1.07,1.177,2.089,2.2,1.747.535,1.3.888,2.825,1.423,4.126,2.305-1.428,5.24-2.18,7.738-3.235a105.7,105.7,0,0,1,12.333-4.051c-1.119-1.709-2.615-3.374-3.057-5.369a2.22,2.22,0,0,0,1.252-2.534A3.333,3.333,0,0,0,383.549,225.164Z" transform="translate(-364.453 -225.163)" fill="#565888"/>
    </g>
    <path id="Path_1108" data-name="Path 1108" d="M375.8,326.1s-13.336-31.2-21.807-62.833c-6.248-23.337,11.616-23.74,33.165-29.543,17.086-4.6,24.395-.481,29.277,8.184s12.751,82.022,12.751,82.022Z" transform="translate(396.75 4876.596)" fill="#407bff"/>
    <path id="Path_1109" data-name="Path 1109" d="M375.8,326.1s-13.336-31.2-21.807-62.833c-6.248-23.337,11.616-23.74,33.165-29.543,17.086-4.6,24.395-.481,29.277,8.184s12.751,82.022,12.751,82.022Z" transform="translate(396.75 4876.596)" fill="#565888"/>
    <g id="Group_784" data-name="Group 784" transform="translate(689.653 5167.076)">
      <path id="Path_1111" data-name="Path 1111" d="M313.3,277.315l-1.515.055a3.24,3.24,0,0,0-2.979,2.279l-.311,1a3.209,3.209,0,0,0,.547,2.962c2.029,2.522,7,7.4,14.29,6.108l6.2-3.149.4-7.549-11.081-3.66a3.242,3.242,0,0,0-2.017.38Z" transform="translate(-308.348 -275.336)" fill="#fab27b"/>
      <path id="Path_1112" data-name="Path 1112" d="M324.066,285.622l15.316,1.919-.885-8.673-14.025-.795Z" transform="translate(-302.878 -274.383)" fill="#fab27b"/>
    </g>
    <path id="Path_1113" data-name="Path 1113" d="M334.827,278.7a6.107,6.107,0,0,0-1.3,3.747,11.937,11.937,0,0,0,1.438,6.2h0a16.924,16.924,0,0,0-7.688.514l-.135.041c-6.962-6.811-1.255-12.411-1.255-12.411l.507.167A41.475,41.475,0,0,0,334.827,278.7Z" transform="translate(386.643 4892.248)" fill="#565888"/>
    <g id="Group_786" data-name="Group 786" transform="translate(718.832 5118.501)">
      <g id="Group_785" data-name="Group 785" transform="translate(0 0)">
        <path id="Path_1114" data-name="Path 1114" d="M362.52,304.064c-14.678.752-32.173-2.666-32.173-2.666a5.637,5.637,0,0,1-.179-3.362c.551-2.344,1.387-5.244,2.464-6.286,1.15-1.116,7.252-.6,7.252-.6s12.745-3.388,15.3-4.779c2.525-1.39,3.939-9.742,4.5-15.344,2.975-29.92,8.561-31.222,13.5-31.714C383.445,238.291,375.517,303.4,362.52,304.064Z" transform="translate(-329.994 -239.301)" fill="#565888"/>
      </g>
    </g>
    <g id="Group_794" data-name="Group 794" transform="translate(707.029 5147.876)">
      <g id="Group_790" data-name="Group 790" transform="translate(0 104.353)">
        <path id="Path_1115" data-name="Path 1115" d="M321.238,438.681l13.7-84.658a18.469,18.469,0,0,1,18.232-15.517H386.81a18.468,18.468,0,0,1,18.337,16.274l10.177,85.06" transform="translate(-321.238 -338.506)" fill="none" stroke="#263238" stroke-miterlimit="10" stroke-width="2"/>
        <path id="Path_1116" data-name="Path 1116" d="M356.137,438.681l13.7-84.658a18.468,18.468,0,0,1,18.23-15.517h33.637a18.468,18.468,0,0,1,18.337,16.274l10.177,85.06" transform="translate(-309.093 -338.506)" fill="none" stroke="#263238" stroke-miterlimit="10" stroke-width="2"/>
        <line id="Line_37" data-name="Line 37" x2="46.299" transform="translate(3.599 78.07)" fill="none" stroke="#263238" stroke-miterlimit="10" stroke-width="2"/>
        <line id="Line_38" data-name="Line 38" x2="47.871" transform="translate(83.909 16.274)" fill="none" stroke="#263238" stroke-miterlimit="10" stroke-width="2"/>
      </g>
      <g id="Group_793" data-name="Group 793" transform="translate(5.674 0)">
        <g id="Group_791" data-name="Group 791">
          <path id="Path_1117" data-name="Path 1117" d="M412.439,367.372h35.223a26.031,26.031,0,0,0,25.95-23.976l5.012-63.275a17.637,17.637,0,0,0-17.581-19.028H441.587a51.374,51.374,0,0,0-49.225,36.67l-13.5,45.181a17.884,17.884,0,0,1-17.134,12.763H337.113a11.666,11.666,0,0,0-11.666,11.666h86.992Z" transform="translate(-325.447 -261.093)" fill="#407bff"/>
        </g>
        <g id="Group_792" data-name="Group 792">
          <path id="Path_1118" data-name="Path 1118" d="M412.439,367.372h35.223a26.031,26.031,0,0,0,25.95-23.976l5.012-63.275a17.637,17.637,0,0,0-17.581-19.028H441.587a51.374,51.374,0,0,0-49.225,36.67l-13.5,45.181a17.884,17.884,0,0,1-17.134,12.763H337.113a11.666,11.666,0,0,0-11.666,11.666h86.992Z" transform="translate(-325.447 -261.093)" fill="#fff" opacity="0.7"/>
        </g>
      </g>
    </g>
    <path id="Path_1119" data-name="Path 1119" d="M364.09,177.978h.005l.012-.144A1.327,1.327,0,0,1,364.09,177.978Z" transform="translate(402.344 4859.85)" fill="#407bff"/>
    <g id="Group_796" data-name="Group 796" transform="translate(690.716 5017.71)">
      <path id="Path_1120" data-name="Path 1120" d="M320.161,166.062a34.791,34.791,0,0,0-9.772,15.692l-2.47-.03a40.894,40.894,0,0,1,7.376-18.708Z" transform="translate(-307.92 -163.017)" fill="#f3e6ff"/>
      <path id="Path_1121" data-name="Path 1121" d="M320.161,166.062a34.791,34.791,0,0,0-9.772,15.692l-2.47-.03a40.894,40.894,0,0,1,7.376-18.708Z" transform="translate(-307.92 -163.017)" fill="#f3e6ff" opacity="0.6"/>
    </g>
    <g id="Group_797" data-name="Group 797" transform="translate(698.093 5004.461)">
      <path id="Path_1122" data-name="Path 1122" d="M332.544,161.419a34.859,34.859,0,0,0-14.287,8.064l-4.865-3.045a43.276,43.276,0,0,1,15.254-13.25Z" transform="translate(-313.392 -153.188)" fill="#e8cdff"/>
      <path id="Path_1123" data-name="Path 1123" d="M332.544,161.419a34.859,34.859,0,0,0-14.287,8.064l-4.865-3.045a43.276,43.276,0,0,1,15.254-13.25Z" transform="translate(-313.392 -153.188)" fill="#e8cdff" opacity="0.5"/>
    </g>
    <g id="Group_798" data-name="Group 798" transform="translate(713.347 4999.887)">
      <path id="Path_1124" data-name="Path 1124" d="M343.747,149.8l-1.2,12.038a30.019,30.019,0,0,0-5.215-.445,32.355,32.355,0,0,0-8.728,1.206l-3.9-8.231a40.122,40.122,0,0,1,18.472-4.574C343.367,149.795,343.56,149.795,343.747,149.8Z" transform="translate(-324.708 -149.795)" fill="#d5a5ff"/>
      <path id="Path_1125" data-name="Path 1125" d="M343.747,149.8l-1.2,12.038a30.019,30.019,0,0,0-5.215-.445,32.355,32.355,0,0,0-8.728,1.206l-3.9-8.231a40.122,40.122,0,0,1,18.472-4.574C343.367,149.795,343.56,149.795,343.747,149.8Z" transform="translate(-324.708 -149.795)" fill="#d5a5ff" opacity="0.4"/>
    </g>
    <g id="Group_799" data-name="Group 799" transform="translate(731.189 4999.893)">
      <path id="Path_1126" data-name="Path 1126" d="M357.169,154.916l-7.851,11.524a28.307,28.307,0,0,0-11.374-4.6l1.2-12.038A35.258,35.258,0,0,1,357.169,154.916Z" transform="translate(-337.944 -149.799)" fill="#bb6ffd"/>
      <path id="Path_1127" data-name="Path 1127" d="M357.169,154.916l-7.851,11.524a28.307,28.307,0,0,0-11.374-4.6l1.2-12.038A35.258,35.258,0,0,1,357.169,154.916Z" transform="translate(-337.944 -149.799)" fill="#bb6ffd" opacity="0.3"/>
    </g>
    <g id="Group_800" data-name="Group 800" transform="translate(742.563 5005.01)">
      <path id="Path_1128" data-name="Path 1128" d="M366.71,167.176l-12.272,6.566a27.582,27.582,0,0,0-8.056-8.623l7.851-11.524A33.552,33.552,0,0,1,366.71,167.176Z" transform="translate(-346.382 -153.595)" fill="#a64df3"/>
      <path id="Path_1129" data-name="Path 1129" d="M366.71,167.176l-12.272,6.566a27.582,27.582,0,0,0-8.056-8.623l7.851-11.524A33.552,33.552,0,0,1,366.71,167.176Z" transform="translate(-346.382 -153.595)" fill="#a64df3" opacity="0.2"/>
    </g>
    <g id="Group_801" data-name="Group 801" transform="translate(750.619 5018.591)">
      <path id="Path_1130" data-name="Path 1130" d="M368.212,182.413l-12-.143a28.544,28.544,0,0,0-3.853-12.034l12.272-6.566A35.634,35.634,0,0,1,368.212,182.413Z" transform="translate(-352.358 -163.67)" fill="#9234e4"/>
      <path id="Path_1131" data-name="Path 1131" d="M368.212,182.413l-12-.143a28.544,28.544,0,0,0-3.853-12.034l12.272-6.566A35.634,35.634,0,0,1,368.212,182.413Z" transform="translate(-352.358 -163.67)" fill="#9234e4" opacity="0.1"/>
    </g>
    <path id="Path_1132" data-name="Path 1132" d="M367.441,177.961a1.32,1.32,0,0,1-.018.144,44.809,44.809,0,0,1-3.2,12.265l-9.712-2.2.782-3.712c.071-.479.128-.964.177-1.453h0l.027-.3H355.5a30.238,30.238,0,0,0-.035-5.245l12,.143c0,.069-.007.133-.013.2A1.086,1.086,0,0,1,367.441,177.961Z" transform="translate(399.01 4859.723)" fill="#8524d9"/>
    <g id="Group_806" data-name="Group 806" transform="translate(690.446 5036.418)">
      <g id="Group_805" data-name="Group 805" transform="translate(0 0)">
        <g id="Group_804" data-name="Group 804">
          <path id="Path_1133" data-name="Path 1133" d="M309.466,189.8l-.725.159q-.34-1.387-.57-2.819a37.4,37.4,0,0,1-.329-8.835h-.005l.012-.144c.005-.049.009-.1.019-.148.038-.375.076-.745.123-1.117l2.47.03a32.7,32.7,0,0,0-1.158,5.988c-.008.05-.014.1-.018.148s-.008.1-.008.148a30.62,30.62,0,0,0-.071,3.6A27.761,27.761,0,0,0,309.466,189.8Z" transform="translate(-307.719 -176.895)" fill="#fff"/>
        </g>
        <path id="Path_1134" data-name="Path 1134" d="M309.466,189.8l-.725.159q-.34-1.387-.57-2.819a37.4,37.4,0,0,1-.329-8.835h-.005l.012-.144c.005-.049.009-.1.019-.148.038-.375.076-.745.123-1.117l2.47.03a32.7,32.7,0,0,0-1.158,5.988c-.008.05-.014.1-.018.148s-.008.1-.008.148a30.62,30.62,0,0,0-.071,3.6A27.761,27.761,0,0,0,309.466,189.8Z" transform="translate(-307.719 -176.895)" fill="#fff" opacity="0.7"/>
      </g>
    </g>
    <g id="Group_811" data-name="Group 811" transform="translate(727.404 5035.038)">
      <g id="Group_810" data-name="Group 810" transform="translate(0 0)">
        <path id="Path_1135" data-name="Path 1135" d="M371.462,187.55l-1.014,2.545-2.081-.469-19.348-4.38-8.332-1.89a10.44,10.44,0,0,0,1.427-2.434,9.949,9.949,0,0,0,.758-3.189l18.472,6.34v.005Z" transform="translate(-333.204 -175.223)" fill="#f8bdf0"/>
        <path id="Path_1136" data-name="Path 1136" d="M344.8,178.381A10.277,10.277,0,0,1,342.619,184l-7.483-1.693,2.367-6.441Z" transform="translate(-335.136 -175.871)" fill="#f8bdf0"/>
      </g>
    </g>
    <path id="Path_1137" data-name="Path 1137" d="M347.243,180.145a10.277,10.277,0,0,1-2.185,5.624,10.736,10.736,0,0,1-3.419,2.883c-4.811,2.575-10.485.948-12.663-3.644s-.038-10.4,4.78-12.984,10.485-.946,12.663,3.645A8.937,8.937,0,0,1,347.243,180.145Z" transform="translate(389.828 4857.402)" fill="#8524d9"/>
    <g id="Number" transform="translate(397.705 5004.221)">
      <g id="Group_813" data-name="Group 813" transform="translate(0 0)">
        <path id="Path_1138" data-name="Path 1138" d="M122.39,180.1H130.1v6.468h-8.486l-1.186,9.5h-6.706l1.188-9.5H106.19l-1.188,9.5H98.357l1.186-9.5H91.769V180.1h8.546l1.246-9.613H93.787v-6.469h8.545l1.188-9.494h6.646l-1.188,9.494H117.7l1.186-9.494h6.647l-1.188,9.494h7.715l.059,6.469h-8.545Zm-6.706,0,1.246-9.613h-8.723l-1.246,9.613Z" transform="translate(-91.769 -154.524)" fill="#ff64d0"/>
        <path id="Path_1139" data-name="Path 1139" d="M140.812,154.524v41.539H131.2V162.239H122.89v-7.715Z" transform="translate(-80.939 -154.524)" fill="#ff64d0"/>
      </g>
    </g>
    <g id="Group_816" data-name="Group 816" transform="translate(355.081 5176.995)">
      <rect id="Rectangle_249" data-name="Rectangle 249" width="66.471" height="45.762" transform="translate(0 0)" fill="#263238"/>
      <rect id="Rectangle_250" data-name="Rectangle 250" width="66.471" height="4.192" transform="translate(0 0)" fill="#8524d9"/>
      <g id="Group_815" data-name="Group 815" transform="translate(6.666 11.201)">
        <path id="Path_1140" data-name="Path 1140" d="M70.609,303.916l10.868,6.021a3.628,3.628,0,0,1,1.088.82,1.487,1.487,0,0,1,.27.915,1.684,1.684,0,0,1-.507,1.22,1.607,1.607,0,0,1-1.179.516,3.161,3.161,0,0,1-1.325-.492L65.8,305.12a1.378,1.378,0,0,1,0-2.409l14.019-7.8a3.227,3.227,0,0,1,1.309-.474,1.634,1.634,0,0,1,1.2.507,1.659,1.659,0,0,1,.507,1.212,1.491,1.491,0,0,1-.27.917,3.632,3.632,0,0,1-1.088.818Z" transform="translate(-65.094 -289.808)" fill="#fff"/>
        <path id="Path_1141" data-name="Path 1141" d="M93.6,293.885,82.843,317.06a3.355,3.355,0,0,1-.736,1.13,1.591,1.591,0,0,1-1.031.342,1.632,1.632,0,0,1-1.186-.491,1.524,1.524,0,0,1-.5-1.112,3.452,3.452,0,0,1,.394-1.294l10.785-23.157a3.562,3.562,0,0,1,.72-1.13,1.7,1.7,0,0,1,2.209.139,1.51,1.51,0,0,1,.492,1.105A3.479,3.479,0,0,1,93.6,293.885Z" transform="translate(-60.12 -291.004)" fill="#fff"/>
        <path id="Path_1142" data-name="Path 1142" d="M103.114,303.916l-10.868-6.023a3.631,3.631,0,0,1-1.088-.818,1.491,1.491,0,0,1-.27-.917,1.654,1.654,0,0,1,.507-1.212,1.633,1.633,0,0,1,1.194-.507,3.224,3.224,0,0,1,1.31.474l14.019,7.8a1.378,1.378,0,0,1,0,2.409l-14.019,7.8a3.162,3.162,0,0,1-1.31.492,1.638,1.638,0,0,1-1.206-.52,1.721,1.721,0,0,1-.495-1.216,1.484,1.484,0,0,1,.27-.915,3.628,3.628,0,0,1,1.088-.82Z" transform="translate(-56.118 -289.808)" fill="#fff"/>
      </g>
    </g>
    <g id="Group_823" data-name="Group 823" transform="translate(554.992 4974.242)">
      <g id="Group_817" data-name="Group 817" transform="translate(0 65.352)">
        <path id="Path_1143" data-name="Path 1143" d="M511.2,218.7c-.46,0-17.567,7.978-18.507,27.461-.864,17.913,11.584,34.873,13.178,33.74,1.951-1.386-1.42-12.531,2.336-25.309,1.332-4.531,7.219-8.571,7.219-8.571Z" transform="translate(-492.653 -218.705)" fill="#ff64d0"/>
        <path id="Path_1144" data-name="Path 1144" d="M526.139,246.024a27.079,27.079,0,0,0-4.675,4.243c-2.573-5.68-7.366-16.285-10.466-23.157a31.369,31.369,0,0,1,10.913-8.406Z" transform="translate(-503.363 -218.705)" fill="#ff64d0" opacity="0.1"/>
      </g>
      <g id="Group_818" data-name="Group 818" transform="translate(58.112 65.214)">
        <path id="Path_1145" data-name="Path 1145" d="M636.329,218.377c.46,0,17.617,7.868,18.679,27.345.976,17.907-11.366,34.945-12.967,33.822-1.96-1.374,1.341-12.54-2.494-25.294-1.36-4.522-7.272-8.526-7.272-8.526Z" transform="translate(-632.274 -218.376)" fill="#ff64d0"/>
        <path id="Path_1146" data-name="Path 1146" d="M647.36,226.784c-3.077,6.952-7.8,17.614-10.3,23.247a27.225,27.225,0,0,0-4.785-4.309l4.054-27.347A31.43,31.43,0,0,1,647.36,226.784Z" transform="translate(-632.276 -218.375)" fill="#ff64d0" opacity="0.1"/>
      </g>
      <path id="Path_1147" data-name="Path 1147" d="M569.43,171.72l-25.859.081s-12.266-21.737-10.924-47.713A127.356,127.356,0,0,1,540.7,87.243C546.253,72.3,553.151,61.7,556.157,61.689s9.97,10.553,15.63,25.457a127.794,127.794,0,0,1,8.269,36.795C581.56,149.907,569.43,171.72,569.43,171.72Z" transform="translate(-515.942 -61.689)" fill="#c7c7c7"/>
      <path id="Path_1148" data-name="Path 1148" d="M585.07,182.407a14.912,14.912,0,1,1-14.959-14.866A14.912,14.912,0,0,1,585.07,182.407Z" transform="translate(-529.194 -123.484)" fill="#a6a6a6"/>
      <path id="Path_1149" data-name="Path 1149" d="M583.785,178.762A14.912,14.912,0,1,1,568.826,163.9,14.912,14.912,0,0,1,583.785,178.762Z" transform="translate(-528.443 -121.356)" fill="#ff64d0"/>
      <path id="Path_1150" data-name="Path 1150" d="M585.625,185.179a10.343,10.343,0,1,1-10.382-10.3A10.342,10.342,0,0,1,585.625,185.179Z" transform="translate(-534.854 -127.767)" fill="#fff"/>
      <g id="Group_819" data-name="Group 819" transform="translate(30.086 47.109)">
        <path id="Path_1151" data-name="Path 1151" d="M596.311,195.747a10.291,10.291,0,0,1-.685,3.75l-5.872,5.916a10.33,10.33,0,0,1-6.513.345l12.679-12.777A10.236,10.236,0,0,1,596.311,195.747Z" transform="translate(-575.624 -185.446)" fill="#ebebeb"/>
        <path id="Path_1152" data-name="Path 1152" d="M576.762,174.983l-11.7,11.793a10.17,10.17,0,0,1-.119-1.516,10.333,10.333,0,0,1,11.822-10.277Z" transform="translate(-564.94 -174.875)" fill="#ebebeb"/>
        <path id="Path_1153" data-name="Path 1153" d="M590.735,186.5l-14,14.109a8.22,8.22,0,0,1-.8-.484l14.306-14.417C590.42,185.959,590.581,186.225,590.735,186.5Z" transform="translate(-571.361 -181.198)" fill="#ebebeb"/>
      </g>
      <path id="Path_1154" data-name="Path 1154" d="M583.225,87.146l-31.087.1C557.691,72.3,564.589,61.7,567.595,61.689S577.565,72.242,583.225,87.146Z" transform="translate(-527.38 -61.689)" fill="#ff64d0"/>
      <g id="Group_821" data-name="Group 821" transform="translate(28.358 21.389)">
        <path id="Path_1155" data-name="Path 1155" d="M562.529,114.113a.87.87,0,1,1-.873-.867A.871.871,0,0,1,562.529,114.113Z" transform="translate(-560.788 -113.177)" fill="#fff"/>
        <path id="Path_1156" data-name="Path 1156" d="M575.816,114.072a.87.87,0,1,1-.873-.868A.87.87,0,0,1,575.816,114.072Z" transform="translate(-568.545 -113.152)" fill="#fff"/>
        <path id="Path_1157" data-name="Path 1157" d="M589.1,114.03a.87.87,0,1,1-.873-.867A.871.871,0,0,1,589.1,114.03Z" transform="translate(-576.302 -113.128)" fill="#fff"/>
        <path id="Path_1158" data-name="Path 1158" d="M602.39,113.989a.87.87,0,1,1-.873-.868A.871.871,0,0,1,602.39,113.989Z" transform="translate(-584.058 -113.104)" fill="#fff"/>
        <path id="Path_1159" data-name="Path 1159" d="M615.677,113.947a.87.87,0,1,1-.873-.867A.871.871,0,0,1,615.677,113.947Z" transform="translate(-591.815 -113.08)" fill="#fff"/>
      </g>
      <g id="Group_822" data-name="Group 822" transform="translate(28.645 105.189)">
        <path id="Path_1160" data-name="Path 1160" d="M563.217,315.453a.87.87,0,1,1-.874-.868A.871.871,0,0,1,563.217,315.453Z" transform="translate(-561.476 -314.516)" fill="#a6a6a6"/>
        <path id="Path_1161" data-name="Path 1161" d="M576.5,315.412a.87.87,0,1,1-.873-.868A.87.87,0,0,1,576.5,315.412Z" transform="translate(-569.232 -314.492)" fill="#a6a6a6"/>
        <path id="Path_1162" data-name="Path 1162" d="M589.79,315.37a.87.87,0,1,1-.873-.868A.87.87,0,0,1,589.79,315.37Z" transform="translate(-576.989 -314.467)" fill="#a6a6a6"/>
        <path id="Path_1163" data-name="Path 1163" d="M603.077,315.328a.87.87,0,1,1-.873-.868A.87.87,0,0,1,603.077,315.328Z" transform="translate(-584.746 -314.443)" fill="#a6a6a6"/>
        <path id="Path_1164" data-name="Path 1164" d="M616.364,315.287a.87.87,0,1,1-.873-.868A.87.87,0,0,1,616.364,315.287Z" transform="translate(-592.503 -314.419)" fill="#a6a6a6"/>
      </g>
      <path id="Path_1165" data-name="Path 1165" d="M555.1,62.512c-6.83,9.386-14.378,29.237-15.321,56.04-.7,19.8,8.335,42.283,13.656,53.7l-9.866.031S531.3,150.546,532.647,124.57A127.252,127.252,0,0,1,540.7,87.725C545.676,74.332,551.732,64.43,555.1,62.512Z" transform="translate(-515.941 -62.169)" fill="#fff" opacity="0.2"/>
      <path id="Path_1166" data-name="Path 1166" d="M584.589,333.847l-21.029.064-1.012-7.768,23.005-.072Z" transform="translate(-533.457 -216.033)" fill="#ff64d0"/>
      <path id="Path_1167" data-name="Path 1167" d="M585.555,326.074l-.472,3.787-22.145-.745-.385-2.969Z" transform="translate(-533.459 -216.034)" opacity="0.1"/>
    </g>
  </g>
</svg>
