<svg xmlns="http://www.w3.org/2000/svg" width="609.956" height="466.252" viewBox="0 0 609.956 466.252">
  <g id="web_development_image" data-name="web development image" transform="translate(-239.061 -723.975)">
    <circle id="Ellipse_191" data-name="Ellipse 191" cx="200.744" cy="200.744" r="200.744" transform="translate(356.828 788.717)" fill="none"/>
    <circle id="Ellipse_190" data-name="Ellipse 190" cx="200.766" cy="200.766" r="200.766" transform="translate(356.806 788.694)" fill="#410f6e"/>
    <path id="Rectangle_145" data-name="Rectangle 145" d="M-746.49-1.727h433.539A12.329,12.329,0,0,1-300.622,10.6h0V284.2h-458.2V10.6A12.328,12.328,0,0,1-746.49-1.727Z" transform="translate(1082.528 833.987)" fill="#3f3d56"/>
    <rect id="Rectangle_146" data-name="Rectangle 146" width="458.197" height="12.255" transform="translate(323.709 1105.932)" fill="#6f6f75"/>
    <path id="Rectangle_147" data-name="Rectangle 147" d="M-742.9,4.954h426.418a8.957,8.957,0,0,1,8.956,8.956V277.584H-751.852V13.91A8.956,8.956,0,0,1-742.9,4.954Z" transform="translate(1082.494 833.955)" fill="#8524d9"/>
    <path id="Rectangle_148" data-name="Rectangle 148" d="M-742.9,4.954h30.017v272.63h-38.973V13.91A8.956,8.956,0,0,1-742.9,4.954Z" transform="translate(1082.494 833.955)" fill="#6f14ca"/>
    <path id="Rectangle_149" data-name="Rectangle 149" d="M-742.9,4.954h426.418a8.957,8.957,0,0,1,8.956,8.956v15.3H-751.852V13.91A8.956,8.956,0,0,1-742.9,4.954Z" transform="translate(1082.494 833.955)" fill="#5403a5"/>
    <path id="Path_639" data-name="Path 639" d="M-306.165,302.426H-753.451a23.233,23.233,0,0,1-22.92-19.438l-.21-1.266h493.548l-.209,1.266A23.233,23.233,0,0,1-306.165,302.426Z" transform="translate(1082.615 832.607)" fill="#3f3d56"/>
    <path id="Path_640" data-name="Path 640" d="M-288.113,281.723a23.23,23.23,0,0,1-21.944,15.624H-757.343a23.19,23.19,0,0,1-16.3-6.691,23.234,23.234,0,0,0,20.2,11.769h447.291a23.233,23.233,0,0,0,22.922-19.438l.21-1.266Z" transform="translate(1082.6 832.607)" fill="#6f6f75"/>
    <g id="Group_572" data-name="Group 572" transform="translate(387.877 883.927)">
      <g id="Group_549" data-name="Group 549" transform="translate(0 0)">
        <line id="Line_54" data-name="Line 54" x2="156.244" fill="none" stroke="#ff64d0" stroke-linecap="round" stroke-miterlimit="10" stroke-width="1.077"/>
        <line id="Line_55" data-name="Line 55" x2="51.951" transform="translate(169.134)" fill="none" stroke="#ff64d0" stroke-linecap="round" stroke-miterlimit="10" stroke-width="1.077"/>
      </g>
      <g id="Group_550" data-name="Group 550" transform="translate(0 111.211)">
        <line id="Line_56" data-name="Line 56" x2="156.244" fill="none" stroke="#ff64d0" stroke-linecap="round" stroke-miterlimit="10" stroke-width="1.077"/>
        <line id="Line_57" data-name="Line 57" x2="30.858" transform="translate(169.134)" fill="none" stroke="#ff64d0" stroke-linecap="round" stroke-miterlimit="10" stroke-width="1.077"/>
      </g>
      <g id="Group_551" data-name="Group 551" transform="translate(0 143.188)">
        <line id="Line_58" data-name="Line 58" x2="156.244" fill="none" stroke="#ff64d0" stroke-linecap="round" stroke-miterlimit="10" stroke-width="1.077"/>
        <line id="Line_59" data-name="Line 59" x2="30.858" transform="translate(169.134)" fill="none" stroke="#ff64d0" stroke-linecap="round" stroke-miterlimit="10" stroke-width="1.077"/>
      </g>
      <g id="Group_552" data-name="Group 552" transform="translate(0 200.037)">
        <line id="Line_60" data-name="Line 60" x2="156.244" fill="none" stroke="#ff64d0" stroke-linecap="round" stroke-miterlimit="10" stroke-width="1.077"/>
        <line id="Line_61" data-name="Line 61" x2="51.951" transform="translate(169.134)" fill="none" stroke="#ff64d0" stroke-linecap="round" stroke-miterlimit="10" stroke-width="1.077"/>
      </g>
      <g id="Group_553" data-name="Group 553" transform="translate(107.418 208.92)">
        <line id="Line_62" data-name="Line 62" x2="48.826" fill="none" stroke="#ff64d0" stroke-linecap="round" stroke-miterlimit="10" stroke-width="1.077"/>
        <line id="Line_63" data-name="Line 63" x2="51.951" transform="translate(61.717)" fill="none" stroke="#ff64d0" stroke-linecap="round" stroke-miterlimit="10" stroke-width="1.077"/>
      </g>
      <g id="Group_559" data-name="Group 559" transform="translate(34.765 12.791)">
        <g id="Group_554" data-name="Group 554">
          <line id="Line_64" data-name="Line 64" x2="121.481" fill="none" stroke="#ff64d0" stroke-linecap="round" stroke-miterlimit="10" stroke-width="1.077"/>
          <line id="Line_65" data-name="Line 65" x2="19.14" transform="translate(134.37)" fill="none" stroke="#ff64d0" stroke-linecap="round" stroke-miterlimit="10" stroke-width="1.077"/>
        </g>
        <g id="Group_555" data-name="Group 555" transform="translate(0 7.817)">
          <line id="Line_66" data-name="Line 66" x2="121.481" fill="none" stroke="#ff64d0" stroke-linecap="round" stroke-miterlimit="10" stroke-width="1.077"/>
          <line id="Line_67" data-name="Line 67" x2="33.202" transform="translate(134.37)" fill="none" stroke="#ff64d0" stroke-linecap="round" stroke-miterlimit="10" stroke-width="1.077"/>
        </g>
        <g id="Group_556" data-name="Group 556" transform="translate(0 15.633)">
          <line id="Line_68" data-name="Line 68" x2="121.481" fill="none" stroke="#ff64d0" stroke-linecap="round" stroke-miterlimit="10" stroke-width="1.077"/>
          <line id="Line_69" data-name="Line 69" x2="19.14" transform="translate(134.37)" fill="none" stroke="#ff64d0" stroke-linecap="round" stroke-miterlimit="10" stroke-width="1.077"/>
        </g>
        <g id="Group_557" data-name="Group 557" transform="translate(0 23.45)">
          <line id="Line_70" data-name="Line 70" x2="121.481" fill="none" stroke="#ff64d0" stroke-linecap="round" stroke-miterlimit="10" stroke-width="1.077"/>
          <line id="Line_71" data-name="Line 71" x2="33.202" transform="translate(134.37)" fill="none" stroke="#ff64d0" stroke-linecap="round" stroke-miterlimit="10" stroke-width="1.077"/>
        </g>
        <g id="Group_558" data-name="Group 558" transform="translate(0 31.267)">
          <line id="Line_72" data-name="Line 72" x2="121.481" fill="none" stroke="#ff64d0" stroke-linecap="round" stroke-miterlimit="10" stroke-width="1.077"/>
          <line id="Line_73" data-name="Line 73" x2="19.14" transform="translate(134.37)" fill="none" stroke="#ff64d0" stroke-linecap="round" stroke-miterlimit="10" stroke-width="1.077"/>
        </g>
      </g>
      <g id="Group_560" data-name="Group 560" transform="translate(80.466 53.651)">
        <line id="Line_74" data-name="Line 74" x2="75.778" fill="none" stroke="#ff64d0" stroke-linecap="round" stroke-miterlimit="10" stroke-width="1.077"/>
        <line id="Line_75" data-name="Line 75" x2="40.233" transform="translate(88.669)" fill="none" stroke="#ff64d0" stroke-linecap="round" stroke-miterlimit="10" stroke-width="1.077"/>
      </g>
      <g id="Group_561" data-name="Group 561" transform="translate(80.466 63.244)">
        <line id="Line_76" data-name="Line 76" x2="75.778" fill="none" stroke="#ff64d0" stroke-linecap="round" stroke-miterlimit="10" stroke-width="1.077"/>
        <line id="Line_77" data-name="Line 77" x2="40.233" transform="translate(88.669)" fill="none" stroke="#ff64d0" stroke-linecap="round" stroke-miterlimit="10" stroke-width="1.077"/>
      </g>
      <g id="Group_562" data-name="Group 562" transform="translate(80.466 72.838)">
        <line id="Line_78" data-name="Line 78" x2="60.154" fill="none" stroke="#ff64d0" stroke-linecap="round" stroke-miterlimit="10" stroke-width="1.077"/>
        <line id="Line_79" data-name="Line 79" x2="55.858" transform="translate(73.045)" fill="none" stroke="#ff64d0" stroke-linecap="round" stroke-miterlimit="10" stroke-width="1.077"/>
      </g>
      <g id="Group_563" data-name="Group 563" transform="translate(80.466 82.431)">
        <line id="Line_80" data-name="Line 80" x2="75.778" fill="none" stroke="#ff64d0" stroke-linecap="round" stroke-miterlimit="10" stroke-width="1.077"/>
        <line id="Line_81" data-name="Line 81" x2="40.233" transform="translate(88.669)" fill="none" stroke="#ff64d0" stroke-linecap="round" stroke-miterlimit="10" stroke-width="1.077"/>
      </g>
      <g id="Group_564" data-name="Group 564" transform="translate(80.466 92.025)">
        <line id="Line_82" data-name="Line 82" x2="60.154" fill="none" stroke="#ff64d0" stroke-linecap="round" stroke-miterlimit="10" stroke-width="1.077"/>
        <line id="Line_83" data-name="Line 83" x2="55.858" transform="translate(73.045)" fill="none" stroke="#ff64d0" stroke-linecap="round" stroke-miterlimit="10" stroke-width="1.077"/>
      </g>
      <g id="Group_565" data-name="Group 565" transform="translate(80.466 101.618)">
        <line id="Line_84" data-name="Line 84" x2="75.778" fill="none" stroke="#ff64d0" stroke-linecap="round" stroke-miterlimit="10" stroke-width="1.077"/>
        <line id="Line_85" data-name="Line 85" x2="40.233" transform="translate(88.669)" fill="none" stroke="#ff64d0" stroke-linecap="round" stroke-miterlimit="10" stroke-width="1.077"/>
      </g>
      <g id="Group_566" data-name="Group 566" transform="translate(99.606 124.002)">
        <line id="Line_86" data-name="Line 86" x2="75.778" fill="none" stroke="#ff64d0" stroke-linecap="round" stroke-miterlimit="10" stroke-width="1.077"/>
        <line id="Line_87" data-name="Line 87" x2="40.233" transform="translate(88.669)" fill="none" stroke="#ff64d0" stroke-linecap="round" stroke-miterlimit="10" stroke-width="1.077"/>
      </g>
      <g id="Group_567" data-name="Group 567" transform="translate(99.606 133.595)">
        <line id="Line_88" data-name="Line 88" x2="53.904" fill="none" stroke="#ff64d0" stroke-linecap="round" stroke-miterlimit="10" stroke-width="1.077"/>
        <line id="Line_89" data-name="Line 89" x2="62.107" transform="translate(66.794)" fill="none" stroke="#ff64d0" stroke-linecap="round" stroke-miterlimit="10" stroke-width="1.077"/>
      </g>
      <g id="Group_568" data-name="Group 568" transform="translate(130.465 155.624)">
        <line id="Line_90" data-name="Line 90" x2="23.046" fill="none" stroke="#ff64d0" stroke-linecap="round" stroke-miterlimit="10" stroke-width="1.077"/>
        <line id="Line_91" data-name="Line 91" x2="42.968" transform="translate(35.936)" fill="none" stroke="#ff64d0" stroke-linecap="round" stroke-miterlimit="10" stroke-width="1.077"/>
      </g>
      <g id="Group_569" data-name="Group 569" transform="translate(137.495 164.507)">
        <line id="Line_92" data-name="Line 92" x2="16.016" fill="none" stroke="#ff64d0" stroke-linecap="round" stroke-miterlimit="10" stroke-width="1.077"/>
        <line id="Line_93" data-name="Line 93" x2="54.685" transform="translate(28.906)" fill="none" stroke="#ff64d0" stroke-linecap="round" stroke-miterlimit="10" stroke-width="1.077"/>
      </g>
      <g id="Group_570" data-name="Group 570" transform="translate(130.465 173.389)">
        <line id="Line_94" data-name="Line 94" x2="23.046" fill="none" stroke="#ff64d0" stroke-linecap="round" stroke-miterlimit="10" stroke-width="1.077"/>
        <line id="Line_95" data-name="Line 95" x2="42.968" transform="translate(35.936)" fill="none" stroke="#ff64d0" stroke-linecap="round" stroke-miterlimit="10" stroke-width="1.077"/>
      </g>
      <g id="Group_571" data-name="Group 571" transform="translate(137.495 182.272)">
        <line id="Line_96" data-name="Line 96" x2="16.016" fill="none" stroke="#ff64d0" stroke-linecap="round" stroke-miterlimit="10" stroke-width="1.077"/>
        <line id="Line_97" data-name="Line 97" x2="54.685" transform="translate(28.906)" fill="none" stroke="#ff64d0" stroke-linecap="round" stroke-miterlimit="10" stroke-width="1.077"/>
      </g>
    </g>
    <g id="Group_608" data-name="Group 608" transform="translate(348.133 847.815)">
      <path id="Path_642" data-name="Path 642" d="M-727.832,17.126a3.222,3.222,0,0,1-3.222,3.222,3.222,3.222,0,0,1-3.222-3.222,3.222,3.222,0,0,1,3.222-3.222A3.224,3.224,0,0,1-727.832,17.126Z" transform="translate(734.276 -13.904)" fill="#ff64d0"/>
      <path id="Path_643" data-name="Path 643" d="M-715.957,17.126a3.224,3.224,0,0,1-3.222,3.224,3.222,3.222,0,0,1-3.224-3.222,3.223,3.223,0,0,1,3.222-3.224h0A3.224,3.224,0,0,1-715.957,17.126Z" transform="translate(734.218 -13.904)" fill="#ff64d0"/>
      <path id="Path_644" data-name="Path 644" d="M-704.085,17.126a3.222,3.222,0,0,1-3.222,3.222,3.222,3.222,0,0,1-3.222-3.222,3.222,3.222,0,0,1,3.222-3.222A3.224,3.224,0,0,1-704.085,17.126Z" transform="translate(734.16 -13.904)" fill="#ff64d0"/>
    </g>
    <g id="Group_607" data-name="Group 607" transform="translate(343.16 876.961)">
      <path id="Path_641" data-name="Path 641" d="M-725.333,50.158a6.966,6.966,0,0,1-6.966,6.966,6.966,6.966,0,0,1-6.966-6.966,6.966,6.966,0,0,1,6.966-6.966A6.966,6.966,0,0,1-725.333,50.158Z" transform="translate(739.273 -43.192)" fill="#630cb9"/>
      <path id="Path_645" data-name="Path 645" d="M-725.333,77.872a6.966,6.966,0,0,1-6.966,6.966,6.966,6.966,0,0,1-6.966-6.966,6.966,6.966,0,0,1,6.966-6.966A6.966,6.966,0,0,1-725.333,77.872Z" transform="translate(739.273 -43.327)" fill="#630cb9"/>
      <circle id="Ellipse_169" data-name="Ellipse 169" cx="6.97" cy="6.97" r="6.97" transform="translate(0 55.154)" fill="#630cb9"/>
      <path id="Path_646" data-name="Path 646" d="M-725.333,133.3a6.966,6.966,0,0,1-6.966,6.966,6.966,6.966,0,0,1-6.966-6.966,6.966,6.966,0,0,1,6.966-6.966A6.966,6.966,0,0,1-725.333,133.3Z" transform="translate(739.273 -43.597)" fill="#630cb9"/>
    </g>
    <g id="Group_609" data-name="Group 609" transform="translate(607.447 777.589)">
      <circle id="Ellipse_170" data-name="Ellipse 170" cx="120.785" cy="120.785" r="120.785" transform="translate(0 0)" fill="#fff" opacity="0.05" style="isolation: isolate"/>
      <circle id="Ellipse_171" data-name="Ellipse 171" cx="112.012" cy="112.012" r="112.012" transform="translate(8.773 8.773)" fill="#fff" opacity="0.15" style="isolation: isolate"/>
      <circle id="Ellipse_172" data-name="Ellipse 172" cx="92.643" cy="92.643" r="92.643" transform="translate(28.141 28.188)" fill="#fff" opacity="0.5" style="isolation: isolate"/>
    </g>
    <g id="Group_481" data-name="Group 481" transform="translate(659.546 770.128)">
      <path id="Rectangle_150" data-name="Rectangle 150" d="M-418.721-67.676h131.931a4.052,4.052,0,0,1,4.051,4.051V191.1a4.052,4.052,0,0,1-4.052,4.052h-131.93a4.05,4.05,0,0,1-4.051-4.051V-63.625A4.051,4.051,0,0,1-418.721-67.676Z" transform="translate(422.772 67.676)" fill="#3f3d56"/>
      <rect id="Rectangle_151" data-name="Rectangle 151" width="132.008" height="253.62" rx="3.883" transform="translate(4.013 4.603)" fill="#8524d9"/>
      <path id="Rectangle_152" data-name="Rectangle 152" d="M-375.866-64.572h46.678v2.687a2,2,0,0,1-1.99,2h-42.692a1.994,1.994,0,0,1-2-2v-2.692Z" transform="translate(422.544 67.661)" fill="#3f3d56"/>
      <line id="Line_98" data-name="Line 98" x2="19.319" transform="translate(60.357 4.603)" fill="none" stroke="#fff" stroke-linecap="round" stroke-miterlimit="10" stroke-width="0.726"/>
      <circle id="Ellipse_173" data-name="Ellipse 173" cx="30.468" cy="30.468" r="30.468" transform="translate(39.549 32.14)" fill="#c551ff"/>
      <path id="Path_648" data-name="Path 648" d="M-344.651-5.172h-3.193a9.962,9.962,0,0,0,4.156-13.461A9.962,9.962,0,0,0-357.15-22.79a9.963,9.963,0,0,0-4.157,13.462,9.958,9.958,0,0,0,4.157,4.156h-3.192a9.529,9.529,0,0,0-9.529,9.527V7.535a3.723,3.723,0,0,0,3.723,3.724h27.3a3.724,3.724,0,0,0,3.723-3.724V4.357a9.529,9.529,0,0,0-9.527-9.529Z" transform="translate(422.514 67.463)" fill="#fff"/>
      <path id="Path_649" data-name="Path 649" d="M-338.041,176.728h-28.916a2.916,2.916,0,0,1-2.917-2.919h0a2.918,2.918,0,0,1,2.917-2.917h28.915a2.919,2.919,0,0,1,2.917,2.919h0A2.918,2.918,0,0,1-338.041,176.728Z" transform="translate(422.514 66.514)" fill="#b918ab"/>
      <path id="Path_650" data-name="Path 650" d="M-318.415,115.32h-68.439a11.188,11.188,0,0,1-11.19-11.188v0h0A11.189,11.189,0,0,1-386.855,92.94h68.439a11.189,11.189,0,0,1,11.189,11.189h0a11.189,11.189,0,0,1-11.187,11.191Z" transform="translate(422.652 66.894)" fill="none" stroke="#ff64d0" stroke-miterlimit="10" stroke-width="1.04"/>
      <g id="Group_577" data-name="Group 577" transform="translate(49.242 169.182)">
        <path id="Path_651" data-name="Path 651" d="M-369.6,104.177a1.843,1.843,0,0,1-1.843,1.843,1.843,1.843,0,0,1-1.843-1.843,1.843,1.843,0,0,1,1.843-1.843h0a1.843,1.843,0,0,1,1.843,1.841Z" transform="translate(373.289 -102.334)" fill="#e1e8ea"/>
        <path id="Path_652" data-name="Path 652" d="M-360.084,104.177a1.844,1.844,0,0,1-1.843,1.845,1.843,1.843,0,0,1-1.845-1.843,1.844,1.844,0,0,1,1.843-1.845h0A1.843,1.843,0,0,1-360.084,104.177Z" transform="translate(373.243 -102.334)" fill="#e1e8ea"/>
        <path id="Path_653" data-name="Path 653" d="M-350.566,104.177a1.843,1.843,0,0,1-1.843,1.843,1.843,1.843,0,0,1-1.843-1.843,1.843,1.843,0,0,1,1.843-1.843h0a1.843,1.843,0,0,1,1.843,1.841Z" transform="translate(373.196 -102.334)" fill="#e1e8ea"/>
        <path id="Path_654" data-name="Path 654" d="M-341.047,104.177a1.844,1.844,0,0,1-1.843,1.845,1.843,1.843,0,0,1-1.845-1.843,1.844,1.844,0,0,1,1.843-1.845h0A1.843,1.843,0,0,1-341.047,104.177Z" transform="translate(373.15 -102.334)" fill="#e1e8ea"/>
        <path id="Path_655" data-name="Path 655" d="M-331.528,104.177a1.843,1.843,0,0,1-1.843,1.843,1.843,1.843,0,0,1-1.843-1.843,1.843,1.843,0,0,1,1.843-1.843h0a1.843,1.843,0,0,1,1.843,1.841Z" transform="translate(373.104 -102.334)" fill="#e1e8ea"/>
      </g>
      <path id="Path_656" data-name="Path 656" d="M-318.415,80.73h-68.439a11.188,11.188,0,0,1-11.19-11.188h0a11.189,11.189,0,0,1,11.189-11.189h68.439a11.189,11.189,0,0,1,11.189,11.189h0A11.189,11.189,0,0,1-318.415,80.73Z" transform="translate(422.652 67.062)" fill="none" stroke="#ff64d0" stroke-miterlimit="10" stroke-width="1.04"/>
      <g id="Group_579" data-name="Group 579" transform="translate(40.777 135.444)">
        <path id="Path_657" data-name="Path 657" d="M-324.42,70.751h-56.249a1.161,1.161,0,0,1-1.127-1.194,1.161,1.161,0,0,1,1.127-1.125h56.249a1.161,1.161,0,0,1,1.125,1.194A1.16,1.16,0,0,1-324.42,70.751Z" transform="translate(381.796 -68.431)" fill="#e1e8ea"/>
      </g>
    </g>
    <path id="Path_658" data-name="Path 658" d="M-781.037,220.77v35.564a2.842,2.842,0,0,1-2.842,2.842h-23.6" transform="translate(1082.765 832.904)" fill="none" stroke="#f7d614" stroke-miterlimit="10" stroke-width="0.5"/>
    <circle id="Ellipse_174" data-name="Ellipse 174" cx="1.86" cy="1.86" r="1.86" transform="translate(299.868 1049.955)" fill="none" stroke="#f7d614" stroke-miterlimit="10" stroke-width="0.5"/>
    <circle id="Ellipse_175" data-name="Ellipse 175" cx="1.86" cy="1.86" r="1.86" transform="translate(271.57 1090.219)" fill="none" stroke="#f7d614" stroke-miterlimit="10" stroke-width="0.5"/>
    <circle id="Ellipse_176" data-name="Ellipse 176" cx="1.86" cy="1.86" r="1.86" transform="translate(280.043 1110.612)" fill="none" stroke="#f7d614" stroke-miterlimit="10" stroke-width="0.5"/>
    <circle id="Ellipse_177" data-name="Ellipse 177" cx="1.86" cy="1.86" r="1.86" transform="translate(301.727 1094.977)" fill="none" stroke="#f7d614" stroke-miterlimit="10" stroke-width="0.5"/>
    <path id="Path_659" data-name="Path 659" d="M-781.005,264.143h-16.983a2.842,2.842,0,0,0-2.842,2.842v11.171" transform="translate(1082.733 832.693)" fill="none" stroke="#f7d614" stroke-miterlimit="10" stroke-width="0.5"/>
    <circle id="Ellipse_179" data-name="Ellipse 179" cx="1.86" cy="1.86" r="1.86" transform="translate(685.886 749.412)" fill="none" stroke="#cea923" stroke-miterlimit="10" stroke-width="0.5"/>
    <path id="Path_661" data-name="Path 661" d="M-380.573-83.122a1.859,1.859,0,0,1-1.859,1.859,1.858,1.858,0,0,1-1.859-1.859,1.859,1.859,0,0,1,1.859-1.859,1.86,1.86,0,0,1,1.859,1.859Z" transform="translate(1080.704 834.393)" fill="none" stroke="#cea923" stroke-miterlimit="10" stroke-width="0.5"/>
    <path id="Path_662" data-name="Path 662" d="M-433.462-35.713V-76.539a6.574,6.574,0,0,1,6.574-6.574h31.83" transform="translate(1080.944 834.384)" fill="none" stroke="#cea923" stroke-miterlimit="10" stroke-width="0.5"/>
    <line id="Line_100" data-name="Line 100" x2="28.62" transform="translate(700.132 751.271)" fill="none" stroke="#cea923" stroke-miterlimit="10" stroke-width="0.5"/>
    <circle id="Ellipse_182" data-name="Ellipse 182" cx="1.86" cy="1.86" r="1.86" transform="translate(807.322 1009)" fill="none" stroke="#cea923" stroke-miterlimit="10" stroke-width="0.5"/>
    <g id="Group_497" data-name="Group 497" transform="translate(788.12 1012.718)">
      <path id="Path_663" data-name="Path 663" d="M-270.162,256.312a1.86,1.86,0,0,1-1.86,1.86,1.86,1.86,0,0,1-1.86-1.86,1.86,1.86,0,0,1,1.86-1.86h0A1.86,1.86,0,0,1-270.162,256.312Z" transform="translate(292.046 -179.978)" fill="none" stroke="#cea923" stroke-miterlimit="10" stroke-width="0.5"/>
      <circle id="Ellipse_183" data-name="Ellipse 183" cx="1.86" cy="1.86" r="1.86" transform="translate(0 56.31)" fill="none" stroke="#cea923" stroke-miterlimit="10" stroke-width="0.5"/>
      <path id="Path_664" data-name="Path 664" d="M-290.266,235.923v-20.2a1.6,1.6,0,0,1,1.6-1.6h16a1.6,1.6,0,0,0,1.6-1.6V179.614" transform="translate(292.126 -179.614)" fill="none" stroke="#cea923" stroke-miterlimit="10" stroke-width="0.5"/>
      <path id="Path_665" data-name="Path 665" d="M-290.266,222.9H-273.7a1.6,1.6,0,0,1,1.6,1.6h0v29.8" transform="translate(292.126 -179.825)" fill="none" stroke="#cea923" stroke-miterlimit="10" stroke-width="0.5"/>
    </g>
    <circle id="Ellipse_184" data-name="Ellipse 184" cx="24.272" cy="24.272" r="24.272" transform="translate(295.949 998.898)" fill="#365c9e"/>
    <path id="Path_666" data-name="Path 666" d="M-741.456,171.953a27.654,27.654,0,0,1-2.867,39A27.654,27.654,0,0,1-772.9,215.6" transform="translate(1082.597 833.142)" fill="none" stroke="#365c9e" stroke-linecap="round" stroke-miterlimit="10" stroke-width="0.639"/>
    <path id="Path_667" data-name="Path 667" d="M-781.171,210.334a27.644,27.644,0,0,1-1.646-39.061,27.644,27.644,0,0,1,20.354-8.937" transform="translate(1082.68 833.189)" fill="none" stroke="#365c9e" stroke-linecap="round" stroke-miterlimit="10" stroke-width="0.639"/>
    <g id="Group_590" data-name="Group 590" transform="translate(304.07 1011.867)">
      <path id="Path_668" data-name="Path 668" d="M-759.164,178.758h2l-7.572,21.618h-2Z" transform="translate(778.496 -178.758)" fill="#fff"/>
      <path id="Path_669" data-name="Path 669" d="M-746.145,189.09v1.973l-10.281,4.06v-1.9l8.169-3.143-8.169-3.145v-1.9Z" transform="translate(778.446 -178.789)" fill="#fff"/>
      <path id="Path_670" data-name="Path 670" d="M-778.554,191.063V189.09l10.281-4.062v1.9l-8.169,3.145,8.169,3.143v1.9Z" transform="translate(778.554 -178.789)" fill="#fff"/>
    </g>
    <circle id="Ellipse_185" data-name="Ellipse 185" cx="39.418" cy="39.418" r="39.418" transform="translate(328.028 729.976)" fill="#f29141"/>
    <path id="Path_671" data-name="Path 671" d="M-680.979-94.4a44.91,44.91,0,0,1-4.662,63.34,44.907,44.907,0,0,1-46.4,7.539" transform="translate(1082.398 834.439)" fill="none" stroke="#f29141" stroke-linecap="round" stroke-miterlimit="10" stroke-width="1.038"/>
    <path id="Path_672" data-name="Path 672" d="M-745.469-32.069a44.9,44.9,0,0,1-2.671-63.438,44.9,44.9,0,0,1,33.052-14.514" transform="translate(1082.534 834.515)" fill="none" stroke="#f29141" stroke-linecap="round" stroke-miterlimit="10" stroke-width="1.038"/>
    <g id="Group_592" data-name="Group 592" transform="translate(350.852 757.141)">
      <path id="Path_673" data-name="Path 673" d="M-731.543-57.582l2.388-2.868a5.477,5.477,0,0,0,4.478,2.578c2.323,0,3.514-1.386,3.514-4.16V-73.7h-8.027v-3.514h12.216v14.958c0,5.319-2.643,7.931-7.607,7.931A8.512,8.512,0,0,1-731.543-57.582Z" transform="translate(731.543 77.214)" fill="#fff"/>
      <path id="Path_674" data-name="Path 674" d="M-713.363-56.331l1.546-3.062a11.6,11.6,0,0,0,6,1.708c2.546,0,3.608-.71,3.608-1.9,0-3.284-10.639-.193-10.639-7.059,0-3.257,2.935-5.384,7.578-5.384a13.708,13.708,0,0,1,6.447,1.483l-1.549,3.062A9.431,9.431,0,0,0-705.3-68.78c-2.45,0-3.61.807-3.61,1.936,0,3.483,10.638.387,10.638,7.124,0,3.224-2.965,5.319-7.8,5.319A13.667,13.667,0,0,1-713.363-56.331Z" transform="translate(731.454 77.189)" fill="#fff"/>
    </g>
    <circle id="Ellipse_186" data-name="Ellipse 186" cx="44.534" cy="44.534" r="44.534" transform="translate(438.967 772.822)" fill="#9779b7"/>
    <g id="Group_623" data-name="Group 623" transform="translate(432.776 766.632)">
      <path id="Path_675" data-name="Path 675" d="M-559.957-50.029a50.739,50.739,0,0,1-5.267,71.562,50.737,50.737,0,0,1-52.427,8.518" transform="translate(649.065 67.591)" fill="none" stroke="#9779b7" stroke-linecap="round" stroke-miterlimit="10" stroke-width="1.173"/>
      <path id="Path_676" data-name="Path 676" d="M-632.818,20.392a50.723,50.723,0,0,1-3.024-71.669,50.726,50.726,0,0,1,37.348-16.4" transform="translate(649.219 67.677)" fill="none" stroke="#9779b7" stroke-linecap="round" stroke-miterlimit="10" stroke-width="1.173"/>
    </g>
    <g id="Group_594" data-name="Group 594" transform="translate(459.968 809.562)">
      <path id="Path_677" data-name="Path 677" d="M-608.837-18.992c0,3.43-2.54,5.545-6.637,5.545h-3.518v4.5h-2.9V-24.537h6.415C-611.375-24.537-608.837-22.444-608.837-18.992Zm-2.919,0c0-1.959-1.312-3.095-3.851-3.095h-3.383v6.2h3.383c2.54,0,3.852-1.14,3.852-3.1Z" transform="translate(621.893 24.537)" fill="#fff"/>
      <path id="Path_678" data-name="Path 678" d="M-592-24.537v15.59H-594.9v-6.68h-8.06v6.68h-2.895v-15.59h2.895V-18.1h8.06v-6.437Z" transform="translate(621.815 24.537)" fill="#fff"/>
      <path id="Path_679" data-name="Path 679" d="M-574.667-18.992c0,3.43-2.54,5.545-6.636,5.545h-3.519v4.5h-2.9V-24.537h6.415C-577.2-24.537-574.667-22.444-574.667-18.992Zm-2.919,0c0-1.959-1.312-3.095-3.851-3.095h-3.383v6.2h3.383c2.542,0,3.852-1.14,3.852-3.1Z" transform="translate(621.727 24.537)" fill="#fff"/>
    </g>
    <circle id="Ellipse_187" data-name="Ellipse 187" cx="45.819" cy="45.819" r="45.819" transform="translate(246.855 890.296)" fill="#fc974c"/>
    <path id="Path_680" data-name="Path 680" d="M-750.613,68.349a52.205,52.205,0,0,1-5.425,73.628,52.2,52.2,0,0,1-53.935,8.762" transform="translate(1082.777 833.646)" fill="none" stroke="#fc974c" stroke-linecap="round" stroke-miterlimit="10" stroke-width="1.207"/>
    <path id="Path_681" data-name="Path 681" d="M-825.577,140.8a52.187,52.187,0,0,1-3.107-73.739A52.186,52.186,0,0,1-790.26,50.192" transform="translate(1082.935 833.735)" fill="none" stroke="#fc974c" stroke-linecap="round" stroke-miterlimit="10" stroke-width="1.207"/>
    <g id="Group_596" data-name="Group 596" transform="translate(263.579 929.869)">
      <path id="Path_682" data-name="Path 682" d="M-806.6,96.359v14.23h-2.643v-6.1H-816.6v6.1h-2.639V96.359h2.643v5.876h7.364V96.359Z" transform="translate(819.243 -96.359)" fill="#fff"/>
      <path id="Path_683" data-name="Path 683" d="M-799.822,98.6h-4.717V96.359h12.078V98.6h-4.718v12h-2.643Z" transform="translate(819.171 -96.359)" fill="#fff"/>
      <path id="Path_684" data-name="Path 684" d="M-777.333,110.592l-.021-9.435-4.677,7.808h-1.177l-4.677-7.685v9.312h-2.521V96.362h2.174l5.653,9.435,5.551-9.435h2.174l.021,14.23Z" transform="translate(819.103 -96.359)" fill="#fff"/>
      <path id="Path_685" data-name="Path 685" d="M-770.9,96.359h2.642v12h7.442v2.236H-770.9Z" transform="translate(819.008 -96.359)" fill="#fff"/>
    </g>
    <circle id="Ellipse_188" data-name="Ellipse 188" cx="28.219" cy="28.219" r="28.219" transform="translate(243.351 776.743)" fill="#4f88db"/>
    <path id="Path_686" data-name="Path 686" d="M-786.952-50.275a32.15,32.15,0,0,1-3.336,45.344A32.15,32.15,0,0,1-823.51.467" transform="translate(1082.843 834.224)" fill="none" stroke="#3a84e3" stroke-linecap="round" stroke-miterlimit="10" stroke-width="0.743"/>
    <path id="Path_687" data-name="Path 687" d="M-833.121-5.653a32.142,32.142,0,0,1-1.9-45.417,32.143,32.143,0,0,1,23.647-10.383" transform="translate(1082.94 834.278)" fill="none" stroke="#3a84e3" stroke-linecap="round" stroke-miterlimit="10" stroke-width="0.743"/>
    <g id="Group_601" data-name="Group 601" transform="translate(255.322 797.872)">
      <g id="Group_598" data-name="Group 598" transform="translate(0 0)">
        <path id="Path_688" data-name="Path 688" d="M-827.54-29.329a6.883,6.883,0,0,1,6.811-6.955c.142,0,.284,0,.426.009a6.847,6.847,0,0,1,5.344,2.257l-1.62,1.525a4.748,4.748,0,0,0-3.607-1.582A4.748,4.748,0,0,0-825-29.4a4.747,4.747,0,0,0,4.678,4.814h.137a4.7,4.7,0,0,0,3.607-1.6l1.62,1.544a6.853,6.853,0,0,1-5.363,2.257,6.877,6.877,0,0,1-7.21-6.528C-827.539-29.05-827.542-29.19-827.54-29.329Z" transform="translate(827.541 36.284)" fill="#fff"/>
      </g>
      <g id="Group_599" data-name="Group 599" transform="translate(15.341 3.275)">
        <path id="Path_689" data-name="Path 689" d="M-804.581-28.494h-2.9v2.864h-1.75v-2.864h-2.9v-1.635h2.9v-2.864h1.75v2.864h2.9Z" transform="translate(812.124 32.993)" fill="#fff"/>
      </g>
      <g id="Group_600" data-name="Group 600" transform="translate(24.954 3.275)">
        <path id="Path_690" data-name="Path 690" d="M-794.925-28.494h-2.895v2.864h-1.751v-2.864h-2.893v-1.635h2.895v-2.864h1.751v2.864h2.895Z" transform="translate(802.464 32.993)" fill="#fff"/>
      </g>
    </g>
    <circle id="Ellipse_189" data-name="Ellipse 189" cx="30.179" cy="30.179" r="30.179" transform="translate(564.896 746.948)" fill="#4f88db"/>
    <g id="Group_624" data-name="Group 624" transform="translate(560.702 742.754)">
      <path id="Path_691" data-name="Path 691" d="M-460.176-79.715a34.385,34.385,0,0,1-3.575,48.5,34.383,34.383,0,0,1-35.524,5.772" transform="translate(520.562 91.614)" fill="none" stroke="#4f88db" stroke-linecap="round" stroke-miterlimit="10" stroke-width="0.795"/>
      <path id="Path_692" data-name="Path 692" d="M-509.553-31.991A34.372,34.372,0,0,1-511.6-80.559a34.372,34.372,0,0,1,25.307-11.113" transform="translate(520.666 91.672)" fill="none" stroke="#4f88db" stroke-linecap="round" stroke-miterlimit="10" stroke-width="0.795"/>
    </g>
    <g id="Group_603" data-name="Group 603" transform="translate(576.967 770.128)">
      <path id="Path_693" data-name="Path 693" d="M-504.322-57.308a7.208,7.208,0,0,1,7.556-6.845,7.21,7.21,0,0,1,4.856,2.218l-1.6,1.5a4.677,4.677,0,0,0-3.56-1.56,4.682,4.682,0,0,0-4.751,4.614,4.683,4.683,0,0,0,4.614,4.751h.136a4.635,4.635,0,0,0,3.56-1.58l1.6,1.523a7.208,7.208,0,0,1-10.192.233,7.206,7.206,0,0,1-2.22-4.858Z" transform="translate(504.322 64.164)" fill="#fff"/>
      <path id="Path_694" data-name="Path 694" d="M-490.656-52.054l.858-1.923a7.365,7.365,0,0,0,4.395,1.466c2.076,0,2.952-.742,2.952-1.732,0-2.875-7.918-1-7.918-5.94,0-2.15,1.714-3.981,5.367-3.981a8.437,8.437,0,0,1,4.436,1.179l-.78,1.923a7.412,7.412,0,0,0-3.673-1.046c-2.056,0-2.894.8-2.894,1.809,0,2.836,7.9.989,7.9,5.882,0,2.131-1.733,3.96-5.388,3.96A8.583,8.583,0,0,1-490.656-52.054Z" transform="translate(504.255 64.164)" fill="#fff"/>
      <path id="Path_695" data-name="Path 695" d="M-478.622-52.054l.856-1.923a7.37,7.37,0,0,0,4.4,1.466c2.076,0,2.952-.742,2.952-1.732,0-2.875-7.918-1-7.918-5.94,0-2.15,1.714-3.981,5.369-3.981a8.442,8.442,0,0,1,4.434,1.179l-.78,1.923a7.412,7.412,0,0,0-3.673-1.046c-2.056,0-2.894.8-2.894,1.809,0,2.836,7.9.989,7.9,5.882,0,2.131-1.733,3.96-5.388,3.96A8.583,8.583,0,0,1-478.622-52.054Z" transform="translate(504.197 64.164)" fill="#fff"/>
    </g>
    <g id="Group_622" data-name="Group 622" transform="translate(509.098 733.064)">
      <path id="Path_696" data-name="Path 696" d="M-541.551-94.182l-4.876.249.249-4.876a17.027,17.027,0,0,0-6.3-2.6l-3.264,3.615L-559-101.409a17.025,17.025,0,0,0-6.3,2.6l.249,4.876-4.876-.249a16.993,16.993,0,0,0-2.6,6.3l3.615,3.264-3.615,3.264a16.993,16.993,0,0,0,2.6,6.3l4.876-.249-.249,4.876a17.008,17.008,0,0,0,6.3,2.6l3.263-3.615,3.264,3.615a17.01,17.01,0,0,0,6.3-2.6l-.249-4.876,4.876.249a17.028,17.028,0,0,0,2.6-6.3l-3.615-3.264,3.615-3.264A17.012,17.012,0,0,0-541.551-94.182Z" transform="translate(572.523 101.409)" fill="none" stroke="#fff" stroke-miterlimit="10" stroke-width="0.5"/>
      <path id="Path_697" data-name="Path 697" d="M-548.205-84.578a7.481,7.481,0,0,1-7.481,7.481,7.482,7.482,0,0,1-7.481-7.481,7.482,7.482,0,0,1,7.481-7.481A7.483,7.483,0,0,1-548.205-84.578Z" transform="translate(572.477 101.363)" fill="none" stroke="#fff" stroke-miterlimit="10" stroke-width="0.5"/>
    </g>
    <g id="Group_611" data-name="Group 611" transform="translate(711.442 1067.953)">
      <path id="Path_698" data-name="Path 698" d="M-338.216,242.346l-4.876.249.25-4.876a17.038,17.038,0,0,0-6.3-2.6l-3.265,3.615-3.264-3.615a17,17,0,0,0-6.294,2.6l.248,4.876-4.876-.249a17,17,0,0,0-2.6,6.3l3.614,3.263-3.614,3.264a16.991,16.991,0,0,0,2.6,6.3l4.876-.249-.248,4.876a17,17,0,0,0,6.294,2.6l3.264-3.615,3.265,3.615a17.021,17.021,0,0,0,6.3-2.6l-.25-4.876,4.876.249a17.008,17.008,0,0,0,2.6-6.3l-3.614-3.264,3.614-3.263A17.015,17.015,0,0,0-338.216,242.346Z" transform="translate(369.189 -235.119)" fill="none" stroke="#fff" stroke-miterlimit="10" stroke-width="0.5"/>
      <path id="Path_699" data-name="Path 699" d="M-344.869,251.949a7.483,7.483,0,0,1-7.481,7.483,7.481,7.481,0,0,1-7.483-7.481,7.483,7.483,0,0,1,7.481-7.483h0A7.484,7.484,0,0,1-344.869,251.949Z" transform="translate(369.143 -235.165)" fill="none" stroke="#fff" stroke-miterlimit="10" stroke-width="0.5"/>
    </g>
    <path id="Path_702" data-name="Path 702" d="M-809.028,183.764a11.833,11.833,0,0,0-1.8-4.368l-3.383.172.172-3.383a11.8,11.8,0,0,0-4.368-1.8l-2.26,2.513-2.265-2.509a11.809,11.809,0,0,0-4.368,1.8l.172,3.383-3.383-.172a11.8,11.8,0,0,0-1.8,4.368l2.509,2.265-2.509,2.264a11.8,11.8,0,0,0,1.8,4.369l3.383-.174-.172,3.383a11.767,11.767,0,0,0,4.368,1.8l2.265-2.508,2.264,2.508a11.782,11.782,0,0,0,4.368-1.8l-.172-3.383,3.383.174a11.814,11.814,0,0,0,1.8-4.369l-2.508-2.264Zm-11.643,7.456a5.19,5.19,0,0,1-5.191-5.191,5.19,5.19,0,0,1,5.191-5.191,5.191,5.191,0,0,1,5.191,5.191,5.19,5.19,0,0,1-5.19,5.191Z" transform="translate(1082.886 833.13)" fill="#fff"/>
    <path id="Path_703" data-name="Path 703" d="M-290.111-96.793a11.817,11.817,0,0,0-1.8-4.368l-3.383.172.172-3.383a11.816,11.816,0,0,0-4.368-1.8l-2.261,2.513-2.265-2.509a11.816,11.816,0,0,0-4.368,1.8l.172,3.383-3.383-.172a11.8,11.8,0,0,0-1.8,4.368l2.509,2.265-2.5,2.261a11.8,11.8,0,0,0,1.8,4.368l3.383-.172-.172,3.383a11.8,11.8,0,0,0,4.368,1.8l2.265-2.508,2.264,2.508a11.8,11.8,0,0,0,4.368-1.8l-.172-3.383,3.383.172a11.818,11.818,0,0,0,1.8-4.368l-2.508-2.264Zm-11.643,7.456a5.191,5.191,0,0,1-5.193-5.191,5.191,5.191,0,0,1,5.191-5.193,5.193,5.193,0,0,1,5.193,5.191v0a5.191,5.191,0,0,1-5.19,5.192h0Z" transform="translate(1080.359 834.496)" fill="#fff"/>
  </g>
</svg>
