<svg xmlns="http://www.w3.org/2000/svg" width="620.606" height="418.572" viewBox="0 0 620.606 418.572">
  <g id="web_design_image" data-name="web design image" transform="translate(-984.406 -1393)">
    <circle id="Ellipse_190" data-name="Ellipse 190" cx="203.177" cy="203.177" r="203.177" transform="translate(1054.267 1405.219)" fill="#410f6e"/>
    <path id="Path_703" data-name="Path 703" d="M-292.622-97.8a10.542,10.542,0,0,0-1.609-3.9l-3.019.154.154-3.019a10.542,10.542,0,0,0-3.9-1.609l-2.017,2.242-2.021-2.238a10.542,10.542,0,0,0-3.9,1.609l.154,3.019-3.019-.154a10.528,10.528,0,0,0-1.609,3.9l2.238,2.021-2.235,2.017a10.528,10.528,0,0,0,1.609,3.9l3.019-.154L-308.924-87a10.528,10.528,0,0,0,3.9,1.609l2.021-2.237,2.02,2.237A10.527,10.527,0,0,0-297.09-87l-.154-3.019,3.019.154a10.544,10.544,0,0,0,1.61-3.9l-2.237-2.02Zm-10.388,6.652a4.631,4.631,0,0,1-4.633-4.631,4.632,4.632,0,0,1,4.631-4.633,4.633,4.633,0,0,1,4.633,4.631v0a4.631,4.631,0,0,1-4.63,4.632h0Z" transform="translate(1590.536 1499.175)" fill="#fff"/>
    <path id="Path_586" data-name="Path 586" d="M360.979,511.514l-8.987-3.784-6.165-45.051h-82.1l-6.683,44.866-8.04,4.02a1.909,1.909,0,0,0,.854,3.617H360.238a1.909,1.909,0,0,0,.741-3.669Z" transform="translate(952.187 1280.419)" fill="#6f6f75"/>
    <path id="Path_587" data-name="Path 587" d="M411.85,431.956H8.57A7.989,7.989,0,0,1,.6,423.967V367.1H419.822v56.868A7.989,7.989,0,0,1,411.85,431.956Z" transform="translate(1047.207 1317.135)" fill="#3f3d56"/>
    <path id="Path_588" data-name="Path 588" d="M420.014,252.957H0V9.631A9.643,9.643,0,0,1,9.632,0h400.75a9.643,9.643,0,0,1,9.632,9.631Z" transform="translate(1047.436 1458.154)" fill="#2f2e41"/>
    <path id="Path_589" data-name="Path 589" d="M405.944,246.312H36.1a7.434,7.434,0,0,1-7.425-7.425V36.1A7.434,7.434,0,0,1,36.1,28.676H405.944A7.434,7.434,0,0,1,413.37,36.1V238.887A7.434,7.434,0,0,1,405.944,246.312Z" transform="translate(1036.421 1447.138)" fill="#8524d9"/>
    <path id="Path_590" data-name="Path 590" d="M379.181,549.66H171.361c-.438.02-.827-.592-.948-1.492a2.718,2.718,0,0,1,.67-2.458.48.48,0,0,1,.24-.067H379.1c.463-.034.875.617,1,1.572.113,1.084-.208,2.159-.715,2.4A.47.47,0,0,1,379.181,549.66Z" transform="translate(981.985 1246.411)" fill="#6f6f75"/>
    <path id="Path_613" data-name="Path 613" d="M196.84,44.248h-1.023V16.221A16.221,16.221,0,0,0,179.6,0H120.216A16.221,16.221,0,0,0,104,16.221h0V169.98A16.221,16.221,0,0,0,120.216,186.2H179.6a16.221,16.221,0,0,0,16.221-16.221V64.2h1.023Z" transform="translate(909.983 1613.668)" fill="#2f2e41"/>
    <path id="Path_614" data-name="Path 614" d="M193.268,16.5h-7.751a5.755,5.755,0,0,1-5.329,7.929H146.171a5.755,5.755,0,0,1-5.329-7.929H133.6a12.114,12.114,0,0,0-12.114,12.114V182.142A12.114,12.114,0,0,0,133.6,194.256h59.665a12.114,12.114,0,0,0,12.114-12.114h0V28.609A12.114,12.114,0,0,0,193.268,16.5Z" transform="translate(896.965 1601.394)" fill="#8524d9"/>
    <g id="Group_499" data-name="Group 499" transform="translate(984.406 1702.13)">
      <path id="Path_615" data-name="Path 615" d="M495.363,168.2h-9.53A1.835,1.835,0,0,1,484,166.363v-9.53A1.835,1.835,0,0,1,485.833,155h9.53a1.835,1.835,0,0,1,1.833,1.833v9.53A1.835,1.835,0,0,1,495.363,168.2Zm-9.53-12.463a1.1,1.1,0,0,0-1.1,1.1v9.53a1.1,1.1,0,0,0,1.1,1.1h9.53a1.1,1.1,0,0,0,1.1-1.1v-9.53a1.1,1.1,0,0,0-1.1-1.1Z" transform="translate(-478.135 -150.235)" fill="#e6e6e6"/>
      <path id="Path_617" data-name="Path 617" d="M479.363,155.2h-9.53A1.835,1.835,0,0,1,468,153.363v-9.53A1.835,1.835,0,0,1,469.833,142h9.53a1.835,1.835,0,0,1,1.833,1.833v9.53A1.835,1.835,0,0,1,479.363,155.2Zm-9.53-12.463a1.1,1.1,0,0,0-1.1,1.1v9.53a1.1,1.1,0,0,0,1.1,1.1h9.53a1.1,1.1,0,0,0,1.1-1.1v-9.53a1.1,1.1,0,0,0-1.1-1.1Z" transform="translate(-468 -142)" fill="#e6e6e6"/>
    </g>
    <path id="Path_618" data-name="Path 618" d="M27.363,372.2h-9.53A1.835,1.835,0,0,1,16,370.363v-9.53A1.835,1.835,0,0,1,17.833,359h9.53a1.835,1.835,0,0,1,1.833,1.833v9.53A1.835,1.835,0,0,1,27.363,372.2Zm-9.53-12.463a1.1,1.1,0,0,0-1.1,1.1v9.53a1.1,1.1,0,0,0,1.1,1.1h9.53a1.1,1.1,0,0,0,1.1-1.1v-9.53a1.1,1.1,0,0,0-1.1-1.1Z" transform="translate(1473.899 1118.317)" fill="#e6e6e6"/>
    <path id="Path_619" data-name="Path 619" d="M11.363,359.2H1.833A1.835,1.835,0,0,1,0,357.363v-9.53A1.835,1.835,0,0,1,1.833,346h9.53a1.835,1.835,0,0,1,1.833,1.833v9.53A1.835,1.835,0,0,1,11.363,359.2Zm-9.53-12.463a1.1,1.1,0,0,0-1.1,1.1v9.53a1.1,1.1,0,0,0,1.1,1.1h9.53a1.1,1.1,0,0,0,1.1-1.1v-9.53a1.1,1.1,0,0,0-1.1-1.1Z" transform="translate(1484.034 1126.552)" fill="#e6e6e6"/>
    <g id="Group_487" data-name="Group 487" transform="matrix(0.875, -0.485, 0.485, 0.875, 1511.954, 1564.569)">
      <path id="Path_623" data-name="Path 623" d="M4.63,30.063,5.675,29.5,1.336,21.46,11.57,2.5,21.8,21.46,14.813,34.41H8.327L6.94,31.842l-1.046.565L7.618,35.6h7.9l7.618-14.14L11.57,0,0,21.462" transform="translate(0 0)" fill="#fff"/>
    </g>
    <g id="Group_488" data-name="Group 488" transform="matrix(0.875, -0.485, 0.485, 0.875, 1530.336, 1593.722)">
      <path id="Path_624" data-name="Path 624" d="M19.254,7.488H0V5.824A5.831,5.831,0,0,1,5.824,0h7.6a5.831,5.831,0,0,1,5.824,5.824ZM1.189,6.3H18.065V5.824a4.641,4.641,0,0,0-4.636-4.636h-7.6A4.641,4.641,0,0,0,1.189,5.824Z" transform="translate(0)" fill="#fff"/>
    </g>
    <g id="Group_489" data-name="Group 489" transform="matrix(0.875, -0.485, 0.485, 0.875, 1528.989, 1577.075)">
      <path id="Path_625" data-name="Path 625" d="M2.734,5.467A2.734,2.734,0,1,1,5.467,2.734,2.737,2.737,0,0,1,2.734,5.467Zm0-4.279A1.545,1.545,0,1,0,4.279,2.734,1.547,1.547,0,0,0,2.734,1.188Z" transform="translate(0 0)" fill="#fff"/>
    </g>
    <g id="Group_490" data-name="Group 490" transform="matrix(0.875, -0.485, 0.485, 0.875, 1522.048, 1560.33)">
      <rect id="Rectangle_133" data-name="Rectangle 133" width="1.272" height="18.574" transform="translate(0 0)" fill="#fff"/>
    </g>
    <path id="Union_2" data-name="Union 2" d="M.2,35l1.691-.937A24.61,24.61,0,0,1,10.553,4.406L9.571,2.633,13.936.213l.983,1.773a24.608,24.608,0,0,1,29.744,8.372l1.691-.937,2.42,4.366-4.366,2.42-2.42-4.365,1.629-.9A23.551,23.551,0,0,0,15.5,3.031l.858,1.548L11.991,7l-.858-1.547A23.585,23.585,0,0,0,2.938,33.487l1.628-.9,2.42,4.366L2.621,39.37Zm1.617.463,1.267,2.287,2.287-1.267L4.1,34.2ZM43.6,12.3l1.268,2.287,2.287-1.267-1.268-2.287ZM11.187,3.1l1.267,2.286,2.287-1.267L13.474,1.829Z" transform="translate(1507.872 1553.121)" fill="#cea923" stroke="rgba(0,0,0,0)" stroke-miterlimit="10" stroke-width="1"/>
    <rect id="Rectangle_134" data-name="Rectangle 134" width="293.876" height="85.233" rx="8" transform="translate(1110.119 1519.434)" fill="#ff64d0"/>
    <rect id="Rectangle_136" data-name="Rectangle 136" width="58.598" height="61.261" rx="8" transform="translate(1031.101 1645.508)" fill="#ff64d0"/>
    <g id="Group_519" data-name="Group 519" transform="translate(992.848 1552.98)">
      <path id="Path_631" data-name="Path 631" d="M1319.431,202.733h11.112c.932,0,1.077.144,1.078,1.068q0,3.137,0,6.273c0,.853-.162,1.013-1.009,1.015-.916,0-1.832.005-2.748,0-.691,0-.881-.193-.892-.892-.011-.657.006-1.315-.008-1.971-.013-.623-.215-.827-.832-.832q-1.792-.015-3.585,0c-.611.005-.819.211-.819.842q-.008,8.543,0,17.086c0,.622.213.814.835.828.458.01.916.011,1.374,0a.684.684,0,0,1,.8.745q.019,1.583,0,3.166c-.007.51-.3.748-.806.748q-4.54,0-9.081,0a.715.715,0,0,1-.8-.816q0-1.524,0-3.047a.7.7,0,0,1,.813-.795c.438.011.876.007,1.315,0,.688-.01.884-.2.888-.9.009-1.553,0-3.107,0-4.66q0-6.034,0-12.068c0-1.011-.125-1.135-1.131-1.136-1.056,0-2.111,0-3.167,0-.762,0-.937.183-.944.962-.006.637.01,1.275-.007,1.911-.016.618-.222.817-.84.823-1,.009-1.992.01-2.987,0-.623-.007-.819-.224-.821-.9q-.007-3.256,0-6.512c0-.756.191-.939.967-.939Q1313.785,202.731,1319.431,202.733Z" transform="translate(-1300.269 -196.151)" fill="#fff"/>
      <g id="Group_504" data-name="Group 504" transform="translate(0 0)">
        <path id="Path_632" data-name="Path 632" d="M1251.685,149.919c0,1.714,0,3.325,0,4.935a1.228,1.228,0,0,1-.617,1.2,1.091,1.091,0,0,1-1.624-.9c-.035-2.147-.025-4.3,0-6.443a1.052,1.052,0,0,1,1.092-1.044q3.162-.024,6.324,0a1.073,1.073,0,0,1,1.086,1.109,1.114,1.114,0,0,1-1.2,1.132c-1.452.016-2.9.005-4.356.006Z" transform="translate(-1249.424 -147.659)" fill="#cea923"/>
        <path id="Path_633" data-name="Path 633" d="M1504.462,149.911c-1.716,0-3.344,0-4.973,0a1.172,1.172,0,0,1-1.263-.868,1.089,1.089,0,0,1,1.032-1.372c2.128-.024,4.256-.021,6.384,0a1.052,1.052,0,0,1,1.065,1.073q.026,3.192,0,6.384a1.063,1.063,0,0,1-1.143,1.048,1.106,1.106,0,0,1-1.093-1.176c-.017-1.452-.006-2.9-.007-4.355Z" transform="translate(-1468.468 -147.651)" fill="#cea923"/>
        <path id="Path_634" data-name="Path 634" d="M1251.7,402.719c1.726,0,3.355,0,4.984,0a1.161,1.161,0,0,1,1.254.879,1.09,1.09,0,0,1-1.046,1.362q-3.192.034-6.384,0a1.052,1.052,0,0,1-1.054-1.084q-.025-3.162,0-6.324a1.072,1.072,0,0,1,1.1-1.1,1.107,1.107,0,0,1,1.14,1.189c.017,1.452.006,2.9.006,4.355Z" transform="translate(-1249.442 -366.725)" fill="#cea923"/>
        <path id="Path_635" data-name="Path 635" d="M1504.5,402.716c0-1.645,0-3.212,0-4.779a2.8,2.8,0,0,1,.035-.593,1.1,1.1,0,0,1,1.176-.886,1.057,1.057,0,0,1,1.031,1.039q.029,3.192,0,6.384a1.067,1.067,0,0,1-1.119,1.082q-3.132.023-6.264,0a1.085,1.085,0,0,1-1.123-1.135,1.1,1.1,0,0,1,1.163-1.106c1.432-.019,2.864-.007,4.3-.007Z" transform="translate(-1468.505 -366.723)" fill="#cea923"/>
      </g>
    </g>
    <path id="Path_639" data-name="Path 639" d="M836.565,287.408a3.341,3.341,0,0,0-4.243.54q-10.408,9.419-20.808,18.846a6.227,6.227,0,0,0-.941,1.074q-2.662,3.855-5.283,7.737a.966.966,0,0,1-1.067.513,5.483,5.483,0,0,0-4.5,1.535c-.351.325-.493.7-.14,1.106s.742.3,1.115,0c.073-.059.147-.116.218-.177a4.221,4.221,0,0,1,2.629-1.016,4.332,4.332,0,0,1,4.4,3.573,3.787,3.787,0,0,1-2.655,4.5,24.3,24.3,0,0,1-3,.693,4.8,4.8,0,0,0-3.086,1.9c-.211.29-.417.583-.677.947a8.367,8.367,0,0,1-.6-4.826,23.83,23.83,0,0,1,.985-3.2c.155-.461.138-.855-.332-1.071-.437-.2-.767.02-.986.414a6.207,6.207,0,0,0-.315.626,11.168,11.168,0,0,0,.425,9.879,1.325,1.325,0,0,0,1.013.8.9.9,0,0,0,.935-.83l.191-.733h0a3.477,3.477,0,0,1,2.866-2.488c.781-.142,1.564-.288,2.333-.482A5.385,5.385,0,0,0,809.434,321a1.006,1.006,0,0,1,.4-.759c2.275-1.563,4.547-3.132,6.874-4.616a14.928,14.928,0,0,0,3.211-2.9c.344-.4.533-.816.065-1.219-.44-.379-.82-.139-1.153.222-.357.388-.719.77-1.06,1.134l-5.2-5.179a5.209,5.209,0,0,0,.6-.406q2.894-2.607,5.776-5.227,7.206-6.524,14.414-13.046a2.041,2.041,0,0,1,2.9-.027,2.108,2.108,0,0,1,.23,3.249q-5.532,6.116-11.071,12.225-1.79,1.977-3.577,3.957c-.323.358-.417.758-.025,1.113s.775.209,1.112-.128c.05-.05.1-.1.143-.155q7.3-8.062,14.593-16.137a3.9,3.9,0,0,0,.875-1.636A3.755,3.755,0,0,0,836.565,287.408Zm-20.153,26.608-7.268,4.883-2.51-2.662,4.907-7.172Z" transform="translate(273.996 1118.154)" fill="#fff"/>
    <path id="Intersection_9" data-name="Intersection 9" d="M0,27.194V7.426A7.433,7.433,0,0,1,7.425,0H377.268a7.434,7.434,0,0,1,7.426,7.426V27.194Z" transform="translate(1065.097 1475.814)" fill="#5403a5"/>
    <g id="Group_608" data-name="Group 608" transform="translate(1079.989 1486.536)">
      <path id="Path_642" data-name="Path 642" d="M-728.526,16.779a2.875,2.875,0,0,1-2.875,2.875,2.875,2.875,0,0,1-2.875-2.875A2.875,2.875,0,0,1-731.4,13.9,2.876,2.876,0,0,1-728.526,16.779Z" transform="translate(734.276 -13.904)" fill="#ff64d0"/>
      <path id="Path_643" data-name="Path 643" d="M-716.652,16.779a2.876,2.876,0,0,1-2.875,2.877,2.875,2.875,0,0,1-2.877-2.875,2.876,2.876,0,0,1,2.875-2.877h0A2.876,2.876,0,0,1-716.652,16.779Z" transform="translate(732.944 -13.904)" fill="#ff64d0"/>
      <path id="Path_644" data-name="Path 644" d="M-704.779,16.779a2.875,2.875,0,0,1-2.875,2.875,2.875,2.875,0,0,1-2.875-2.875,2.875,2.875,0,0,1,2.875-2.875A2.876,2.876,0,0,1-704.779,16.779Z" transform="translate(731.613 -13.904)" fill="#ff64d0"/>
    </g>
    <g id="Group_505" data-name="Group 505" transform="translate(1400.444 1408.55)">
      <path id="Path_641" data-name="Path 641" d="M31.944,0H2.9A2.908,2.908,0,0,0,0,2.9V21.49a2.907,2.907,0,0,0,2.9,2.9h29.04a2.684,2.684,0,0,0,.486-.042,2.9,2.9,0,0,0,2.418-2.862V2.9A2.908,2.908,0,0,0,31.944,0ZM2.9,23.232a1.742,1.742,0,0,1-1.735-1.589l11.58-7.571,11.776,9.16ZM33.687,21.49a1.738,1.738,0,0,1-1.458,1.717,1.577,1.577,0,0,1-.285.025H26.417l-7.7-5.989,6.881-5.5,8.084,4.85Zm0-6.253-7.832-4.7a.581.581,0,0,0-.662.044l-7.415,5.93L13.134,12.9a.581.581,0,0,0-.674-.028L1.162,20.26V2.9A1.742,1.742,0,0,1,2.9,1.162h29.04A1.742,1.742,0,0,1,33.687,2.9Z" transform="matrix(0.883, 0.469, -0.469, 0.883, 11.452, 0)" fill="#fff"/>
      <path id="Path_642-2" data-name="Path 642" d="M3.485,0A3.485,3.485,0,1,0,6.97,3.485,3.485,3.485,0,0,0,3.485,0Zm0,5.808A2.323,2.323,0,1,1,5.808,3.485,2.323,2.323,0,0,1,3.485,5.808Z" transform="matrix(0.883, 0.469, -0.469, 0.883, 22.124, 9.621)" fill="#cea923"/>
    </g>
    <line id="Line_6" data-name="Line 6" x2="37.289" transform="translate(1072.386 1449.739)" fill="none" stroke="#cea923" stroke-linecap="round" stroke-width="1"/>
    <line id="Line_7" data-name="Line 7" x2="4.439" transform="translate(1113.227 1449.739)" fill="none" stroke="#cea923" stroke-linecap="round" stroke-width="1"/>
    <g id="Group_512" data-name="Group 512" transform="translate(1110.563 1622.868)">
      <line id="Line_8" data-name="Line 8" x2="293.876" fill="none" stroke="#aa50f8" stroke-width="4"/>
      <line id="Line_12" data-name="Line 12" x2="293.876" transform="translate(0 10.654)" fill="none" stroke="#aa50f8" stroke-width="4"/>
      <line id="Line_13" data-name="Line 13" x2="293.876" transform="translate(0 21.308)" fill="none" stroke="#aa50f8" stroke-width="4"/>
      <line id="Line_14" data-name="Line 14" x2="293.876" transform="translate(0 32.54)" fill="none" stroke="#aa50f8" stroke-width="4"/>
    </g>
    <path id="Intersection_11" data-name="Intersection 11" d="M0,13.414v-1.3A12.114,12.114,0,0,1,12.114,0h7.239a5.756,5.756,0,0,0,5.329,7.929H58.7A5.756,5.756,0,0,0,64.028,0H71.78A12.114,12.114,0,0,1,83.893,12.114v1.3Z" transform="translate(1018.454 1617.889)" fill="#5403a5"/>
    <g id="Group_506" data-name="Group 506" transform="translate(1087.479 1621.932)">
      <line id="Line_9" data-name="Line 9" x2="6.215" transform="translate(0)" fill="none" stroke="#ff64d0" stroke-linecap="round" stroke-width="1"/>
      <line id="Line_10" data-name="Line 10" x2="6.215" transform="translate(0 2.664)" fill="none" stroke="#ff64d0" stroke-linecap="round" stroke-width="1"/>
      <line id="Line_11" data-name="Line 11" x2="6.215" transform="translate(0 5.327)" fill="none" stroke="#ff64d0" stroke-linecap="round" stroke-width="1"/>
    </g>
    <g id="Group_509" data-name="Group 509" transform="translate(1369.246 1628.167)">
      <path id="Path_611" data-name="Path 611" d="M218.714,166.639H11.971A11.985,11.985,0,0,1,0,154.667V11.971A11.985,11.985,0,0,1,11.971,0H218.714a11.985,11.985,0,0,1,11.972,11.971v142.7A11.985,11.985,0,0,1,218.714,166.639Z" transform="translate(3.231 2.983)" fill="#2f2e41"/>
      <g id="Group_507" data-name="Group 507" transform="translate(0)">
        <path id="Path_610" data-name="Path 610" d="M221.946,1.135H42.037A1.155,1.155,0,0,0,40.883,0H33.8a1.154,1.154,0,0,0-1.153,1.135H30.909A1.154,1.154,0,0,0,29.755,0H22.67a1.154,1.154,0,0,0-1.153,1.135H15.2a13.836,13.836,0,0,0-13.82,13.82v.136c-.022,0-.043-.006-.065-.006H1.155A1.155,1.155,0,0,0,0,16.24H0V29.755a1.155,1.155,0,0,0,1.155,1.155h.162c.022,0,.043-.005.065-.006V157.651a13.836,13.836,0,0,0,13.82,13.82H221.946a13.836,13.836,0,0,0,13.82-13.82V14.955A13.836,13.836,0,0,0,221.946,1.135Zm9.66,156.516a9.672,9.672,0,0,1-9.66,9.66H15.2a9.671,9.671,0,0,1-9.661-9.66V14.955A9.672,9.672,0,0,1,15.2,5.294H221.946a9.672,9.672,0,0,1,9.66,9.66Z" transform="translate(0)" fill="#2f2e41"/>
        <path id="Path_612" data-name="Path 612" d="M209.5,147.351H2.634A2.638,2.638,0,0,1,0,144.716V2.635A2.637,2.637,0,0,1,2.634,0H209.5a2.638,2.638,0,0,1,2.635,2.635V144.716A2.638,2.638,0,0,1,209.5,147.351Z" transform="translate(12.504 12.628)" fill="#8c28dc"/>
      </g>
    </g>
    <rect id="Rectangle_135" data-name="Rectangle 135" width="170.248" height="64.296" rx="8" transform="translate(1402.22 1665.928)" fill="#ff64d0"/>
    <g id="Group_508" data-name="Group 508" transform="translate(1381.75 1640.795)">
      <path id="Intersection_10" data-name="Intersection 10" d="M0,11.816V2.634A2.638,2.638,0,0,1,2.634,0H209.5a2.637,2.637,0,0,1,2.634,2.634v9.181Z" transform="translate(0 0)" fill="#5403a5"/>
      <g id="Group_608-2" data-name="Group 608" transform="translate(9.716 4.475)">
        <path id="Path_642-3" data-name="Path 642" d="M-731.411,15.336a1.432,1.432,0,0,1-1.432,1.432,1.432,1.432,0,0,1-1.432-1.432,1.432,1.432,0,0,1,1.432-1.432A1.433,1.433,0,0,1-731.411,15.336Z" transform="translate(734.276 -13.904)" fill="#ff64d0"/>
        <path id="Path_643-2" data-name="Path 643" d="M-719.537,15.336a1.433,1.433,0,0,1-1.432,1.433,1.432,1.432,0,0,1-1.433-1.432,1.433,1.433,0,0,1,1.432-1.433h0A1.433,1.433,0,0,1-719.537,15.336Z" transform="translate(727.655 -13.904)" fill="#ff64d0"/>
        <path id="Path_644-2" data-name="Path 644" d="M-707.664,15.336a1.432,1.432,0,0,1-1.433,1.432,1.432,1.432,0,0,1-1.432-1.432A1.432,1.432,0,0,1-709.1,13.9,1.433,1.433,0,0,1-707.664,15.336Z" transform="translate(721.034 -13.904)" fill="#ff64d0"/>
      </g>
    </g>
    <g id="Group_510" data-name="Group 510" transform="translate(1401.923 1741.436)">
      <line id="Line_15" data-name="Line 15" x2="170.248" fill="none" stroke="#aa50f8" stroke-width="4"/>
      <line id="Line_16" data-name="Line 16" x2="170.248" transform="translate(0 10.654)" fill="none" stroke="#aa50f8" stroke-width="4"/>
      <line id="Line_17" data-name="Line 17" x2="170.248" transform="translate(0 21.308)" fill="none" stroke="#aa50f8" stroke-width="4"/>
      <line id="Line_18" data-name="Line 18" x2="170.248" transform="translate(0 32.54)" fill="none" stroke="#aa50f8" stroke-width="4"/>
    </g>
    <g id="Group_511" data-name="Group 511" transform="translate(1031.101 1720.828)">
      <line id="Line_15-2" data-name="Line 15" x2="58.598" transform="translate(0)" fill="none" stroke="#aa50f8" stroke-width="4"/>
      <line id="Line_16-2" data-name="Line 16" x2="58.598" transform="translate(0 10.654)" fill="none" stroke="#aa50f8" stroke-width="4"/>
      <line id="Line_17-2" data-name="Line 17" x2="58.598" transform="translate(0 21.308)" fill="none" stroke="#aa50f8" stroke-width="4"/>
      <line id="Line_18-2" data-name="Line 18" x2="58.598" transform="translate(0 32.54)" fill="none" stroke="#aa50f8" stroke-width="4"/>
    </g>
    <g id="Group_514" data-name="Group 514" transform="matrix(0.978, 0.208, -0.208, 0.978, 1251.079, 1535.427)">
      <path id="Path_645" data-name="Path 645" d="M41.9,0H5.343A5.349,5.349,0,0,0,0,5.346v33.6a5.346,5.346,0,0,0,5.343,5.34H41.9a5.344,5.344,0,0,0,5.341-5.34V5.346A5.346,5.346,0,0,0,41.9,0ZM30.55,7.951a5.161,5.161,0,1,1-5.161,5.161A5.162,5.162,0,0,1,30.55,7.951Zm9.677,31.4H7.756a1.46,1.46,0,0,1-1.418-2.3L15.2,19.5a1.491,1.491,0,0,1,2.731-.254l8.906,11.639a2.183,2.183,0,0,0,3.382.214l2.179-2.207a2.074,2.074,0,0,1,3.294.279l5.642,8.059C42.145,38.4,41.653,39.348,40.228,39.348Z" fill="#f75cc8"/>
    </g>
    <g id="Group_516" data-name="Group 516" transform="matrix(0.978, 0.208, -0.208, 0.978, 1056.327, 1663.83)">
      <path id="Path_645-2" data-name="Path 645" d="M19.863,0H2.533A2.535,2.535,0,0,0,0,2.534V18.461a2.534,2.534,0,0,0,2.533,2.531h17.33a2.533,2.533,0,0,0,2.532-2.531V2.534A2.534,2.534,0,0,0,19.863,0ZM14.481,3.769a2.446,2.446,0,1,1-2.446,2.446A2.447,2.447,0,0,1,14.481,3.769Zm4.587,14.883H3.676A.692.692,0,0,1,3,17.559L7.2,9.243A.707.707,0,0,1,8.5,9.123l4.222,5.517a1.035,1.035,0,0,0,1.6.1L15.355,13.7a.983.983,0,0,1,1.561.132l2.674,3.82C19.977,18.2,19.744,18.651,19.068,18.651Z" transform="translate(0 0)" fill="#f75cc8"/>
    </g>
    <g id="Group_518" data-name="Group 518" transform="matrix(0.978, 0.208, -0.208, 0.978, 1482.921, 1681.909)">
      <path id="Path_645-3" data-name="Path 645" d="M25.227,0H3.217A3.22,3.22,0,0,0,0,3.219V23.447a3.218,3.218,0,0,0,3.217,3.215h22.01a3.217,3.217,0,0,0,3.215-3.215V3.219A3.219,3.219,0,0,0,25.227,0ZM18.392,4.787a3.107,3.107,0,1,1-3.107,3.107A3.108,3.108,0,0,1,18.392,4.787Zm5.826,18.9H4.669A.879.879,0,0,1,3.816,22.3L9.148,11.74a.9.9,0,0,1,1.644-.153l5.362,7.007a1.314,1.314,0,0,0,2.036.129L19.5,17.395a1.249,1.249,0,0,1,1.983.168l3.4,4.852C25.373,23.118,25.076,23.689,24.218,23.689Z" transform="translate(0 0)" fill="#f75cc8"/>
    </g>
    <g id="Group_513" data-name="Group 513" transform="translate(1233.529 1539.855)">
      <path id="Path_645-4" data-name="Path 645" d="M-461.826,9.35h-36.56a5.349,5.349,0,0,0-5.343,5.346V48.3a5.346,5.346,0,0,0,5.343,5.34h36.56a5.344,5.344,0,0,0,5.341-5.34V14.7A5.346,5.346,0,0,0-461.826,9.35ZM-473.179,17.3a5.162,5.162,0,0,1,5.161,5.161,5.162,5.162,0,0,1-5.161,5.161,5.161,5.161,0,0,1-5.161-5.161A5.161,5.161,0,0,1-473.179,17.3Zm9.677,31.4h-32.472a1.46,1.46,0,0,1-1.418-2.3l8.857-17.544A1.491,1.491,0,0,1-485.8,28.6l8.906,11.639a2.183,2.183,0,0,0,3.382.214l2.179-2.207a2.074,2.074,0,0,1,3.294.279l5.642,8.059C-461.584,47.75-462.076,48.7-463.5,48.7Z" transform="translate(503.729 -9.35)" fill="#fff"/>
    </g>
    <g id="Group_515" data-name="Group 515" transform="translate(1048.858 1665.928)">
      <path id="Path_645-5" data-name="Path 645" d="M-483.866,9.35H-501.2a2.535,2.535,0,0,0-2.533,2.534V27.811a2.534,2.534,0,0,0,2.533,2.531h17.33a2.533,2.533,0,0,0,2.532-2.531V11.884A2.534,2.534,0,0,0-483.866,9.35Zm-5.381,3.769a2.447,2.447,0,0,1,2.446,2.446,2.447,2.447,0,0,1-2.446,2.446,2.447,2.447,0,0,1-2.446-2.446A2.447,2.447,0,0,1-489.248,13.119ZM-484.661,28h-15.392a.692.692,0,0,1-.672-1.092l4.2-8.316a.707.707,0,0,1,1.295-.12l4.222,5.517a1.035,1.035,0,0,0,1.6.1l1.033-1.046a.983.983,0,0,1,1.561.132l2.674,3.82C-483.752,27.552-483.985,28-484.661,28Z" transform="translate(503.729 -9.35)" fill="#fff"/>
    </g>
    <g id="Group_517" data-name="Group 517" transform="translate(1473.247 1684.573)">
      <path id="Path_645-6" data-name="Path 645" d="M-478.5,9.35h-22.01a3.22,3.22,0,0,0-3.217,3.219V32.8a3.218,3.218,0,0,0,3.217,3.215h22.01a3.217,3.217,0,0,0,3.215-3.215V12.569A3.219,3.219,0,0,0-478.5,9.35Zm-6.835,4.787a3.108,3.108,0,0,1,3.107,3.107,3.108,3.108,0,0,1-3.107,3.107,3.107,3.107,0,0,1-3.107-3.107A3.107,3.107,0,0,1-485.337,14.137Zm5.826,18.9H-499.06a.879.879,0,0,1-.853-1.387l5.332-10.562a.9.9,0,0,1,1.644-.153l5.362,7.007a1.315,1.315,0,0,0,2.036.129l1.312-1.328a1.249,1.249,0,0,1,1.983.168l3.4,4.852C-478.356,32.468-478.653,33.039-479.511,33.039Z" transform="translate(503.729 -9.35)" fill="#fff"/>
    </g>
  </g>
</svg>
