<?xml version="1.0" encoding="utf-8"?>
<!-- Generator: Adobe Illustrator 23.0.1, SVG Export Plug-In . SVG Version: 6.00 Build 0)  -->
<svg version="1.1" id="Layer_1" xmlns="http://www.w3.org/2000/svg" xmlns:xlink="http://www.w3.org/1999/xlink" x="0px" y="0px"
	 viewBox="0 0 500 500" style="enable-background:new 0 0 500 500;" xml:space="preserve">
<style type="text/css">
	.st0{opacity:0.3;}
	.st1{opacity:0.3;fill:url(#Path_1289_1_);enable-background:new    ;}
	.st2{opacity:0.3;fill:url(#Path_1290_1_);enable-background:new    ;}
	.st3{opacity:0.3;fill:url(#Path_1291_1_);enable-background:new    ;}
	.st4{opacity:0.2;fill:url(#Path_1292_1_);enable-background:new    ;}
	.st5{opacity:0.2;fill:url(#Path_1293_1_);enable-background:new    ;}
	.st6{opacity:0.2;fill:url(#Path_1294_1_);enable-background:new    ;}
	.st7{opacity:0.2;fill:url(#Path_1295_1_);enable-background:new    ;}
	.st8{opacity:0.2;fill:url(#Path_1296_1_);enable-background:new    ;}
	.st9{fill:url(#Path_1297_1_);}
	.st10{opacity:7.300000e-02;fill:#231F20;enable-background:new    ;}
	.st11{opacity:9.300000e-02;fill:#231F20;enable-background:new    ;}
	.st12{opacity:0.114;fill:#231F20;enable-background:new    ;}
	.st13{opacity:0.135;fill:#231F20;enable-background:new    ;}
	.st14{opacity:0.155;fill:#231F20;enable-background:new    ;}
	.st15{opacity:0.176;fill:#231F20;enable-background:new    ;}
	.st16{opacity:0.197;fill:#231F20;enable-background:new    ;}
	.st17{opacity:0.217;fill:#231F20;enable-background:new    ;}
	.st18{opacity:0.238;fill:#231F20;enable-background:new    ;}
	.st19{opacity:0.259;fill:#231F20;enable-background:new    ;}
	.st20{opacity:0.279;fill:#231F20;enable-background:new    ;}
	.st21{opacity:0.3;fill:#231F20;enable-background:new    ;}
	.st22{fill:url(#Path_1311_1_);}
	.st23{fill:url(#Path_1312_1_);}
	.st24{fill:url(#Path_1313_1_);}
	.st25{fill:url(#Path_1314_1_);}
	.st26{fill:url(#Path_1315_1_);}
	.st27{fill:url(#Path_1316_1_);}
	.st28{fill:url(#Path_1317_1_);}
	.st29{fill:url(#Path_1318_1_);}
	.st30{fill:url(#Path_1319_1_);}
	.st31{fill:url(#Path_1320_1_);}
	.st32{fill:url(#Path_1321_1_);}
	.st33{fill:url(#Path_1322_1_);}
	.st34{fill:url(#Path_1323_1_);}
	.st35{fill:url(#Path_1324_1_);}
	.st36{fill:url(#Path_1325_1_);}
	.st37{fill:url(#Path_1326_1_);}
	.st38{fill:url(#Path_1327_1_);}
	.st39{fill:url(#Path_1328_1_);}
	.st40{fill:url(#Path_1329_1_);}
	.st41{fill:url(#Path_1330_1_);}
	.st42{fill:url(#Path_1331_1_);}
	.st43{fill:url(#Path_1332_1_);}
	.st44{fill:url(#Path_1333_1_);}
	.st45{fill:url(#Path_1334_1_);}
	.st46{fill:url(#Path_1335_1_);}
	.st47{fill:url(#Path_1336_1_);}
	.st48{fill:url(#Path_1337_1_);}
	.st49{fill:url(#Path_1338_1_);}
	.st50{fill:url(#Path_1339_1_);}
	.st51{fill:url(#Path_1340_1_);}
	.st52{fill:url(#Path_1341_1_);}
	.st53{fill:url(#Path_1342_1_);}
	.st54{fill:url(#Path_1343_1_);}
	.st55{opacity:0.2;}
	.st56{fill:url(#Path_1344_1_);}
	.st57{fill:url(#Path_1345_1_);}
	.st58{fill:url(#Path_1346_1_);}
	.st59{fill:url(#Path_1347_1_);}
	.st60{fill:url(#Path_1348_1_);}
	.st61{fill:url(#Path_1349_1_);}
	.st62{fill:url(#Ellipse_225_1_);}
	.st63{fill:url(#Path_1350_1_);}
	.st64{fill:url(#Path_1351_1_);}
	.st65{fill:url(#Path_1352_1_);}
	.st66{fill:url(#Path_1353_1_);}
	.st67{fill:url(#Path_1354_1_);}
	.st68{fill:url(#Path_1355_1_);}
	.st69{fill:url(#Path_1356_1_);}
	.st70{fill:url(#Path_1357_1_);}
	.st71{fill:url(#Path_1358_1_);}
	.st72{fill:url(#Path_1359_1_);}
	.st73{fill:url(#Path_1360_1_);}
	.st74{fill:url(#Path_1361_1_);}
	.st75{fill:url(#Path_1362_1_);}
	.st76{fill:url(#Path_1363_1_);}
	.st77{fill:url(#Path_1364_1_);}
	.st78{fill:url(#Path_1365_1_);}
	.st79{fill:url(#Path_1366_1_);}
	.st80{fill:url(#Path_1367_1_);}
	.st81{fill:url(#Path_1368_1_);}
	.st82{fill:url(#Path_1369_1_);}
	.st83{fill:url(#Path_1370_1_);}
	.st84{fill:url(#Path_1371_1_);}
	.st85{fill:url(#Path_1372_1_);}
	.st86{fill:url(#Path_1373_1_);}
	.st87{fill:url(#Path_1374_1_);}
	.st88{fill:url(#Path_1402_1_);}
	.st89{fill:url(#Path_1376_1_);}
	.st90{fill:url(#Path_1377_1_);}
	.st91{fill:url(#Path_1401_1_);}
	.st92{fill:url(#Rectangle_459_1_);}
	.st93{fill:url(#Ellipse_234_1_);}
	.st94{fill:url(#Path_1385_1_);}
	.st95{fill:url(#Path_1386_1_);}
	.st96{fill:url(#Path_1387_1_);}
	.st97{fill:url(#Path_1388_1_);}
	.st98{fill:url(#Path_1389_1_);}
	.st99{fill:url(#Path_1390_1_);}
	.st100{fill:url(#Path_1393_1_);}
	.st101{fill:url(#Path_1394_1_);}
	.st102{fill:url(#Path_1395_1_);}
</style>
<g id="Group_1099" transform="translate(-148.188 -648.836)">
	<g id="Group_1097" transform="translate(222.085 1035.586)" class="st0">
		
			<linearGradient id="Path_1289_1_" gradientUnits="userSpaceOnUse" x1="-72.9187" y1="112.6593" x2="-72.2199" y2="112.6593" gradientTransform="matrix(110.2425 0 0 -49.1887 8122.1958 5476.7993)">
			<stop  offset="0" style="stop-color:#1BB0D4"/>
			<stop  offset="0.107" style="stop-color:#1EBFDD"/>
			<stop  offset="0.237" style="stop-color:#23D8EC"/>
			<stop  offset="0.367" style="stop-color:#1EBFDD"/>
			<stop  offset="0.439" style="stop-color:#1BB0D4"/>
			<stop  offset="0.495" style="stop-color:#1BB0D4"/>
			<stop  offset="0.505" style="stop-color:#1BB0D4"/>
			<stop  offset="0.545" style="stop-color:#20C6E2"/>
			<stop  offset="0.563" style="stop-color:#1AAFD3"/>
			<stop  offset="0.584" style="stop-color:#169BC7"/>
			<stop  offset="0.605" style="stop-color:#138FBF"/>
			<stop  offset="0.626" style="stop-color:#138BBD"/>
		</linearGradient>
		<path id="Path_1289" class="st1" d="M127.8-63.3c-1.6,0.9-4.5,0.4-4.7-1c-0.5-2.8-2.7-5.5-6.8-7.6c-7.1-3.6-19.2-3.7-26.3-0.1
			c-8.9,4.4-9.2,12.2-1,16.9c3.8,2.1,8,3.2,12.3,3.4c1.4,0.1,2.3,0.7,2.4,1.4h0v0c0,0,0,0,0,0.1v-9.2c4.6,0.1,9.1,1,12.5,2.7
			c4,2.1,6.3,4.8,6.8,7.6c0.2,1.3,3.1,1.9,4.7,1l30.8-17.8l1.4-0.3v-15.7L127.8-63.3z"/>
		
			<linearGradient id="Path_1290_1_" gradientUnits="userSpaceOnUse" x1="-73.1861" y1="112.9881" x2="-71.2192" y2="113.5531" gradientTransform="matrix(123.1925 0 0 -96.083 8925.3652 10834.1162)">
			<stop  offset="3.500000e-02" style="stop-color:#138BBD"/>
			<stop  offset="0.226" style="stop-color:#169AC6"/>
			<stop  offset="0.595" style="stop-color:#1EC2DF"/>
			<stop  offset="1" style="stop-color:#2AF6FF"/>
		</linearGradient>
		<path id="Path_1290" class="st2" d="M-12.3-78.4c-1.8-1-2.7-2.4-2.7-3.7v14.7l0,0c-0.3,1.5,0.6,3.1,2.7,4.3l83.1,48v-15.3
			L-12.3-78.4z"/>
		
			<linearGradient id="Path_1291_1_" gradientUnits="userSpaceOnUse" x1="-72.4268" y1="112.8667" x2="-72.2177" y2="112.5713" gradientTransform="matrix(47.3262 0 0 -50.234 3518.1296 5641.7153)">
			<stop  offset="3.500000e-02" style="stop-color:#138BBD"/>
			<stop  offset="0.226" style="stop-color:#169AC6"/>
			<stop  offset="0.595" style="stop-color:#1EC2DF"/>
			<stop  offset="1" style="stop-color:#2AF6FF"/>
		</linearGradient>
		<path id="Path_1291" class="st3" d="M103-49L70.8-30.5v15.2L103-33.8c0.4-0.2,0.7-0.6,0.8-1h0V-35c0,0,0,0,0-0.1v-15.2
			C103.8-49.7,103.5-49.2,103-49z"/>
		
			<linearGradient id="Path_1292_1_" gradientUnits="userSpaceOnUse" x1="-73.5483" y1="113.1726" x2="-72.033" y2="113.7516" gradientTransform="matrix(122.459 0 0 -95.931 9316.9092 10815.1113)">
			<stop  offset="3.500000e-02" style="stop-color:#9F19AB"/>
			<stop  offset="0.244" style="stop-color:#AE24B0"/>
			<stop  offset="0.645" style="stop-color:#D643BF"/>
			<stop  offset="1" style="stop-color:#FF63CE"/>
		</linearGradient>
		<path id="Path_1292" class="st4" d="M380.3-68L380.3-68l0.1-15.3l-0.1,0c0.1,1.4-0.8,2.8-2.7,3.9l-82.6,47.7v15.2l82.6-47.7
			C379.5-65.2,380.4-66.6,380.3-68z"/>
		
			<linearGradient id="Path_1293_1_" gradientUnits="userSpaceOnUse" x1="-74.5951" y1="112.8184" x2="-73.4113" y2="113.0964" gradientTransform="matrix(52.207 0 0 -49.8686 4143.5459 5598.5474)">
			<stop  offset="3.500000e-02" style="stop-color:#9F19AB"/>
			<stop  offset="0.244" style="stop-color:#AE24B0"/>
			<stop  offset="0.645" style="stop-color:#D643BF"/>
			<stop  offset="1" style="stop-color:#FF63CE"/>
		</linearGradient>
		<path id="Path_1293" class="st5" d="M262.3-50.6c-1.1-0.6-2.4-0.7-3.7-0.5v15.3c1.2-0.3,2.5-0.1,3.7,0.5l32.7,18.9v-15.3
			L262.3-50.6z"/>
		
			<linearGradient id="Path_1294_1_" gradientUnits="userSpaceOnUse" x1="-73.1689" y1="112.6848" x2="-73.9729" y2="112.6848" gradientTransform="matrix(58.248 0 0 -39.1906 4525.6729 4378.7622)">
			<stop  offset="0" style="stop-color:#9F19AB"/>
			<stop  offset="0.166" style="stop-color:#AE24B0"/>
			<stop  offset="0.486" style="stop-color:#D643BF"/>
			<stop  offset="0.768" style="stop-color:#FF63CE"/>
			<stop  offset="0.924" style="stop-color:#DC48C1"/>
		</linearGradient>
		<path id="Path_1294" class="st6" d="M256.4-49.3c-0.3,2.6-2.1,5.1-5.5,7.1c-7.6,4.4-20,4.3-27.5-0.3c-2.9-1.8-4.6-3.9-5.1-6.2
			l-0.1,0v13.2c-0.2,2.9,1.5,5.9,5.2,8.2c7.5,4.6,19.9,4.7,27.5,0.3c3.4-2,5.3-4.5,5.5-7.1c0.1-0.9,1.1-1.5,2.3-1.7v-15.2
			C257.5-50.8,256.5-50.2,256.4-49.3z"/>
		
			<linearGradient id="Path_1295_1_" gradientUnits="userSpaceOnUse" x1="-72.9398" y1="113.5738" x2="-72.2431" y2="113.5738" gradientTransform="matrix(251.63 0 0 -105.6985 18456.0859 12020.2725)">
			<stop  offset="6.600000e-02" style="stop-color:#FCCE9E"/>
			<stop  offset="0.52" style="stop-color:#FAC099"/>
			<stop  offset="0.585" style="stop-color:#FEE0A5"/>
			<stop  offset="0.591" style="stop-color:#FFE4A7"/>
			<stop  offset="0.609" style="stop-color:#FCD4A0"/>
			<stop  offset="0.643" style="stop-color:#F9BD97"/>
			<stop  offset="0.675" style="stop-color:#F7AE91"/>
			<stop  offset="0.702" style="stop-color:#F7AA90"/>
			<stop  offset="1" style="stop-color:#F9B695"/>
		</linearGradient>
		<path id="Path_1295" class="st7" d="M212.4,34.9c-2.8,2.4-8.6,3.1-12.9,1.4L102.1-1.5v15.2l97.5,37.9c4.3,1.7,10,1,12.9-1.4l65-56
			v-15.2L212.4,34.9z"/>
		
			<linearGradient id="Path_1296_1_" gradientUnits="userSpaceOnUse" x1="-74.2553" y1="112.5135" x2="-71.9777" y2="112.8758" gradientTransform="matrix(20.5825 0 0 -29.034 1614.2445 3256.2024)">
			<stop  offset="3.500000e-02" style="stop-color:#FFA98C"/>
			<stop  offset="0.317" style="stop-color:#FEB892"/>
			<stop  offset="0.86" style="stop-color:#FEE0A3"/>
			<stop  offset="1" style="stop-color:#FEECA8"/>
		</linearGradient>
		<path id="Path_1296" class="st8" d="M111.2-16.3c-5.1-2-8-5.1-8.5-8.4v13.6c-0.3,2.3,0.7,4.6,2.8,6.6l11-7.3
			C118.2-13.2,115.2-14.8,111.2-16.3z"/>
		
			<radialGradient id="Path_1297_1_" cx="-2600.8679" cy="-975.9091" r="0.3484" gradientTransform="matrix(-0.4094 36.3152 10.4866 0.1089 9375.5967 94598.4609)" gradientUnits="userSpaceOnUse">
			<stop  offset="0" style="stop-color:#972A74"/>
			<stop  offset="4.100000e-02" style="stop-color:#8A266A"/>
			<stop  offset="0.194" style="stop-color:#601A49"/>
			<stop  offset="0.35" style="stop-color:#3D112F"/>
			<stop  offset="0.507" style="stop-color:#22091A"/>
			<stop  offset="0.667" style="stop-color:#0F040B"/>
			<stop  offset="0.829" style="stop-color:#030102"/>
			<stop  offset="1" style="stop-color:#000000"/>
		</radialGradient>
		<path id="Path_1297" class="st9" d="M206.2,53.7c-2,0-3.6-5.7-3.5-12.7s1.8-12.6,3.8-12.6c2,0,3.6,5.7,3.5,12.7
			S208.2,53.7,206.2,53.7z"/>
	</g>
	<g id="Group_1090" transform="translate(161.611 839.111)">
		<path id="Path_1299" class="st10" d="M3.4,122.7l260.3,122l200-143L242.4-23.7L3.4,122.7z"/>
		<path id="Path_1300" class="st11" d="M9.2,120.6l254,120.5l196.6-140.5L242.2-22.7L9.2,120.6z"/>
		<path id="Path_1301" class="st12" d="M15,118.4l247.7,119L455.8,99.4L242-21.7L15,118.4z"/>
		<path id="Path_1302" class="st13" d="M20.8,116.3l241.3,117.6L451.8,98.2L241.9-20.7L20.8,116.3z"/>
		<path id="Path_1303" class="st14" d="M26.6,114.2l235,116.1L447.9,97.1L241.7-19.7L26.6,114.2z"/>
		<path id="Path_1304" class="st15" d="M32.4,112l228.7,114.6L443.9,95.9L241.6-18.7L32.4,112z"/>
		<path id="Path_1305" class="st16" d="M38.2,109.9L260.5,223L439.9,94.8L241.4-17.7L38.2,109.9z"/>
		<path id="Path_1306" class="st17" d="M44,107.7l216,111.7L436,93.6L241.3-16.7L44,107.7z"/>
		<path id="Path_1307" class="st18" d="M49.8,105.6l209.7,110.2L432,92.5L241.1-15.7L49.8,105.6z"/>
		<path id="Path_1308" class="st19" d="M55.6,103.5L259,212.2L428,91.3l-187.1-106L55.6,103.5z"/>
		<path id="Path_1309" class="st20" d="M61.5,101.3l197,107.2L424.1,90.2L240.8-13.7L61.5,101.3z"/>
		<path id="Path_1310" class="st21" d="M67.3,99.2l190.7,105.7L420.1,89L240.6-12.7L67.3,99.2z"/>
	</g>
	<g id="Group_1091" transform="translate(363.895 773.554)">
		
			<linearGradient id="Path_1311_1_" gradientUnits="userSpaceOnUse" x1="-213.9529" y1="376.2293" x2="-214.3953" y2="374.716" gradientTransform="matrix(252.7479 0 0 -140.7576 54211.7383 52819.5508)">
			<stop  offset="3.500000e-02" style="stop-color:#6B24D6"/>
			<stop  offset="0.294" style="stop-color:#7733DC"/>
			<stop  offset="0.794" style="stop-color:#965BEC"/>
			<stop  offset="1" style="stop-color:#A56EF4"/>
		</linearGradient>
		<path id="Path_1311" class="st22" d="M-12.1,61.1c5.8-5.7,19-7.4,28.7-3.6c7.8,3.1,10.8,9.9,6.5,14.7c-2.4,2.8-6.4,4.7-11,5.6
			c-2.2,0.5-2.4,2.2-0.4,2.9L51,94.2l23.3-22.9c1.5-1.5,5.4-1.3,6.3,0.4c1.5,2.6,4.8,5,9.4,6.4c8.8,2.6,19.8,0.9,25-3.9
			c5.8-5.3,2.7-12.3-6.5-15.5c-4.3-1.4-8.8-1.9-13.3-1.4c-2.9,0.3-5.2-1.5-3.6-3L115,31.5L14-3.1C9.6-4.6,3.9-3.7,1.3-1.2L-58,56.9
			l39.4,13.5c2,0.7,4.4-0.3,4.1-1.6C-15.3,66.3-14.5,63.5-12.1,61.1z"/>
		
			<linearGradient id="Path_1312_1_" gradientUnits="userSpaceOnUse" x1="-217.649" y1="372.2369" x2="-212.1324" y2="374.6581" gradientTransform="matrix(34.2036 0 0 -42.156 7502.8696 15768.2783)">
			<stop  offset="3.500000e-02" style="stop-color:#6B24D6"/>
			<stop  offset="0.294" style="stop-color:#7733DC"/>
			<stop  offset="0.794" style="stop-color:#965BEC"/>
			<stop  offset="1" style="stop-color:#A56EF4"/>
		</linearGradient>
		<path id="Path_1312" class="st23" d="M95.3,57.4c4.5-0.5,9,0,13.3,1.4c1.6,0.5,3,1.2,4.4,2.1l2-1.9V31.5L91.7,54.4
			C90.2,55.9,92.4,57.7,95.3,57.4z"/>
		
			<linearGradient id="Path_1313_1_" gradientUnits="userSpaceOnUse" x1="-214.3059" y1="374.6294" x2="-213.9945" y2="373.6094" gradientTransform="matrix(252.7225 0 0 -95.0645 54206.2891 35711.1406)">
			<stop  offset="3.500000e-02" style="stop-color:#6B24D6"/>
			<stop  offset="0.294" style="stop-color:#7733DC"/>
			<stop  offset="0.794" style="stop-color:#965BEC"/>
			<stop  offset="1" style="stop-color:#A56EF4"/>
		</linearGradient>
		<path id="Path_1313" class="st24" d="M118,69.7c-0.4,1.8-1.4,3.4-2.8,4.6c-5.2,4.8-16.2,6.5-25,3.9c-4.7-1.4-7.9-3.8-9.4-6.4
			c-0.9-1.6-4.8-1.9-6.3-0.4L51,94.2L11.7,80.8c-2-0.7-1.7-2.4,0.4-2.9c4.6-1,8.6-2.9,11-5.6c4.3-4.9,1.3-11.6-6.5-14.7
			C6.9,53.7-6.2,55.4-12,61.1c-2.5,2.4-3.2,5.1-2.5,7.7c0.4,1.3-2.1,2.2-4.1,1.6L-58,56.9v27.5l39.4,13.5c2,0.7,4.4-0.3,4.1-1.6
			c-0.7-2.6,0-5.3,2.5-7.7c4.7-4.6,14-6.6,22.5-5.2v23.2c-0.3,0.6,0.1,1.3,1.3,1.7L51,121.7l23.3-22.9c1.5-1.5,5.4-1.3,6.3,0.4
			c1.5,2.6,4.8,5,9.4,6.4c8.8,2.6,19.8,0.9,25-3.9c2.4-2.2,3.3-4.7,2.8-7.1L118,69.7z"/>
		
			<linearGradient id="Path_1314_1_" gradientUnits="userSpaceOnUse" x1="-215.5784" y1="374.4877" x2="-210.6832" y2="375.8742" gradientTransform="matrix(38.546 0 0 -73.6808 8377.5938 27686.2188)">
			<stop  offset="3.500000e-02" style="stop-color:#6B24D6"/>
			<stop  offset="0.294" style="stop-color:#7733DC"/>
			<stop  offset="0.794" style="stop-color:#965BEC"/>
			<stop  offset="1" style="stop-color:#A56EF4"/>
		</linearGradient>
		<path id="Path_1314" class="st25" d="M77.9,97.9V70.4c-1.3-0.2-2.5,0.2-3.5,1L51,94.2v27.5l23.3-22.9C75.4,98,76.6,97.7,77.9,97.9
			z"/>
		<g id="Group_1065" transform="translate(0.002 85.094)">
			
				<linearGradient id="Path_1315_1_" gradientUnits="userSpaceOnUse" x1="-486.2876" y1="-808.5653" x2="-486.1614" y2="-808.9625" gradientTransform="matrix(0.224 0 0 -8.799744e-02 184.0786 -57.9402)">
				<stop  offset="3.500000e-02" style="stop-color:#6B24D6"/>
				<stop  offset="0.294" style="stop-color:#7733DC"/>
				<stop  offset="0.794" style="stop-color:#965BEC"/>
				<stop  offset="1" style="stop-color:#A56EF4"/>
			</linearGradient>
			<path id="Path_1315" class="st26" d="M75.2,13.2c-0.1,0-0.1,0-0.2,0.1C75.1,13.2,75.2,13.2,75.2,13.2z"/>
			
				<linearGradient id="Path_1316_1_" gradientUnits="userSpaceOnUse" x1="-742.7213" y1="-4322.6006" x2="-742.5331" y2="-4323.8691" gradientTransform="matrix(0.116 0 0 -2.099609e-02 162.1297 -77.8482)">
				<stop  offset="3.500000e-02" style="stop-color:#6B24D6"/>
				<stop  offset="0.294" style="stop-color:#7733DC"/>
				<stop  offset="0.794" style="stop-color:#965BEC"/>
				<stop  offset="1" style="stop-color:#A56EF4"/>
			</linearGradient>
			<path id="Path_1316" class="st27" d="M76,12.9C76,12.9,76,12.9,76,12.9C76,12.9,76,12.9,76,12.9z"/>
			
				<linearGradient id="Path_1317_1_" gradientUnits="userSpaceOnUse" x1="-215.4207" y1="289.2344" x2="-213.2922" y2="290.0196" gradientTransform="matrix(156.496 0 0 -95.0664 33546.0938 27537.1992)">
				<stop  offset="3.500000e-02" style="stop-color:#6B24D6"/>
				<stop  offset="0.294" style="stop-color:#7733DC"/>
				<stop  offset="0.794" style="stop-color:#965BEC"/>
				<stop  offset="1" style="stop-color:#A56EF4"/>
			</linearGradient>
			<path id="Path_1317" class="st28" d="M11.7-4.3C9.7-5,10-6.7,12.1-7.2c4.6-1,8.6-2.9,11-5.6c4.3-4.9,1.3-11.6-6.5-14.7
				C6.9-31.4-6.2-29.7-12.1-24c-2.5,2.4-3.2,5.1-2.5,7.7c0.4,1.3-2.1,2.2-4.1,1.6L-58-28.2v27.5l39.4,13.5c2,0.7,4.4-0.3,4.1-1.6
				c-0.7-2.6,0-5.3,2.5-7.7c4.7-4.6,14-6.6,22.5-5.2v23.2c-0.3,0.6,0.1,1.3,1.3,1.7L51,36.6V9.2L11.7-4.3z"/>
			
				<linearGradient id="Path_1318_1_" gradientUnits="userSpaceOnUse" x1="-215.6981" y1="288.7931" x2="-215.0251" y2="288.7931" gradientTransform="matrix(60.3841 0 0 -53.3531 13102.3535 15411.1846)">
				<stop  offset="0" style="stop-color:#6B24D6"/>
				<stop  offset="6.700000e-02" style="stop-color:#712CD9"/>
				<stop  offset="0.162" style="stop-color:#7734DC"/>
				<stop  offset="0.323" style="stop-color:#8C4EE7"/>
				<stop  offset="0.485" style="stop-color:#A56EF4"/>
				<stop  offset="0.874" style="stop-color:#6B24D6"/>
			</linearGradient>
			<path id="Path_1318" class="st29" d="M118,9.5v-24.9c-0.4,1.8-1.4,3.4-2.8,4.6c-5.2,4.8-16.2,6.5-25,3.9
				c-4.7-1.4-7.9-3.8-9.4-6.4C80-14.5,77.8-15,76-14.6c0.6-0.1,1.3-0.2,1.9-0.1v27.5c1.2,0.1,2.4,0.6,2.8,1.3c1.5,2.6,4.8,5,9.4,6.4
				c8.8,2.6,19.8,0.9,25-3.9C117.6,14.4,118.4,11.9,118,9.5z"/>
			
				<linearGradient id="Path_1319_1_" gradientUnits="userSpaceOnUse" x1="-275.7097" y1="134.0347" x2="-275.6714" y2="133.9685" gradientTransform="matrix(0.988 0 0 -0.693 347.1309 78.9173)">
				<stop  offset="3.500000e-02" style="stop-color:#6B24D6"/>
				<stop  offset="0.294" style="stop-color:#7733DC"/>
				<stop  offset="0.794" style="stop-color:#965BEC"/>
				<stop  offset="1" style="stop-color:#A56EF4"/>
			</linearGradient>
			<path id="Path_1319" class="st30" d="M75.1-14.2c-0.3,0.1-0.5,0.3-0.7,0.5C74.6-13.9,74.8-14.1,75.1-14.2z"/>
			
				<linearGradient id="Path_1320_1_" gradientUnits="userSpaceOnUse" x1="-274.3595" y1="1.3955" x2="-274.2292" y2="0.9615" gradientTransform="matrix(1.016 0 0 -0.376 354.3505 -13.8493)">
				<stop  offset="3.500000e-02" style="stop-color:#6B24D6"/>
				<stop  offset="0.294" style="stop-color:#7733DC"/>
				<stop  offset="0.794" style="stop-color:#965BEC"/>
				<stop  offset="1" style="stop-color:#A56EF4"/>
			</linearGradient>
			<path id="Path_1320" class="st31" d="M75.9-14.5c-0.2,0.1-0.5,0.2-0.7,0.3C75.5-14.4,75.7-14.5,75.9-14.5z"/>
		</g>
		<g id="Group_1067" transform="translate(0.001 85.094)">
			
				<linearGradient id="Path_1321_1_" gradientUnits="userSpaceOnUse" x1="-322.5894" y1="-9602.0732" x2="-320.4449" y2="-9593.3359" gradientTransform="matrix(0.191 0 0 -1.100159e-02 43.6423 -120.1045)">
				<stop  offset="3.500000e-02" style="stop-color:#6B24D6"/>
				<stop  offset="0.294" style="stop-color:#7733DC"/>
				<stop  offset="0.794" style="stop-color:#965BEC"/>
				<stop  offset="1" style="stop-color:#A56EF4"/>
			</linearGradient>
			<path id="Path_1321" class="st32" d="M-17.8-14.5c0,0,0.1,0,0.1,0C-17.8-14.5-17.8-14.5-17.8-14.5z"/>
			
				<linearGradient id="Path_1322_1_" gradientUnits="userSpaceOnUse" x1="-215.3978" y1="283.8048" x2="-213.3919" y2="285.1181" gradientTransform="matrix(52.42 0 0 -17.949 11199.9893 5083.6138)">
				<stop  offset="3.500000e-02" style="stop-color:#6B24D6"/>
				<stop  offset="0.294" style="stop-color:#7733DC"/>
				<stop  offset="0.794" style="stop-color:#965BEC"/>
				<stop  offset="1" style="stop-color:#A56EF4"/>
			</linearGradient>
			<path id="Path_1322" class="st33" d="M-21.5-15.7L-58-28.2l0,0L-21.5-15.7z"/>
			
				<linearGradient id="Path_1323_1_" gradientUnits="userSpaceOnUse" x1="-504.5934" y1="-14656.708" x2="-502.3681" y2="-14651.5928" gradientTransform="matrix(7.199097e-02 0 0 -7.278442e-03 19.216 -121.1416)">
				<stop  offset="3.500000e-02" style="stop-color:#6B24D6"/>
				<stop  offset="0.294" style="stop-color:#7733DC"/>
				<stop  offset="0.794" style="stop-color:#965BEC"/>
				<stop  offset="1" style="stop-color:#A56EF4"/>
			</linearGradient>
			<path id="Path_1323" class="st34" d="M-17-14.5C-17-14.5-17-14.5-17-14.5C-17-14.5-17-14.5-17-14.5z"/>
			
				<linearGradient id="Path_1324_1_" gradientUnits="userSpaceOnUse" x1="-218.9749" y1="231.4691" x2="-216.9578" y2="232.8856" gradientTransform="matrix(5.207 0 0 -1.659 1115.4086 397.5099)">
				<stop  offset="3.500000e-02" style="stop-color:#6B24D6"/>
				<stop  offset="0.294" style="stop-color:#7733DC"/>
				<stop  offset="0.794" style="stop-color:#965BEC"/>
				<stop  offset="1" style="stop-color:#A56EF4"/>
			</linearGradient>
			<path id="Path_1324" class="st35" d="M-18.6,12.8l-2.9-1L-18.6,12.8c0.3,0.1,0.5,0.1,0.8,0.2C-18.1,12.9-18.4,12.8-18.6,12.8z"/>
			
				<linearGradient id="Path_1325_1_" gradientUnits="userSpaceOnUse" x1="-237.3219" y1="-1815.3086" x2="-235.1697" y2="-1805.7202" gradientTransform="matrix(0.937 0 0 -4.608154e-02 204.0059 -70.4816)">
				<stop  offset="3.500000e-02" style="stop-color:#6B24D6"/>
				<stop  offset="0.294" style="stop-color:#7733DC"/>
				<stop  offset="0.794" style="stop-color:#965BEC"/>
				<stop  offset="1" style="stop-color:#A56EF4"/>
			</linearGradient>
			<path id="Path_1325" class="st36" d="M-17.7,12.9c0.2,0,0.4,0,0.7,0C-17.3,13-17.5,13-17.7,12.9z"/>
			<g id="Group_1066" transform="translate(60.728)">
				
					<linearGradient id="Path_1326_1_" gradientUnits="userSpaceOnUse" x1="-563.0286" y1="-2058.741" x2="-560.5957" y2="-2057.7502" gradientTransform="matrix(7.467651e-02 0 0 -4.127502e-02 -34.4311 -72.2742)">
					<stop  offset="3.500000e-02" style="stop-color:#6B24D6"/>
					<stop  offset="0.294" style="stop-color:#7733DC"/>
					<stop  offset="0.794" style="stop-color:#965BEC"/>
					<stop  offset="1" style="stop-color:#A56EF4"/>
				</linearGradient>
				<path id="Path_1326" class="st37" d="M-76.4,12.7L-76.4,12.7C-76.4,12.7-76.4,12.7-76.4,12.7z"/>
				
					<linearGradient id="Path_1327_1_" gradientUnits="userSpaceOnUse" x1="-1629.996" y1="110.0569" x2="-1619.6788" y2="110.1656" gradientTransform="matrix(2.426147e-02 0 0 -0.515 -10.9118 78.4736)">
					<stop  offset="3.500000e-02" style="stop-color:#6B24D6"/>
					<stop  offset="0.294" style="stop-color:#7733DC"/>
					<stop  offset="0.794" style="stop-color:#965BEC"/>
					<stop  offset="1" style="stop-color:#A56EF4"/>
				</linearGradient>
				<path id="Path_1327" class="st38" d="M-50.3,21.6c0,0.1,0,0.2,0,0.4V21.6z"/>
				
					<linearGradient id="Path_1328_1_" gradientUnits="userSpaceOnUse" x1="-275.761" y1="288.9392" x2="-275.129" y2="288.9392" gradientTransform="matrix(58.4484 0 0 -60.7074 16043.8701 17532.2734)">
					<stop  offset="0" style="stop-color:#7C3ADF"/>
					<stop  offset="4.200000e-02" style="stop-color:#7633DC"/>
					<stop  offset="0.144" style="stop-color:#6D27D7"/>
					<stop  offset="0.253" style="stop-color:#6B24D6"/>
					<stop  offset="0.556" style="stop-color:#9A60EE"/>
					<stop  offset="0.975" style="stop-color:#7734DC"/>
				</linearGradient>
				<path id="Path_1328" class="st39" d="M-50.3-5.4c-0.2-0.7,0.4-1.5,1.7-1.8c4.6-1,8.6-2.9,11-5.6c4.3-4.9,1.3-11.6-6.5-14.7
					c-9.7-3.9-22.8-2.2-28.7,3.6c-2.5,2.4-3.2,5.1-2.5,7.7c0.2,0.6-0.3,1.2-1.1,1.5v27.4c0.2-0.1,1.3-0.7,1.1-1.5
					c-0.7-2.6,0-5.3,2.5-7.7c4.7-4.6,14-6.6,22.4-5.2L-50.3-5.4z"/>
			</g>
		</g>
		<g id="Group_1068" transform="translate(0.002 50.931)">
			
				<radialGradient id="Path_1329_1_" cx="-216.2074" cy="321.2459" r="0.3512" gradientTransform="matrix(33.6904 0 0 -33.687 7393.0327 10815.0977)" gradientUnits="userSpaceOnUse">
				<stop  offset="0" style="stop-color:#FFFFFF"/>
				<stop  offset="6.600000e-02" style="stop-color:#D8D8D8"/>
				<stop  offset="0.162" style="stop-color:#A5A5A5"/>
				<stop  offset="0.262" style="stop-color:#797979"/>
				<stop  offset="0.366" style="stop-color:#545454"/>
				<stop  offset="0.473" style="stop-color:#353535"/>
				<stop  offset="0.585" style="stop-color:#1D1D1D"/>
				<stop  offset="0.704" style="stop-color:#0D0D0D"/>
				<stop  offset="0.835" style="stop-color:#030303"/>
				<stop  offset="1" style="stop-color:#000000"/>
			</radialGradient>
			<path id="Path_1329" class="st40" d="M91.6,4.2c0,0,0.1-0.1,0.1-0.1L115-18.8l-1.4-0.5l-22,21.5c-0.6,0.4-0.7,1.3-0.2,1.8
				C91.5,4.1,91.5,4.2,91.6,4.2z"/>
			
				<radialGradient id="Path_1330_1_" cx="-215.4528" cy="321.959" r="0.7566" gradientTransform="matrix(38.3469 0 0 -38.402 8334.6631 12401.4248)" gradientUnits="userSpaceOnUse">
				<stop  offset="0" style="stop-color:#FFFFFF"/>
				<stop  offset="6.600000e-02" style="stop-color:#D8D8D8"/>
				<stop  offset="0.162" style="stop-color:#A5A5A5"/>
				<stop  offset="0.262" style="stop-color:#797979"/>
				<stop  offset="0.366" style="stop-color:#545454"/>
				<stop  offset="0.473" style="stop-color:#353535"/>
				<stop  offset="0.585" style="stop-color:#1D1D1D"/>
				<stop  offset="0.704" style="stop-color:#0D0D0D"/>
				<stop  offset="0.835" style="stop-color:#030303"/>
				<stop  offset="1" style="stop-color:#000000"/>
			</radialGradient>
			<path id="Path_1330" class="st41" d="M115.2,22.1c-5.2,4.8-16.2,6.5-25,3.9c-4.7-1.4-7.9-3.8-9.4-6.4c-0.9-1.6-4.8-1.9-6.3-0.4
				L51,42.1L11.7,28.6c-0.3-0.1-0.6-0.3-0.8-0.5c-0.9,0.7-0.6,1.8,0.8,2.3L51,43.9L74.4,21c1.5-1.5,5.4-1.3,6.3,0.4
				c1.5,2.6,4.8,5,9.4,6.4c8.8,2.6,19.8,0.9,25-3.9c2.3-2.1,3.2-4.5,2.8-6.8C117.7,19.1,116.7,20.8,115.2,22.1z"/>
			
				<radialGradient id="Path_1331_1_" cx="-214.786" cy="319.6808" r="0.7525" gradientTransform="matrix(21.5967 0 0 -21.6211 4602.4165 6924.6104)" gradientUnits="userSpaceOnUse">
				<stop  offset="0" style="stop-color:#FFFFFF"/>
				<stop  offset="6.600000e-02" style="stop-color:#D8D8D8"/>
				<stop  offset="0.162" style="stop-color:#A5A5A5"/>
				<stop  offset="0.262" style="stop-color:#797979"/>
				<stop  offset="0.366" style="stop-color:#545454"/>
				<stop  offset="0.473" style="stop-color:#353535"/>
				<stop  offset="0.585" style="stop-color:#1D1D1D"/>
				<stop  offset="0.704" style="stop-color:#0D0D0D"/>
				<stop  offset="0.835" style="stop-color:#030303"/>
				<stop  offset="1" style="stop-color:#000000"/>
			</radialGradient>
			<path id="Path_1331" class="st42" d="M-14.7,17.6c-0.6,0.8-2.4,1.2-3.9,0.7l-38-13L-58,6.6l39.4,13.5c2,0.7,4.4-0.3,4.1-1.6
				C-14.6,18.2-14.7,17.9-14.7,17.6z"/>
			
				<radialGradient id="Path_1332_1_" cx="-215.8584" cy="318.7304" r="0.8027" gradientTransform="matrix(18.4954 0 0 -18.4784 3997.5264 5899.3901)" gradientUnits="userSpaceOnUse">
				<stop  offset="0" style="stop-color:#FFFFFF"/>
				<stop  offset="6.600000e-02" style="stop-color:#D8D8D8"/>
				<stop  offset="0.162" style="stop-color:#A5A5A5"/>
				<stop  offset="0.262" style="stop-color:#797979"/>
				<stop  offset="0.366" style="stop-color:#545454"/>
				<stop  offset="0.473" style="stop-color:#353535"/>
				<stop  offset="0.585" style="stop-color:#1D1D1D"/>
				<stop  offset="0.704" style="stop-color:#0D0D0D"/>
				<stop  offset="0.835" style="stop-color:#030303"/>
				<stop  offset="1" style="stop-color:#000000"/>
			</radialGradient>
			<path id="Path_1332" class="st43" d="M25,16.2c0.6-4.1-2.6-8.5-8.4-10.8C6.9,1.5-6.2,3.2-12.1,9c-2.2,2.1-3,4.5-2.7,6.8
				c0.3-1.9,1.3-3.6,2.7-4.9c5.8-5.7,19-7.4,28.7-3.6C21.6,9.2,24.6,12.7,25,16.2z"/>
		</g>
		
			<radialGradient id="Path_1333_1_" cx="-1551.4049" cy="-598.0687" r="0.3483" gradientTransform="matrix(-0.5635 50.0172 12.2373 0.1501 6541.937 77769.6641)" gradientUnits="userSpaceOnUse">
			<stop  offset="0" style="stop-color:#4916A1"/>
			<stop  offset="7.000000e-02" style="stop-color:#3E128A"/>
			<stop  offset="0.218" style="stop-color:#2B0D60"/>
			<stop  offset="0.37" style="stop-color:#1B083D"/>
			<stop  offset="0.522" style="stop-color:#0F0422"/>
			<stop  offset="0.677" style="stop-color:#06020F"/>
			<stop  offset="0.834" style="stop-color:#010003"/>
			<stop  offset="1" style="stop-color:#000000"/>
		</radialGradient>
		<path id="Path_1333" class="st44" d="M97.2,100.4c-2.4,0-4.2-7.8-4.1-17.5s2.1-17.4,4.5-17.4s4.2,7.9,4.1,17.5
			C101.5,92.7,99.5,100.4,97.2,100.4z"/>
		
			<radialGradient id="Path_1334_1_" cx="-1556.3433" cy="-615.439" r="0.3483" gradientTransform="matrix(-0.5635 50.0172 12.2373 0.1501 6659.9194 77992.4297)" gradientUnits="userSpaceOnUse">
			<stop  offset="0" style="stop-color:#4916A1"/>
			<stop  offset="7.000000e-02" style="stop-color:#3E128A"/>
			<stop  offset="0.218" style="stop-color:#2B0D60"/>
			<stop  offset="0.37" style="stop-color:#1B083D"/>
			<stop  offset="0.522" style="stop-color:#0F0422"/>
			<stop  offset="0.677" style="stop-color:#06020F"/>
			<stop  offset="0.834" style="stop-color:#010003"/>
			<stop  offset="1" style="stop-color:#000000"/>
		</radialGradient>
		<path id="Path_1334" class="st45" d="M5.4,73.6c-2.4,0-4.2-7.8-4.1-17.5s2.1-17.4,4.5-17.4c2.4,0,4.2,7.9,4.1,17.5
			C9.7,65.8,7.7,73.6,5.4,73.6z"/>
	</g>
	<g id="Group_1094" transform="translate(222.084 873.963)">
		
			<linearGradient id="Path_1335_1_" gradientUnits="userSpaceOnUse" x1="-71.9328" y1="276.2509" x2="-72.4303" y2="274.6442" gradientTransform="matrix(251.0988 0 0 -148.151 18249.0996 40725.8516)">
			<stop  offset="3.500000e-02" style="stop-color:#138BBD"/>
			<stop  offset="0.226" style="stop-color:#169AC6"/>
			<stop  offset="0.595" style="stop-color:#1EC2DF"/>
			<stop  offset="1" style="stop-color:#2AF6FF"/>
		</linearGradient>
		<path id="Path_1335" class="st46" d="M89.1,44.3c-8.2-4.7-7.9-12.5,1-16.9c7.1-3.6,19.2-3.5,26.3,0.1c4,2.1,6.3,4.8,6.8,7.6
			c0.2,1.3,3.1,1.9,4.7,1L160,17.5L127.2-1.4c-2.1-1.2-0.8-3.3,2.2-3.4c4.8-0.2,9.5-1.4,13-3.7c6.6-4.2,6.4-10.8-0.4-15
			c-7.5-4.6-19.9-4.7-27.5-0.3c-3.4,2-5.3,4.5-5.5,7.1c-0.2,1.7-3.8,2.5-6,1.3L70.3-34.3l-82.6,47.7c-3.6,2.1-3.6,5.5,0,7.6l83.1,48
			L103,50.4c1.6-0.9,0.6-2.6-1.6-2.7C97.1,47.5,92.9,46.4,89.1,44.3z"/>
		
			<linearGradient id="Path_1336_1_" gradientUnits="userSpaceOnUse" x1="-73.3872" y1="272.5338" x2="-71.9484" y2="272.8975" gradientTransform="matrix(30.0599 0 0 -35.6 2338.8992 9704.1689)">
			<stop  offset="3.500000e-02" style="stop-color:#138BBD"/>
			<stop  offset="0.226" style="stop-color:#169AC6"/>
			<stop  offset="0.595" style="stop-color:#1EC2DF"/>
			<stop  offset="1" style="stop-color:#2AF6FF"/>
		</linearGradient>
		<path id="Path_1336" class="st47" d="M142.5-8.5c-3.5,2.3-8.2,3.5-13,3.7c-3,0.1-4.3,2.2-2.2,3.4l19.9,11.5v-24.8
			C146.8-12.4,145.2-10.3,142.5-8.5z"/>
		
			<linearGradient id="Path_1337_1_" gradientUnits="userSpaceOnUse" x1="-31.6731" y1="-2880.707" x2="-28.4333" y2="-2881.0134" gradientTransform="matrix(1 0 0 -2.799988e-02 17.908 -63.5656)">
			<stop  offset="3.500000e-02" style="stop-color:#138BBD"/>
			<stop  offset="0.226" style="stop-color:#169AC6"/>
			<stop  offset="0.595" style="stop-color:#1EC2DF"/>
			<stop  offset="1" style="stop-color:#2AF6FF"/>
		</linearGradient>
		<path id="Path_1337" class="st48" d="M-15,17.1L-15,17.1L-15,17.1L-15,17.1z"/>
		<g id="Group_1070" transform="translate(0.001 73.957)">
			
				<linearGradient id="Path_1338_1_" gradientUnits="userSpaceOnUse" x1="-72.9187" y1="200.2455" x2="-72.2199" y2="200.2455" gradientTransform="matrix(110.2425 0 0 -66.7037 8122.1953 13323.8994)">
				<stop  offset="0" style="stop-color:#1BB0D4"/>
				<stop  offset="0.107" style="stop-color:#1EBFDD"/>
				<stop  offset="0.237" style="stop-color:#23D8EC"/>
				<stop  offset="0.367" style="stop-color:#1EBFDD"/>
				<stop  offset="0.439" style="stop-color:#1BB0D4"/>
				<stop  offset="0.495" style="stop-color:#1BB0D4"/>
				<stop  offset="0.505" style="stop-color:#1BB0D4"/>
				<stop  offset="0.545" style="stop-color:#20C6E2"/>
				<stop  offset="0.563" style="stop-color:#1AAFD3"/>
				<stop  offset="0.584" style="stop-color:#169BC7"/>
				<stop  offset="0.605" style="stop-color:#138FBF"/>
				<stop  offset="0.626" style="stop-color:#138BBD"/>
			</linearGradient>
			<path id="Path_1338" class="st49" d="M127.8-37.9c-1.6,0.9-4.5,0.4-4.7-1c-0.5-2.8-2.7-5.5-6.8-7.6c-7.1-3.6-19.2-3.7-26.3-0.1
				c-8.9,4.4-9.2,12.2-1,16.9c3.8,2.1,8,3.2,12.3,3.4c1.4,0.1,2.3,0.7,2.4,1.4h0v0c0,0,0,0,0,0.1v3c4.6,0.1,9.1,1,12.5,2.7
				c4,2.1,6.3,4.8,6.8,7.6c0.2,1.3,3.1,1.9,4.7,1l30.8-17.8l1.4-0.3v-27.9L127.8-37.9z"/>
			
				<linearGradient id="Path_1339_1_" gradientUnits="userSpaceOnUse" x1="-73.2202" y1="200.548" x2="-71.1837" y2="201.0434" gradientTransform="matrix(123.1925 0 0 -113.594 8925.3643 22791.4473)">
				<stop  offset="3.500000e-02" style="stop-color:#138BBD"/>
				<stop  offset="0.226" style="stop-color:#169AC6"/>
				<stop  offset="0.595" style="stop-color:#1EC2DF"/>
				<stop  offset="1" style="stop-color:#2AF6FF"/>
			</linearGradient>
			<path id="Path_1339" class="st50" d="M-12.3-53c-1.8-1-2.7-2.4-2.7-3.7v26.9l0,0c-0.3,1.5,0.6,3.1,2.7,4.3l83.1,48V-5L-12.3-53z"
				/>
			
				<linearGradient id="Path_1340_1_" gradientUnits="userSpaceOnUse" x1="-1358.3054" y1="-2098.1272" x2="1981.7838" y2="-4047.8411" gradientTransform="matrix(1.199341e-02 0 0 -2.999878e-02 116.3733 -93.2258)">
				<stop  offset="3.500000e-02" style="stop-color:#138BBD"/>
				<stop  offset="0.226" style="stop-color:#169AC6"/>
				<stop  offset="0.595" style="stop-color:#1EC2DF"/>
				<stop  offset="1" style="stop-color:#2AF6FF"/>
			</linearGradient>
			<path id="Path_1340" class="st51" d="M103.8-24.9L103.8-24.9C103.8-24.8,103.8-24.8,103.8-24.9L103.8-24.9z"/>
			
				<linearGradient id="Path_1341_1_" gradientUnits="userSpaceOnUse" x1="-148.4642" y1="-2804.3491" x2="1207.7872" y2="-3596.0354" gradientTransform="matrix(1.199341e-02 0 0 -2.999878e-02 116.3733 -93.2258)">
				<stop  offset="3.500000e-02" style="stop-color:#138BBD"/>
				<stop  offset="0.226" style="stop-color:#169AC6"/>
				<stop  offset="0.595" style="stop-color:#1EC2DF"/>
				<stop  offset="1" style="stop-color:#2AF6FF"/>
			</linearGradient>
			<path id="Path_1341" class="st52" d="M103.8-24.9L103.8-24.9C103.8-24.8,103.8-24.8,103.8-24.9L103.8-24.9z"/>
			
				<linearGradient id="Path_1342_1_" gradientUnits="userSpaceOnUse" x1="-72.6968" y1="200.6841" x2="-71.8356" y2="199.7791" gradientTransform="matrix(47.3262 0 0 -67.747 3518.1292 13580.0508)">
				<stop  offset="3.500000e-02" style="stop-color:#138BBD"/>
				<stop  offset="0.226" style="stop-color:#169AC6"/>
				<stop  offset="0.595" style="stop-color:#1EC2DF"/>
				<stop  offset="1" style="stop-color:#2AF6FF"/>
			</linearGradient>
			<path id="Path_1342" class="st53" d="M103-23.6L70.8-5v27.5L103,3.9c0.4-0.2,0.7-0.6,0.8-1h0V2.7c0,0,0,0,0-0.1v-27.4
				C103.8-24.2,103.5-23.8,103-23.6z"/>
			
				<linearGradient id="Path_1343_1_" gradientUnits="userSpaceOnUse" x1="-72.3845" y1="200.3561" x2="-72.0348" y2="199.9889" gradientTransform="matrix(47.3262 0 0 -67.747 3518.1292 13580.0508)">
				<stop  offset="3.500000e-02" style="stop-color:#138BBD"/>
				<stop  offset="0.226" style="stop-color:#169AC6"/>
				<stop  offset="0.595" style="stop-color:#1EC2DF"/>
				<stop  offset="1" style="stop-color:#2AF6FF"/>
			</linearGradient>
			<path id="Path_1343" class="st54" d="M103-23.6L70.8-5v27.5L103,3.9c0.4-0.2,0.7-0.6,0.8-1h0V2.7c0,0,0,0,0-0.1v-27.4
				C103.8-24.2,103.5-23.8,103-23.6z"/>
		</g>
		<g id="Group_1071" transform="translate(170.5 217.729)" class="st55">
			
				<linearGradient id="Path_1344_1_" gradientUnits="userSpaceOnUse" x1="-1528.8042" y1="-1250.6118" x2="1811.285" y2="-3200.3257" gradientTransform="matrix(1.199341e-02 0 0 -2.999878e-02 -52.0809 -143.2558)">
				<stop  offset="3.500000e-02" style="stop-color:#138BBD"/>
				<stop  offset="0.226" style="stop-color:#169AC6"/>
				<stop  offset="0.595" style="stop-color:#1EC2DF"/>
				<stop  offset="1" style="stop-color:#2AF6FF"/>
			</linearGradient>
			<path id="Path_1344" class="st56" d="M-66.7-100.3L-66.7-100.3C-66.7-100.3-66.7-100.3-66.7-100.3L-66.7-100.3z"/>
			
				<linearGradient id="Path_1345_1_" gradientUnits="userSpaceOnUse" x1="-318.963" y1="-1956.8339" x2="1037.2883" y2="-2748.52" gradientTransform="matrix(1.199341e-02 0 0 -2.999878e-02 -52.0809 -143.2558)">
				<stop  offset="3.500000e-02" style="stop-color:#138BBD"/>
				<stop  offset="0.226" style="stop-color:#169AC6"/>
				<stop  offset="0.595" style="stop-color:#1EC2DF"/>
				<stop  offset="1" style="stop-color:#2AF6FF"/>
			</linearGradient>
			<path id="Path_1345" class="st57" d="M-66.7-100.3L-66.7-100.3C-66.7-100.3-66.7-100.3-66.7-100.3L-66.7-100.3z"/>
		</g>
		<g id="Group_1072" transform="translate(0.013 26.454)">
			
				<radialGradient id="Path_1346_1_" cx="-72.3198" cy="247.9659" r="0.8298" gradientTransform="matrix(76.0508 0 0 -76.07 5537.0225 18875.6836)" gradientUnits="userSpaceOnUse">
				<stop  offset="0" style="stop-color:#FFFFFF"/>
				<stop  offset="6.600000e-02" style="stop-color:#D8D8D8"/>
				<stop  offset="0.162" style="stop-color:#A5A5A5"/>
				<stop  offset="0.262" style="stop-color:#797979"/>
				<stop  offset="0.366" style="stop-color:#545454"/>
				<stop  offset="0.473" style="stop-color:#353535"/>
				<stop  offset="0.585" style="stop-color:#1D1D1D"/>
				<stop  offset="0.704" style="stop-color:#0D0D0D"/>
				<stop  offset="0.835" style="stop-color:#030303"/>
				<stop  offset="1" style="stop-color:#000000"/>
			</radialGradient>
			<path id="Path_1346" class="st58" d="M102.8,22.8l-32,18.5l-83.1-48c-1.1-0.6-2-1.5-2.5-2.6c-0.7,1.7,0.1,3.7,2.5,5l83.1,48
				L103,25.1C104.2,24.4,104,23.4,102.8,22.8z"/>
			
				<radialGradient id="Path_1347_1_" cx="-73.8033" cy="243.5715" r="0.4686" gradientTransform="matrix(18.6682 0 0 -18.676 1514.4888 4513.1514)" gradientUnits="userSpaceOnUse">
				<stop  offset="0" style="stop-color:#FFFFFF"/>
				<stop  offset="6.600000e-02" style="stop-color:#D8D8D8"/>
				<stop  offset="0.162" style="stop-color:#A5A5A5"/>
				<stop  offset="0.262" style="stop-color:#797979"/>
				<stop  offset="0.366" style="stop-color:#545454"/>
				<stop  offset="0.473" style="stop-color:#353535"/>
				<stop  offset="0.585" style="stop-color:#1D1D1D"/>
				<stop  offset="0.704" style="stop-color:#0D0D0D"/>
				<stop  offset="0.835" style="stop-color:#030303"/>
				<stop  offset="1" style="stop-color:#000000"/>
			</radialGradient>
			<path id="Path_1347" class="st59" d="M142.4-36.2c-3.5,2.3-8.2,3.5-13,3.7c-2.8,0.1-4.1,2-2.5,3.2c0.7-0.5,1.6-0.8,2.5-0.8
				c4.8-0.2,9.5-1.4,13-3.7c3.7-2.4,5.3-5.5,4.7-8.6C146.7-40.1,145.2-37.9,142.4-36.2z"/>
			
				<radialGradient id="Path_1348_1_" cx="-73.2153" cy="246.2241" r="0.9664" gradientTransform="matrix(29.0959 0 0 -29.0538 2247.781 7149.4136)" gradientUnits="userSpaceOnUse">
				<stop  offset="0" style="stop-color:#FFFFFF"/>
				<stop  offset="6.600000e-02" style="stop-color:#D8D8D8"/>
				<stop  offset="0.162" style="stop-color:#A5A5A5"/>
				<stop  offset="0.262" style="stop-color:#797979"/>
				<stop  offset="0.366" style="stop-color:#545454"/>
				<stop  offset="0.473" style="stop-color:#353535"/>
				<stop  offset="0.585" style="stop-color:#1D1D1D"/>
				<stop  offset="0.704" style="stop-color:#0D0D0D"/>
				<stop  offset="0.835" style="stop-color:#030303"/>
				<stop  offset="1" style="stop-color:#000000"/>
			</radialGradient>
			<path id="Path_1348" class="st60" d="M127.8,8.4c-1.6,0.9-4.5,0.4-4.7-1c-0.5-2.8-2.7-5.5-6.8-7.6C109.2-3.8,97.2-3.8,90-0.3
				c-5.2,2.6-7.4,6.3-6.8,9.9C83.8,6.9,86,4.2,90,2.2c7.1-3.6,19.2-3.5,26.3,0.1c4,2.1,6.3,4.8,6.8,7.6c0.2,1.3,3.1,1.9,4.7,1
				l32.1-18.6L157.8-9L127.8,8.4z"/>
		</g>
		
			<radialGradient id="Path_1349_1_" cx="-1584.2924" cy="-861.9517" r="0.3484" gradientTransform="matrix(-0.563 50.7721 9.8571 0.1015 7707.1201 80553.9063)" gradientUnits="userSpaceOnUse">
			<stop  offset="0" style="stop-color:#972A74"/>
			<stop  offset="4.100000e-02" style="stop-color:#8A266A"/>
			<stop  offset="0.194" style="stop-color:#601A49"/>
			<stop  offset="0.35" style="stop-color:#3D112F"/>
			<stop  offset="0.507" style="stop-color:#22091A"/>
			<stop  offset="0.667" style="stop-color:#0F040B"/>
			<stop  offset="0.829" style="stop-color:#030102"/>
			<stop  offset="1" style="stop-color:#000000"/>
		</radialGradient>
		<path id="Path_1349" class="st61" d="M102.5,46.2c-1.9,0-3.3-8-3.2-17.7c0.1-9.8,1.7-17.7,3.6-17.6c1.9,0,3.3,8,3.2,17.7
			C106,38.3,104.4,46.2,102.5,46.2z"/>
		
			<radialGradient id="Ellipse_225_1_" cx="-79.7044" cy="265.8822" r="0.1742" gradientTransform="matrix(57.2938 -23.5446 -47.1045 -114.6246 17102.6504 25925.582)" gradientUnits="userSpaceOnUse">
			<stop  offset="0" style="stop-color:#972A74"/>
			<stop  offset="4.100000e-02" style="stop-color:#8A266A"/>
			<stop  offset="0.194" style="stop-color:#601A49"/>
			<stop  offset="0.35" style="stop-color:#3D112F"/>
			<stop  offset="0.507" style="stop-color:#22091A"/>
			<stop  offset="0.667" style="stop-color:#0F040B"/>
			<stop  offset="0.829" style="stop-color:#030102"/>
			<stop  offset="1" style="stop-color:#000000"/>
		</radialGradient>
		<path id="Ellipse_225" class="st62" d="M97.1,6.9c5.5-2.3,13.6,4.8,18.2,15.9c4.5,11,3.7,21.8-1.8,24.1
			c-5.5,2.3-13.6-4.8-18.2-15.9S91.5,9.1,97.1,6.9z"/>
	</g>
	<g id="Group_1095" transform="translate(538.395 869.844)">
		
			<linearGradient id="Path_1350_1_" gradientUnits="userSpaceOnUse" x1="-389.4297" y1="278.8878" x2="-388.733" y2="278.8878" gradientTransform="matrix(251.0951 0 0 -148.147 97672.9688 41334.9766)">
			<stop  offset="3.500000e-02" style="stop-color:#9F19AB"/>
			<stop  offset="0.244" style="stop-color:#AE24B0"/>
			<stop  offset="0.645" style="stop-color:#D643BF"/>
			<stop  offset="1" style="stop-color:#FF63CE"/>
		</linearGradient>
		<path id="Path_1350" class="st63" d="M-40-8.4c8.2,4.7,7.9,12.5-1,16.9c-7.1,3.6-19.2,3.5-26.3-0.1c-4-2.1-6.3-4.8-6.8-7.6
			c-0.2-1.3-3.1-1.9-4.7-1l-32.1,18.6l32.7,18.9c2.1,1.2,0.8,3.3-2.2,3.4c-4.8,0.2-9.5,1.4-13,3.7c-6.6,4.2-6.4,10.8,0.4,15
			c7.5,4.6,19.9,4.7,27.5,0.3c3.4-2,5.3-4.5,5.5-7.1c0.2-1.7,3.8-2.5,6-1.3l32.7,18.9l82.6-47.7c3.6-2.1,3.6-5.5,0-7.6l-83.1-48
			L-54-14.4c-1.6,0.9-0.6,2.6,1.6,2.7C-48-11.6-43.8-10.5-40-8.4z"/>
		
			<linearGradient id="Path_1351_1_" gradientUnits="userSpaceOnUse" x1="-388.6653" y1="280.229" x2="-389.1627" y2="278.6223" gradientTransform="matrix(251.0951 0 0 -148.147 97672.9688 41334.9766)">
			<stop  offset="3.500000e-02" style="stop-color:#9F19AB"/>
			<stop  offset="0.244" style="stop-color:#AE24B0"/>
			<stop  offset="0.645" style="stop-color:#D643BF"/>
			<stop  offset="1" style="stop-color:#FF63CE"/>
		</linearGradient>
		<path id="Path_1351" class="st64" d="M-40-8.4c8.2,4.7,7.9,12.5-1,16.9c-7.1,3.6-19.2,3.5-26.3-0.1c-4-2.1-6.3-4.8-6.8-7.6
			c-0.2-1.3-3.1-1.9-4.7-1l-32.1,18.6l32.7,18.9c2.1,1.2,0.8,3.3-2.2,3.4c-4.8,0.2-9.5,1.4-13,3.7c-6.6,4.2-6.4,10.8,0.4,15
			c7.5,4.6,19.9,4.7,27.5,0.3c3.4-2,5.3-4.5,5.5-7.1c0.2-1.7,3.8-2.5,6-1.3l32.7,18.9l82.6-47.7c3.6-2.1,3.6-5.5,0-7.6l-83.1-48
			L-54-14.4c-1.6,0.9-0.6,2.6,1.6,2.7C-48-11.6-43.8-10.5-40-8.4z"/>
		
			<linearGradient id="Path_1352_1_" gradientUnits="userSpaceOnUse" x1="-390.7621" y1="276.6963" x2="-392.1486" y2="276.6963" gradientTransform="matrix(29.7261 0 0 -35.0743 11595.1152 9703.8623)">
			<stop  offset="0" style="stop-color:#9F19AB"/>
			<stop  offset="0.136" style="stop-color:#AE24B0"/>
			<stop  offset="0.399" style="stop-color:#D643BF"/>
			<stop  offset="0.631" style="stop-color:#FF63CE"/>
			<stop  offset="0.874" style="stop-color:#DC48C1"/>
		</linearGradient>
		<path id="Path_1352" class="st65" d="M-41,8.5c8.9-4.4,9.2-12.2,1-16.9c-3.8-2.1-8-3.2-12.3-3.4c-1.5-0.1-2.4-0.8-2.4-1.5l0,0
			v24.4C-49.8,11.3-44.7,10.4-41,8.5z"/>
		<g id="Group_1074" transform="translate(128.707 74.107)">
			
				<linearGradient id="Path_1353_1_" gradientUnits="userSpaceOnUse" x1="-518.4289" y1="204.9442" x2="-518.1662" y2="204.3568" gradientTransform="matrix(122.459 0 0 -113.449 63368.2227 23212.4434)">
				<stop  offset="3.500000e-02" style="stop-color:#9F19AB"/>
				<stop  offset="0.244" style="stop-color:#AE24B0"/>
				<stop  offset="0.645" style="stop-color:#D643BF"/>
				<stop  offset="1" style="stop-color:#FF63CE"/>
			</linearGradient>
			<path id="Path_1353" class="st66" d="M-64.7-28L-64.7-28l0.1-27.5l-0.1,0c0.1,1.4-0.8,2.8-2.7,3.9L-150-3.9v27.5l82.6-47.7
				C-65.5-25.2-64.6-26.6-64.7-28z"/>
			
				<linearGradient id="Path_1354_1_" gradientUnits="userSpaceOnUse" x1="-518.5731" y1="204.6726" x2="-517.0054" y2="205.1799" gradientTransform="matrix(122.459 0 0 -113.449 63368.2227 23212.4434)">
				<stop  offset="3.500000e-02" style="stop-color:#9F19AB"/>
				<stop  offset="0.244" style="stop-color:#AE24B0"/>
				<stop  offset="0.645" style="stop-color:#D643BF"/>
				<stop  offset="1" style="stop-color:#FF63CE"/>
			</linearGradient>
			<path id="Path_1354" class="st67" d="M-64.7-28L-64.7-28l0.1-27.5l-0.1,0c0.1,1.4-0.8,2.8-2.7,3.9L-150-3.9v27.5l82.6-47.7
				C-65.5-25.2-64.6-26.6-64.7-28z"/>
		</g>
		
			<linearGradient id="Path_1355_1_" gradientUnits="userSpaceOnUse" x1="-391.1652" y1="277.647" x2="-388.8883" y2="278.1424" gradientTransform="matrix(48.4459 0 0 -49.958 18800.4688 13916.6855)">
			<stop  offset="3.500000e-02" style="stop-color:#9F19AB"/>
			<stop  offset="0.244" style="stop-color:#AE24B0"/>
			<stop  offset="0.645" style="stop-color:#D643BF"/>
			<stop  offset="1" style="stop-color:#FF63CE"/>
		</linearGradient>
		<path id="Path_1355" class="st68" d="M-93.4,44.4c3.5-2.3,8.2-3.5,13-3.7c3-0.1,4.3-2.2,2.2-3.4l-32.7-18.9v27.5l12.7,7.4l0.1,0
			C-98.7,50.1-97.2,46.9-93.4,44.4z"/>
		
			<linearGradient id="Path_1356_1_" gradientUnits="userSpaceOnUse" x1="-390.9461" y1="278.4223" x2="-389.6711" y2="278.6439" gradientTransform="matrix(52.207 0 0 -67.3784 20340.8223 18840.5918)">
			<stop  offset="3.500000e-02" style="stop-color:#9F19AB"/>
			<stop  offset="0.244" style="stop-color:#AE24B0"/>
			<stop  offset="0.645" style="stop-color:#D643BF"/>
			<stop  offset="1" style="stop-color:#FF63CE"/>
		</linearGradient>
		<path id="Path_1356" class="st69" d="M-54,51.3c-1.1-0.6-2.4-0.8-3.7-0.5v27.5c1.2-0.3,2.5-0.1,3.7,0.5l32.7,18.9V70.2L-54,51.3z"
			/>
		
			<linearGradient id="Path_1357_1_" gradientUnits="userSpaceOnUse" x1="-389.8286" y1="278.2158" x2="-389.2768" y2="277.039" gradientTransform="matrix(58.248 0 0 -56.7045 22633.8027 15852.166)">
			<stop  offset="3.500000e-02" style="stop-color:#9F19AB"/>
			<stop  offset="0.244" style="stop-color:#AE24B0"/>
			<stop  offset="0.645" style="stop-color:#D643BF"/>
			<stop  offset="1" style="stop-color:#FF63CE"/>
		</linearGradient>
		<path id="Path_1357" class="st70" d="M-59.9,52.6c-0.3,2.6-2.1,5.1-5.5,7.1c-7.6,4.4-20,4.3-27.5-0.3c-2.9-1.8-4.6-3.9-5.1-6.2
			l-0.1,0v25.4c-0.2,2.9,1.5,5.9,5.2,8.2c7.5,4.6,19.9,4.7,27.5,0.3c3.4-2,5.3-4.5,5.5-7.1c0.1-0.9,1.1-1.5,2.3-1.7V50.8
			C-58.8,51.1-59.8,51.7-59.9,52.6z"/>
		
			<linearGradient id="Path_1358_1_" gradientUnits="userSpaceOnUse" x1="-389.4789" y1="278.3126" x2="-390.283" y2="278.3126" gradientTransform="matrix(58.248 0 0 -56.7045 22633.8027 15852.166)">
			<stop  offset="0" style="stop-color:#9F19AB"/>
			<stop  offset="0.166" style="stop-color:#AE24B0"/>
			<stop  offset="0.486" style="stop-color:#D643BF"/>
			<stop  offset="0.768" style="stop-color:#FF63CE"/>
			<stop  offset="0.924" style="stop-color:#DC48C1"/>
		</linearGradient>
		<path id="Path_1358" class="st71" d="M-59.9,52.6c-0.3,2.6-2.1,5.1-5.5,7.1c-7.6,4.4-20,4.3-27.5-0.3c-2.9-1.8-4.6-3.9-5.1-6.2
			l-0.1,0v25.4c-0.2,2.9,1.5,5.9,5.2,8.2c7.5,4.6,19.9,4.7,27.5,0.3c3.4-2,5.3-4.5,5.5-7.1c0.1-0.9,1.1-1.5,2.3-1.7V50.8
			C-58.8,51.1-59.8,51.7-59.9,52.6z"/>
		<g id="Group_1075" transform="translate(0 28.264)">
			
				<radialGradient id="Path_1359_1_" cx="-390.7419" cy="248.3235" r="0.6487" gradientTransform="matrix(29.1628 0 0 -29.179 11305.0176 7245.7485)" gradientUnits="userSpaceOnUse">
				<stop  offset="0" style="stop-color:#FFFFFF"/>
				<stop  offset="6.600000e-02" style="stop-color:#D8D8D8"/>
				<stop  offset="0.162" style="stop-color:#A5A5A5"/>
				<stop  offset="0.262" style="stop-color:#797979"/>
				<stop  offset="0.366" style="stop-color:#545454"/>
				<stop  offset="0.473" style="stop-color:#353535"/>
				<stop  offset="0.585" style="stop-color:#1D1D1D"/>
				<stop  offset="0.704" style="stop-color:#0D0D0D"/>
				<stop  offset="0.835" style="stop-color:#030303"/>
				<stop  offset="1" style="stop-color:#000000"/>
			</radialGradient>
			<path id="Path_1359" class="st72" d="M-77.9,10.5c1-0.8,1-1.9-0.3-2.7l-30.6-17.7l-2.1,1.2l32.7,18.9
				C-78.1,10.3-78,10.4-77.9,10.5z"/>
			
				<radialGradient id="Path_1360_1_" cx="-393.0001" cy="246.134" r="0.7204" gradientTransform="matrix(18.889 0 0 -18.899 7382.6577 4612.4082)" gradientUnits="userSpaceOnUse">
				<stop  offset="0" style="stop-color:#FFFFFF"/>
				<stop  offset="6.600000e-02" style="stop-color:#D8D8D8"/>
				<stop  offset="0.162" style="stop-color:#A5A5A5"/>
				<stop  offset="0.262" style="stop-color:#797979"/>
				<stop  offset="0.366" style="stop-color:#545454"/>
				<stop  offset="0.473" style="stop-color:#353535"/>
				<stop  offset="0.585" style="stop-color:#1D1D1D"/>
				<stop  offset="0.704" style="stop-color:#0D0D0D"/>
				<stop  offset="0.835" style="stop-color:#030303"/>
				<stop  offset="1" style="stop-color:#000000"/>
			</radialGradient>
			<path id="Path_1360" class="st73" d="M-52.4-38.8c4.3,0.2,8.5,1.3,12.3,3.4c3.4,2,5.3,4.5,5.8,7c0.6-3.4-1.3-6.9-5.8-9.5
				c-3.8-2.1-8-3.2-12.3-3.4c-0.5,0-1-0.1-1.4-0.3l-0.2,0.1C-55.6-40.6-54.6-38.9-52.4-38.8z"/>
		</g>
		
			<radialGradient id="Path_1361_1_" cx="-1449.2261" cy="-643.1288" r="0.3483" gradientTransform="matrix(-0.6465 56.5622 12.9164 0.1697 7281.0117 82143.4453)" gradientUnits="userSpaceOnUse">
			<stop  offset="0" style="stop-color:#AD3185"/>
			<stop  offset="0.102" style="stop-color:#8A276A"/>
			<stop  offset="0.245" style="stop-color:#601B4A"/>
			<stop  offset="0.391" style="stop-color:#3D112F"/>
			<stop  offset="0.538" style="stop-color:#22091A"/>
			<stop  offset="0.688" style="stop-color:#0F040B"/>
			<stop  offset="0.84" style="stop-color:#030102"/>
			<stop  offset="1" style="stop-color:#000000"/>
		</radialGradient>
		<path id="Path_1361" class="st74" d="M-89.2,82.6c-2.5,0-4.4-8.9-4.3-19.8s2.2-19.7,4.7-19.7s4.4,8.9,4.3,19.8
			C-84.6,73.8-86.7,82.6-89.2,82.6z"/>
		<g id="Group_1076" transform="translate(18.254 74.319)">
			
				<radialGradient id="Path_1362_1_" cx="-409.6863" cy="202.5895" r="1.4067" gradientTransform="matrix(31.2749 0 0 -31.2821 12727.7451 6332.9985)" gradientUnits="userSpaceOnUse">
				<stop  offset="0" style="stop-color:#FFFFFF"/>
				<stop  offset="6.600000e-02" style="stop-color:#D8D8D8"/>
				<stop  offset="0.162" style="stop-color:#A5A5A5"/>
				<stop  offset="0.262" style="stop-color:#797979"/>
				<stop  offset="0.366" style="stop-color:#545454"/>
				<stop  offset="0.473" style="stop-color:#353535"/>
				<stop  offset="0.585" style="stop-color:#1D1D1D"/>
				<stop  offset="0.704" style="stop-color:#0D0D0D"/>
				<stop  offset="0.835" style="stop-color:#030303"/>
				<stop  offset="1" style="stop-color:#000000"/>
			</radialGradient>
			<path id="Path_1362" class="st75" d="M-72.2-24.2c-2.1-1.2-5.8-0.5-6,1.3c-0.3,2.6-2.1,5.1-5.5,7.1c-7.6,4.4-20,4.3-27.5-0.3
				c-3-1.8-4.7-4.1-5.1-6.4c-0.6,3.1,1.1,6.4,5.1,8.8c7.5,4.6,19.9,4.7,27.5,0.3c3.4-2,5.3-4.5,5.5-7.1c0.2-1.7,3.8-2.5,6-1.3
				L-39.7-3v-2.4L-72.2-24.2z"/>
			
				<radialGradient id="Path_1363_1_" cx="-408.3527" cy="204.1024" r="0.6215" gradientTransform="matrix(75.5855 0 0 -75.586 30876.8281 15400.999)" gradientUnits="userSpaceOnUse">
				<stop  offset="0" style="stop-color:#FFFFFF"/>
				<stop  offset="6.600000e-02" style="stop-color:#D8D8D8"/>
				<stop  offset="0.162" style="stop-color:#A5A5A5"/>
				<stop  offset="0.262" style="stop-color:#797979"/>
				<stop  offset="0.366" style="stop-color:#545454"/>
				<stop  offset="0.473" style="stop-color:#353535"/>
				<stop  offset="0.585" style="stop-color:#1D1D1D"/>
				<stop  offset="0.704" style="stop-color:#0D0D0D"/>
				<stop  offset="0.835" style="stop-color:#030303"/>
				<stop  offset="1" style="stop-color:#000000"/>
			</radialGradient>
			<path id="Path_1363" class="st76" d="M43.1-50.6c2.3-1.3,3.1-3.2,2.4-5c-0.5,1.1-1.4,2-2.4,2.5L-39.5-5.3l-0.2-0.1V-3l0.2,0.1
				L43.1-50.6z"/>
		</g>
	</g>
	<g id="Group_1096" transform="translate(390.095 976.562)">
		
			<linearGradient id="Path_1364_1_" gradientUnits="userSpaceOnUse" x1="-240.2587" y1="173.6454" x2="-240.6851" y2="172.2094" gradientTransform="matrix(251.6331 0 0 -142.4734 60565.1602 24541.9414)">
			<stop  offset="3.500000e-02" style="stop-color:#FFA98C"/>
			<stop  offset="0.317" style="stop-color:#FEB892"/>
			<stop  offset="0.86" style="stop-color:#FEE0A3"/>
			<stop  offset="1" style="stop-color:#FEECA8"/>
		</linearGradient>
		<path id="Path_1364" class="st77" d="M63.9-30.2c-6.4,5.5-19.7,6.8-29,2.6c-7.5-3.4-9.8-10.2-5.1-14.9c2.7-2.7,6.9-4.5,11.6-5.3
			c2.2-0.4,2.6-2.1,0.7-2.8L4.2-65.4l-25.6,22.1c-1.7,1.4-5.5,1.1-6.3-0.6c-1.2-2.7-4.3-5.1-8.8-6.7c-8.5-2.9-19.7-1.6-25.4,3
			c-6.3,5.1-4,12.2,5,15.6c4.2,1.6,8.7,2.2,13.1,1.8c3-0.2,5,1.7,3.3,3.1L-65.9-4.9L31.5,33c4.3,1.7,10,1,12.9-1.4l65-56l-38-14.8
			c-1.9-0.7-4.5,0.1-4.2,1.4C67.6-35.3,66.6-32.6,63.9-30.2z"/>
		
			<linearGradient id="Path_1365_1_" gradientUnits="userSpaceOnUse" x1="-240.9498" y1="172.4239" x2="-240.2531" y2="172.4239" gradientTransform="matrix(251.63 0 0 -123.2114 60564.4375 21262.9941)">
			<stop  offset="6.600000e-02" style="stop-color:#FCCE9E"/>
			<stop  offset="0.52" style="stop-color:#FAC099"/>
			<stop  offset="0.585" style="stop-color:#FEE0A5"/>
			<stop  offset="0.591" style="stop-color:#FFE4A7"/>
			<stop  offset="0.609" style="stop-color:#FCD4A0"/>
			<stop  offset="0.643" style="stop-color:#F9BD97"/>
			<stop  offset="0.675" style="stop-color:#F7AE91"/>
			<stop  offset="0.702" style="stop-color:#F7AA90"/>
			<stop  offset="1" style="stop-color:#F9B695"/>
		</linearGradient>
		<path id="Path_1365" class="st78" d="M44.4,31.5c-2.8,2.4-8.6,3.1-12.9,1.4L-65.9-4.9v27.5l97.5,37.9c4.3,1.7,10,1,12.9-1.4l65-56
			v-27.5L44.4,31.5z"/>
		
			<linearGradient id="Path_1366_1_" gradientUnits="userSpaceOnUse" x1="-242.1027" y1="171.285" x2="-239.6405" y2="171.7205" gradientTransform="matrix(36.748 0 0 -46.542 8798.6719 7955.5107)">
			<stop  offset="3.500000e-02" style="stop-color:#FFA98C"/>
			<stop  offset="0.317" style="stop-color:#FEB892"/>
			<stop  offset="0.86" style="stop-color:#FEE0A3"/>
			<stop  offset="1" style="stop-color:#FEECA8"/>
		</linearGradient>
		<path id="Path_1366" class="st79" d="M-43.7-30.1c-4.5,0.4-8.9-0.3-13.1-1.8c-5.1-2-8-5.1-8.5-8.4v25.8c-0.3,2.3,0.7,4.6,2.8,6.6
			L-40.4-27C-38.7-28.4-40.7-30.3-43.7-30.1z"/>
		
			<linearGradient id="Path_1367_1_" gradientUnits="userSpaceOnUse" x1="-242.4582" y1="170.7814" x2="-244.7274" y2="170.7814" gradientTransform="matrix(22.7592 0 0 -33.789 5561.8394 5733.3672)">
			<stop  offset="3.500000e-02" style="stop-color:#F7AA90"/>
			<stop  offset="0.232" style="stop-color:#F9B996"/>
			<stop  offset="0.61" style="stop-color:#FEE1A6"/>
			<stop  offset="0.631" style="stop-color:#FFE4A7"/>
			<stop  offset="0.874" style="stop-color:#F7AA90"/>
		</linearGradient>
		<path id="Path_1367" class="st80" d="M41.4-47.8c-4.7,0.8-8.9,2.6-11.6,5.3c-4.7,4.7-2.4,11.6,5.1,14.9c2.7,1.2,5.5,1.9,8.3,2.2
			v-23.5C42.9-48.3,42.2-47.9,41.4-47.8z"/>
		<g id="Group_1078" transform="translate(0 23.066)">
			
				<radialGradient id="Path_1368_1_" cx="-371.9212" cy="19.6421" r="0.2506" gradientTransform="matrix(0.5239 0 0 -0.517 262.0477 -49.8927)" gradientUnits="userSpaceOnUse">
				<stop  offset="0" style="stop-color:#FFFFFF"/>
				<stop  offset="6.600000e-02" style="stop-color:#D8D8D8"/>
				<stop  offset="0.162" style="stop-color:#A5A5A5"/>
				<stop  offset="0.262" style="stop-color:#797979"/>
				<stop  offset="0.366" style="stop-color:#545454"/>
				<stop  offset="0.473" style="stop-color:#353535"/>
				<stop  offset="0.585" style="stop-color:#1D1D1D"/>
				<stop  offset="0.704" style="stop-color:#0D0D0D"/>
				<stop  offset="0.835" style="stop-color:#030303"/>
				<stop  offset="1" style="stop-color:#000000"/>
			</radialGradient>
			<path id="Path_1368" class="st81" d="M67.2-60.2c0,0.1-0.1,0.2-0.1,0.4C67.2-60,67.2-60.1,67.2-60.2z"/>
			
				<radialGradient id="Path_1369_1_" cx="-243.5189" cy="145.755" r="0.4024" gradientTransform="matrix(17.6888 0 0 -17.691 4342.9487 2512.3308)" gradientUnits="userSpaceOnUse">
				<stop  offset="0" style="stop-color:#FFFFFF"/>
				<stop  offset="6.600000e-02" style="stop-color:#D8D8D8"/>
				<stop  offset="0.162" style="stop-color:#A5A5A5"/>
				<stop  offset="0.262" style="stop-color:#797979"/>
				<stop  offset="0.366" style="stop-color:#545454"/>
				<stop  offset="0.473" style="stop-color:#353535"/>
				<stop  offset="0.585" style="stop-color:#1D1D1D"/>
				<stop  offset="0.704" style="stop-color:#0D0D0D"/>
				<stop  offset="0.835" style="stop-color:#030303"/>
				<stop  offset="1" style="stop-color:#000000"/>
			</radialGradient>
			<path id="Path_1369" class="st82" d="M29.9-66.8c-1.9,1.7-2.8,4.3-2.3,6.8c0.3-1.7,1.1-3.2,2.3-4.3c2.7-2.7,6.9-4.5,11.6-5.3
				c2.1-0.4,2.6-1.9,0.9-2.7c-0.3,0.1-0.6,0.2-0.9,0.3C36.7-71.3,32.5-69.5,29.9-66.8z"/>
			
				<radialGradient id="Path_1370_1_" cx="-241.3468" cy="146.1246" r="0.5407" gradientTransform="matrix(18.8285 0 0 -18.823 4490.6968 2694.0029)" gradientUnits="userSpaceOnUse">
				<stop  offset="0" style="stop-color:#FFFFFF"/>
				<stop  offset="6.600000e-02" style="stop-color:#D8D8D8"/>
				<stop  offset="0.162" style="stop-color:#A5A5A5"/>
				<stop  offset="0.262" style="stop-color:#797979"/>
				<stop  offset="0.366" style="stop-color:#545454"/>
				<stop  offset="0.473" style="stop-color:#353535"/>
				<stop  offset="0.585" style="stop-color:#1D1D1D"/>
				<stop  offset="0.704" style="stop-color:#0D0D0D"/>
				<stop  offset="0.835" style="stop-color:#030303"/>
				<stop  offset="1" style="stop-color:#000000"/>
			</radialGradient>
			<path id="Path_1370" class="st83" d="M-56.8-53.8c4.2,1.6,8.7,2.2,13.1,1.8c1.1-0.1,2.3,0.2,3.2,0.8l0.1-0.1
				c1.7-1.4-0.4-3.4-3.3-3.1c-4.5,0.4-8.9-0.3-13.1-1.8c-4.9-1.9-7.8-4.9-8.4-8.1C-66-60.3-63-56.2-56.8-53.8z"/>
			
				<radialGradient id="Path_1371_1_" cx="-241.0928" cy="149.1053" r="0.7706" gradientTransform="matrix(84.7993 0 0 -84.8993 20457.041 12643.8164)" gradientUnits="userSpaceOnUse">
				<stop  offset="0" style="stop-color:#FFFFFF"/>
				<stop  offset="6.600000e-02" style="stop-color:#D8D8D8"/>
				<stop  offset="0.162" style="stop-color:#A5A5A5"/>
				<stop  offset="0.262" style="stop-color:#797979"/>
				<stop  offset="0.366" style="stop-color:#545454"/>
				<stop  offset="0.473" style="stop-color:#353535"/>
				<stop  offset="0.585" style="stop-color:#1D1D1D"/>
				<stop  offset="0.704" style="stop-color:#0D0D0D"/>
				<stop  offset="0.835" style="stop-color:#030303"/>
				<stop  offset="1" style="stop-color:#000000"/>
			</radialGradient>
			<path id="Path_1371" class="st84" d="M44.4,7.2c-2.8,2.4-8.6,3.1-12.9,1.4L-64-28.4l-2,1.7l97.5,37.9c4.3,1.7,10,1,12.9-1.4
				l65-56l-2-0.8L44.4,7.2z"/>
		</g>
		
			<radialGradient id="Path_1372_1_" cx="-1309.4269" cy="-1082.8064" r="0.3483" gradientTransform="matrix(-0.6454 57.7571 8.0439 0.1155 7902.6426 75796.9375)" gradientUnits="userSpaceOnUse">
			<stop  offset="0" style="stop-color:#972A74"/>
			<stop  offset="4.100000e-02" style="stop-color:#8A266A"/>
			<stop  offset="0.194" style="stop-color:#601A49"/>
			<stop  offset="0.35" style="stop-color:#3D112F"/>
			<stop  offset="0.507" style="stop-color:#22091A"/>
			<stop  offset="0.667" style="stop-color:#0F040B"/>
			<stop  offset="0.829" style="stop-color:#030102"/>
			<stop  offset="1" style="stop-color:#000000"/>
		</radialGradient>
		<path id="Path_1372" class="st85" d="M37.6,63.3c-1.5,0-2.7-9-2.6-20.2c0.1-11.1,1.5-20.1,3-20.1c1.5,0,2.7,9,2.6,20.2
			S39.2,63.3,37.6,63.3z"/>
		
			<radialGradient id="Path_1373_1_" cx="-2103.7554" cy="-1228.1543" r="0.3484" gradientTransform="matrix(-0.4592 41.1391 8.0395 8.227820e-02 8849.6934 86617.5313)" gradientUnits="userSpaceOnUse">
			<stop  offset="0" style="stop-color:#972A74"/>
			<stop  offset="4.100000e-02" style="stop-color:#8A266A"/>
			<stop  offset="0.194" style="stop-color:#601A49"/>
			<stop  offset="0.35" style="stop-color:#3D112F"/>
			<stop  offset="0.507" style="stop-color:#22091A"/>
			<stop  offset="0.667" style="stop-color:#0F040B"/>
			<stop  offset="0.829" style="stop-color:#030102"/>
			<stop  offset="1" style="stop-color:#000000"/>
		</radialGradient>
		<path id="Path_1373" class="st86" d="M-58.2-15.8c-1.5,0-2.7-6.4-2.6-14.4s1.4-14.3,3-14.3c1.5,0,2.7,6.4,2.6,14.4
			C-55.4-22.2-56.7-15.8-58.2-15.8z"/>
		
			<radialGradient id="Path_1374_1_" cx="-250.4047" cy="174.8416" r="0.2801" gradientTransform="matrix(45.6286 -18.7428 -23.9954 -58.3985 16691.9336 5481.6138)" gradientUnits="userSpaceOnUse">
			<stop  offset="0" style="stop-color:#972A74"/>
			<stop  offset="4.100000e-02" style="stop-color:#8A266A"/>
			<stop  offset="0.194" style="stop-color:#601A49"/>
			<stop  offset="0.35" style="stop-color:#3D112F"/>
			<stop  offset="0.507" style="stop-color:#22091A"/>
			<stop  offset="0.667" style="stop-color:#0F040B"/>
			<stop  offset="0.829" style="stop-color:#030102"/>
			<stop  offset="1" style="stop-color:#000000"/>
		</radialGradient>
		<path id="Path_1374" class="st87" d="M49.8,30.3c3.7,9,1,18.7-6.1,21.6S28,49.9,24.3,40.8s-1-18.7,6.1-21.6S46.1,21.3,49.8,30.3z"
			/>
	</g>
	
		<radialGradient id="Path_1402_1_" cx="149.1802" cy="1148.9105" r="0.7601" gradientTransform="matrix(86.6123 0 0 -86.5 -12503.665 100422.4453)" gradientUnits="userSpaceOnUse">
		<stop  offset="0" style="stop-color:#FA45C1"/>
		<stop  offset="0.205" style="stop-color:#CB389D"/>
		<stop  offset="0.668" style="stop-color:#571843"/>
		<stop  offset="1" style="stop-color:#000000"/>
	</radialGradient>
	<path id="Path_1402" class="st88" d="M427.1,1062.1c-1,0-2-0.2-2.9-0.6l-100.2-39.1l0.4-1.1l100.2,39.1c2.3,0.9,5,0.5,6.9-1.2
		l67.6-57.4l0.8,0.9l-67.6,57.4C430.8,1061.4,429,1062.1,427.1,1062.1z"/>
	<g id="Group_1098" transform="translate(641.169 744.735)">
		
			<radialGradient id="Path_1376_1_" cx="-492.9271" cy="402.4622" r="0.3094" gradientTransform="matrix(65.4328 0 0 -65.4523 32128.8574 26369.8066)" gradientUnits="userSpaceOnUse">
			<stop  offset="0" style="stop-color:#DC3DAA"/>
			<stop  offset="9.099999e-02" style="stop-color:#C23596"/>
			<stop  offset="0.333" style="stop-color:#822465"/>
			<stop  offset="0.553" style="stop-color:#50163E"/>
			<stop  offset="0.745" style="stop-color:#2C0C22"/>
			<stop  offset="0.9" style="stop-color:#160611"/>
			<stop  offset="1" style="stop-color:#0E040B"/>
		</radialGradient>
		<path id="Path_1376" class="st89" d="M-117,50.5c-1.2,0-2.4-0.2-3.5-0.5c-0.2-0.1-0.3-0.2-0.4-0.4l-2.3-5.7
			c-0.6-0.3-1.2-0.6-1.8-0.9c-0.5-0.3-1-0.6-1.6-1l-2.1,2.7c-0.1,0.1-0.3,0.2-0.4,0.2c-0.2,0-0.3,0-0.5-0.1c-1.6-1.4-3.1-3-4.4-4.6
			c-0.1-0.1-0.2-0.3-0.1-0.5l1-4.3c-1-1.4-1.8-2.9-2.6-4.4l-4.2-1.3c-0.2-0.1-0.3-0.2-0.4-0.4c-0.8-2-1.4-4-1.8-6.1
			c0-0.2,0-0.3,0.1-0.5c0.1-0.1,0.3-0.2,0.4-0.3l3.3-0.4c-0.1-0.6-0.1-1.2-0.1-1.8c0-0.7,0-1.3,0.1-2l-3.8-4.9
			c-0.1-0.2-0.2-0.3-0.1-0.5c0.4-1.5,1-2.9,1.9-4.1c0.2-0.3,0.6-0.3,0.9-0.1c0,0,0,0,0,0l4.1,3.5c0.6-0.5,1.3-0.9,2.1-1.2l-1-5.2
			c-0.1-0.3,0.2-0.6,0.5-0.7c0,0,0,0,0.1,0c1.5-0.1,3.1,0,4.5,0.5c0.2,0.1,0.3,0.2,0.4,0.4l2.3,5.7c0.6,0.3,1.2,0.6,1.8,0.9
			c0.5,0.3,1.1,0.7,1.6,1l2.1-2.7c0.1-0.1,0.3-0.2,0.4-0.2c0.2,0,0.3,0,0.5,0.1c1.6,1.4,3.1,3,4.4,4.6c0.1,0.1,0.2,0.3,0.1,0.5
			l-1,4.3c1,1.4,1.8,2.9,2.6,4.4l4.2,1.3c0.2,0.1,0.3,0.2,0.4,0.4c0.8,2,1.4,4,1.8,6.1c0.1,0.3-0.1,0.7-0.5,0.7c0,0,0,0,0,0
			l-3.3,0.4c0.1,0.6,0.1,1.2,0.1,1.8c0,0.7,0,1.3-0.1,2l3.8,4.9c0.1,0.2,0.2,0.3,0.1,0.5c-0.4,1.5-1,2.9-1.9,4.1
			c-0.1,0.1-0.3,0.2-0.4,0.2c-0.2,0-0.3,0-0.5-0.1l-4.1-3.5c-0.6,0.5-1.3,0.9-2.1,1.2l1,5.2c0.1,0.3-0.2,0.6-0.5,0.7c0,0,0,0-0.1,0
			C-116.3,50.5-116.7,50.5-117,50.5z M-119.9,48.9c1,0.3,2.1,0.4,3.1,0.4l-0.9-5.1c-0.1-0.3,0.1-0.6,0.4-0.7c1-0.2,1.8-0.7,2.5-1.4
			c0.2-0.2,0.6-0.2,0.8,0l4,3.4c0.5-0.9,1-1.9,1.2-2.9l-3.8-4.8c-0.1-0.1-0.1-0.3-0.1-0.5c0.1-0.7,0.2-1.4,0.2-2.1
			c0-0.8-0.1-1.5-0.2-2.3c0-0.3,0.2-0.6,0.5-0.7c0,0,0,0,0,0l3.3-0.4c-0.4-1.7-0.9-3.3-1.5-5l-4.2-1.3c-0.2,0-0.3-0.2-0.4-0.3
			c-0.8-1.7-1.7-3.2-2.7-4.7c-0.1-0.1-0.1-0.3-0.1-0.5l1-4.3c-1.1-1.4-2.3-2.6-3.6-3.8l-2,2.6c-0.2,0.3-0.6,0.3-0.8,0.1
			c-0.6-0.5-1.3-0.9-1.9-1.3c-0.6-0.3-1.2-0.7-1.9-0.9c-0.2-0.1-0.3-0.2-0.3-0.3l-2.3-5.6c-1-0.3-2.1-0.4-3.1-0.4l1,5.1
			c0.1,0.3-0.1,0.6-0.4,0.7c-1,0.2-1.8,0.7-2.5,1.4c-0.2,0.2-0.6,0.2-0.8,0l-4-3.4c-0.5,0.9-1,1.9-1.2,2.9l3.8,4.8
			c0.1,0.1,0.1,0.3,0.1,0.5c-0.1,0.7-0.2,1.4-0.2,2.1c0,0.8,0.1,1.5,0.2,2.3c0,0.3-0.2,0.6-0.5,0.7l-3.3,0.4c0.4,1.7,0.9,3.3,1.5,5
			l4.2,1.3c0.2,0,0.3,0.2,0.4,0.3c0.8,1.7,1.7,3.2,2.7,4.7c0.1,0.1,0.1,0.3,0.1,0.5l-1,4.3c1.1,1.4,2.3,2.6,3.6,3.8l2-2.6
			c0.2-0.3,0.6-0.3,0.8-0.1c0.6,0.5,1.3,0.9,1.9,1.3c0.6,0.3,1.2,0.7,1.9,0.9c0.2,0.1,0.3,0.2,0.3,0.3L-119.9,48.9z"/>
		
			<radialGradient id="Path_1377_1_" cx="-496.0063" cy="397.9055" r="0.315" gradientTransform="matrix(20.912 0 0 -20.908 10247.7305 8347.125)" gradientUnits="userSpaceOnUse">
			<stop  offset="0" style="stop-color:#DC3DAA"/>
			<stop  offset="9.099999e-02" style="stop-color:#C23596"/>
			<stop  offset="0.333" style="stop-color:#822465"/>
			<stop  offset="0.553" style="stop-color:#50163E"/>
			<stop  offset="0.745" style="stop-color:#2C0C22"/>
			<stop  offset="0.9" style="stop-color:#160611"/>
			<stop  offset="1" style="stop-color:#0E040B"/>
		</radialGradient>
		<path id="Path_1377" class="st90" d="M-122.4,35c-0.9,0-1.8-0.3-2.6-0.8c-3-1.7-5.5-6-5.5-9.5c0-2.6,1.4-4.3,3.5-4.3
			c0.9,0,1.8,0.3,2.6,0.8c3,1.7,5.5,6,5.5,9.5C-119,33.3-120.3,35-122.4,35z M-127.1,21.7c-1.4,0-2.3,1.1-2.3,3.1
			c0.2,3.4,2,6.6,4.9,8.4c0.6,0.4,1.3,0.6,2,0.6c1.4,0,2.3-1.1,2.3-3.1c-0.2-3.4-2-6.6-4.9-8.4C-125.7,21.9-126.4,21.7-127.1,21.7
			L-127.1,21.7z"/>
	</g>
	
		<radialGradient id="Path_1401_1_" cx="150.0239" cy="1148.8796" r="0.6041" gradientTransform="matrix(89.3689 0 0 -89.354 -13163.2539 103602.7422)" gradientUnits="userSpaceOnUse">
		<stop  offset="0" style="stop-color:#FA45C1"/>
		<stop  offset="0.205" style="stop-color:#CB389D"/>
		<stop  offset="0.668" style="stop-color:#571843"/>
		<stop  offset="1" style="stop-color:#000000"/>
	</radialGradient>
	<path id="Path_1401" class="st91" d="M292.6,993.5l-106-61.2l0.6-1.1l106,61.2L292.6,993.5z"/>
	
		<radialGradient id="Rectangle_459_1_" cx="78.3626" cy="1119.7478" r="31.2642" gradientTransform="matrix(1.6776 4.457370e-02 -6.180615e-02 -1.7162 506.1736 2867.3171)" gradientUnits="userSpaceOnUse">
		<stop  offset="0" style="stop-color:#FA45C1"/>
		<stop  offset="0.205" style="stop-color:#CB389D"/>
		<stop  offset="0.668" style="stop-color:#571843"/>
		<stop  offset="1" style="stop-color:#000000"/>
	</radialGradient>
	<polygon id="Rectangle_459" class="st92" points="516.8,991.2 639.2,919.5 639.8,920.5 517.5,992.2 	"/>
	
		<radialGradient id="Ellipse_234_1_" cx="150.1429" cy="1148.245" r="0.3484" gradientTransform="matrix(51.4802 0 0 -51.4802 -7484.1709 60076.9453)" gradientUnits="userSpaceOnUse">
		<stop  offset="8.600000e-02" style="stop-color:#C211A1"/>
		<stop  offset="8.900001e-02" style="stop-color:#B8109B"/>
		<stop  offset="0.126" style="stop-color:#5B0663"/>
		<stop  offset="0.149" style="stop-color:#500557"/>
		<stop  offset="0.214" style="stop-color:#37033C"/>
		<stop  offset="0.288" style="stop-color:#230226"/>
		<stop  offset="0.374" style="stop-color:#130114"/>
		<stop  offset="0.479" style="stop-color:#080008"/>
		<stop  offset="0.624" style="stop-color:#010001"/>
		<stop  offset="1" style="stop-color:#000000"/>
	</radialGradient>
	<ellipse id="Ellipse_234" class="st93" cx="245.2" cy="965" rx="17.9" ry="17.9"/>
	<g id="Group_1092" transform="translate(314.823 745.871)">
		
			<radialGradient id="Path_1385_1_" cx="-165.6597" cy="402.8828" r="0.3693" gradientTransform="matrix(190.7881 0 0 -190.6696 31761.3691 76937.8281)" gradientUnits="userSpaceOnUse">
			<stop  offset="0" style="stop-color:#DC3DAA"/>
			<stop  offset="9.099999e-02" style="stop-color:#C23596"/>
			<stop  offset="0.333" style="stop-color:#822465"/>
			<stop  offset="0.553" style="stop-color:#50163E"/>
			<stop  offset="0.745" style="stop-color:#2C0C22"/>
			<stop  offset="0.9" style="stop-color:#160611"/>
			<stop  offset="1" style="stop-color:#0E040B"/>
		</radialGradient>
		<path id="Path_1385" class="st94" d="M145.1,178.5c-0.3,0-0.6-0.3-0.6-0.6v-2.4c0-0.3,0.3-0.6,0.6-0.6c0.3,0,0.6,0.3,0.6,0.6
			c0,0,0,0,0,0v2.4C145.7,178.2,145.4,178.5,145.1,178.5C145.1,178.5,145.1,178.5,145.1,178.5z M145.1,173.6c-0.3,0-0.6-0.3-0.6-0.6
			v-2.4c0-0.3,0.3-0.6,0.6-0.6c0.3,0,0.6,0.3,0.6,0.6c0,0,0,0,0,0v2.4C145.7,173.4,145.4,173.6,145.1,173.6L145.1,173.6z
			 M145.1,168.8c-0.3,0-0.6-0.3-0.6-0.6v-2.4c0-0.3,0.3-0.6,0.6-0.6c0.3,0,0.6,0.3,0.6,0.6v2.4C145.7,168.5,145.4,168.8,145.1,168.8
			L145.1,168.8z M145.1,163.9c-0.3,0-0.6-0.3-0.6-0.6v-2.4c0-0.3,0.3-0.6,0.6-0.6c0.3,0,0.6,0.3,0.6,0.6v2.4
			C145.7,163.6,145.4,163.9,145.1,163.9L145.1,163.9z M145.1,159c-0.3,0-0.6-0.3-0.6-0.6V156c0-0.3,0.3-0.6,0.6-0.6
			c0.3,0,0.6,0.3,0.6,0.6v2.4C145.7,158.7,145.4,159,145.1,159L145.1,159z M145.1,154.1c-0.3,0-0.6-0.3-0.6-0.6v-2.4
			c0-0.3,0.3-0.6,0.6-0.6c0.3,0,0.6,0.3,0.6,0.6c0,0,0,0,0,0v2.4C145.7,153.9,145.4,154.1,145.1,154.1L145.1,154.1z M145.1,149.3
			c-0.3,0-0.6-0.3-0.6-0.6v-2.4c0-0.3,0.3-0.6,0.6-0.6c0.3,0,0.6,0.3,0.6,0.6c0,0,0,0,0,0v2.4C145.7,149,145.4,149.2,145.1,149.3
			L145.1,149.3z M145.1,144.4c-0.3,0-0.6-0.3-0.6-0.6v-2.4c0-0.3,0.3-0.6,0.6-0.6c0.3,0,0.6,0.3,0.6,0.6v2.4
			C145.7,144.1,145.4,144.4,145.1,144.4L145.1,144.4z M145.1,139.5c-0.3,0-0.6-0.3-0.6-0.6v-2.4c0-0.3,0.3-0.6,0.6-0.6
			c0.3,0,0.6,0.3,0.6,0.6v2.4C145.7,139.2,145.4,139.5,145.1,139.5L145.1,139.5z M145.1,134.6c-0.3,0-0.6-0.3-0.6-0.6v-2.4
			c0-0.3,0.3-0.6,0.6-0.6c0.3,0,0.6,0.3,0.6,0.6v2.4C145.7,134.3,145.4,134.6,145.1,134.6L145.1,134.6z M145.1,129.7
			c-0.3,0-0.6-0.3-0.6-0.6v-2.4c0-0.3,0.3-0.6,0.6-0.6c0.3,0,0.6,0.3,0.6,0.6v2.4C145.7,129.5,145.4,129.7,145.1,129.7L145.1,129.7z
			 M145.1,124.9c-0.3,0-0.6-0.3-0.6-0.6v-2.4c0-0.3,0.3-0.6,0.6-0.6c0.3,0,0.6,0.3,0.6,0.6c0,0,0,0,0,0v2.4
			C145.7,124.6,145.4,124.8,145.1,124.9L145.1,124.9z M145.1,120c-0.3,0-0.6-0.3-0.6-0.6v-2.4c0-0.3,0.3-0.6,0.6-0.6
			c0.3,0,0.6,0.3,0.6,0.6c0,0,0,0,0,0v2.4C145.7,119.7,145.4,120,145.1,120L145.1,120z M146.5,115.9c-0.3,0-0.6-0.3-0.6-0.6
			c0-0.2,0.1-0.4,0.3-0.5l2.1-1.3c0.3-0.2,0.7-0.1,0.8,0.2c0.2,0.3,0.1,0.7-0.2,0.8l-2.1,1.3C146.8,115.9,146.7,115.9,146.5,115.9
			L146.5,115.9z M150.7,113.4c-0.3,0-0.6-0.3-0.6-0.6c0-0.2,0.1-0.4,0.3-0.5l2.1-1.3c0.3-0.2,0.7-0.1,0.8,0.2
			c0.2,0.3,0.1,0.7-0.2,0.8l-2.1,1.3C150.9,113.4,150.8,113.4,150.7,113.4L150.7,113.4z M154.9,110.9c-0.3,0-0.6-0.3-0.6-0.6
			c0-0.2,0.1-0.4,0.3-0.5l2.1-1.3c0.3-0.2,0.7-0.1,0.8,0.2c0.2,0.3,0.1,0.7-0.2,0.8l-2.1,1.3C155.1,110.9,155,110.9,154.9,110.9
			L154.9,110.9z M159.1,108.4c-0.3,0-0.6-0.3-0.6-0.6c0-0.2,0.1-0.4,0.3-0.5l2.1-1.3c0.3-0.2,0.7-0.1,0.8,0.2
			c0.2,0.3,0.1,0.7-0.2,0.8l-2.1,1.3C159.3,108.3,159.2,108.3,159.1,108.4L159.1,108.4z M163.2,105.8c-0.3,0-0.6-0.3-0.6-0.6
			c0-0.2,0.1-0.4,0.3-0.5l2.1-1.3c0.3-0.2,0.7-0.1,0.8,0.2c0.2,0.3,0.1,0.7-0.2,0.8l0,0l-2.1,1.3
			C163.5,105.8,163.3,105.8,163.2,105.8L163.2,105.8z M167.4,103.3c-0.3,0-0.6-0.3-0.6-0.6c0-0.2,0.1-0.4,0.3-0.5l2.1-1.3
			c0.3-0.2,0.7-0.1,0.8,0.2c0.2,0.3,0.1,0.7-0.2,0.8l-2.1,1.3C167.6,103.3,167.5,103.3,167.4,103.3L167.4,103.3z M171.6,100.8
			c-0.3,0-0.6-0.3-0.6-0.6c0-0.2,0.1-0.4,0.3-0.5l2.1-1.3c0.3-0.2,0.7-0.1,0.8,0.2c0.2,0.3,0.1,0.7-0.2,0.8l0,0l-2.1,1.3
			C171.8,100.7,171.7,100.8,171.6,100.8L171.6,100.8z M175.8,98.3c-0.3,0-0.6-0.3-0.6-0.6c0-0.2,0.1-0.4,0.3-0.5l2.1-1.3
			c0.3-0.2,0.7-0.1,0.8,0.2c0.2,0.3,0.1,0.7-0.2,0.8l-2.1,1.3C176,98.2,175.9,98.2,175.8,98.3L175.8,98.3z M179.9,95.7
			c-0.3,0-0.6-0.3-0.6-0.6c0-0.2,0.1-0.4,0.3-0.5l2.1-1.3c0.3-0.2,0.7-0.1,0.8,0.2c0.2,0.3,0.1,0.7-0.2,0.8l-2.1,1.3
			C180.2,95.7,180,95.7,179.9,95.7L179.9,95.7z M184.1,93.2c-0.3,0-0.6-0.3-0.6-0.6c0-0.2,0.1-0.4,0.3-0.5l2.1-1.3
			c0.3-0.2,0.7-0.1,0.8,0.2c0.2,0.3,0.1,0.7-0.2,0.8l0,0l-2.1,1.3C184.3,93.2,184.2,93.2,184.1,93.2L184.1,93.2z M188.3,90.7
			c-0.3,0-0.6-0.3-0.6-0.6c0-0.2,0.1-0.4,0.3-0.5l2.1-1.3c0.3-0.2,0.7-0.1,0.8,0.2c0.2,0.3,0.1,0.7-0.2,0.8l-2.1,1.3
			C188.5,90.6,188.4,90.7,188.3,90.7L188.3,90.7z M192.5,88.1c-0.3,0-0.6-0.3-0.6-0.6c0-0.2,0.1-0.4,0.3-0.5l2.1-1.3
			c0.3-0.2,0.7-0.1,0.8,0.2c0.2,0.3,0.1,0.7-0.2,0.8l0,0l-2.1,1.3C192.7,88.1,192.6,88.1,192.5,88.1L192.5,88.1z M196.6,85.6
			c-0.3,0-0.6-0.3-0.6-0.6c0-0.2,0.1-0.4,0.3-0.5l2.1-1.3c0.3-0.2,0.7-0.1,0.8,0.2c0.2,0.3,0.1,0.7-0.2,0.8l-2.1,1.3
			C196.9,85.6,196.7,85.6,196.6,85.6L196.6,85.6z M200.8,83.1c-0.3,0-0.6-0.3-0.6-0.6c0-0.2,0.1-0.4,0.3-0.5l0.4-0.2v-1.3
			c0-0.3,0.3-0.6,0.6-0.6s0.6,0.3,0.6,0.6V82c0,0.2-0.1,0.4-0.3,0.5l-0.7,0.4C201,83,200.9,83.1,200.8,83.1L200.8,83.1z M201.5,78.6
			c-0.3,0-0.6-0.3-0.6-0.6c0,0,0,0,0,0v-2.4c0-0.3,0.3-0.6,0.6-0.6s0.6,0.3,0.6,0.6V78C202.1,78.3,201.8,78.6,201.5,78.6L201.5,78.6
			z M201.5,73.7c-0.3,0-0.6-0.3-0.6-0.6v-2.4c0-0.3,0.3-0.6,0.6-0.6s0.6,0.3,0.6,0.6v2.4C202.1,73.4,201.8,73.7,201.5,73.7
			L201.5,73.7z M201.5,68.8c-0.3,0-0.6-0.3-0.6-0.6v-2.4c0-0.3,0.3-0.6,0.6-0.6s0.6,0.3,0.6,0.6v2.4
			C202.1,68.6,201.8,68.8,201.5,68.8L201.5,68.8z M201.5,64c-0.3,0-0.6-0.3-0.6-0.6c0,0,0,0,0,0v-2.4c0-0.3,0.3-0.6,0.6-0.6
			s0.6,0.3,0.6,0.6v2.4C202.1,63.7,201.8,63.9,201.5,64L201.5,64z M201.5,59.1c-0.3,0-0.6-0.3-0.6-0.6V56c0-0.3,0.3-0.6,0.6-0.6
			s0.6,0.3,0.6,0.6v2.4C202.1,58.8,201.8,59,201.5,59.1L201.5,59.1z M201.5,54.2c-0.3,0-0.6-0.3-0.6-0.6c0,0,0,0,0,0v-2.4
			c0-0.3,0.3-0.6,0.6-0.6s0.6,0.3,0.6,0.6v2.4C202.1,53.9,201.8,54.2,201.5,54.2L201.5,54.2z M201.5,49.3c-0.3,0-0.6-0.3-0.6-0.6
			c0,0,0,0,0,0v-2.4c0-0.3,0.3-0.6,0.6-0.6s0.6,0.3,0.6,0.6v2.4C202.1,49,201.8,49.3,201.5,49.3L201.5,49.3z"/>
		
			<radialGradient id="Path_1386_1_" cx="-165.6918" cy="402.4614" r="0.3379" gradientTransform="matrix(128.699 0 0 -128.5985 21473.2012 51807.6172)" gradientUnits="userSpaceOnUse">
			<stop  offset="0" style="stop-color:#DC3DAA"/>
			<stop  offset="9.099999e-02" style="stop-color:#C23596"/>
			<stop  offset="0.333" style="stop-color:#822465"/>
			<stop  offset="0.553" style="stop-color:#50163E"/>
			<stop  offset="0.745" style="stop-color:#2C0C22"/>
			<stop  offset="0.9" style="stop-color:#160611"/>
			<stop  offset="1" style="stop-color:#0E040B"/>
		</radialGradient>
		<path id="Path_1386" class="st95" d="M148.8,96.5c-0.3,0-0.6-0.3-0.6-0.6v-0.6c0-0.3,0.3-0.6,0.6-0.6c0.3,0,0.6,0.3,0.6,0.6v0.6
			C149.4,96.2,149.2,96.5,148.8,96.5C148.8,96.5,148.8,96.5,148.8,96.5z M148.8,93.4c-0.3,0-0.6-0.3-0.6-0.6v-2.4
			c0-0.3,0.3-0.6,0.6-0.6c0.3,0,0.6,0.3,0.6,0.6v2.4C149.4,93.2,149.2,93.4,148.8,93.4C148.8,93.4,148.8,93.4,148.8,93.4L148.8,93.4
			z M148.8,88.5c-0.3,0-0.6-0.3-0.6-0.6v-2.4c0-0.3,0.3-0.6,0.6-0.6c0.3,0,0.6,0.3,0.6,0.6v2.4C149.4,88.3,149.2,88.5,148.8,88.5
			L148.8,88.5z M148.8,83.7c-0.3,0-0.6-0.3-0.6-0.6v-2.4c0-0.3,0.3-0.6,0.6-0.6c0.3,0,0.6,0.3,0.6,0.6v2.4
			C149.4,83.4,149.2,83.7,148.8,83.7L148.8,83.7z M148.8,78.8c-0.3,0-0.6-0.3-0.6-0.6v-2.4c0-0.3,0.3-0.6,0.6-0.6
			c0.3,0,0.6,0.3,0.6,0.6v2.4C149.4,78.5,149.2,78.8,148.8,78.8L148.8,78.8z M148.8,73.9c-0.3,0-0.6-0.3-0.6-0.6v-2.4
			c0-0.3,0.3-0.6,0.6-0.6c0.3,0,0.6,0.3,0.6,0.6v2.4C149.4,73.6,149.2,73.9,148.8,73.9L148.8,73.9z M148.8,69
			c-0.3,0-0.6-0.3-0.6-0.6V66c0-0.3,0.3-0.6,0.6-0.6c0.3,0,0.6,0.3,0.6,0.6v2.4C149.4,68.8,149.2,69,148.8,69L148.8,69z M148.8,64.2
			c-0.3,0-0.6-0.3-0.6-0.6v-2.4c0-0.3,0.3-0.6,0.6-0.6c0.3,0,0.6,0.3,0.6,0.6v2.4C149.4,63.9,149.2,64.1,148.8,64.2L148.8,64.2z
			 M148.8,59.3c-0.3,0-0.6-0.3-0.6-0.6v-2.4c0-0.3,0.3-0.6,0.6-0.6c0.3,0,0.6,0.3,0.6,0.6v2.4C149.4,59,149.2,59.3,148.8,59.3
			L148.8,59.3z M148.8,54.4c-0.3,0-0.6-0.3-0.6-0.6v-2.4c0-0.3,0.3-0.6,0.6-0.6c0.3,0,0.6,0.3,0.6,0.6v2.4
			C149.4,54.1,149.2,54.4,148.8,54.4L148.8,54.4z M148.8,49.5c-0.3,0-0.6-0.3-0.6-0.6v-2.4c0-0.3,0.3-0.6,0.6-0.6
			c0.3,0,0.6,0.3,0.6,0.6v2.4C149.4,49.3,149.2,49.5,148.8,49.5L148.8,49.5z M148.8,44.7c-0.3,0-0.6-0.3-0.6-0.6v-2.4
			c0-0.3,0.3-0.6,0.6-0.6c0.3,0,0.6,0.3,0.6,0.6V44C149.4,44.4,149.2,44.6,148.8,44.7L148.8,44.7z M148.8,39.8
			c-0.3,0-0.6-0.3-0.6-0.6v-2.4c0-0.3,0.3-0.6,0.6-0.6c0.3,0,0.6,0.3,0.6,0.6v2.4C149.4,39.5,149.2,39.7,148.8,39.8L148.8,39.8z
			 M148.8,34.9c-0.3,0-0.6-0.3-0.6-0.6v-2.4c0-0.3,0.3-0.6,0.6-0.6c0.3,0,0.6,0.3,0.6,0.6v2.4C149.4,34.6,149.2,34.9,148.8,34.9
			L148.8,34.9z M148.8,30c-0.3,0-0.6-0.3-0.6-0.6V27c0-0.3,0.3-0.6,0.6-0.6c0.3,0,0.6,0.3,0.6,0.6v2.4C149.4,29.7,149.2,30,148.8,30
			L148.8,30z M148.8,25.1c-0.3,0-0.6-0.3-0.6-0.6v-2.4c0-0.3,0.3-0.6,0.6-0.6c0.3,0,0.6,0.3,0.6,0.6v2.4
			C149.4,24.9,149.1,25.1,148.8,25.1L148.8,25.1z M148.8,20.3c-0.3,0-0.6-0.3-0.6-0.6v-2.4c0-0.3,0.3-0.6,0.6-0.6
			c0.3,0,0.6,0.3,0.6,0.6v2.4C149.4,20,149.1,20.2,148.8,20.3L148.8,20.3z M148.8,15.4c-0.3,0-0.6-0.3-0.6-0.6v-2.4
			c0-0.3,0.3-0.6,0.6-0.6c0.3,0,0.6,0.3,0.6,0.6v2.4C149.4,15.1,149.1,15.4,148.8,15.4L148.8,15.4z M148.8,10.5
			c-0.3,0-0.6-0.3-0.6-0.6V7.5c0-0.3,0.3-0.6,0.6-0.6c0.3,0,0.6,0.3,0.6,0.6v2.4C149.4,10.2,149.1,10.5,148.8,10.5L148.8,10.5z"/>
		
			<radialGradient id="Path_1387_1_" cx="-169.2277" cy="402.5514" r="0.37" gradientTransform="matrix(152.3376 0 0 -152.2215 25213.334 61347.2852)" gradientUnits="userSpaceOnUse">
			<stop  offset="0" style="stop-color:#DC3DAA"/>
			<stop  offset="9.099999e-02" style="stop-color:#C23596"/>
			<stop  offset="0.333" style="stop-color:#822465"/>
			<stop  offset="0.553" style="stop-color:#50163E"/>
			<stop  offset="0.745" style="stop-color:#2C0C22"/>
			<stop  offset="0.9" style="stop-color:#160611"/>
			<stop  offset="1" style="stop-color:#0E040B"/>
		</radialGradient>
		<path id="Path_1387" class="st96" d="M35,110.7c-0.3,0-0.6-0.3-0.6-0.6v-2.4c0-0.3,0.3-0.6,0.6-0.6c0.3,0,0.6,0.3,0.6,0.6v2.4
			C35.6,110.4,35.3,110.7,35,110.7z M35,105.8c-0.3,0-0.6-0.3-0.6-0.6v0v-2.4c0-0.3,0.3-0.6,0.6-0.6c0.3,0,0.6,0.3,0.6,0.6v2.4
			C35.6,105.6,35.3,105.8,35,105.8C35,105.8,35,105.8,35,105.8z M35,101c-0.3,0-0.6-0.3-0.6-0.6v-2.4c0-0.3,0.3-0.6,0.6-0.6
			c0.3,0,0.6,0.3,0.6,0.6v2.4C35.6,100.7,35.3,101,35,101z M35,96.1c-0.3,0-0.6-0.3-0.6-0.6V93c0-0.3,0.3-0.6,0.6-0.6
			c0.3,0,0.6,0.3,0.6,0.6v2.4C35.6,95.8,35.3,96.1,35,96.1L35,96.1z M35,91.2c-0.3,0-0.6-0.3-0.6-0.6v0v-2.4c0-0.3,0.3-0.6,0.6-0.6
			c0.3,0,0.6,0.3,0.6,0.6v2.4C35.6,90.9,35.3,91.2,35,91.2L35,91.2z M35,86.3c-0.3,0-0.6-0.3-0.6-0.6v-2.4c0-0.3,0.3-0.6,0.6-0.6
			c0.3,0,0.6,0.3,0.6,0.6v2.4C35.6,86,35.3,86.3,35,86.3L35,86.3z M35,81.4c-0.3,0-0.6-0.3-0.6-0.6v0v-2.4c0-0.3,0.3-0.6,0.6-0.6
			c0.3,0,0.6,0.3,0.6,0.6v2.4C35.6,81.2,35.3,81.4,35,81.4L35,81.4z M35,76.6c-0.3,0-0.6-0.3-0.6-0.6v-2.4c0-0.3,0.3-0.6,0.6-0.6
			c0.3,0,0.6,0.3,0.6,0.6V76C35.6,76.3,35.3,76.5,35,76.6L35,76.6z M35,71.7c-0.3,0-0.6-0.3-0.6-0.6v-2.4c0-0.3,0.3-0.6,0.6-0.6
			c0.3,0,0.6,0.3,0.6,0.6v2.4C35.6,71.4,35.3,71.7,35,71.7L35,71.7z M35,66.8c-0.3,0-0.6-0.3-0.6-0.6v0v-2.4c0-0.3,0.3-0.6,0.6-0.6
			c0.3,0,0.6,0.3,0.6,0.6v2.4C35.6,66.5,35.3,66.8,35,66.8L35,66.8z M35,61.9c-0.3,0-0.6-0.3-0.6-0.6v-2.4c0-0.3,0.3-0.6,0.6-0.6
			c0.3,0,0.6,0.3,0.6,0.6v2.4C35.6,61.7,35.3,61.9,35,61.9L35,61.9z M35,57.1c-0.3,0-0.6-0.3-0.6-0.6v0V54c0-0.3,0.3-0.6,0.6-0.6
			c0.3,0,0.6,0.3,0.6,0.6v2.4C35.6,56.8,35.3,57,35,57.1L35,57.1z M35,52.2c-0.3,0-0.6-0.3-0.6-0.6v-2.4c0-0.3,0.3-0.6,0.6-0.6
			c0.3,0,0.6,0.3,0.6,0.6v2.4C35.6,51.9,35.3,52.2,35,52.2L35,52.2z M35,47.3c-0.3,0-0.6-0.3-0.6-0.6v-2.4c0-0.3,0.3-0.6,0.6-0.6
			c0.3,0,0.6,0.3,0.6,0.6v2.4C35.6,47,35.3,47.3,35,47.3L35,47.3z M35,42.4c-0.3,0-0.6-0.3-0.6-0.6v0v-2.4c0-0.3,0.3-0.6,0.6-0.6
			c0.3,0,0.6,0.3,0.6,0.6v2.4C35.6,42.1,35.3,42.4,35,42.4L35,42.4z M35,37.5c-0.3,0-0.6-0.3-0.6-0.6v-2.4c0-0.3,0.3-0.6,0.6-0.6
			c0.3,0,0.6,0.3,0.6,0.6v2.4C35.6,37.3,35.3,37.5,35,37.5L35,37.5z M35,32.7c-0.3,0-0.6-0.3-0.6-0.6v0v-2.4c0-0.3,0.3-0.6,0.6-0.6
			c0.3,0,0.6,0.3,0.6,0.6v2.4C35.6,32.4,35.3,32.6,35,32.7L35,32.7z M35,27.8c-0.3,0-0.6-0.3-0.6-0.6v-2.4c0-0.3,0.3-0.6,0.6-0.6
			c0.3,0,0.6,0.3,0.6,0.6v2.4C35.5,27.5,35.3,27.8,35,27.8L35,27.8z M35,22.9c-0.3,0-0.6-0.3-0.6-0.6v-2.4c0-0.3,0.3-0.6,0.6-0.6
			c0.3,0,0.6,0.3,0.6,0.6v2.4C35.5,22.6,35.3,22.9,35,22.9L35,22.9z M35,18c-0.3,0-0.6-0.3-0.6-0.6V15c0-0.3,0.3-0.6,0.6-0.6
			c0.3,0,0.6,0.3,0.6,0.6v2.4C35.5,17.7,35.3,18,35,18L35,18z M35,13.2c-0.3,0-0.6-0.3-0.6-0.6v-2.4c0-0.3,0.3-0.6,0.6-0.6
			c0.3,0,0.6,0.3,0.6,0.6v2.4C35.5,12.9,35.3,13.1,35,13.2L35,13.2z M35,8.3c-0.3,0-0.6-0.3-0.6-0.6V5.2c0-0.3,0.3-0.6,0.6-0.6
			c0.3,0,0.6,0.3,0.6,0.6v2.4C35.5,8,35.3,8.2,35,8.3L35,8.3z"/>
		
			<radialGradient id="Path_1388_1_" cx="-165.1353" cy="402.8514" r="0.4159" gradientTransform="matrix(183.2225 0 0 -183.1765 30252.6172 73932.5234)" gradientUnits="userSpaceOnUse">
			<stop  offset="0" style="stop-color:#DC3DAA"/>
			<stop  offset="9.099999e-02" style="stop-color:#C23596"/>
			<stop  offset="0.333" style="stop-color:#822465"/>
			<stop  offset="0.553" style="stop-color:#50163E"/>
			<stop  offset="0.745" style="stop-color:#2C0C22"/>
			<stop  offset="0.9" style="stop-color:#160611"/>
			<stop  offset="1" style="stop-color:#0E040B"/>
		</radialGradient>
		<path id="Path_1388" class="st97" d="M27.6,188.4c-0.3,0-0.6-0.3-0.6-0.6v-2.4c0-0.3,0.3-0.6,0.6-0.6c0.3,0,0.6,0.3,0.6,0.6
			c0,0,0,0,0,0v2.4C28.3,188.1,28,188.4,27.6,188.4C27.6,188.4,27.6,188.4,27.6,188.4z M27.6,183.5c-0.3,0-0.6-0.3-0.6-0.6v-2.4
			c0-0.3,0.3-0.6,0.6-0.6c0.3,0,0.6,0.3,0.6,0.6c0,0,0,0,0,0v2.4C28.3,183.2,28,183.5,27.6,183.5L27.6,183.5z M27.6,178.6
			c-0.3,0-0.6-0.3-0.6-0.6v-2.4c0-0.3,0.3-0.6,0.6-0.6c0.3,0,0.6,0.3,0.6,0.6c0,0,0,0,0,0v2.4C28.3,178.4,28,178.6,27.6,178.6
			L27.6,178.6z M27.6,173.7c-0.3,0-0.6-0.3-0.6-0.6v-2.4c0-0.3,0.3-0.6,0.6-0.6c0.3,0,0.6,0.3,0.6,0.6v2.4
			C28.3,173.5,28,173.7,27.6,173.7L27.6,173.7z M27.6,168.9c-0.3,0-0.6-0.3-0.6-0.6v-2.4c0-0.3,0.3-0.6,0.6-0.6
			c0.3,0,0.6,0.3,0.6,0.6v2.4C28.2,168.6,28,168.9,27.6,168.9L27.6,168.9z M27.6,164c-0.3,0-0.6-0.3-0.6-0.6v-2.4
			c0-0.3,0.3-0.6,0.6-0.6c0.3,0,0.6,0.3,0.6,0.6v2.4C28.2,163.7,28,164,27.6,164L27.6,164z M27.6,159.1c-0.3,0-0.6-0.3-0.6-0.6v-2.4
			c0-0.3,0.3-0.6,0.6-0.6c0.3,0,0.6,0.3,0.6,0.6v2.4C28.2,158.8,28,159.1,27.6,159.1L27.6,159.1z M27.6,154.2
			c-0.3,0-0.6-0.3-0.6-0.6v-2.4c0-0.3,0.3-0.6,0.6-0.6c0.3,0,0.6,0.3,0.6,0.6c0,0,0,0,0,0v2.4C28.2,154,28,154.2,27.6,154.2
			L27.6,154.2z M27.6,149.4c-0.3,0-0.6-0.3-0.6-0.6v-2.4c0-0.3,0.3-0.6,0.6-0.6c0.3,0,0.6,0.3,0.6,0.6c0,0,0,0,0,0v2.4
			C28.2,149.1,28,149.3,27.6,149.4L27.6,149.4z M27.6,144.5c-0.3,0-0.6-0.3-0.6-0.6v-2.4c0-0.3,0.3-0.6,0.6-0.6
			c0.3,0,0.6,0.3,0.6,0.6v2.4C28.2,144.2,28,144.5,27.6,144.5L27.6,144.5z M27.6,139.6c-0.3,0-0.6-0.3-0.6-0.6v-2.4
			c0-0.3,0.3-0.6,0.6-0.6c0.3,0,0.6,0.3,0.6,0.6v2.4C28.2,139.3,28,139.6,27.6,139.6L27.6,139.6z M27.6,134.7
			c-0.3,0-0.6-0.3-0.6-0.6v-2.4c0-0.3,0.3-0.6,0.6-0.6c0.3,0,0.6,0.3,0.6,0.6v2.4C28.2,134.4,28,134.7,27.6,134.7L27.6,134.7z
			 M26,130.8c-0.1,0-0.2,0-0.3-0.1l-2.1-1.2c-0.3-0.2-0.4-0.5-0.2-0.8c0.2-0.3,0.5-0.4,0.8-0.2c0,0,0,0,0,0l2.1,1.2
			c0.3,0.2,0.4,0.5,0.2,0.8C26.4,130.7,26.2,130.8,26,130.8L26,130.8z M21.7,128.4c-0.1,0-0.2,0-0.3-0.1l-2.1-1.2
			c-0.3-0.2-0.4-0.5-0.2-0.8c0.2-0.3,0.5-0.4,0.8-0.2c0,0,0,0,0,0l2.1,1.2c0.3,0.2,0.4,0.5,0.2,0.8
			C22.1,128.3,21.9,128.4,21.7,128.4L21.7,128.4z M17.5,126c-0.1,0-0.2,0-0.3-0.1l-2.1-1.2c-0.3-0.2-0.4-0.5-0.2-0.8
			c0.2-0.3,0.5-0.4,0.8-0.2l2.1,1.2c0.3,0.2,0.4,0.5,0.2,0.8C17.9,125.9,17.7,126,17.5,126L17.5,126z M13.2,123.6
			c-0.1,0-0.2,0-0.3-0.1l-2.1-1.2c-0.3-0.2-0.4-0.5-0.2-0.8c0.2-0.3,0.5-0.4,0.8-0.2c0,0,0,0,0,0l2.1,1.2c0.3,0.2,0.4,0.5,0.2,0.8
			C13.6,123.5,13.4,123.6,13.2,123.6L13.2,123.6z M9,121.2c-0.1,0-0.2,0-0.3-0.1L6.5,120c-0.3-0.2-0.4-0.5-0.2-0.8
			c0.2-0.3,0.5-0.4,0.8-0.2l2.1,1.2c0.3,0.2,0.4,0.5,0.2,0.8C9.4,121.1,9.2,121.2,9,121.2z M4.7,118.9c-0.1,0-0.2,0-0.3-0.1
			l-2.1-1.2c-0.3-0.2-0.4-0.5-0.2-0.8c0.2-0.3,0.5-0.4,0.8-0.2l2.1,1.2c0.3,0.2,0.4,0.5,0.2,0.8C5.1,118.7,4.9,118.9,4.7,118.9
			L4.7,118.9z M0.5,116.5c-0.1,0-0.2,0-0.3-0.1l-2.1-1.2c-0.3-0.2-0.4-0.5-0.2-0.8c0.2-0.3,0.5-0.4,0.8-0.2c0,0,0,0,0,0l2.1,1.2
			c0.3,0.2,0.4,0.5,0.2,0.8C0.9,116.3,0.7,116.5,0.5,116.5L0.5,116.5z M-3.8,114.1c-0.1,0-0.2,0-0.3-0.1l-2.1-1.2
			c-0.3-0.2-0.4-0.5-0.2-0.8c0.2-0.3,0.5-0.4,0.8-0.2l2.1,1.2c0.3,0.2,0.4,0.5,0.2,0.8C-3.4,113.9-3.6,114.1-3.8,114.1L-3.8,114.1z
			 M-8,111.7c-0.1,0-0.2,0-0.3-0.1l-2.1-1.2c-0.3-0.2-0.4-0.5-0.2-0.8c0.2-0.3,0.5-0.4,0.8-0.2l2.1,1.2c0.3,0.2,0.4,0.5,0.2,0.8
			C-7.6,111.5-7.8,111.7-8,111.7L-8,111.7z M-12.3,109.3c-0.1,0-0.2,0-0.3-0.1l-2.1-1.2c-0.3-0.2-0.4-0.5-0.2-0.8
			c0.2-0.3,0.5-0.4,0.8-0.2c0,0,0,0,0,0l2.1,1.2c0.3,0.2,0.4,0.5,0.2,0.8C-11.9,109.1-12.1,109.3-12.3,109.3L-12.3,109.3z
			 M-16.5,106.9c-0.1,0-0.2,0-0.3-0.1l-2.1-1.2c-0.3-0.2-0.4-0.5-0.2-0.8c0.2-0.3,0.5-0.4,0.8-0.2l2.1,1.2c0.3,0.2,0.4,0.5,0.2,0.8
			C-16.1,106.8-16.3,106.9-16.5,106.9L-16.5,106.9z M-20.8,104.5c-0.1,0-0.2,0-0.3-0.1l-2.1-1.2c-0.3-0.2-0.4-0.5-0.2-0.8
			c0.2-0.3,0.5-0.4,0.8-0.2c0,0,0,0,0,0l2.1,1.2c0.3,0.2,0.4,0.5,0.2,0.8C-20.4,104.4-20.6,104.5-20.8,104.5L-20.8,104.5z
			 M-25,102.1c-0.1,0-0.2,0-0.3-0.1l-2.1-1.2c-0.3-0.2-0.4-0.5-0.2-0.8c0.2-0.3,0.5-0.4,0.8-0.2l2.1,1.2c0.3,0.2,0.4,0.5,0.2,0.8
			C-24.6,102-24.8,102.1-25,102.1z M-29.3,99.7c-0.1,0-0.2,0-0.3-0.1l-2.1-1.2c-0.3-0.2-0.4-0.5-0.2-0.8c0.2-0.3,0.5-0.4,0.8-0.2
			l2.1,1.2c0.3,0.2,0.4,0.5,0.2,0.8C-28.9,99.6-29.1,99.7-29.3,99.7L-29.3,99.7z M-33.5,97.3c-0.1,0-0.2,0-0.3-0.1L-36,96
			c-0.3-0.2-0.4-0.5-0.2-0.8c0.2-0.3,0.5-0.4,0.8-0.2c0,0,0,0,0,0l2.1,1.2c0.3,0.2,0.4,0.5,0.2,0.8C-33.1,97.2-33.3,97.3-33.5,97.3
			L-33.5,97.3z M-37.8,94.9c-0.1,0-0.2,0-0.3-0.1l-2.1-1.2c-0.3-0.2-0.4-0.5-0.2-0.8c0.2-0.3,0.5-0.4,0.8-0.2l2.1,1.2
			c0.3,0.2,0.4,0.5,0.2,0.8C-37.4,94.8-37.6,94.9-37.8,94.9L-37.8,94.9z M-42,92.5c-0.1,0-0.2,0-0.3-0.1l-0.5-0.3
			c-0.2-0.1-0.3-0.3-0.3-0.5v-2c0-0.3,0.3-0.6,0.6-0.6c0.3,0,0.6,0.3,0.6,0.6c0,0,0,0,0,0v1.6l0.1,0.1c0.3,0.2,0.4,0.5,0.2,0.8
			C-41.6,92.3-41.8,92.5-42,92.5L-42,92.5z M-42.5,87.9c-0.3,0-0.6-0.3-0.6-0.6v0v-2.4c0-0.3,0.3-0.6,0.6-0.6c0.3,0,0.6,0.3,0.6,0.6
			v2.4C-41.9,87.6-42.2,87.9-42.5,87.9L-42.5,87.9z M-42.5,83c-0.3,0-0.6-0.3-0.6-0.6v0v-2.4c0-0.3,0.3-0.6,0.6-0.6
			c0.3,0,0.6,0.3,0.6,0.6v2.4C-41.9,82.7-42.2,83-42.5,83L-42.5,83z M-42.5,78.1c-0.3,0-0.6-0.3-0.6-0.6v0v-2.4
			c0-0.3,0.3-0.6,0.6-0.6c0.3,0,0.6,0.3,0.6,0.6v2.4C-41.9,77.8-42.2,78.1-42.5,78.1L-42.5,78.1z M-42.5,73.2
			c-0.3,0-0.6-0.3-0.6-0.6v0v-2.4c0-0.3,0.3-0.6,0.6-0.6c0.3,0,0.6,0.3,0.6,0.6c0,0,0,0,0,0v2.4C-41.9,73-42.2,73.2-42.5,73.2
			L-42.5,73.2z M-42.5,68.4c-0.3,0-0.6-0.3-0.6-0.6v-2.4c0-0.3,0.3-0.6,0.6-0.6c0.3,0,0.6,0.3,0.6,0.6c0,0,0,0,0,0v2.4
			C-41.9,68.1-42.2,68.3-42.5,68.4L-42.5,68.4z M-42.5,63.5c-0.3,0-0.6-0.3-0.6-0.6v-1.5c0-0.3,0.3-0.6,0.6-0.6
			c0.3,0,0.6,0.3,0.6,0.6v1.5C-41.9,63.2-42.2,63.5-42.5,63.5L-42.5,63.5z"/>
		
			<radialGradient id="Path_1389_1_" cx="-167.4408" cy="401.0948" r="0.486" gradientTransform="matrix(46.0605 0 0 -46.0423 7940.5874 18564.8125)" gradientUnits="userSpaceOnUse">
			<stop  offset="0" style="stop-color:#DC3DAA"/>
			<stop  offset="9.099999e-02" style="stop-color:#C23596"/>
			<stop  offset="0.333" style="stop-color:#822465"/>
			<stop  offset="0.553" style="stop-color:#50163E"/>
			<stop  offset="0.745" style="stop-color:#2C0C22"/>
			<stop  offset="0.9" style="stop-color:#160611"/>
			<stop  offset="1" style="stop-color:#0E040B"/>
		</radialGradient>
		<path id="Path_1389" class="st98" d="M254.1,113.5c-0.1,0-0.2,0-0.3-0.1l-2.1-1.2c-0.3-0.2-0.4-0.5-0.2-0.8
			c0.2-0.3,0.5-0.4,0.8-0.2l0,0l2.1,1.2c0.3,0.2,0.4,0.5,0.2,0.8C254.5,113.4,254.3,113.5,254.1,113.5L254.1,113.5z M254.9,112.4
			c-0.3,0-0.6-0.3-0.6-0.6v-2.4c0-0.3,0.3-0.6,0.6-0.6c0.3,0,0.6,0.3,0.6,0.6v2.4C255.5,112.1,255.2,112.4,254.9,112.4
			C254.9,112.4,254.9,112.4,254.9,112.4z M249.9,111c-0.1,0-0.2,0-0.3-0.1l-2.1-1.2c-0.3-0.2-0.4-0.6-0.2-0.8
			c0.2-0.3,0.5-0.4,0.8-0.2l2.1,1.2c0.3,0.2,0.4,0.5,0.2,0.8C250.3,110.9,250.1,111,249.9,111z M245.7,108.6c-0.1,0-0.2,0-0.3-0.1
			l-2.1-1.2c-0.3-0.2-0.4-0.5-0.2-0.8c0.2-0.3,0.5-0.4,0.8-0.2c0,0,0,0,0,0l2.1,1.2c0.3,0.2,0.4,0.5,0.2,0.8
			C246.1,108.5,245.9,108.6,245.7,108.6z M254.9,107.5c-0.3,0-0.6-0.3-0.6-0.6v-2.4c0-0.3,0.3-0.6,0.6-0.6c0.3,0,0.6,0.3,0.6,0.6
			c0,0,0,0,0,0v2.4C255.5,107.3,255.2,107.5,254.9,107.5C254.9,107.5,254.9,107.5,254.9,107.5L254.9,107.5z M241.5,106.1
			c-0.1,0-0.2,0-0.3-0.1l-2.1-1.2c-0.3-0.2-0.4-0.5-0.2-0.8c0.2-0.3,0.5-0.4,0.8-0.2c0,0,0,0,0,0l2.1,1.2c0.3,0.2,0.4,0.5,0.2,0.8
			C241.9,106,241.7,106.1,241.5,106.1z M237.3,103.6c-0.1,0-0.2,0-0.3-0.1l-2.1-1.2c-0.3-0.2-0.4-0.5-0.2-0.8
			c0.2-0.3,0.5-0.4,0.8-0.2c0,0,0,0,0,0l2.1,1.2c0.3,0.2,0.4,0.5,0.2,0.8C237.7,103.5,237.5,103.6,237.3,103.6z M254.9,102.6
			c-0.3,0-0.6-0.3-0.6-0.6v-1.5c0-0.3,0.3-0.6,0.6-0.6c0.3,0,0.6,0.3,0.6,0.6c0,0,0,0,0,0v1.5C255.5,102.4,255.2,102.6,254.9,102.6
			C254.9,102.6,254.9,102.6,254.9,102.6L254.9,102.6z M233.1,101.2c-0.1,0-0.2,0-0.3-0.1l-2.1-1.2c-0.3-0.2-0.4-0.5-0.2-0.8
			c0.2-0.3,0.5-0.4,0.8-0.2l2.1,1.2c0.3,0.2,0.4,0.5,0.2,0.8C233.5,101.1,233.3,101.2,233.1,101.2L233.1,101.2z M228.8,98.7
			c-0.1,0-0.2,0-0.3-0.1l-2.1-1.2c-0.3-0.2-0.4-0.6-0.2-0.8c0.2-0.3,0.5-0.4,0.8-0.2l2.1,1.2c0.3,0.2,0.4,0.5,0.2,0.8
			C229.3,98.6,229.1,98.7,228.8,98.7z M224.6,96.2c-0.1,0-0.2,0-0.3-0.1l-2.1-1.2c-0.3-0.2-0.4-0.5-0.2-0.8c0.2-0.3,0.5-0.4,0.8-0.2
			l2.1,1.2c0.3,0.2,0.4,0.5,0.2,0.8C225.1,96.1,224.9,96.2,224.6,96.2L224.6,96.2z M220.4,93.8c-0.1,0-0.2,0-0.3-0.1l-2.1-1.2
			c-0.3-0.2-0.4-0.5-0.2-0.8c0.2-0.3,0.5-0.4,0.8-0.2c0,0,0,0,0,0l2.1,1.2c0.3,0.2,0.4,0.5,0.2,0.8
			C220.8,93.6,220.6,93.8,220.4,93.8z M216.2,91.3c-0.1,0-0.2,0-0.3-0.1l-2.1-1.2c-0.3-0.2-0.4-0.5-0.2-0.8c0.2-0.3,0.5-0.4,0.8-0.2
			c0,0,0,0,0,0l2.1,1.2c0.3,0.2,0.4,0.5,0.2,0.8C216.6,91.2,216.4,91.3,216.2,91.3z M212,88.8c-0.1,0-0.2,0-0.3-0.1l-2.1-1.2
			c-0.3-0.2-0.4-0.5-0.2-0.8s0.5-0.4,0.8-0.2l2.1,1.2c0.3,0.2,0.4,0.5,0.2,0.8C212.4,88.7,212.2,88.8,212,88.8z M207.8,86.4
			c-0.1,0-0.2,0-0.3-0.1l-2.1-1.2c-0.3-0.2-0.4-0.6-0.2-0.8c0.2-0.3,0.5-0.4,0.8-0.2l2.1,1.2c0.3,0.2,0.4,0.5,0.2,0.8
			C208.2,86.2,208,86.4,207.8,86.4z M203.6,83.9c-0.1,0-0.2,0-0.3-0.1l-2.1-1.2c-0.3-0.2-0.4-0.6-0.2-0.8c0.2-0.3,0.5-0.4,0.8-0.2
			l2.1,1.2c0.3,0.2,0.4,0.5,0.2,0.8C204,83.8,203.8,83.9,203.6,83.9z"/>
		
			<radialGradient id="Path_1390_1_" cx="-167.8667" cy="396.632" r="1.1141" gradientTransform="matrix(22.3461 0 0 -22.3195 3876.5676 8878.6006)" gradientUnits="userSpaceOnUse">
			<stop  offset="0" style="stop-color:#DC3DAA"/>
			<stop  offset="9.099999e-02" style="stop-color:#C23596"/>
			<stop  offset="0.333" style="stop-color:#822465"/>
			<stop  offset="0.553" style="stop-color:#50163E"/>
			<stop  offset="0.745" style="stop-color:#2C0C22"/>
			<stop  offset="0.9" style="stop-color:#160611"/>
			<stop  offset="1" style="stop-color:#0E040B"/>
		</radialGradient>
		<path id="Path_1390" class="st99" d="M146.3,25.2c-0.1,0-0.1,0-0.2,0l-0.8-0.3c-0.3-0.1-0.5-0.5-0.4-0.8c0.1-0.3,0.5-0.5,0.8-0.4
			l0.8,0.3c0.3,0.1,0.5,0.5,0.4,0.8C146.8,25,146.5,25.2,146.3,25.2L146.3,25.2z M143.2,24.2c-0.1,0-0.1,0-0.2,0l-2.3-0.8
			c-0.3-0.1-0.5-0.5-0.4-0.8c0,0,0,0,0,0c0.1-0.3,0.5-0.5,0.8-0.4l2.3,0.8c0.3,0.1,0.5,0.5,0.4,0.8C143.7,24,143.4,24.2,143.2,24.2
			L143.2,24.2z M138.6,22.6c-0.1,0-0.1,0-0.2,0l-2.3-0.8c-0.3-0.1-0.5-0.5-0.4-0.8c0.1-0.3,0.5-0.5,0.8-0.4l2.3,0.8
			c0.3,0.1,0.5,0.5,0.4,0.8C139,22.4,138.8,22.6,138.6,22.6L138.6,22.6z M133.9,21c-0.1,0-0.1,0-0.2,0l-2.3-0.8
			c-0.3-0.1-0.5-0.5-0.4-0.8c0.1-0.3,0.5-0.5,0.8-0.4l2.3,0.8c0.3,0.1,0.5,0.5,0.4,0.8C134.4,20.9,134.2,21,133.9,21L133.9,21z
			 M129.3,19.5c-0.1,0-0.1,0-0.2,0l-2.3-0.8c-0.3-0.1-0.5-0.5-0.4-0.8c0.1-0.3,0.5-0.5,0.8-0.4l2.3,0.8c0.3,0.1,0.5,0.5,0.4,0.8
			C129.8,19.3,129.6,19.5,129.3,19.5L129.3,19.5z M124.7,17.9c-0.1,0-0.1,0-0.2,0l-2.3-0.8c-0.3-0.1-0.5-0.5-0.4-0.8c0,0,0,0,0,0
			c0.1-0.3,0.5-0.5,0.8-0.4l2.3,0.8c0.3,0.1,0.5,0.5,0.4,0.8C125.2,17.7,125,17.9,124.7,17.9L124.7,17.9z M120.1,16.3
			c-0.1,0-0.1,0-0.2,0l-2.3-0.8c-0.3-0.1-0.5-0.5-0.4-0.8c0,0,0,0,0,0c0.1-0.3,0.5-0.5,0.8-0.4l2.3,0.8c0.3,0.1,0.5,0.5,0.4,0.8
			C120.6,16.2,120.3,16.3,120.1,16.3L120.1,16.3z M115.4,14.8c-0.1,0-0.1,0-0.2,0l-2.3-0.8c-0.3-0.1-0.5-0.5-0.4-0.8
			c0.1-0.3,0.5-0.5,0.8-0.4l2.3,0.8c0.3,0.1,0.5,0.5,0.4,0.8C115.9,14.6,115.7,14.8,115.4,14.8L115.4,14.8z M110.8,13.2
			c-0.1,0-0.1,0-0.2,0l-2.3-0.8c-0.3-0.1-0.5-0.5-0.4-0.8c0.1-0.3,0.5-0.5,0.8-0.4L111,12c0.3,0.1,0.5,0.5,0.4,0.8
			C111.3,13.1,111.1,13.2,110.8,13.2z M106.2,11.7c-0.1,0-0.1,0-0.2,0l-2.3-0.8c-0.3-0.1-0.5-0.5-0.4-0.8c0,0,0,0,0,0
			c0.1-0.3,0.5-0.5,0.8-0.4l2.3,0.8c0.3,0.1,0.5,0.5,0.4,0.8C106.7,11.5,106.5,11.7,106.2,11.7L106.2,11.7z"/>
	</g>
	<g id="Group_1093" transform="translate(294.927 752.058)">
		
			<radialGradient id="Path_1393_1_" cx="-144.6554" cy="392.6929" r="0.2643" gradientTransform="matrix(27.887 0 0 -27.8879 4000.709 10999.6426)" gradientUnits="userSpaceOnUse">
			<stop  offset="0" style="stop-color:#DC3DAA"/>
			<stop  offset="9.099999e-02" style="stop-color:#C23596"/>
			<stop  offset="0.333" style="stop-color:#822465"/>
			<stop  offset="0.553" style="stop-color:#50163E"/>
			<stop  offset="0.745" style="stop-color:#2C0C22"/>
			<stop  offset="0.9" style="stop-color:#160611"/>
			<stop  offset="1" style="stop-color:#0E040B"/>
		</radialGradient>
		<path id="Path_1393" class="st100" d="M-36.5,58c-0.3,0-0.6-0.3-0.6-0.6V42.8c0-0.2,0.1-0.4,0.3-0.5l6.3-3.7
			c0.3-0.2,0.7-0.1,0.8,0.2c0.1,0.1,0.1,0.2,0.1,0.3v14.5c0,0.2-0.1,0.4-0.3,0.5l-6.3,3.7C-36.3,57.9-36.4,58-36.5,58z M-35.9,43.2
			v13.1l5.1-3V40.2L-35.9,43.2z"/>
		
			<radialGradient id="Path_1394_1_" cx="-144.9761" cy="394.3405" r="0.2536" gradientTransform="matrix(45.292 0 0 -45.2857 6542.9951 17894.3594)" gradientUnits="userSpaceOnUse">
			<stop  offset="0" style="stop-color:#DC3DAA"/>
			<stop  offset="9.099999e-02" style="stop-color:#C23596"/>
			<stop  offset="0.333" style="stop-color:#822465"/>
			<stop  offset="0.553" style="stop-color:#50163E"/>
			<stop  offset="0.745" style="stop-color:#2C0C22"/>
			<stop  offset="0.9" style="stop-color:#160611"/>
			<stop  offset="1" style="stop-color:#0E040B"/>
		</radialGradient>
		<path id="Path_1394" class="st101" d="M-26.4,52.2c-0.3,0-0.6-0.3-0.6-0.6V24.9c0-0.2,0.1-0.4,0.3-0.5l6.3-3.7
			c0.3-0.2,0.7-0.1,0.8,0.2c0.1,0.1,0.1,0.2,0.1,0.3v26.7c0,0.2-0.1,0.4-0.3,0.5l-6.3,3.7C-26.2,52.1-26.3,52.2-26.4,52.2z
			 M-25.8,25.2v25.3l5.1-3V22.3L-25.8,25.2z"/>
		
			<radialGradient id="Path_1395_1_" cx="-145.1188" cy="395.0735" r="0.25" gradientTransform="matrix(62.697 0 0 -62.6849 9085.2832 24789.6895)" gradientUnits="userSpaceOnUse">
			<stop  offset="0" style="stop-color:#DC3DAA"/>
			<stop  offset="9.099999e-02" style="stop-color:#C23596"/>
			<stop  offset="0.333" style="stop-color:#822465"/>
			<stop  offset="0.553" style="stop-color:#50163E"/>
			<stop  offset="0.745" style="stop-color:#2C0C22"/>
			<stop  offset="0.9" style="stop-color:#160611"/>
			<stop  offset="1" style="stop-color:#0E040B"/>
		</radialGradient>
		<path id="Path_1395" class="st102" d="M-16.4,46.4c-0.3,0-0.6-0.3-0.6-0.6V7c0-0.2,0.1-0.4,0.3-0.5l6.3-3.7
			c0.3-0.2,0.7-0.1,0.8,0.2c0.1,0.1,0.1,0.2,0.1,0.3v38.8c0,0.2-0.1,0.4-0.3,0.5l-6.3,3.7C-16.2,46.3-16.3,46.4-16.4,46.4z
			 M-15.8,7.3v37.4l5.1-3V4.4L-15.8,7.3z"/>
	</g>
</g>
</svg>
