<?xml version="1.0" encoding="utf-8"?>
<!-- Generator: Adobe Illustrator 23.0.1, SVG Export Plug-In . SVG Version: 6.00 Build 0)  -->
<svg version="1.1" id="Layer_1" xmlns="http://www.w3.org/2000/svg" xmlns:xlink="http://www.w3.org/1999/xlink" x="0px" y="0px"
	 viewBox="0 0 500 500" style="enable-background:new 0 0 500 500;" xml:space="preserve">
<style type="text/css">
	.st0{fill:#380657;}
	.st1{fill:#DCA86E;}
	.st2{fill:url(#Path_1405_1_);}
	.st3{fill:#1D0038;}
	.st4{fill:#220041;}
	.st5{fill:#FEC4AD;}
	.st6{fill:url(#Path_1411_1_);}
	.st7{fill:#565888;}
	.st8{fill:url(#Path_1413_1_);}
	.st9{fill:none;stroke:#D4DBE2;stroke-width:0.25;stroke-miterlimit:10;}
	.st10{fill:#FFBA01;}
	.st11{fill:#D2DCEB;}
	.st12{fill:#50CC85;}
	.st13{fill:#77E6A6;}
	.st14{fill:#F3BA7A;}
	.st15{fill:#A6AEBA;}
	.st16{fill:#B6BFCC;}
	.st17{fill:#FFFFFF;}
	.st18{font-family:'SegoeUI-Bold';}
	.st19{font-size:184.4184px;}
</style>
<g id="Group_1122" transform="translate(-665 -321)">
	<g id="Group_1119" transform="translate(176.521 -35.922)">
		<path id="Path_1454" class="st0" d="M587.3,782c-38.4,2.8-132.5,17.6-32.5,28.5s199.4-0.7,268.1,6.3c68.8,7,195.4-12.3,122.8-21.8
			c-72.6-9.5-242-2.5-282.8-6c-39.3-3.4-37.5-9.4-71.6-7.3C590.1,781.8,588.7,781.9,587.3,782z"/>
		<path id="Path_1403" class="st1" d="M904.2,740.6l28.1,60.8l3.2,0l-24.3-64.7L904.2,740.6z"/>
		<path id="Path_1404" class="st1" d="M875.1,741.9L847,801.4l-3.2,0l24.3-60.8L875.1,741.9z"/>
		
			<linearGradient id="Path_1405_1_" gradientUnits="userSpaceOnUse" x1="-217.3783" y1="1152.0798" x2="-216.7631" y2="1152.0798" gradientTransform="matrix(40.18 0 0 -25.312 9542.5342 29952.4941)">
			<stop  offset="0" style="stop-color:#343A44"/>
			<stop  offset="0.301" style="stop-color:#232C3D"/>
			<stop  offset="0.639" style="stop-color:#172339"/>
			<stop  offset="1" style="stop-color:#142138"/>
		</linearGradient>
		<path id="Path_1405" class="st2" d="M803.7,788.4l-14.3,12.5L772.5,789c0,0,5.7-1.9,15.6,0.7l10.1-8.5L803.7,788.4z"/>
		<path id="Path_1406" class="st3" d="M886.4,719.4c0,0-31.6,16.2-42.7,21c-11.2,4.8-49.1,42.9-49.1,42.9s4.9,9.9,7.3,8.2
			c21.4-15.3,41.2-29,53.9-33.8c25.1-9.5,32.1-11.5,38.6-19C894.2,738.6,890.5,729.7,886.4,719.4z"/>
		<g id="Group_1102" transform="translate(878.528 866.175)">
			<path id="Path_1407" class="st4" d="M-41.4-84.2l-4.1,18.5l-20.6,0.4c0,0,3.5-4.9,13-8.6l3.1-12.8L-41.4-84.2z"/>
			<path id="Path_1408" class="st4" d="M8.6-150.9c0,0-29.4,3.2-40.1,8.9c-10.7,5.8-19.2,58.6-19.2,58.6s8.3,4.5,9.3,1.7
				c5.1-13.8,10.9-27.2,17.5-40.3c10.6-1.9,35,10,52.7-7.4C28.8-129.4,13.6-141,8.6-150.9z"/>
		</g>
		<g id="Group_1103" transform="translate(1020.185 785.11)">
			<path id="Path_1409" class="st5" d="M-82.4-105.5c-1.4,2.5-2.6,5.2-3.5,7.9L-98-98.7c0,0,6.2-9.5,5.8-15.2L-82.4-105.5z"/>
			<path id="Path_1410" class="st5" d="M-85-125.1c-0.7-0.2-3.3-0.9-3.8-0.7c-0.7,0.3,0.1,1.2-0.4,1.8c-0.8,0.9-2.5,1-3.5,1.5
				c-1.2,0.6-2.2,1.5-2.9,2.6c-1,1.7,2.6,5.6,3.2,8.5c1.2,6.1,8.8,6.9,15,5.1c2.2-0.7,4.3-2.7,5.5-4.6c1.4-2.3,0.6-6.1-0.6-8.4
				c-0.9-1.4-2-2.5-3.4-3.4c-1.1-0.8-1.4-4-2.8-4.2C-78.7-126.7-83.5-124.6-85-125.1z"/>
			
				<linearGradient id="Path_1411_1_" gradientUnits="userSpaceOnUse" x1="-1244.2028" y1="364.5317" x2="-1243.1783" y2="364.5317" gradientTransform="matrix(26.1499 0 0 -36.8432 32317.2559 13312.1738)">
				<stop  offset="0" style="stop-color:#343A44"/>
				<stop  offset="0.301" style="stop-color:#232C3D"/>
				<stop  offset="0.639" style="stop-color:#172339"/>
				<stop  offset="1" style="stop-color:#142138"/>
			</linearGradient>
			<path id="Path_1411" class="st6" d="M-67.7-108.8c0,0-0.2-1,1.5-2.7c5.8-5.5-0.4-16.1-6.7-18c-3.2-1-5.3,0.1-6.5-3.2
				c0.1,0.2-1.3,0.8-1.4,0.9c-0.7,0.5-1.2,1.3-1.1,2.2c-0.1,4.7,4.1,9,7.2,11.9c1.4,1.3-2.1,0.4-3.5,0.7c-0.9,0.2-3.3,2.7-3.8,3.1
				c1.3,1.6,2.5,0.2,4.3,1c1.7,0.7,0.6,2.8-0.9,3.1c-1.3,0.3-2.6-0.2-3.4-1.2c-1.1,0.6-1.3,4.1-2.1,5.1c1.2,0.7,8.1,1.9,9.7,1.8
				C-70.9-104.1-68.8-106-67.7-108.8z"/>
		</g>
		<path id="Path_1412" class="st7" d="M937.4,681.5c2.5,28.3-30,55.4-30,55.4s-21.2,0.8-20.2-21.5c0,0,1.7-4.1,14.8-16
			c8.8-8,15-19.8,21.1-19.6C940,680.3,937.4,681.5,937.4,681.5z"/>
		
			<linearGradient id="Path_1413_1_" gradientUnits="userSpaceOnUse" x1="-219.901" y1="1148.5229" x2="-219.1261" y2="1148.5229" gradientTransform="matrix(105.747 0 0 -86.5196 24112.3203 100082.875)">
			<stop  offset="0" style="stop-color:#343A44"/>
			<stop  offset="0.301" style="stop-color:#232C3D"/>
			<stop  offset="0.639" style="stop-color:#172339"/>
			<stop  offset="1" style="stop-color:#142138"/>
		</linearGradient>
		<path id="Path_1413" class="st8" d="M858.5,738.4c0,0,19.6,7.3,45.7-2.6c26.1-9.9,33.2-56.2,33.2-56.2l3,1.5c0,0-2.9,51-37.3,62.1
			c-26.3,8.5-44.6-1.6-44.6-1.6L858.5,738.4z"/>
		<g id="Group_1104" transform="translate(1025.491 822.265)">
			<path id="Path_1414" class="st7" d="M-91.3-112.6c0,0,3.1,10.8,3.3,16.2c0.2,5.4-2.1,23.8-2.1,23.8l5,0.6c0,0,4.4-21.9,4.5-29
				c0.1-7.1-4-18.7-4-18.7L-91.3-112.6z"/>
			<path id="Path_1415" class="st7" d="M-91.6-112.1c3.6,15.8,2.1,36.9,2.1,36.9l5.4,0.3c5.9-12.4,5.4-39.8,2.2-51.4
				c-1.8-6.8-2.9-13.6-7.5-14.7c-2.9-0.7-8.8,1.4-9.6,4.3C-100.6-130.4-93.3-119.9-91.6-112.1z"/>
			<path id="Path_1416" class="st7" d="M-92.3-69.8c-1.2,2.3-1.7,3.9-1,4.5c0.5,0.4,1.3-1.8,2.2-2.6c0.3,1.4,0.2,2.8-0.3,4.1
				c-0.7,1.6-0.6,3,0.6,3.2s3.3,0,3.7-1c0.5-1,1.5-5.3,2-6.8c0.6-1.4-0.2-3.1,0-3.9c0.2-0.8-3.7-2.2-3.7-2.2c-0.2,0.3-1.4,2-1.4,2
				c-0.4,0.5-0.9,1-1.4,1.4C-91.8-70.8-92.1-70.3-92.3-69.8z"/>
		</g>
		<g id="Group_1106" transform="translate(956.037 627.703)">
			<line id="Line_45" class="st9" x1="-52.3" y1="-97.2" x2="-52.3" y2="-59.6"/>
			<path id="Path_1417" class="st10" d="M-45.7-45.1c-0.3,3.6-3.5,6.4-7.1,6.1c-3.6-0.3-6.4-3.5-6.1-7.1c0.3-3.6,3.5-6.4,7.1-6.1
				C-48.1-51.9-45.4-48.7-45.7-45.1z"/>
			<path id="Path_1418" class="st11" d="M-21.2-42.8h-62.3l27.3-19.9h7.8L-21.2-42.8z"/>
		</g>
		<g id="Group_1107" transform="translate(577.265 627.703)">
			<line id="Line_46" class="st9" x1="32.9" y1="-97.2" x2="32.9" y2="-59.6"/>
			<path id="Path_1419" class="st10" d="M39.6-45.1c-0.3,3.6-3.5,6.4-7.1,6.1c-3.6-0.3-6.4-3.5-6.1-7.1c0.3-3.6,3.5-6.4,7.1-6.1
				C37.2-51.9,39.9-48.7,39.6-45.1C39.6-45.1,39.6-45.1,39.6-45.1z"/>
			<path id="Path_1420" class="st11" d="M64.1-42.8H1.8L29-62.6h7.8L64.1-42.8z"/>
		</g>
		<g id="Group_1118" transform="translate(680.255 776.142)">
			<g id="Group_1111" transform="translate(31.456 3.554)">
				<g id="Group_1108" transform="translate(12.034 2.609)">
					<path id="Path_1421" class="st12" d="M-26.1-112.2c1-2.2,2.2-4.2,3.7-6.1c2.4-2.9,6-7.6,6-7.6s-1.7,3.4-4.1,7.2
						C-22-116.2-23.9-114.1-26.1-112.2z"/>
					<path id="Path_1422" class="st12" d="M-23.6-117.8c1.9-1.8,3.4-4,4.2-6.5c1.6-4.4,3-7.7,3-7.7c-1.8,2.6-3.5,5.4-4.9,8.3
						C-22.7-120.3-23.6-117.8-23.6-117.8z"/>
					<path id="Path_1423" class="st12" d="M-25.9-112.8c0.8-3,1.4-6,1.7-9.1c0.3-4,0.2-6.5,0.2-6.5s-1.7,7.3-2.3,10.4
						C-26.6-116.3-26.5-114.5-25.9-112.8z"/>
					<path id="Path_1424" class="st12" d="M-27.1-109.5c0.2-3.3-0.1-6.6-1-9.8c-0.8-2.5-1.3-5-1.5-7.6c-0.4,3-0.4,6,0.1,9
						C-28.9-115-28.1-112.2-27.1-109.5z"/>
					<path id="Path_1425" class="st12" d="M-26.6-110.6c0,0,3.7-3.1,5.5-3.9c1.6-0.8,3.1-1.8,4.5-2.9c0,0-3.2,4.1-5,4.9
						S-26.6-110.6-26.6-110.6z"/>
					<path id="Path_1426" class="st12" d="M-27.9-106.2c0.1-2.3-0.3-4.7-1.3-6.8c-0.9-1.9-1.5-3.9-2-6c0,0-0.1,5.4,1,7.5
						C-29.2-109.5-27.9-106.2-27.9-106.2z"/>
					<path id="Path_1427" class="st12" d="M-27.6-108.3c1.3-0.8,2.7-1.4,4.2-1.7c0.9-0.1,1.8-0.3,2.6-0.6c-0.8,1.2-2.1,2-3.5,2.2
						C-26.9-108-27.6-108.3-27.6-108.3z"/>
					<path id="Path_1428" class="st12" d="M-28.9-103.5c0.5-1.8,1-4.5,1.7-6.4c1.2-3.2,2.7-6.3,4.5-9.3c-1.9,4.3-3.4,6.7-4.3,10.5
						c-0.4,1.5-1.1,3.5-1.4,4.9C-28.6-103.5-28.9-103.2-28.9-103.5z"/>
				</g>
				<g id="Group_1109" transform="translate(6.292)">
					<path id="Path_1429" class="st13" d="M-22.3-108.1c-0.2-2.5-0.7-5-1.6-7.4c-1.4-3.7-3.3-9.7-3.3-9.7s0.6,4,1.6,8.7
						C-24.9-113.6-23.8-110.8-22.3-108.1z"/>
					<path id="Path_1430" class="st13" d="M-22.8-114.6c-1.3-2.4-2-5.2-2-8c-0.1-5-0.4-8.8-0.4-8.8c0.9,3.3,1.6,6.7,2.1,10.1
						C-22.8-117.4-22.8-114.6-22.8-114.6z"/>
					<path id="Path_1431" class="st13" d="M-22.2-108.8c0.2-3.3,0.7-6.5,1.5-9.7c1.1-4.1,2-6.7,2-6.7s-0.8,7.9-1.3,11.2
						C-20.3-112-21.1-110.3-22.2-108.8z"/>
					<path id="Path_1432" class="st13" d="M-22.2-105c0.9-3.4,2.4-6.6,4.4-9.5c1.7-2.2,3.1-4.6,4.2-7.1c-0.6,3.2-1.7,6.2-3.3,9
						C-18.5-110-20.2-107.4-22.2-105z"/>
					<path id="Path_1433" class="st13" d="M-22.2-106.3c0,0-2.6-4.4-4.2-5.8c-1.3-1.3-2.5-2.8-3.5-4.4c0,0,1.8,5.2,3.3,6.7
						C-25.1-108.5-22.2-106.3-22.2-106.3z"/>
					<path id="Path_1434" class="st13" d="M-22.5-101.5c0.7-2.4,1.9-4.6,3.7-6.4c1.5-1.7,2.9-3.4,4.1-5.3c0,0-1.8,5.5-3.6,7.2
						C-20.1-104.4-22.5-101.5-22.5-101.5z"/>
					<path id="Path_1435" class="st13" d="M-22.1-103.7c-1-1.3-2.2-2.3-3.6-3.1c-0.9-0.4-1.7-0.9-2.4-1.5c0.4,1.5,1.4,2.8,2.8,3.4
						C-22.9-103.6-22.1-103.7-22.1-103.7z"/>
					<path id="Path_1436" class="st12" d="M-22.4-98.4c0.2-1.9,0.5-4.9,0.5-7c0.1-4.5-1.3-10.9-1.3-10.9c0.5,5,1.1,7.9,0.7,12
						c-0.1,1.6-0.2,3.9-0.3,5.4C-22.7-98.5-22.5-98.1-22.4-98.4z"/>
				</g>
				<g id="Group_1110" transform="translate(0 5.467)">
					<path id="Path_1437" class="st12" d="M-18.8-112.8c-1-2.2-2.2-4.2-3.7-6.1c-2.4-2.9-6-7.6-6-7.6s1.7,3.4,4.1,7.2
						C-22.8-116.9-20.9-114.7-18.8-112.8z"/>
					<path id="Path_1438" class="st12" d="M-21.2-118.4c-1.9-1.8-3.4-4-4.2-6.5c-1.6-4.4-3-7.7-3-7.7c1.8,2.6,3.5,5.4,4.9,8.3
						C-22.1-120.9-21.2-118.4-21.2-118.4z"/>
					<path id="Path_1439" class="st12" d="M-19-113.4c-0.8-3-1.4-6-1.7-9c-0.3-4-0.2-6.5-0.2-6.5s1.7,7.3,2.3,10.4
						C-18.2-116.9-18.4-115.1-19-113.4z"/>
					<path id="Path_1440" class="st12" d="M-17.8-110.1c-0.2-3.3,0.1-6.6,1-9.8c0.8-2.5,1.3-5,1.5-7.6c0.4,3,0.4,6-0.1,9
						C-16-115.6-16.8-112.8-17.8-110.1z"/>
					<path id="Path_1441" class="st12" d="M-18.2-111.2c0,0-3.7-3.1-5.5-3.9c-1.6-0.8-3.1-1.8-4.5-2.9c0,0,3.2,4.1,5,4.9
						C-21.4-112.3-18.2-111.2-18.2-111.2z"/>
					<path id="Path_1442" class="st12" d="M-16.9-106.8c-0.1-2.4,0.3-4.7,1.3-6.8c0.9-1.9,1.5-3.9,2-6c0,0,0.1,5.4-1,7.5
						S-16.9-106.8-16.9-106.8z"/>
					<path id="Path_1443" class="st12" d="M-17.3-108.9c-1.3-0.8-2.7-1.4-4.2-1.7c-0.9-0.1-1.8-0.3-2.6-0.6c0.8,1.2,2.1,2,3.5,2.2
						C-17.9-108.6-17.3-108.9-17.3-108.9z"/>
					<path id="Path_1444" class="st12" d="M-15.9-104.1c-0.5-1.8-1-4.5-1.7-6.4c-1.2-3.2-2.7-6.3-4.5-9.3c1.9,4.3,3.4,6.7,4.3,10.5
						c0.4,1.5,1.1,3.5,1.4,4.9C-16.2-104.1-15.9-103.8-15.9-104.1z"/>
				</g>
				<path id="Path_1445" class="st11" d="M-11.2-86.3h-10l-3.1-17.6h16.5L-11.2-86.3z"/>
			</g>
			<g id="Group_1113" transform="translate(0 60.305)">
				<g id="Group_1112" transform="translate(21.335 7.737)">
					<path id="Path_1446" class="st1" d="M112.9-145.9L129.4-43l3.2,0l-13-102.9L112.9-145.9z"/>
					<path id="Path_1447" class="st1" d="M-0.5-145.9L-22-42.8l-4.3,0l16.8-103L-0.5-145.9z"/>
				</g>
				<rect id="Rectangle_460" x="-12.9" y="-144.2" class="st1" width="177.1" height="7.9"/>
				<rect id="Rectangle_461" x="-21.4" y="-144.2" class="st14" width="194.1" height="5.3"/>
			</g>
			<g id="Group_1115" transform="translate(134.301)">
				<g id="Group_1114">
					<path id="Path_1448" class="st15" d="M-15.9-86.7h-6.9l-6.9-44h5.2L-15.9-86.7z"/>
					<path id="Path_1449" class="st11" d="M-17.9-86.7h-26.9l-6.9-44h26.9L-17.9-86.7z"/>
					<rect id="Rectangle_462" x="-45.1" y="-87.7" class="st11" width="29.2" height="3.3"/>
					<rect id="Rectangle_463" x="-15.9" y="-87.7" class="st15" width="36.8" height="3.3"/>
					<path id="Path_1450" class="st15" d="M-32.7-106.5c0.8,3.4,0.2,7-1.2,8.1c-1.5,1.1-3.3-0.7-4-4.1s-0.2-7,1.2-8.1
						S-33.4-109.9-32.7-106.5z"/>
				</g>
			</g>
			<g id="Group_1117" transform="translate(93.894 43.315)">
				<path id="Path_1451" class="st15" d="M-34.1-127.8h-3.8c-1.6,0-2.9-1.1-3.2-2.7l-1.5-9.8h13.2l-1.5,9.8
					C-31.2-129-32.5-127.8-34.1-127.8z"/>
				<g id="Group_1116" transform="translate(11.572 1.742)">
					<path id="Path_1452" class="st15" d="M-42.1-131.7c-0.1,0-0.3,0-0.4,0l-0.2,0l-0.1-0.1c-0.1-0.1-2.3-1.8-2.3-4.3
						c0-2.6,1.7-4.6,3.8-4.6c1.2,0,2.3,0.4,3.1,1.3c0.7,1,1,2.2,0.7,3.4l0,0C-38.1-133.2-39.8-131.7-42.1-131.7z M-42.3-132.9
						c2.4,0.1,3.2-1.8,3.5-3.4l0,0c0.2-0.8,0.1-1.7-0.4-2.5c-0.6-0.6-1.3-0.9-2.1-0.9c-1.4,0-2.6,1.5-2.6,3.4
						C-43.9-134.9-43.2-133.7-42.3-132.9L-42.3-132.9z"/>
				</g>
			</g>
			<path id="Path_1453" class="st11" d="M50-83.7h16.7l2.7-2.9h-22L50-83.7z"/>
		</g>
		<rect id="Rectangle_464" x="561.9" y="628.3" class="st16" width="79.9" height="172.8"/>
		<rect id="Rectangle_465" x="571.1" y="635.9" class="st11" width="61.5" height="18.1"/>
		<path id="Rectangle_466" class="st17" d="M594.4,642.7h14.8c0.3,0,0.6,0.3,0.6,0.6v3.2c0,0.3-0.3,0.6-0.6,0.6h-14.8
			c-0.3,0-0.6-0.3-0.6-0.6v-3.2C593.8,643,594.1,642.7,594.4,642.7z"/>
		<rect id="Rectangle_467" x="571.1" y="658.9" class="st11" width="61.5" height="18.1"/>
		<path id="Rectangle_468" class="st17" d="M594.4,665.8h14.8c0.3,0,0.6,0.3,0.6,0.6v3.2c0,0.3-0.3,0.6-0.6,0.6h-14.8
			c-0.3,0-0.6-0.3-0.6-0.6v-3.2C593.8,666.1,594.1,665.8,594.4,665.8z"/>
		<rect id="Rectangle_469" x="571.1" y="682" class="st11" width="61.5" height="18.1"/>
		<path id="Rectangle_470" class="st17" d="M594.4,688.9h14.8c0.3,0,0.6,0.3,0.6,0.6v3.2c0,0.3-0.3,0.6-0.6,0.6h-14.8
			c-0.3,0-0.6-0.3-0.6-0.6v-3.2C593.8,689.1,594.1,688.9,594.4,688.9z"/>
		<rect id="Rectangle_471" x="571.1" y="705.3" class="st11" width="61.5" height="88.8"/>
		<path id="Rectangle_472" class="st17" d="M594.4,712.2h14.8c0.3,0,0.6,0.3,0.6,0.6v3.2c0,0.3-0.3,0.6-0.6,0.6h-14.8
			c-0.3,0-0.6-0.3-0.6-0.6v-3.2C593.8,712.5,594.1,712.2,594.4,712.2z"/>
	</g>
	<g id="Group_1121" transform="translate(-12.019 78.648)">
		<text transform="matrix(1 0 0 1 775.4716 417.6572)" class="st4 st18 st19">404</text>
		<text transform="matrix(1 0 0 1 775.4716 405.2587)" class="st17 st18 st19">404</text>
	</g>
</g>
</svg>
