<?xml version="1.0" encoding="utf-8"?>
<!-- Generator: Adobe Illustrator 25.4.1, SVG Export Plug-In . SVG Version: 6.00 Build 0)  -->
<svg version="1.1" id="e947267e-2fd0-4612-8553-18e563890315"
	 xmlns="http://www.w3.org/2000/svg" xmlns:xlink="http://www.w3.org/1999/xlink" x="0px" y="0px" viewBox="0 0 808.8 560.4"
	 style="enable-background:new 0 0 808.8 560.4;" xml:space="preserve">
<style type="text/css">
	.st0{opacity:0.1;fill:#6C63FF;enable-background:new    ;}
	.st1{fill:#2F2E41;}
	.st2{fill:#3F3D56;}
	.st3{fill:url(#SVGID_1_);}
	.st4{fill:#FF64D0;}
	.st5{fill:#6C63FF;}
	.st6{fill:#F7D614;}
	.st7{fill:#FFFFFF;}
	.st8{fill:#41B883;}
	.st9{fill:#35495E;}
	.st10{fill:#53C1DE;}
	.st11{fill:#264DE4;}
	.st12{fill:#2965F1;}
	.st13{fill:#EBEBEB;}
	.st14{opacity:0.1;enable-background:new    ;}
	.st15{fill:#FFB9B9;}
	.st16{fill:#FF6584;}
	.st17{opacity:5.000000e-02;enable-background:new    ;}
	.st18{fill:#F2F2F2;}
	.st19{fill:none;stroke:#F7D614;stroke-miterlimit:10;}
	.st20{fill:#E4F9D2;stroke:#3F873F;stroke-miterlimit:10;}
	.st21{fill:#679E63;}
	.st22{fill-rule:evenodd;clip-rule:evenodd;fill:#333333;}
	.st23{fill-rule:evenodd;clip-rule:evenodd;fill:#679E63;}
	.st24{fill-rule:evenodd;clip-rule:evenodd;fill:url(#XMLID_00000158710426624145471680000000266583568962097563_);}
	.st25{clip-path:url(#SVGID_00000139286194867333790940000000278102427140112814_);}
	.st26{fill:none;}
	.st27{fill:url(#SVGID_00000096023159533555712300000005773109956050993591_);}
	.st28{clip-path:url(#SVGID_00000054253714707286841840000005869068599929283511_);}
	.st29{fill:url(#SVGID_00000179620415039226089020000007534310152699042462_);}
	.st30{fill:url(#SVGID_00000044878939478361770500000007304813311403564420_);}
	.st31{fill:url(#SVGID_00000088813224382402606160000004642026945856893874_);}
	.st32{fill:url(#SVGID_00000080915021819415915400000016076056035827843209_);}
	.st33{fill:url(#SVGID_00000167358252349908396970000014398580583373761926_);}
	.st34{fill:#FF2D20;}
	.st35{fill:#E5A229;}
	.st36{fill:#F1BE21;}
	.st37{fill:#EBEAEA;}
	.st38{fill:#231F20;}
	.st39{fill:url(#SVGID_00000064317341956124809160000009555860948158035593_);}
	.st40{fill:#6181B6;}
	.st41{fill:#000004;}
	.st42{fill:#714B4F;}
	.st43{fill:#E44D26;}
	.st44{fill:#F16529;}
</style>
<path class="st0" d="M750.1,239.1c0.4-5.2,0.7-10.5,0.7-15.8c0-83.7-55.2-151.5-123.2-151.5c-21.7,0-42.1,6.9-59.8,19
	c-48.2-38.4-111.1-61.7-179.9-61.7c-112,0-208.3,61.5-251,149.8c-2.4-0.2-4.8-0.3-7.2-0.3c-68.1,0-123.3,67.8-123.3,151.5
	c0,30.7,7.5,59.4,20.3,83.3l0,0c0,75.3,58.6,136.3,130.9,136.3h91.2l0.4-0.7c5.4-8.9,18.2-11.2,27.1-6.1c2.4,1.3,4.6,3.1,7.2,3.7
	c10.6,2.3,17.7-15.2,28.3-13.5c5.4,0.9,9.5,6.6,14.9,6c3.6-0.4,6.3-3.5,9.7-4.8c5.4-2.1,10.9,0.8,14.6,5.6
	c2.2-6.5,2.2-14.2,5.7-20.1c5.4-8.9,18.2-11.2,27.1-6.1c2.4,1.3,4.6,3.1,7.2,3.7c10.6,2.3,17.6-15.2,28.3-13.5
	c5.4,0.9,9.5,6.6,14.9,6c3.6-0.4,6.3-3.5,9.7-4.8c8.4-3.3,17,5.6,19,14.6c0.8,4,1.2,8,1.3,12c7.2-3.6,13.3-13.7,21.6-12.4
	c5.4,0.9,9.5,6.6,14.9,6c3.6-0.4,6.3-3.5,9.7-4.8c8.4-3.3,17,5.6,19,14.6c1.1,4.8,1.2,9.7,1.4,14.6H682c56.8,0,102.8-47.9,102.8-107
	l0,0c11.5-23.1,18.2-50.2,18.2-79.2C803,311.9,782.1,266.4,750.1,239.1z"/>
<path class="st1" d="M678.9,553.1H153.3c-9.7,0-17.6-7.9-17.6-17.6l0,0c190.5-22.1,377.5-22.1,560.8,0l0,0
	C696.5,545.2,688.6,553.1,678.9,553.1z"/>
<path class="st2" d="M696.5,536.5l-560.8-1l65-109.4l0.3-0.5v-241c0-12.3,10-22.3,22.3-22.3l0,0h382.5c12.3,0,22.3,10,22.3,22.3l0,0
	v242.7L696.5,536.5z"/>
<linearGradient id="SVGID_1_" gradientUnits="userSpaceOnUse" x1="213.8" y1="724.95" x2="615.1" y2="724.95" gradientTransform="matrix(1 0 0 -1 0 1020)">
	<stop  offset="0" style="stop-color:#D964FF"/>
	<stop  offset="0.9976" style="stop-color:#8221D8"/>
</linearGradient>
<path class="st3" d="M221.1,177.9c-4,0-7.3,3.3-7.3,7.3V405c0,4,3.3,7.3,7.3,7.3h386.7c4,0,7.3-3.3,7.3-7.3V185.1
	c0-4-3.3-7.3-7.3-7.3L221.1,177.9L221.1,177.9z"/>
<path class="st1" d="M225.3,441.2c-1.2,0-2.3,0.7-2.8,1.8l-20,43.5c-0.7,1.6,0,3.4,1.5,4.1c0.4,0.2,0.9,0.3,1.3,0.3h421.2
	c1.7,0,3.1-1.4,3.1-3.1c0-0.5-0.1-1-0.3-1.4l-21.8-43.5c-0.5-1.1-1.6-1.7-2.8-1.7L225.3,441.2z"/>
<rect x="446.7" y="160" class="st4" width="1" height="147.1"/>
<rect x="446.7" y="96.9" class="st4" width="1" height="43.4"/>
<rect x="378.7" y="92.4" class="st4" width="1" height="214.8"/>
<rect x="395.6" y="73.4" class="st4" width="1" height="48.4"/>
<rect x="395.6" y="144.8" class="st4" width="1" height="147.2"/>
<path class="st4" d="M396.5,314.9v88.9c-0.3,0-0.6-0.1-0.9-0.1v-88.8L396.5,314.9L396.5,314.9z"/>
<rect x="412.4" y="57.5" class="st4" width="1" height="136.7"/>
<path class="st4" d="M413.4,213.1V409c-0.3,0-0.6,0-0.9,0V213.1H413.4z"/>
<rect x="429.3" y="73.4" class="st4" width="1" height="189.6"/>
<rect x="429.3" y="283.3" class="st4" width="1" height="106.3"/>
<path class="st4" d="M447.1,332.9v75.5c-0.3,0.1-0.6,0.1-0.9,0.2v-75.7L447.1,332.9L447.1,332.9z"/>
<path class="st4" d="M379.6,332.9v67.6c-0.3,0-0.6-0.1-0.9-0.2v-67.4H379.6z"/>
<rect x="361.8" y="111.6" class="st4" width="1" height="31"/>
<rect x="361.8" y="165.8" class="st4" width="1" height="141.3"/>
<rect x="344.9" y="123" class="st4" width="1" height="184.1"/>
<rect x="328.1" y="137.9" class="st4" width="1" height="60"/>
<rect x="328.1" y="217.8" class="st4" width="1" height="89.3"/>
<rect x="311.2" y="153.8" class="st4" width="1" height="100"/>
<rect x="311.2" y="272.4" class="st5" width="1" height="34.7"/>
<rect x="294.3" y="168.7" class="st4" width="1" height="33.5"/>
<rect x="294.3" y="224.2" class="st4" width="1" height="83"/>
<rect x="277.4" y="176.6" class="st4" width="1" height="130.5"/>
<rect x="260.6" y="212.3" class="st4" width="1" height="43.1"/>
<rect x="260.6" y="275.2" class="st4" width="1" height="32"/>
<rect x="456.8" y="111.6" class="st4" width="0.5" height="187.1"/>
<rect x="479.9" y="123" class="st4" width="1" height="29.5"/>
<rect x="479.9" y="172.2" class="st4" width="1" height="134.9"/>
<rect x="496.8" y="151.3" class="st4" width="1" height="17.4"/>
<rect x="496.8" y="188.1" class="st4" width="1" height="86.3"/>
<rect x="496.8" y="292.1" class="st4" width="1" height="15.1"/>
<rect x="513.7" y="153.8" class="st4" width="1" height="153.4"/>
<rect x="530.5" y="168.7" class="st4" width="1" height="49.1"/>
<rect x="530.5" y="236.4" class="st4" width="1" height="70.8"/>
<rect x="547.4" y="176.6" class="st4" width="1" height="130.5"/>
<path class="st4" d="M379.2,333.4c-2.7,0-5-2.2-5-5s2.2-5,5-5c2.7,0,5,2.2,5,5C384.1,331.2,381.9,333.4,379.2,333.4z M379.2,324.5
	c-2.2,0-4,1.8-4,4s1.8,4,4,4s4-1.8,4-4C383.1,326.3,381.4,324.5,379.2,324.5z"/>
<path class="st4" d="M396.1,307.6c-2.7,0-5-2.2-5-5s2.2-5,5-5c2.7,0,5,2.2,5,5C401,305.4,398.8,307.6,396.1,307.6z M396.1,298.7
	c-2.2,0-4,1.8-4,4s1.8,4,4,4s4-1.8,4-4C400,300.5,398.2,298.7,396.1,298.7z"/>
<path class="st4" d="M447.2,333.4c-2.7,0-5-2.2-5-5s2.2-5,5-5c2.7,0,5,2.2,5,5C452.1,331.2,449.9,333.4,447.2,333.4z M447.2,324.5
	c-2.2,0-4,1.8-4,4s1.8,4,4,4s4-1.8,4-4C451.1,326.3,449.4,324.5,447.2,324.5z"/>
<path class="st5" d="M429.8,395.5c-2.7,0-5,2.2-5,5c0,2.7,2.2,5,5,5c2.7,0,5-2.2,5-5S432.5,395.5,429.8,395.5z M429.8,404.4
	c-2.2,0-4-1.8-4-4s1.8-4,4-4s4,1.8,4,4S432,404.4,429.8,404.4z"/>
<path class="st4" d="M429.8,277.4c-2.7,0-5-2.2-5-5c0-2.7,2.2-5,5-5c2.7,0,5,2.2,5,5C434.8,275.1,432.5,277.4,429.8,277.4z
	 M429.8,268.4c-2.2,0-4,1.8-4,4s1.8,4,4,4s4-1.8,4-4C433.8,270.2,432,268.4,429.8,268.4z"/>
<path class="st4" d="M412.9,208.4c-2.7,0-5-2.2-5-5c0-2.7,2.2-5,5-5c2.7,0,5,2.2,5,5C417.9,206.1,415.7,208.4,412.9,208.4z"/>
<path class="st4" d="M446.7,154.3c-2.7,0-5-2.2-5-5s2.2-5,5-5c2.7,0,5,2.2,5,5C451.6,152.1,449.4,154.3,446.7,154.3z M446.7,145.3
	c-2.2,0-4,1.8-4,4s1.8,4,4,4s4-1.8,4-4C450.6,147.1,448.9,145.3,446.7,145.3z"/>
<path class="st4" d="M328.6,212.8c-2.7,0-5-2.2-5-5s2.2-5,5-5s5,2.2,5,5C333.5,210.6,331.3,212.8,328.6,212.8z M328.6,203.9
	c-2.2,0-4,1.8-4,4s1.8,4,4,4s4-1.8,4-4C332.5,205.7,330.8,203.9,328.6,203.9z"/>
<path class="st4" d="M294.8,217.3c-2.7,0-5-2.2-5-5s2.2-5,5-5s5,2.2,5,5S297.6,217.3,294.8,217.3z M294.8,208.4c-2.2,0-4,1.8-4,4
	s1.8,4,4,4s4-1.8,4-4C298.8,210.1,297,208.4,294.8,208.4z"/>
<path class="st4" d="M447.2,97.2c-2.7,0-5-2.2-5-5c0-2.7,2.2-5,5-5c2.7,0,5,2.2,5,5C452.1,95,449.9,97.2,447.2,97.2z M447.2,88.3
	c-2.2,0-4,1.8-4,4s1.8,4,4,4s4-1.8,4-4C451.1,90,449.4,88.3,447.2,88.3z"/>
<path class="st4" d="M362.3,158.7c-2.7,0-5-2.2-5-5c0-2.7,2.2-5,5-5s5,2.2,5,5S365,158.7,362.3,158.7z M362.3,149.8
	c-2.2,0-4,1.8-4,4s1.8,4,4,4s4-1.8,4-4S364.5,149.8,362.3,149.8z"/>
<path class="st4" d="M345.4,123.5c-2.7,0-5-2.2-5-5c0-2.7,2.2-5,5-5s5,2.2,5,5S348.2,123.5,345.4,123.5z M345.4,114.6
	c-2.2,0-4,1.8-4,4s1.8,4,4,4s4-1.8,4-4S347.6,114.6,345.4,114.6z"/>
<path class="st4" d="M261.1,270.4c-2.7,0-5-2.2-5-5c0-2.7,2.2-5,5-5s5,2.2,5,5C266,268.2,263.8,270.4,261.1,270.4z M261.1,261.5
	c-2.2,0-4,1.8-4,4s1.8,4,4,4s4-1.8,4-4C265,263.3,263.3,261.5,261.1,261.5z"/>
<rect x="562.8" y="212.3" class="st4" width="1" height="43.1"/>
<rect x="562.8" y="275.2" class="st4" width="1" height="32"/>
<path class="st4" d="M563.3,270.4c-2.7,0-5-2.2-5-5c0-2.7,2.2-5,5-5s5,2.2,5,5C568.3,268.2,566,270.4,563.3,270.4z M563.3,261.5
	c-2.2,0-4,1.8-4,4s1.8,4,4,4s4-1.8,4-4S565.5,261.5,563.3,261.5z"/>
<path class="st5" d="M531,231.2c-2.7,0-5-2.2-5-5c0-2.7,2.2-5,5-5s5,2.2,5,5S533.8,231.2,531,231.2z M531,222.3c-2.2,0-4,1.8-4,4
	s1.8,4,4,4s4-1.8,4-4C535,224,533.2,222.3,531,222.3z"/>
<path class="st4" d="M497.3,288.3c-2.7,0-5-2.2-5-5c0-2.7,2.2-5,5-5c2.7,0,5,2.2,5,5C502.3,286.1,500,288.3,497.3,288.3z
	 M497.3,279.3c-2.2,0-4,1.8-4,4s1.8,4,4,4s4-1.8,4-4C501.3,281.1,499.5,279.3,497.3,279.3z"/>
<path class="st4" d="M497.3,183.6c-2.7,0-5-2.2-5-5s2.2-5,5-5c2.7,0,5,2.2,5,5C502.3,181.3,500,183.6,497.3,183.6z M497.3,174.6
	c-2.2,0-4,1.8-4,4s1.8,4,4,4s4-1.8,4-4C501.3,176.4,499.5,174.6,497.3,174.6z"/>
<polygon class="st6" points="480.9,161.9 480,161.7 526.7,96.9 601.5,96.9 601.5,97.4 527.4,97.4 "/>
<polygon class="st6" points="295.3,212.9 176.3,212.9 176.3,158.8 176.9,158.8 176.9,211.9 295.3,211.9 "/>
<polygon class="st6" points="396.1,133.9 247.7,133.9 247.7,73.4 248.7,73.4 248.7,132.9 396.1,132.9 "/>
<polygon class="st6" points="312.2,371 186.2,371 186.2,369.8 310.9,369.8 310.9,263.5 312.2,263.5 "/>
<circle class="st7" cx="414.5" cy="169.6" r="4.7"/>
<path class="st1" d="M373.1,499.2c-1.4,0-2.6,0.9-3,2.3l-5,18.7c-0.4,1.7,0.5,3.4,2.2,3.8c0.3,0.1,0.5,0.1,0.8,0.1h95.5
	c1.7,0,3.1-1.4,3.1-3.1c0-0.3-0.1-0.7-0.2-1l-6.5-18.7c-0.4-1.3-1.6-2.1-2.9-2.1L373.1,499.2z"/>
<polygon class="st1" points="628.1,422 628.1,426.1 200.7,426.1 201,425.6 201,422 "/>
<path class="st5" d="M575.3,431.5c-0.3,0-0.6,0.2-0.7,0.6l-1.2,4.5c-0.1,0.4,0.1,0.8,0.5,0.9c0.1,0,0.1,0,0.2,0h23.3
	c0.4,0,0.8-0.3,0.8-0.8c0-0.1,0-0.2,0-0.2l-1.6-4.5c-0.1-0.3-0.4-0.5-0.7-0.5H575.3z"/>
<path class="st5" d="M541.4,431.5c-0.3,0-0.6,0.2-0.7,0.6l-1.2,4.5c-0.1,0.4,0.1,0.8,0.5,0.9c0.1,0,0.1,0,0.2,0h23.3
	c0.4,0,0.8-0.3,0.8-0.8c0-0.1,0-0.2,0-0.2l-1.6-4.5c-0.1-0.3-0.4-0.5-0.7-0.5H541.4z"/>
<g>
	<path class="st8" d="M218.5,57.9l30.2,52.2l30.2-52.2h-12.1l-18.1,31.3l-18.3-31.3C230.4,57.9,218.5,57.9,218.5,57.9z"/>
	<path class="st9" d="M230.4,57.9l18.3,31.4l18.1-31.4h-11.2l-7,12.1l-7.1-12.1H230.4z"/>
</g>
<g>
	<path class="st7" d="M139.3,156.9c0,5.6,5.4,10.7,13.9,13.7c-1.7,8.6-0.4,15.5,4.3,18.2c4.8,2.8,12,0.9,18.8-5
		c6.6,5.7,13.3,8,18,5.3c4.8-2.8,6.3-10.1,4.6-19c8.9-2.9,13.9-7.3,13.9-13c0-5.4-5.4-10.1-13.8-13c1.9-9.2,0.4-16-4.5-18.8
		c-4.7-2.8-11.5-0.4-18.2,5.4c-7-6.2-13.7-8.1-18.6-5.4c-4.7,2.7-6.1,9.8-4.3,18.5C145,146.7,139.3,151.5,139.3,156.9z"/>
	<path class="st10" d="M197.1,146.9c-0.7-0.2-1.4-0.4-2.1-0.7c0.1-0.5,0.2-0.9,0.4-1.4c1.6-7.7,0.6-13.9-3-16c-3.4-2-9,0.1-14.6,4.9
		c-0.6,0.5-1.1,0.9-1.6,1.5c-0.4-0.4-0.7-0.7-1.1-1c-5.9-5.2-11.8-7.5-15.4-5.4c-3.4,2-4.4,7.8-3,15.1c0.1,0.7,0.3,1.4,0.5,2.2
		c-0.9,0.2-1.7,0.5-2.4,0.7c-6.9,2.4-11.4,6.2-11.4,10.1c0,4.1,4.7,8.1,11.9,10.6c0.6,0.2,1.2,0.4,1.7,0.6c-0.2,0.8-0.4,1.5-0.5,2.3
		c-1.4,7.2-0.4,12.9,3,14.9c3.5,2,9.4,0,15.1-5c0.4-0.4,0.9-0.8,1.4-1.2c0.6,0.6,1.2,1.1,1.7,1.6c5.5,4.8,11,6.7,14.4,4.8
		c3.5-2,4.6-8.1,3.2-15.6c-0.1-0.6-0.2-1.2-0.4-1.7c0.4-0.1,0.8-0.2,1.2-0.4c7.5-2.5,12.4-6.5,12.4-10.6
		C208.7,153.2,204.2,149.4,197.1,146.9L197.1,146.9z"/>
	<path class="st7" d="M195.5,165.1c-0.4,0.1-0.7,0.2-1.1,0.4c-0.9-2.8-2-5.6-3.3-8.3c1.2-2.6,2.3-5.4,3.2-8.1c0.7,0.2,1.3,0.4,2,0.7
		c6,2.1,9.7,5.2,9.7,7.5C205.9,159.7,201.9,163,195.5,165.1L195.5,165.1z M192.8,170.3c0.7,3.3,0.7,6.3,0.3,8.6
		c-0.4,2.1-1.2,3.5-2.2,4.1c-2,1.2-6.5-0.4-11.2-4.5c-0.5-0.4-1.1-0.9-1.7-1.5c2-2.2,3.8-4.5,5.5-7c3-0.2,5.9-0.7,8.8-1.3
		C192.6,169.3,192.6,169.8,192.8,170.3L192.8,170.3z M165.6,182.7c-2,0.7-3.6,0.7-4.6,0.1c-2-1.2-2.9-5.8-1.7-12
		c0.1-0.7,0.3-1.4,0.5-2.2c2.9,0.7,5.9,1.1,8.8,1.3c1.7,2.5,3.6,4.8,5.6,7c-0.4,0.4-0.8,0.8-1.2,1.2
		C170.4,180.4,167.9,181.9,165.6,182.7L165.6,182.7z M156.3,164.9c-3.2-1.1-5.8-2.5-7.6-4.1c-1.6-1.4-2.4-2.8-2.4-3.9
		c0-2.4,3.6-5.4,9.5-7.5c0.7-0.3,1.5-0.5,2.2-0.7c0.9,2.8,2,5.6,3.2,8.3c-1.2,2.7-2.3,5.5-3.3,8.3
		C157.3,165.3,156.8,165.1,156.3,164.9z M159.5,143.5c-1.2-6.3-0.4-11,1.7-12.2c2.2-1.2,7,0.6,12.1,5.1c0.3,0.3,0.7,0.6,0.9,0.9
		c-2,2.2-3.8,4.4-5.6,6.9c-2.9,0.2-5.9,0.7-8.7,1.3C159.7,144.8,159.6,144.1,159.5,143.5L159.5,143.5z M187.6,150.5
		c-0.7-1.1-1.3-2.2-2-3.3c2.1,0.3,4.1,0.7,5.9,1.1c-0.6,1.9-1.3,3.8-2.1,5.6C188.9,152.7,188.3,151.6,187.6,150.5L187.6,150.5z
		 M176.2,139.3c1.4,1.4,2.6,3,3.8,4.6c-2.5-0.1-5.1-0.1-7.7,0C173.6,142.2,174.9,140.6,176.2,139.3L176.2,139.3z M164.6,150.4
		c-0.7,1.1-1.2,2.2-1.9,3.3c-0.8-2-1.5-3.8-2-5.7c1.9-0.4,3.8-0.7,5.9-1C165.9,148.2,165.2,149.3,164.6,150.4z M166.6,167.1
		c-2-0.2-4.1-0.6-6-1c0.6-1.9,1.3-3.8,2.1-5.7c0.6,1.2,1.2,2.2,1.8,3.4C165.2,164.8,165.9,166,166.6,167.1z M176.1,175.1
		c-1.3-1.4-2.6-3-3.9-4.7c1.2,0.1,2.5,0.1,3.8,0.1s2.6,0,3.9-0.1C178.8,171.9,177.5,173.5,176.1,175.1z M189.5,160.3
		c0.8,1.9,1.5,3.8,2.2,5.7c-2,0.4-4.1,0.8-6.1,1c0.7-1.1,1.4-2.2,2-3.3C188.2,162.7,188.9,161.5,189.5,160.3z M185.2,162.4
		c-1,1.7-2,3.4-3.1,5.1c-2,0.1-3.9,0.2-5.9,0.2s-4-0.1-5.9-0.2c-1.1-1.7-2.2-3.3-3.2-5.1c-1-1.7-1.9-3.5-2.8-5.3
		c0.9-1.8,1.8-3.6,2.8-5.2l0,0c1-1.7,2-3.4,3.2-5c2-0.1,3.9-0.2,5.9-0.2s4,0.1,5.9,0.2c1.1,1.7,2.2,3.3,3.1,5c1,1.7,2,3.5,2.8,5.2
		C187.1,158.9,186.2,160.6,185.2,162.4L185.2,162.4z M191.1,131.3c2.2,1.2,3,6.4,1.6,13c-0.1,0.4-0.2,0.9-0.3,1.3
		c-2.9-0.7-5.8-1.2-8.7-1.4c-1.7-2.4-3.5-4.7-5.5-6.9c0.5-0.4,1-0.9,1.5-1.4C184.5,131.7,189,130,191.1,131.3L191.1,131.3z"/>
	<path class="st10" d="M176.1,151.2c3.2,0,5.8,2.6,5.8,5.9c0,3.2-2.6,5.8-5.9,5.8c-3.2,0-5.8-2.6-5.8-5.9l0,0
		C170.3,153.8,172.9,151.2,176.1,151.2L176.1,151.2"/>
</g>
<g>
	<path class="st11" d="M598.1,129.1l-21.2-5.9l-4.7-53.1h52l-4.7,53.1L598.1,129.1z"/>
	<path class="st12" d="M615.3,119.8l4-45.4H598v50.1L615.3,119.8z"/>
	<path class="st13" d="M583,94.1l0.6,6.5h14.6v-6.5H583z M581.8,80.9l0.6,6.5h15.7v-6.5H581.8L581.8,80.9z M598.1,111L598.1,111
		l-7.3-2l-0.5-5.2h-6.5l0.9,10.2l13.3,3.7l0,0L598.1,111z"/>
	<path d="M584.4,55.7h7.9V59h-4.6v3.3h4.6v3.3h-7.9V55.7z M593.8,55.7h7.9v2.9h-4.6v0.6h4.6v6.6h-7.9v-3h4.6v-0.6h-4.6V55.7
		L593.8,55.7z M603.3,55.7h7.9v2.9h-4.6v0.6h4.6v6.6h-7.9v-3h4.6v-0.6h-4.6V55.7L603.3,55.7z"/>
	<path class="st7" d="M613.2,94.1l1.2-13.2h-16.3v6.5h9.2l-0.6,6.7h-8.6v6.5h8l-0.8,8.5l-7.3,2v6.8l13.3-3.7l0.1-1.1l1.5-17.1
		L613.2,94.1L613.2,94.1z"/>
</g>
<g>
	<ellipse class="st14" cx="413.4" cy="381" rx="156.6" ry="22.5"/>
	<path class="st1" d="M406.6,197.1c-4.8,1.6-9.1,5.3-10,10.2c-0.5,2.3-0.2,4.6-0.6,6.9c-0.9,5.3-5.1,9.3-8.9,13s-7.8,8.1-8.1,13.4
		c-0.3,5.8,4,11.3,3.2,17.1c-0.9,6.7-8.1,11.1-9.8,17.7c-1.2,4.4,0.3,9.1,2.7,13c4.6,7.4,12.4,12.4,20.7,15.1
		c8.3,2.7,17.2,3.2,25.9,3.3c10.6,0.1,22.2-0.8,30.2-7.7c4.6-4,7.4-9.6,8-15.6c0.8-8.1-2.6-16.4-0.3-24.1c1.5-4.9,5.2-9.3,4.6-14.4
		c-0.5-4.9-4.9-8.5-7.9-12.5c-2.8-3.7-4.5-8.1-6.2-12.5l-5.7-14.9c-1.1-2.9-2.3-6-4.8-7.9c-4.7-3.6-12.2-2.9-17.6-2.1
		C416.9,195.8,411.5,195.5,406.6,197.1z"/>
	<path class="st15" d="M408.4,240.4c0,0,2.5,8.1-16.4,17.5s1.9,19.3,1.9,19.3l22.1,5c0,0,22.7-3.1,25.2-6.9s6.9-16.2,5.7-18.1
		c-0.9-1.3-2-2.6-3.2-3.7c0,0-15.1-2.5-14.5-9.4C429.8,237.3,408.4,240.4,408.4,240.4z"/>
	<path class="st14" d="M408.4,240.4c0,0,2.5,8.1-16.4,17.5s1.9,19.3,1.9,19.3l22.1,5c0,0,22.7-3.1,25.2-6.9s6.9-16.2,5.7-18.1
		c-0.9-1.3-2-2.6-3.2-3.7c0,0-15.1-2.5-14.5-9.4C429.8,237.3,408.4,240.4,408.4,240.4z"/>
	<ellipse class="st15" cx="420.7" cy="233.2" rx="20.2" ry="20"/>
	<path class="st16" d="M418.5,275.4c0,0-24.3-1.8-24.8-18.4c0,0-8.7-1-11.2,1.5s-10.7,4.4-10.7,10.6s13.9,25,13.9,25
		s7.6,25,4.4,29.3c-3.2,4.4-3.8,15.6-3.8,15.6s31.5-2.5,36.6,0c5,2.5,25.2,2.5,26.5,0s-1.3-33.7-1.3-33.7s5.7-7.5,4.4-16.2
		l15.1-17.5c0,0-5.7-16.9-14.5-16.9c0,0-12-3.1-12.3-1.6C440.5,254.8,446.9,272.2,418.5,275.4z"/>
	<path class="st15" d="M361.7,330.3c0,0,5.7,8.7,20.2,10.6s17-3.1,15.8-4.4c-1.3-1.2-16.4-6.9-16.4-6.9l-8.8-6.9L361.7,330.3z"/>
	<path class="st15" d="M465.1,322.8l-16.4,9.4c0,0-21.4-1.2-13.2,5s23.3,3.7,23.3,3.7l14.5-6.9L465.1,322.8z"/>
	<path class="st1" d="M383.2,339c0,0-15.1,36.8,3.2,42.4c18.3,5.6,68.7,4.4,80.1-3.1s14.5-17.5,12.6-20.6s-14.5-11.9-23.3-12.5
		S383.2,339,383.2,339z"/>
	<path class="st17" d="M383.2,339c0,0-15.1,36.8,3.2,42.4c18.3,5.6,68.7,4.4,80.1-3.1s14.5-17.5,12.6-20.6s-14.5-11.9-23.3-12.5
		S383.2,339,383.2,339z"/>
	<path class="st1" d="M454.6,341.3c0,0,53.4-19.1,52.8,4s-34.1,29.3-34.1,29.3l-10.1,1.2l-55.5,1.9c0,0,1.9-10-2.5-11.2
		c0,0,14.5-3.7,15.1-4.4c0.6-0.6,36.6-13.1,39.1-13.7s10.1-5.6,15.8-5c0,0,6.3-5,13.2-3.7l-19.6,1.2L454.6,341.3z"/>
	<path class="st14" d="M454.6,341.3c0,0,53.4-19.1,52.8,4s-34.1,29.3-34.1,29.3l-10.1,1.2l-55.5,1.9c0,0,1.9-10-2.5-11.2
		c0,0,14.5-3.7,15.1-4.4c0.6-0.6,36.6-13.1,39.1-13.7s10.1-5.6,15.8-5c0,0,6.3-5,13.2-3.7l-19.6,1.2L454.6,341.3z"/>
	<polygon class="st1" points="445.2,344.4 451.9,359.6 492.9,345.3 496.1,337.2 485.3,335.3 463.8,339 454.4,341.5 	"/>
	<polygon class="st14" points="445.2,344.4 451.9,359.6 492.9,345.3 496.1,337.2 485.3,335.3 463.8,339 454.4,341.5 	"/>
	<path class="st1" d="M357.9,362.7c0,0,12,15,25.9,18.7s21.4-1.2,21.4-1.2l-4.4-17.5l-1.9-11.2l-8.2-5.6l-16.4-7.5l-19.6-6.2
		c0,0-8.2-1.2-8.2,0s7.6,20,7.6,20L357.9,362.7z"/>
	<path class="st18" d="M372.4,370.9c0,0,2.5,18.1,5.7,19.3c3.2,1.2,12.6-1.2,15.1-2.5c2.5-1.2,11.1-7,11.1-7
		S374.3,369.6,372.4,370.9z"/>
	<polygon class="st15" points="429.8,372.7 441.8,374.6 440.5,389 423.8,384.9 	"/>
	<path class="st18" d="M437.3,376.7c0,0-5.6,6.6,0.1,10.4l3.8,3.1c0,0,12.6,2.5,13.9,3.7s6.3-1.9,6.3-1.9s0.6-18.7,0-20
		c-0.6-1.2-8.2-2.5-8.8-1.2c-0.6,1.2-8.2,3.1-12.6,1.9L437.3,376.7z"/>
	<path class="st1" d="M386.9,343.4c0,0-44.1-25.6-51.1-16.2c-6.9,9.4-14.5,22.5,5.7,32.5s83.3,30.6,83.3,30.6s9.5-14.4,9.5-18.1
		c0,0-33.4-15-39.1-16.2s-28.4-15.6-31.5-16.9c-3.2-1.2-7.6-5-7.6-5L386.9,343.4z"/>
	<path class="st16" d="M374.3,266l-2.5,1.9c0,0-5.7,14.4-6.3,22.5s-8.2,33.1-7.6,36.2s1.3,5.6,5,8.7c0,0,5-11.2,13.9-9.4l10.7-38.7
		L374.3,266z"/>
	<path class="st16" d="M462.6,266l5,5.6c0,0,3.2,7.5,3.2,9.4s6.3,29.3,6.9,30.6c0.6,1.2,3.2,16.9,0,20.6s-8.8,6.2-8.8,6.2
		s3.8-13.1-8.2-13.7l1.3-5l-11.4-37.4L462.6,266z"/>
	<path class="st2" d="M375.6,309v32.9c0,4.3,3.5,7.8,7.9,7.9l69.5,1c4.3,0.1,7.9-3.3,8.1-7.6l1.3-32.9c0.2-4.4-3.3-8-7.7-8.2
		c-0.1,0-0.1,0-0.2,0l-70.8-1c-4.4-0.1-8,3.4-8.1,7.8C375.6,308.9,375.6,308.9,375.6,309z"/>
	<ellipse class="st1" cx="421.9" cy="221" rx="21.7" ry="11.6"/>
	<ellipse class="st18" cx="418.2" cy="326.2" rx="5" ry="5"/>
</g>
<line class="st19" x1="497.3" y1="282.8" x2="679.9" y2="282.8"/>
<path class="st4" d="M497.3,288.3c-2.7,0-5-2.2-5-5c0-2.7,2.2-5,5-5c2.7,0,5,2.2,5,5C502.2,286.1,500,288.3,497.3,288.3z"/>
<g>
	<rect x="77.7" y="352.7" class="st20" width="116.3" height="38"/>
	<g>
		<path class="st21" d="M179.9,386.6c-0.3,0-0.6-0.1-0.8-0.2l-2.5-1.4c-0.4-0.2-0.2-0.3-0.1-0.3c0.5-0.2,0.6-0.2,1.2-0.5
			c0.1,0,0.1,0,0.2,0l1.9,1.2c0.1,0,0.2,0,0.2,0l7.5-4.3c0.1,0,0.1-0.1,0.1-0.2v-8.7c0-0.1,0-0.2-0.1-0.2l-7.5-4.3
			c-0.1,0-0.2,0-0.2,0l-7.5,4.3c-0.1,0-0.1,0.1-0.1,0.2v8.7c0,0.1,0,0.2,0.1,0.2l2,1.2c1.2,0.6,1.8-0.1,1.8-0.8v-8.6
			c0-0.1,0.1-0.2,0.2-0.2h1c0.1,0,0.2,0.1,0.2,0.2v8.6c0,1.5-0.8,2.3-2.2,2.3c-0.5,0-0.8,0-1.7-0.5l-2-1.2c-0.5-0.3-0.8-0.8-0.8-1.4
			V372c0-0.6,0.3-1.1,0.8-1.4l7.5-4.3c0.5-0.3,1.2-0.3,1.5,0l7.5,4.3c0.5,0.3,0.8,0.8,0.8,1.4v8.7c0,0.6-0.3,1.1-0.8,1.4l-7.5,4.3
			C180.5,386.5,180.2,386.6,179.9,386.6z"/>
		<path class="st21" d="M182.3,380.7c-3.3,0-4-1.5-4-2.8c0-0.1,0.1-0.2,0.2-0.2h1c0.1,0,0.2,0.1,0.2,0.2c0.2,1,0.6,1.4,2.6,1.4
			c1.5,0,2.2-0.4,2.2-1.2c0-0.5-0.2-0.9-2.7-1.1c-2-0.2-3.4-0.7-3.4-2.3c0-1.5,1.3-2.4,3.5-2.4c2.4,0,3.6,0.9,3.8,2.6
			c0,0.1,0,0.1-0.1,0.2c0,0-0.1,0.1-0.2,0.1h-1c-0.1,0-0.2-0.1-0.2-0.2c-0.2-1.1-0.8-1.4-2.3-1.4c-1.7,0-1.9,0.6-1.9,1.1
			c0,0.6,0.2,0.7,2.6,1.1c2.3,0.3,3.4,0.8,3.4,2.4C186.1,379.7,184.6,380.7,182.3,380.7z"/>
	</g>
	<path class="st22" d="M99.7,372c0-0.4-0.2-0.7-0.5-0.9l-8-4.6c-0.1-0.1-0.3-0.1-0.5-0.1h-0.1c-0.2,0-0.3,0-0.5,0.1l-8,4.6
		c-0.3,0.2-0.5,0.5-0.5,0.9v12.5c0,0.2,0.1,0.3,0.3,0.4c0.2,0.1,0.3,0.1,0.5,0l4.7-2.7c0.3-0.2,0.5-0.5,0.5-0.9v-5.8
		c0-0.4,0.2-0.7,0.5-0.9l2-1.2c0.2-0.1,0.3-0.1,0.5-0.1s0.3,0,0.5,0.1l2,1.2c0.3,0.2,0.5,0.5,0.5,0.9v5.8c0,0.4,0.2,0.7,0.5,0.9
		l4.7,2.7c0.2,0.1,0.3,0.1,0.5,0s0.2-0.3,0.2-0.4L99.7,372z"/>
	<path class="st22" d="M138.3,355c-0.2-0.1-0.3-0.1-0.5,0s-0.2,0.3-0.2,0.4v12.3c0,0.1-0.1,0.2-0.2,0.3c-0.1,0.1-0.2,0.1-0.4,0
		l-2-1.2c-0.3-0.2-0.7-0.2-1,0l-8,4.6c-0.3,0.2-0.5,0.5-0.5,0.9v9.3c0,0.4,0.2,0.7,0.5,0.9l8,4.6c0.3,0.2,0.7,0.2,1,0l8-4.6
		c0.3-0.2,0.5-0.5,0.5-0.9v-23.1c0-0.4-0.2-0.7-0.5-0.9L138.3,355z M137.5,378.4c0,0.1,0,0.2-0.1,0.2l-2.7,1.5c-0.1,0-0.2,0-0.3,0
		l-2.7-1.5c-0.1,0-0.1-0.1-0.1-0.2v-3.2c0-0.1,0-0.2,0.1-0.2l2.7-1.5c0.1,0,0.2,0,0.3,0l2.7,1.5c0.1,0,0.1,0.1,0.1,0.2V378.4z"/>
	<g>
		<path class="st22" d="M164.9,375.2c0.3-0.2,0.5-0.5,0.5-0.9v-2.2c0-0.4-0.2-0.7-0.5-0.9l-7.9-4.6c-0.3-0.2-0.7-0.2-1,0l-8,4.6
			c-0.3,0.2-0.5,0.5-0.5,0.9v9.3c0,0.4,0.2,0.7,0.5,0.9l7.9,4.5c0.3,0.2,0.7,0.2,1,0l4.8-2.7c0.2-0.1,0.3-0.3,0.3-0.4
			c0-0.2-0.1-0.3-0.3-0.4l-8-4.6c-0.2-0.1-0.3-0.3-0.3-0.4v-2.9c0-0.2,0.1-0.3,0.3-0.4l2.5-1.4c0.2-0.1,0.3-0.1,0.5,0l2.5,1.4
			c0.2,0.1,0.3,0.3,0.3,0.4v2.3c0,0.2,0.1,0.3,0.3,0.4s0.3,0.1,0.5,0L164.9,375.2z"/>
		<path class="st23" d="M156.4,374.8c0.1,0,0.1,0,0.2,0l1.5,0.9c0.1,0,0.1,0.1,0.1,0.2v1.7c0,0.1,0,0.1-0.1,0.2l-1.5,0.9
			c-0.1,0-0.1,0-0.2,0l-1.5-0.9c-0.1,0-0.1-0.1-0.1-0.2v-1.7c0-0.1,0-0.1,0.1-0.2L156.4,374.8z"/>
	</g>
	<g>
		<g>
			
				<linearGradient id="XMLID_00000003067866265360184000000018415350192533259142_" gradientUnits="userSpaceOnUse" x1="115.9559" y1="310.1579" x2="108.7569" y2="324.8439" gradientTransform="matrix(1 0 0 1 0 60)">
				<stop  offset="0" style="stop-color:#3F873F"/>
				<stop  offset="0.3296" style="stop-color:#3F8B3D"/>
				<stop  offset="0.6367" style="stop-color:#3E9638"/>
				<stop  offset="0.9341" style="stop-color:#3DA92E"/>
				<stop  offset="1" style="stop-color:#3DAE2B"/>
			</linearGradient>
			
				<path id="XMLID_143_" style="fill-rule:evenodd;clip-rule:evenodd;fill:url(#XMLID_00000003067866265360184000000018415350192533259142_);" d="
				M113.2,366.7c-0.3-0.2-0.7-0.2-1,0l-7.9,4.6c-0.3,0.2-0.5,0.5-0.5,0.9v9.2c0,0.4,0.2,0.7,0.5,0.9l7.9,4.6c0.3,0.2,0.7,0.2,1,0
				l7.9-4.6c0.3-0.2,0.5-0.5,0.5-0.9v-9.2c0-0.4-0.2-0.7-0.5-0.9L113.2,366.7z"/>
		</g>
		<g>
			<g>
				<defs>
					<path id="SVGID_00000014604401897669496780000012605533866215102596_" d="M113.2,366.7c-0.3-0.2-0.7-0.2-1,0l-7.9,4.6
						c-0.3,0.2-0.5,0.5-0.5,0.9v9.2c0,0.4,0.2,0.7,0.5,0.9l7.9,4.6c0.3,0.2,0.7,0.2,1,0l7.9-4.6c0.3-0.2,0.5-0.5,0.5-0.9v-9.2
						c0-0.4-0.2-0.7-0.5-0.9L113.2,366.7z"/>
				</defs>
				<clipPath id="SVGID_00000160165074800771333750000013737217711716583304_">
					<use xlink:href="#SVGID_00000014604401897669496780000012605533866215102596_"  style="overflow:visible;"/>
				</clipPath>
				<g style="clip-path:url(#SVGID_00000160165074800771333750000013737217711716583304_);">
					<path class="st26" d="M112.2,366.7l-8,4.6c-0.3,0.2-0.5,0.5-0.5,0.9v9.2c0,0.2,0.1,0.5,0.3,0.6l9-15.4
						C112.7,366.6,112.4,366.6,112.2,366.7z"/>
					<path class="st26" d="M113,386.8c0.1,0,0.2-0.1,0.2-0.1l8-4.6c0.3-0.2,0.5-0.5,0.5-0.9V372c0-0.3-0.1-0.5-0.3-0.7L113,386.8z"
						/>
					
						<linearGradient id="SVGID_00000136381296571237667060000003307418140621778608_" gradientUnits="userSpaceOnUse" x1="111.4679" y1="317.845" x2="131.6678" y2="302.9203" gradientTransform="matrix(1 0 0 1 0 60)">
						<stop  offset="0.1376" style="stop-color:#3F873F"/>
						<stop  offset="0.4016" style="stop-color:#52A044"/>
						<stop  offset="0.7129" style="stop-color:#64B749"/>
						<stop  offset="0.9081" style="stop-color:#6ABF4B"/>
					</linearGradient>
					<path style="fill:url(#SVGID_00000136381296571237667060000003307418140621778608_);" d="M121.2,371.3l-8-4.6
						c-0.1,0-0.2-0.1-0.3-0.1l-9,15.4c0.1,0.1,0.2,0.2,0.3,0.2l8,4.6c0.2,0.1,0.5,0.2,0.8,0.1l8.4-15.4
						C121.3,371.4,121.2,371.4,121.2,371.3z"/>
				</g>
			</g>
		</g>
		<g>
			<g>
				<defs>
					<path id="SVGID_00000119104181730950508900000010113661708398892941_" d="M113.2,366.7c-0.3-0.2-0.7-0.2-1,0l-7.9,4.6
						c-0.3,0.2-0.5,0.5-0.5,0.9v9.2c0,0.4,0.2,0.7,0.5,0.9l7.9,4.6c0.3,0.2,0.7,0.2,1,0l7.9-4.6c0.3-0.2,0.5-0.5,0.5-0.9v-9.2
						c0-0.4-0.2-0.7-0.5-0.9L113.2,366.7z"/>
				</defs>
				<clipPath id="SVGID_00000053540209338082771430000015769963129745260978_">
					<use xlink:href="#SVGID_00000119104181730950508900000010113661708398892941_"  style="overflow:visible;"/>
				</clipPath>
				<g style="clip-path:url(#SVGID_00000053540209338082771430000015769963129745260978_);">
					<path class="st26" d="M121.7,381.3v-9.2c0-0.4-0.2-0.7-0.5-0.9l-8-4.6c-0.1-0.1-0.2-0.1-0.3-0.1l8.8,15
						C121.7,381.5,121.7,381.4,121.7,381.3z"/>
					<path class="st26" d="M104.2,371.3c-0.3,0.2-0.5,0.5-0.5,0.9v9.2c0,0.4,0.2,0.7,0.5,0.9l8,4.6c0.2,0.1,0.4,0.2,0.6,0.1
						L104.2,371.3L104.2,371.3z"/>
					
						<linearGradient id="SVGID_00000096035515327574786470000009542019121305297819_" gradientUnits="userSpaceOnUse" x1="103.4472" y1="305.05" x2="121.8711" y2="305.05" gradientTransform="matrix(1 0 0 1 0 60)">
						<stop  offset="9.191646e-02" style="stop-color:#6ABF4B"/>
						<stop  offset="0.2871" style="stop-color:#64B749"/>
						<stop  offset="0.5984" style="stop-color:#52A044"/>
						<stop  offset="0.8624" style="stop-color:#3F873F"/>
					</linearGradient>
					<polygon style="fill:url(#SVGID_00000096035515327574786470000009542019121305297819_);" points="111.9,365 111.8,365.1 
						112,365.1 					"/>
					
						<linearGradient id="SVGID_00000150090107231595135470000009643519824359884930_" gradientUnits="userSpaceOnUse" x1="103.4472" y1="316.7" x2="121.8711" y2="316.7" gradientTransform="matrix(1 0 0 1 0 60)">
						<stop  offset="9.191646e-02" style="stop-color:#6ABF4B"/>
						<stop  offset="0.2871" style="stop-color:#64B749"/>
						<stop  offset="0.5984" style="stop-color:#52A044"/>
						<stop  offset="0.8624" style="stop-color:#3F873F"/>
					</linearGradient>
					<path style="fill:url(#SVGID_00000150090107231595135470000009643519824359884930_);" d="M121.2,382.2c0.2-0.1,0.4-0.4,0.5-0.6
						l-8.8-15c-0.2,0-0.5,0-0.7,0.1l-7.9,4.5l8.6,15.6c0.1,0,0.3-0.1,0.4-0.1L121.2,382.2z"/>
					
						<linearGradient id="SVGID_00000073718881262469994220000002312901495489238157_" gradientUnits="userSpaceOnUse" x1="121.8" y1="322" x2="121.8" y2="322" gradientTransform="matrix(1 0 0 1 0 60)">
						<stop  offset="9.191646e-02" style="stop-color:#6ABF4B"/>
						<stop  offset="0.2871" style="stop-color:#64B749"/>
						<stop  offset="0.5984" style="stop-color:#52A044"/>
						<stop  offset="0.8624" style="stop-color:#3F873F"/>
					</linearGradient>
					<polygon style="fill:url(#SVGID_00000073718881262469994220000002312901495489238157_);" points="121.8,382 121.8,381.9 
						121.8,382.1 					"/>
					
						<linearGradient id="SVGID_00000106140591579049396560000009308324169209803149_" gradientUnits="userSpaceOnUse" x1="103.4472" y1="324.4" x2="121.8711" y2="324.4" gradientTransform="matrix(1 0 0 1 0 60)">
						<stop  offset="9.191646e-02" style="stop-color:#6ABF4B"/>
						<stop  offset="0.2871" style="stop-color:#64B749"/>
						<stop  offset="0.5984" style="stop-color:#52A044"/>
						<stop  offset="0.8624" style="stop-color:#3F873F"/>
					</linearGradient>
					<path style="fill:url(#SVGID_00000106140591579049396560000009308324169209803149_);" d="M121.2,382.2l-8,4.6
						c-0.1,0.1-0.2,0.1-0.4,0.1l0.2,0.3l8.9-5.1V382l-0.2-0.4C121.6,381.8,121.4,382,121.2,382.2z"/>
					
						<linearGradient id="SVGID_00000027585442453682021080000006821252789497608084_" gradientUnits="userSpaceOnUse" x1="124.5975" y1="309.7152" x2="113.2348" y2="332.8951" gradientTransform="matrix(1 0 0 1 0 60)">
						<stop  offset="0" style="stop-color:#3F873F"/>
						<stop  offset="0.3296" style="stop-color:#3F8B3D"/>
						<stop  offset="0.6367" style="stop-color:#3E9638"/>
						<stop  offset="0.9341" style="stop-color:#3DA92E"/>
						<stop  offset="1" style="stop-color:#3DAE2B"/>
					</linearGradient>
					<path style="fill:url(#SVGID_00000027585442453682021080000006821252789497608084_);" d="M121.2,382.2l-8,4.6
						c-0.1,0.1-0.2,0.1-0.4,0.1l0.2,0.3l8.9-5.1V382l-0.2-0.4C121.6,381.8,121.4,382,121.2,382.2z"/>
				</g>
			</g>
		</g>
	</g>
</g>
<path class="st4" d="M295.3,217.1c-2.7,0-5-2.2-5-5c0-2.7,2.2-5,5-5s5,2.2,5,5C300.2,214.9,298,217.1,295.3,217.1z"/>
<path class="st4" d="M311.7,267.9c-2.7,0-5-2.2-5-5c0-2.7,2.2-5,5-5s5,2.2,5,5C316.6,265.7,314.4,267.9,311.7,267.9z"/>
<path class="st4" d="M480.4,166.7c-2.7,0-5-2.2-5-5c0-2.7,2.2-5,5-5c2.7,0,5,2.2,5,5S483.2,166.7,480.4,166.7z"/>
<path class="st4" d="M396.1,138.4c-2.7,0-5-2.2-5-5c0-2.7,2.2-5,5-5c2.7,0,5,2.2,5,5C401,136.2,398.8,138.4,396.1,138.4z"/>
<line class="st19" x1="262.8" y1="265.8" x2="169" y2="265.8"/>
<path class="st4" d="M260.6,270.7c-2.7,0-5-2.2-5-5c0-2.7,2.2-5,5-5c2.7,0,5,2.2,5,5S263.4,270.7,260.6,270.7z"/>
<path class="st34" d="M171.2,250.4c0,0.1,0,0.2,0,0.3v14.5c0,0.4-0.2,0.8-0.6,0.9l-12.2,7v14c0,0.4-0.2,0.8-0.6,0.9l-25.4,14.6
	c-0.1,0-0.1,0.1-0.2,0.1c0,0,0,0-0.1,0c-0.2,0-0.4,0-0.6,0h-0.1c-0.1,0-0.1,0-0.2-0.1L105.8,288c-0.3-0.2-0.6-0.6-0.6-0.9v-43.6
	c0-0.1,0-0.2,0-0.3v-0.1c0-0.1,0-0.1,0.1-0.2l0.1-0.1l0.1-0.1l0.1-0.1l0.1-0.1l0,0l12.7-7.3c0.3-0.2,0.8-0.2,1,0l12.7,7.3l0,0
	l0.1,0.1l0.1,0.1l0.1,0.1l0.1,0.1c0,0.1,0.1,0.1,0.1,0.2v0.1c0,0.1,0,0.2,0,0.3v27.2l10.6-6.1v-14c0-0.1,0-0.2,0-0.3v-0.1
	c0-0.1,0-0.1,0.1-0.2l0.1-0.1l0.1-0.1l0.1-0.1l0.1-0.1l0,0l12.7-7.3c0.3-0.2,0.8-0.2,1,0l12.7,7.3l0.1,0.1l0.1,0.1l0.1,0.1l0.1,0.1
	C171.1,250.2,171.1,250.3,171.2,250.4C171.1,250.4,171.2,250.4,171.2,250.4L171.2,250.4z M169.1,264.6v-12.1l-4.5,2.6l-6.2,3.5v12.1
	L169.1,264.6L169.1,264.6z M156.4,286.5v-12.1l-6.1,3.4l-17.3,9.9V300L156.4,286.5z M107.6,245.4v41.1l23.4,13.4v-12.2l-12.2-6.9
	l0,0l0,0l-0.1-0.1l-0.1-0.1l0,0l-0.1-0.1l-0.1-0.1l0,0c0,0,0-0.1-0.1-0.1c0,0,0-0.1-0.1-0.1l0,0c0-0.1,0-0.1,0-0.2v-0.1v-28.5
	l-6.2-3.5L107.6,245.4L107.6,245.4z M119.3,237.4l-10.6,6.1l10.6,6.1l10.6-6.1L119.3,237.4L119.3,237.4z M124.8,275.5l6.2-3.5v-26.6
	l-4.5,2.6l-6.2,3.5V278L124.8,275.5z M157.4,244.6l-10.6,6.1l10.6,6.1l10.6-6.1L157.4,244.6z M156.4,258.6l-6.2-3.5l-4.5-2.6v12.1
	l6.2,3.5l4.5,2.6V258.6z M132,285.9l15.6-8.9l7.8-4.5l-10.6-6.1l-12.2,7l-11.1,6.4L132,285.9z"/>
<g>
	<polygon class="st35" points="730.7,255.1 703.6,255.1 703.6,255.1 676.5,255.1 681.6,310.2 703.6,316.5 703.6,316.5 703.6,316.5 
		703.6,316.5 703.6,316.5 725.6,310.2 	"/>
	<polygon class="st36" points="703.6,259.6 703.6,311.8 703.6,311.8 721.5,306.7 725.8,259.6 	"/>
	<polygon class="st7" points="717.8,266.3 690.4,266.3 688.4,287 688.5,286.9 711.8,286.9 711,295.6 703.6,297.7 696.1,295.6 
		695.6,290.3 688.7,290.3 689.7,300.8 703.6,304.8 717.5,300.8 719.4,280.1 694.7,280.1 695,273.2 712.1,273.2 712.4,277.2 
		719.3,277.2 	"/>
	<g>
		<path class="st37" d="M703.6,266.3h-13.3l-1.9,20.6v-0.1h15.1v-6.7h-8l0.3-6.9h7.7v-6.9H703.6z M695.6,290.3h-6.9l1,10.6l13.9,3.9
			v-7l-7.6-2.2L695.6,290.3z"/>
	</g>
	<g>
		<polygon class="st38" points="698.3,247 693.5,247 693.5,250.4 698.3,250.4 700.9,250.4 701.8,250.4 701.8,240.1 698.3,240.1 		
			"/>
		<path class="st38" d="M713.7,240.2h-8.4c0,0,0,1.8,0,3.6c1.1,1.1,1.7,1.7,3.3,3.3c-1,0-3.3,0-3.3,0v3.3h8.4v-3.3l-3.4-3.3h3.4
			V240.2z"/>
	</g>
</g>
<g>
	<polygon class="st6" points="430.7,401.3 678.2,401.3 678.2,365 679.9,365 679.9,401.9 430.7,401.9 	"/>
</g>
<path class="st4" d="M429.8,405.8c-2.7,0-5-2.2-5-5c0-2.7,2.2-5,5-5s5,2.2,5,5C434.8,403.6,432.5,405.8,429.8,405.8z"/>
<g>
	
		<radialGradient id="SVGID_00000050644276321904457560000006384011359754698396_" cx="744.3619" cy="215.6531" r="122.9958" gradientTransform="matrix(0.463 0 0 0.463 317.0404 249.3182)" gradientUnits="userSpaceOnUse">
		<stop  offset="0" style="stop-color:#FFFFFF"/>
		<stop  offset="0.5" style="stop-color:#4C6B97"/>
		<stop  offset="1" style="stop-color:#231F20"/>
	</radialGradient>
	
		<ellipse style="fill:url(#SVGID_00000050644276321904457560000006384011359754698396_);" cx="679" cy="363.9" rx="43.4" ry="22.8"/>
	<ellipse class="st40" cx="679" cy="363.9" rx="41.7" ry="21.1"/>
	<g>
		<path class="st7" d="M687.4,370.8l2.1-10.6c0.5-2.4,0.1-4.2-1.2-5.3c-1.2-1.1-3.2-1.6-6.2-1.6h-3.6l1-5.3c0-0.2,0-0.4-0.1-0.6
			s-0.3-0.2-0.5-0.2H674c-0.3,0-0.6,0.2-0.7,0.5l-2.2,11.3c-0.2-1.3-0.7-2.4-1.5-3.3c-1.5-1.7-3.7-2.5-6.8-2.5h-9.5
			c-0.3,0-0.6,0.2-0.7,0.5l-4.4,22.9c0,0.2,0,0.4,0.1,0.6s0.3,0.2,0.5,0.2h5c0.3,0,0.6-0.2,0.7-0.5l1.1-5.5h3.7
			c1.9,0,3.6-0.2,4.8-0.6c1.3-0.4,2.5-1.2,3.6-2.1c0.8-0.8,1.6-1.7,2.1-2.6l-0.9,4.6c0,0.2,0,0.4,0.1,0.6s0.3,0.2,0.5,0.2h4.9
			c0.3,0,0.6-0.2,0.7-0.5l2.4-12.5h3.4c1.5,0,1.9,0.3,2,0.4s0.3,0.5,0.1,1.8l-2,10.1c0,0.2,0,0.4,0.1,0.6s0.3,0.2,0.5,0.2h5.1
			C687.1,371.3,687.4,371.1,687.4,370.8z M664.5,362c-0.3,1.6-0.9,2.7-1.7,3.4s-2.2,1-4.1,1h-2.2l1.6-8.2h2.8c2.1,0,2.9,0.4,3.3,0.8
			C664.7,359.5,664.8,360.6,664.5,362z"/>
		<path class="st7" d="M708.6,355.7c-1.5-1.7-3.7-2.5-6.8-2.5h-9.6c-0.3,0-0.6,0.2-0.7,0.5l-4.4,22.9c0,0.2,0,0.4,0.1,0.6
			s0.3,0.2,0.5,0.2h5c0.3,0,0.6-0.2,0.7-0.5l1.1-5.5h3.7c1.9,0,3.6-0.2,4.8-0.6c1.3-0.4,2.5-1.2,3.6-2.1c0.9-0.8,1.6-1.7,2.2-2.7
			s0.9-2.1,1.2-3.3C710.5,359.7,710,357.4,708.6,355.7z M703.4,362c-0.3,1.6-0.9,2.7-1.7,3.4c-0.8,0.6-2.2,1-4.1,1h-2.2l1.6-8.2h2.8
			c2.1,0,2.9,0.4,3.3,0.8C703.6,359.5,703.7,360.6,703.4,362z"/>
	</g>
	<g>
		<path class="st41" d="M661,357.5c1.9,0,3.2,0.3,3.8,1.1c0.6,0.7,0.8,1.9,0.4,3.6c-0.3,1.8-1,3-2,3.8c-1,0.7-2.5,1.1-4.5,1.1h-3
			l1.9-9.6H661z M648.9,376.7h5l1.2-6.1h4.3c1.9,0,3.4-0.2,4.6-0.6s2.3-1.1,3.3-2c0.8-0.8,1.5-1.6,2-2.5s0.9-1.9,1.1-3
			c0.5-2.7,0.1-4.8-1.2-6.3s-3.4-2.3-6.3-2.3h-9.6L648.9,376.7z"/>
		<path class="st41" d="M674,347.8h4.9l-1.2,6.1h4.4c2.8,0,4.7,0.5,5.7,1.5c1.1,1,1.4,2.5,0.9,4.7l-2.1,10.6h-5l2-10.1
			c0.2-1.2,0.1-1.9-0.2-2.3c-0.4-0.4-1.2-0.6-2.5-0.6h-4l-2.5,13.1h-4.9L674,347.8z"/>
		<path class="st41" d="M699.8,357.5c1.9,0,3.2,0.3,3.8,1.1c0.6,0.7,0.8,1.9,0.4,3.6c-0.3,1.8-1,3-2,3.8c-1,0.7-2.5,1.1-4.5,1.1h-3
			l1.9-9.6H699.8z M687.7,376.7h5l1.2-6.1h4.3c1.9,0,3.4-0.2,4.6-0.6s2.3-1.1,3.3-2c0.8-0.8,1.5-1.6,2-2.5s0.9-1.9,1.1-3
			c0.5-2.7,0.1-4.8-1.2-6.3s-3.4-2.3-6.3-2.3h-9.6L687.7,376.7z"/>
	</g>
</g>
<polygon class="st6" points="530.7,226.5 670.7,226.5 670.7,205.2 671.6,205.2 671.6,226.9 530.7,226.9 "/>
<g>
	<path class="st42" d="M663.9,192.1l-2.1,0.1l-1.1,0.1v-2.7l1.5-0.3l0.9-0.2c0,0,2.8-8.3,5.5-6.8S663.9,192.1,663.9,192.1z"/>
	<path class="st14" d="M661.8,192.2l-1.1,0.1v-2.7l1.5-0.3C661.6,190,661.7,191.2,661.8,192.2z"/>
	<path class="st43" d="M697.9,148l-4.8,53.4l-21.4,5.9l-21.4-5.9l-4.8-53.4H697.9L697.9,148z"/>
	<path class="st44" d="M671.7,202.8L689,198l4.1-45.6h-21.4L671.7,202.8L671.7,202.8z"/>
	<path class="st13" d="M662.4,165.5h9.3v-6.6h-16.4l0.2,1.8l1.6,18.1h14.7v-6.6h-8.7L662.4,165.5z M663.9,182h-6.6l0.9,10.3
		l13.4,3.7l0,0v-6.8l0,0l-7.3-2L663.9,182z"/>
	<path d="M650.4,133.5h3.3v3.3h3v-3.3h3.3v10h-3.3v-3.3h-3v3.3h-3.3V133.5z M664.5,136.8h-2.9v-3.3h9.2v3.3h-2.9v6.7h-3.3
		L664.5,136.8L664.5,136.8L664.5,136.8z M672.2,133.5h3.5l2.1,3.5l2.1-3.5h3.5v10h-3.3v-4.9l-2.3,3.5h-0.1l-2.3-3.5v4.9h-3.3
		L672.2,133.5L672.2,133.5z M685.1,133.5h3.3v6.7h4.7v3.3h-8V133.5L685.1,133.5z"/>
	<path class="st7" d="M671.7,178.7h8.1l-0.8,8.5l-7.3,2v6.8l13.4-3.7l0.1-1.1l1.5-17.2l0.2-1.8h-15.2V178.7L671.7,178.7z
		 M671.7,165.5L671.7,165.5h15.8l0.1-1.5l0.3-3.3l0.2-1.8h-16.4L671.7,165.5L671.7,165.5z"/>
</g>
<path class="st4" d="M531,231.2c-2.7,0-5-2.2-5-5c0-2.7,2.2-5,5-5s5,2.2,5,5C536,228.9,533.8,231.2,531,231.2z"/>
</svg>
