<?xml version="1.0" encoding="utf-8"?>
<!-- Generator: Adobe Illustrator 23.0.1, SVG Export Plug-In . SVG Version: 6.00 Build 0)  -->
<svg version="1.1" id="afcf7ba7-9a9d-4a96-99b1-c6a86c14369d"
	 xmlns="http://www.w3.org/2000/svg" xmlns:xlink="http://www.w3.org/1999/xlink" x="0px" y="0px" viewBox="0 0 1124.7 770.8"
	 style="enable-background:new 0 0 1124.7 770.8;" xml:space="preserve">
<style type="text/css">
	.st0{opacity:0.1;fill:#C20AB1;enable-background:new    ;}
	.st1{fill:#C20AB1;}
	.st2{fill:#3F3D56;}
	.st3{fill:#FFFFFF;}
	.st4{opacity:0.4;}
	.st5{fill:#E6E6E6;}
	.st6{fill:#575A89;}
	.st7{fill:#F2F2F2;}
	.st8{opacity:0.1;enable-background:new    ;}
	.st9{fill:url(#SVGID_1_);}
	.st10{fill:#E14B5A;}
	.st11{fill:#F7C4A7;}
	.st12{fill:#575988;}
	.st13{opacity:0.1;}
	.st14{fill:#632652;}
	.st15{fill:#535461;}
	.st16{opacity:0.1;fill:none;stroke:#000000;stroke-miterlimit:10;enable-background:new    ;}
	.st17{fill:#6A5C99;}
	.st18{fill:#FFD037;}
	.st19{fill:#D6D6E3;}
	.st20{fill:none;stroke:#535461;stroke-width:3;stroke-miterlimit:10;}
</style>
<title>Firmware</title>
<g>
	<path class="st0" d="M1060.8,437.4c-37.7,47.9-23,117.8,0.9,173.9c8,18.8,17.1,38.6,13.7,58.7c-4.1,24.6-26.1,42.6-49.1,52.1
		c-42,17.4-92.3,13.2-130.9-10.8c-33.4-20.8-57.3-54.5-91.2-74.3c-56.8-33.2-129.1-20.6-190.7,2.2c-43.6,16.2-91.3,37.2-134.7,20.3
		c-30.5-11.9-51.6-40.8-63.1-71.5c-5.5-14.8-9.6-30.8-20.2-42.6c-6.3-7-14.5-11.9-22.9-16.1c-76.9-38.1-174-17.7-248.6-60
		C73.5,440.9,41.3,387,27,330.8s-12.6-115-9-172.9c2.6-41.1,7.2-85,33.5-116.7C79.2,7.7,126.9-4.8,170,1.6s82.2,29.1,116.5,55.9
		c42.9,33.5,82.8,75.1,135.5,88.7c35.9,9.2,73.7,4.2,110.7,2.4c61.9-2.9,123.9,3.6,185.4,10.7c58.9,6.8,118.3,14.3,174.5,33.5
		c39.7,13.6,71.6,38.2,109.1,55.4c24.5,11.2,51.1,14.3,74.3,28.6c28.5,17.6,54.7,48.2,47.4,84C1116.5,394.9,1080.8,412,1060.8,437.4
		z"/>
	<g>
		<path class="st1" d="M673.6,390.5c-11.9,0-23.7,2.3-34.7,6.7c-0.4,0.2-0.9,0.4-1.3,0.6c-34.2,14.4-56.5,48-56.4,85.1v100.8
			c0,2.2,1.8,4,4,4l0.1,0C662.7,601.9,737.9,609,809,609c1.1,0,2.1,0,3.2,0c69.9-0.2,137.9-7.3,202.2-21.2l0.1,0c2.2,0,4-1.8,4-4
			V394.6c0-2.2-1.8-4-4-4L673.6,390.5z"/>
		<path id="f4300551-56ef-4356-8f30-d0080b223343" class="st2" d="M914,471c-1.5,0-2.6,1.2-2.6,2.7c0,1.4,1.2,2.6,2.6,2.6h66.5
			c1.5,0,2.7-1.1,2.7-2.6c0-1.5-1.1-2.7-2.6-2.7l0,0c0,0-0.1,0-0.1,0H914z"/>
		<path class="st3" d="M995.6,470.2c-0.2,0.2-0.2,0.5,0,0.7c0,0,0,0,0,0l2.2,2.2h-5.5c-0.3,0-0.5,0.2-0.5,0.5s0.2,0.5,0.5,0.5h5.5
			l-2.2,2.2c-0.2,0.2-0.2,0.5,0,0.7c0.2,0.2,0.5,0.2,0.7,0c0,0,0,0,0,0l3.1-3.1c0.2-0.2,0.2-0.5,0-0.7l-3.1-3.1
			C996.2,470,995.9,470,995.6,470.2L995.6,470.2z"/>
		<path class="st3" d="M898.9,470.2c0.2,0.2,0.2,0.5,0,0.7c0,0,0,0,0,0l-2.2,2.2h5.5c0.3,0,0.5,0.2,0.5,0.5c0,0.3-0.2,0.5-0.5,0.5
			c0,0,0,0,0,0h-5.5l2.2,2.2c0.2,0.2,0.2,0.5,0,0.7c-0.2,0.2-0.5,0.2-0.7,0l0,0l-3.1-3.1c-0.2-0.2-0.2-0.5,0-0.7l3.1-3.1
			C898.4,470,898.7,470,898.9,470.2C898.9,470.2,898.9,470.2,898.9,470.2z"/>
		<g class="st4">
			<circle class="st3" cx="916.7" cy="413" r="2.9"/>
			<circle class="st3" cx="928.6" cy="413" r="2.9"/>
			<circle class="st3" cx="940.5" cy="413" r="2.9"/>
			<circle class="st3" cx="952.4" cy="413" r="2.9"/>
			<circle class="st3" cx="964.2" cy="413" r="2.9"/>
			<circle class="st3" cx="976.1" cy="413" r="2.9"/>
			<circle class="st3" cx="988" cy="413" r="2.9"/>
			<circle class="st3" cx="916.7" cy="422.1" r="2.9"/>
			<circle class="st3" cx="928.6" cy="422.1" r="2.9"/>
			<circle class="st3" cx="940.5" cy="422.1" r="2.9"/>
			<circle class="st3" cx="952.4" cy="422.1" r="2.9"/>
			<circle class="st3" cx="964.2" cy="422.1" r="2.9"/>
			<circle class="st3" cx="976.1" cy="422.1" r="2.9"/>
			<circle class="st3" cx="988" cy="422.1" r="2.9"/>
			<circle class="st3" cx="916.7" cy="431.1" r="2.9"/>
			<circle class="st3" cx="928.6" cy="431.1" r="2.9"/>
			<circle class="st3" cx="940.5" cy="431.1" r="2.9"/>
			<circle class="st3" cx="952.4" cy="431.1" r="2.9"/>
			<circle class="st3" cx="964.2" cy="431.1" r="2.9"/>
			<circle class="st3" cx="976.1" cy="431.1" r="2.9"/>
			<circle class="st3" cx="988" cy="431.1" r="2.9"/>
			<circle class="st3" cx="916.7" cy="440.1" r="2.9"/>
			<circle class="st3" cx="928.6" cy="440.1" r="2.9"/>
			<circle class="st3" cx="916.7" cy="449.2" r="2.9"/>
			<circle class="st3" cx="928.6" cy="449.2" r="2.9"/>
			<circle class="st3" cx="940.5" cy="449.2" r="2.9"/>
			<circle class="st3" cx="940.5" cy="440.1" r="2.9"/>
			<circle class="st3" cx="952.4" cy="440.1" r="2.9"/>
			<circle class="st3" cx="964.2" cy="440.1" r="2.9"/>
			<circle class="st3" cx="976.1" cy="440.1" r="2.9"/>
			<circle class="st3" cx="988" cy="440.1" r="2.9"/>
		</g>
		<path class="st2" d="M875.8,558.1c-8.7,0-15.7-7-15.7-15.7c0-8.7,7-15.7,15.7-15.7c8.7,0,15.7,7,15.7,15.7
			C891.5,551.1,884.5,558.1,875.8,558.1z M875.8,527.5c-8.2,0-14.9,6.6-14.9,14.9c0,8.2,6.6,14.9,14.9,14.9
			c8.2,0,14.9-6.6,14.9-14.9C890.6,534.2,884,527.5,875.8,527.5z"/>
		<path class="st3" d="M881.8,540.9h-4.5v-4.5c0-0.8-0.7-1.5-1.5-1.5c-0.8,0-1.5,0.7-1.5,1.5v4.5h-4.5c-0.8,0-1.5,0.7-1.5,1.5
			c0,0.8,0.7,1.5,1.5,1.5h4.5v4.5c0,0.8,0.7,1.5,1.5,1.5c0.8,0,1.5-0.7,1.5-1.5v-4.5h4.5c0.8,0,1.5-0.7,1.5-1.5
			C883.3,541.6,882.7,540.9,881.8,540.9L881.8,540.9L881.8,540.9z"/>
		<g class="st4">
			<circle class="st3" cx="605.2" cy="557.8" r="2.2"/>
			<circle class="st3" cx="605.2" cy="548.5" r="2.2"/>
			<circle class="st3" cx="605.2" cy="539.1" r="2.2"/>
			<circle class="st3" cx="605.2" cy="529.8" r="2.2"/>
			<circle class="st3" cx="605.2" cy="520.4" r="2.2"/>
			<circle class="st3" cx="605.2" cy="511.1" r="2.2"/>
			<circle class="st3" cx="605.2" cy="501.8" r="2.2"/>
			<circle class="st3" cx="612.3" cy="557.8" r="2.2"/>
			<circle class="st3" cx="612.3" cy="548.5" r="2.2"/>
			<circle class="st3" cx="612.3" cy="539.1" r="2.2"/>
			<circle class="st3" cx="612.3" cy="529.8" r="2.2"/>
			<circle class="st3" cx="612.3" cy="520.4" r="2.2"/>
			<circle class="st3" cx="612.3" cy="511.1" r="2.2"/>
			<circle class="st3" cx="612.3" cy="501.8" r="2.2"/>
			<circle class="st3" cx="619.4" cy="557.8" r="2.2"/>
			<circle class="st3" cx="619.4" cy="548.5" r="2.2"/>
			<circle class="st3" cx="619.4" cy="539.1" r="2.2"/>
			<circle class="st3" cx="619.4" cy="529.8" r="2.2"/>
			<circle class="st3" cx="619.4" cy="520.4" r="2.2"/>
			<circle class="st3" cx="619.4" cy="511.1" r="2.2"/>
			<circle class="st3" cx="619.4" cy="501.8" r="2.2"/>
			<circle class="st3" cx="626.5" cy="557.8" r="2.2"/>
			<circle class="st3" cx="626.5" cy="548.5" r="2.2"/>
			<circle class="st3" cx="633.6" cy="557.8" r="2.2"/>
			<circle class="st3" cx="633.6" cy="548.5" r="2.2"/>
			<circle class="st3" cx="633.6" cy="539.1" r="2.2"/>
			<circle class="st3" cx="626.5" cy="539.1" r="2.2"/>
			<circle class="st3" cx="626.5" cy="529.8" r="2.2"/>
			<circle class="st3" cx="626.5" cy="520.4" r="2.2"/>
			<circle class="st3" cx="626.5" cy="511.1" r="2.2"/>
			<circle class="st3" cx="626.5" cy="501.8" r="2.2"/>
		</g>
		<path class="st2" d="M803.1,405.3h-149c-1.5,0-2.8,1.2-2.8,2.8v127.4c0,1.5,1.2,2.8,2.8,2.8h149c1.5,0,2.8-1.2,2.8-2.8V408
			C805.9,406.5,804.7,405.3,803.1,405.3z M804.8,535.4c0,0.9-0.7,1.7-1.7,1.7h-149c-0.9,0-1.7-0.7-1.7-1.7V408
			c0-0.9,0.7-1.7,1.7-1.7h149c0.9,0,1.7,0.7,1.7,1.7V535.4z"/>
		<path class="st3" d="M688.6,515.5c0,0.2,0,0.4,0,0.6c-0.3,6.2-5.6,11-11.8,10.6c-5.7-0.3-10.3-4.9-10.6-10.6c0-0.2,0-0.4,0-0.6
			c0-6.2,5-11.2,11.2-11.2C683.5,504.3,688.6,509.3,688.6,515.5z"/>
		<path class="st2" d="M791.6,508h-88.3c-1,0-1.9,0.8-1.9,1.9c0,1,0.8,1.9,1.9,1.9h88.3c1,0,1.9-0.8,1.9-1.9
			C793.4,508.9,792.6,508,791.6,508z"/>
		<path class="st3" d="M741.3,519.3h-38c-1,0-1.9,0.8-1.9,1.9c0,1,0.8,1.9,1.9,1.9h38c1,0,1.9-0.8,1.9-1.9
			C743.1,520.1,742.3,519.3,741.3,519.3C741.3,519.3,741.3,519.3,741.3,519.3z"/>
		<path class="st3" d="M838.5,494.8h-149c-2.1,0-3.8-1.7-3.8-3.8v-65.4c0-2.1,1.7-3.8,3.8-3.8h149c2.1,0,3.8,1.7,3.8,3.8V491
			C842.4,493.1,840.6,494.8,838.5,494.8z M689.6,423.1c-1.4,0-2.5,1.1-2.5,2.5V491c0,1.4,1.1,2.5,2.5,2.5h149c1.4,0,2.5-1.1,2.5-2.5
			v-65.4c0-1.4-1.1-2.5-2.5-2.5H689.6z"/>
		<path class="st3" d="M719.9,445.6c-1,0-1.9,0.8-1.9,1.9c0,1,0.8,1.9,1.9,1.9c0,0,0,0,0,0h88.3c1,0,1.9-0.8,1.9-1.9
			c0-1-0.8-1.9-1.9-1.9c0,0,0,0,0,0H719.9z"/>
		<path class="st3" d="M719.9,456.5c-1,0-1.9,0.8-1.9,1.9c0,1,0.8,1.9,1.9,1.9h88.3c1,0,1.9-0.8,1.9-1.9c0-1-0.8-1.9-1.9-1.9H719.9z
			"/>
		<path class="st3" d="M719.9,467.2c-1,0-1.9,0.8-1.9,1.9c0,1,0.8,1.9,1.9,1.9h38c1,0,1.9-0.8,1.9-1.9c0-1-0.8-1.9-1.9-1.9H719.9z"
			/>
		<path class="st3" d="M863.1,522.5l-15-21.1l4.8,1c0.4,0.1,0.7-0.2,0.8-0.5s-0.2-0.7-0.5-0.8l0,0l-7.2-1.5l-1,7.3
			c0,0.4,0.2,0.7,0.6,0.8s0.7-0.2,0.8-0.6l0,0l0.7-4.9l15,21.1c0.2,0.3,0.6,0.4,0.9,0.2C863.2,523.2,863.3,522.8,863.1,522.5
			L863.1,522.5z"/>
		<path class="st2" d="M781.8,584H675.5c-1.1,0-2-0.9-2-2v-26.4c0-1.1,0.9-2,2-2h106.3c1.1,0,2,0.9,2,2V582
			C783.8,583.1,782.9,584,781.8,584z M675.5,554.4c-0.7,0-1.2,0.5-1.2,1.2V582c0,0.7,0.5,1.2,1.2,1.2h106.3c0.7,0,1.2-0.5,1.2-1.2
			v-26.4c0-0.7-0.5-1.2-1.2-1.2L675.5,554.4z"/>
		<circle class="st3" cx="692" cy="567.8" r="8"/>
		<path class="st3" d="M710.5,562.4c-0.7,0-1.3,0.6-1.3,1.3c0,0.7,0.6,1.3,1.3,1.3c0,0,0,0,0,0h63c0.7,0,1.3-0.6,1.3-1.3
			c0-0.7-0.6-1.3-1.3-1.3c0,0,0,0,0,0H710.5z"/>
		<path class="st3" d="M710.5,570.5c-0.7,0-1.3,0.6-1.3,1.3c0,0.7,0.6,1.3,1.3,1.3c0,0,0,0,0,0h27.1c0.7,0,1.3-0.6,1.3-1.3
			c0-0.7-0.6-1.3-1.3-1.3c0,0,0,0,0,0H710.5z"/>
		<path class="st2" d="M922.1,490h47.3c1.1,0,2,0.9,2,2v49.2c0,1.1-0.9,2-2,2h-47.3c-1.1,0-2-0.9-2-2v-49.2
			C920.2,490.9,921.1,490,922.1,490z M969.4,542.3c0.7,0,1.2-0.5,1.2-1.2v-49.2c0-0.7-0.5-1.2-1.2-1.2h-47.3c-0.7,0-1.2,0.5-1.2,1.2
			v49.2c0,0.7,0.5,1.2,1.2,1.2H969.4z"/>
		<path class="st3" d="M959.3,533c0.7,0,1.3-0.6,1.3-1.3s-0.6-1.3-1.3-1.3h-27.1c-0.7,0-1.3,0.6-1.3,1.3s0.6,1.3,1.3,1.3H959.3z"/>
		<path class="st3" d="M959.3,525.1c0.7,0,1.3-0.6,1.3-1.3c0-0.7-0.6-1.3-1.3-1.3c0,0,0,0,0,0h-27.1c-0.7,0-1.3,0.6-1.3,1.3
			c0,0.7,0.6,1.3,1.3,1.3c0,0,0,0,0,0H959.3z"/>
		<path class="st3" d="M945.8,500.1c4.6,0,8.4,3.8,8.4,8.4c0,4.6-3.8,8.4-8.4,8.4s-8.4-3.8-8.4-8.4
			C937.4,503.9,941.1,500.1,945.8,500.1z"/>
	</g>
	<g>
		<path class="st3" d="M186.9,119H30.8V21.4h156.1V119z"/>
		<path class="st2" d="M186.9,119H30.8V21.4h156.1V119z M31.5,118.3h154.7V22.1H31.5V118.3z"/>
		<path class="st3" d="M167.9,254.3H78.8v-97.7h89.1V254.3z"/>
		<path class="st2" d="M167.9,254.3H78.8v-97.7h89.1V254.3z M79.5,253.6h87.7v-96.2H79.5V253.6z"/>
		<rect x="137.2" y="245.1" class="st2" width="18.5" height="0.8"/>
		<rect x="137.2" y="247.3" class="st2" width="18.5" height="0.8"/>
		<rect x="137.2" y="249.6" class="st2" width="18.5" height="0.8"/>
		<path class="st5" d="M123.3,174.1v7.8c13,0,23.5,10.5,23.5,23.5c0,6.2-2.5,12.2-6.9,16.6l5.5,5.5c12.2-12.2,12.2-32.1,0-44.4
			C139.6,177.4,131.6,174.1,123.3,174.1z"/>
		<path class="st6" d="M145.5,227.6l-5.5-5.5c-8.3,8.3-21.5,9.2-30.9,2.1l-4.7,6.2C116.8,239.9,134.4,238.7,145.5,227.6z"/>
		<path class="st1" d="M99.8,205.5c0-13,10.5-23.5,23.5-23.5l0,0v-7.8c-17.3,0-31.4,14-31.4,31.4c0,9.8,4.6,19,12.4,25l4.7-6.2
			C103.2,219.7,99.8,212.8,99.8,205.5z"/>
		<path class="st3" d="M299.7,193.7h-89.1V96h89.1V193.7z"/>
		<path class="st2" d="M299.7,193.7h-89.1V96h89.1V193.7z M211.3,193H299V96.7h-87.7V193z"/>
		<rect x="223.5" y="155.7" class="st6" width="16" height="25.7"/>
		<rect x="246.6" y="138.3" class="st5" width="16" height="43.1"/>
		<rect x="269.8" y="118" class="st1" width="16" height="63.4"/>
		<polygon class="st2" points="291.2,182.1 219.2,182.1 219.2,107.6 219.9,107.6 219.9,181.4 291.2,181.4 		"/>
		<path class="st2" d="M165.2,98.6H52.5c-0.2,0-0.4-0.2-0.4-0.4v-54c0-0.2,0.2-0.4,0.4-0.4c0.2,0,0.4,0.2,0.4,0.4v53.7h112.4
			c0.2,0,0.4,0.2,0.4,0.4C165.6,98.4,165.4,98.6,165.2,98.6C165.3,98.6,165.2,98.6,165.2,98.6L165.2,98.6z"/>
		<path class="st1" d="M76.6,94.7H66.3c-0.6,0-1-0.5-1-1V79.5c0-0.6,0.5-1,1-1h10.3c0.6,0,1,0.5,1,1v14.1
			C77.6,94.3,77.2,94.7,76.6,94.7z"/>
		<path class="st1" d="M95.3,94.7H85c-0.6,0-1-0.5-1-1V66.1c0-0.6,0.5-1,1-1h10.3c0.6,0,1,0.5,1,1v27.5
			C96.3,94.3,95.9,94.7,95.3,94.7z"/>
		<path class="st1" d="M114,94.7h-10.3c-0.6,0-1-0.5-1-1V79.5c0-0.6,0.5-1,1-1H114c0.6,0,1,0.5,1,1v14.1
			C115,94.3,114.6,94.7,114,94.7z"/>
		<path class="st1" d="M132.7,94.7h-10.3c-0.6,0-1-0.4-1-1V60.8c0-0.6,0.5-1,1-1h10.3c0.6,0,1,0.4,1,1v32.9
			C133.7,94.3,133.3,94.7,132.7,94.7z"/>
		<path class="st1" d="M151.4,94.7h-10.3c-0.6,0-1-0.5-1-1V51.3c0-0.6,0.5-1,1-1h10.3c0.6,0,1,0.5,1,1v42.4
			C152.4,94.3,152,94.7,151.4,94.7z"/>
		<circle class="st2" cx="71.5" cy="72.1" r="2.1"/>
		<circle class="st2" cx="90.2" cy="58.4" r="2.1"/>
		<circle class="st2" cx="108.9" cy="72.1" r="2.1"/>
		<circle class="st2" cx="127.6" cy="51.7" r="2.1"/>
		<circle class="st2" cx="146.3" cy="43.9" r="2.1"/>
		<polygon class="st2" points="108.9,72.6 90.2,58.6 71.7,72.4 71.2,71.9 90.2,57.7 108.8,71.7 127.4,51.4 127.4,51.3 146.1,43.8 
			146.4,44.5 127.8,52 		"/>
	</g>
	<circle class="st7" cx="601.2" cy="335.5" r="32.8"/>
	<circle class="st1" cx="710.1" cy="706.8" r="25.5"/>
	<rect x="633" y="294.4" class="st2" width="405.6" height="1.1"/>
	<path class="st2" d="M843.1,57.1h-144v-3h-65.3v3H489.2c-5.4,0-9.7,4.4-9.7,9.7c0,0,0,0,0,0V264c0,5.4,4.4,9.7,9.7,9.7h353.8
		c5.4,0,9.7-4.4,9.7-9.7V66.8C852.8,61.5,848.4,57.1,843.1,57.1L843.1,57.1z"/>
	<rect x="492.5" y="74.3" class="st1" width="347.2" height="195.9"/>
	<circle class="st1" cx="665.8" cy="65.4" r="3.6"/>
	<polygon class="st8" points="740.4,270.2 492.5,270.2 492.5,74.3 	"/>
	<circle class="st7" cx="546.9" cy="222.1" r="33.4"/>
	<rect x="746.9" y="179.9" class="st2" width="32.4" height="6.8"/>
	<rect x="707.6" y="127.2" class="st2" width="110.9" height="2.9"/>
	<rect x="707.6" y="136.4" class="st2" width="110.9" height="2.9"/>
	<rect x="707.6" y="145.6" class="st2" width="110.9" height="2.9"/>
	<rect x="707.6" y="154.8" class="st2" width="110.9" height="2.9"/>
	<rect x="707.6" y="164" class="st2" width="110.9" height="2.9"/>
	<rect x="804.9" y="78.3" class="st7" width="13.6" height="13.6"/>
	<path class="st2" d="M824.8,98.1h-16.5V81.7h16.5V98.1z M809,97.4h15v-15h-15V97.4z"/>
	<path class="st2" d="M862.5,266.6h-33.9v-2.4c0-0.3-0.2-0.5-0.5-0.5l0,0h-11.6c-0.3,0-0.5,0.2-0.5,0.5l0,0v2.4h-7.3v-2.4
		c0-0.3-0.2-0.5-0.5-0.5l0,0h-11.6c-0.3,0-0.5,0.2-0.5,0.5l0,0v2.4H789v-2.4c0-0.3-0.2-0.5-0.5-0.5l0,0h-11.6
		c-0.3,0-0.5,0.2-0.5,0.5l0,0v2.4h-7.3v-2.4c0-0.3-0.2-0.5-0.5-0.5l0,0H757c-0.3,0-0.5,0.2-0.5,0.5l0,0v2.4h-7.3v-2.4
		c0-0.3-0.2-0.5-0.5-0.5l0,0h-11.6c-0.3,0-0.5,0.2-0.5,0.5v0v2.4h-7.3v-2.4c0-0.3-0.2-0.5-0.5-0.5h0h-11.6c-0.3,0-0.5,0.2-0.5,0.5
		l0,0v2.4h-7.3v-2.4c0-0.3-0.2-0.5-0.5-0.5l0,0h-91c-0.3,0-0.5,0.2-0.5,0.5l0,0v2.4h-7.3v-2.4c0-0.3-0.2-0.5-0.5-0.5l0,0h-11.6
		c-0.3,0-0.5,0.2-0.5,0.5v0v2.4h-7.3v-2.4c0-0.3-0.2-0.5-0.5-0.5l0,0h-11.6c-0.3,0-0.5,0.2-0.5,0.5c0,0,0,0,0,0v2.4h-7.3v-2.4
		c0-0.3-0.2-0.5-0.5-0.5c0,0,0,0,0,0h-11.6c-0.3,0-0.5,0.2-0.5,0.5l0,0v2.4h-7.3v-2.4c0-0.3-0.2-0.5-0.5-0.5c0,0,0,0,0,0h-11.6
		c-0.3,0-0.5,0.2-0.5,0.5c0,0,0,0,0,0v2.4H531v-2.4c0-0.3-0.2-0.5-0.5-0.5c0,0,0,0,0,0h-11.6c-0.3,0-0.5,0.2-0.5,0.5c0,0,0,0,0,0
		v2.4h-7.3v-2.4c0-0.3-0.2-0.5-0.5-0.5c0,0,0,0,0,0H499c-0.3,0-0.5,0.2-0.5,0.5v0v2.4h-22.3c-6.4,0-11.6,5.2-11.6,11.6v5.3
		c0,6.4,5.2,11.6,11.6,11.6h386.3c6.4,0,11.6-5.2,11.6-11.6v-5.3C874.2,271.8,869,266.6,862.5,266.6z"/>
	<path class="st2" d="M554.9,243c-23.2,0-42.1-18.8-42.1-42.1s18.8-42.1,42.1-42.1c23.2,0,42.1,18.8,42.1,42.1
		C597,224.1,578.2,243,554.9,243z M554.9,160c-22.6,0-41,18.3-41,41s18.3,41,41,41s41-18.3,41-41C595.9,178.3,577.5,160,554.9,160z"
		/>
	<rect x="789" y="64.8" class="st2" width="141.1" height="1.1"/>
	<rect x="774.5" y="727.2" class="st2" width="315.4" height="0.9"/>
	<rect x="682.6" y="766.8" class="st2" width="109.7" height="0.9"/>
	<rect x="802.4" y="722.7" class="st1" width="12" height="12"/>
	<path class="st2" d="M821.8,727.8h-14.6v-14.6h14.6V727.8z M807.8,727.2h13.4v-13.4h-13.4V727.2z"/>
	<rect x="905.2" y="58.9" class="st1" width="15.5" height="15.5"/>
	<path class="st2" d="M930.1,65.6h-18.8V46.8h18.8V65.6z M912.1,64.8h17.2V47.6h-17.2V64.8z"/>
	<rect x="1063.6" y="722.7" class="st1" width="12" height="12"/>
	<path class="st2" d="M1083,727.8h-14.6v-14.6h14.6V727.8z M1069,727.2h13.4v-13.4H1069V727.2z"/>
	<path class="st2" d="M1049.7,175.1h-1.3v-36.1c0-11.5-9.3-20.9-20.9-20.9l0,0h-76.4c-11.5,0-20.9,9.3-20.9,20.9c0,0,0,0,0,0v197.8
		c0,11.5,9.3,20.9,20.9,20.9c0,0,0,0,0,0h76.4c11.5,0,20.9-9.3,20.9-20.9c0,0,0,0,0,0V200.8h1.3V175.1z"/>
	<path class="st1" d="M1043.9,140.3v197.5c0,8.6-7,15.6-15.6,15.6h-76.8c-8.6,0-15.6-7-15.6-15.6V140.3c0-8.6,7-15.6,15.6-15.6h9.3
		c-1.5,3.8,0.3,8.1,4.1,9.7c0.9,0.4,1.8,0.5,2.8,0.5h43.8c4.1,0,7.4-3.3,7.4-7.4c0-1-0.2-1.9-0.5-2.8h10
		C1036.9,124.7,1043.9,131.7,1043.9,140.3z"/>
	<rect x="978.5" y="255" class="st2" width="22.9" height="6.8"/>
	<rect x="950.9" y="202.2" class="st2" width="78.2" height="2.9"/>
	<rect x="950.9" y="211.4" class="st2" width="78.2" height="2.9"/>
	<rect x="950.9" y="220.6" class="st2" width="78.2" height="2.9"/>
	<rect x="950.9" y="229.8" class="st2" width="78.2" height="2.9"/>
	<rect x="950.9" y="239" class="st2" width="78.2" height="2.9"/>
	<rect x="979.1" y="163.6" class="st7" width="13.6" height="13.6"/>
	<path class="st2" d="M984.3,167v16.5h16.5V167H984.3z M1000.1,182.8h-15v-15h15V182.8z"/>
	<path class="st8" d="M1043.9,316.8v21.1c0,8.6-7,15.6-15.6,15.6h-76.8c-8.6,0-15.6-7-15.6-15.6V231.5l64.7,51.1l1.1,0.9l12,9.5
		l1.1,0.9L1043.9,316.8z"/>
	<circle class="st7" cx="983.3" cy="322.8" r="24.3"/>
	<path class="st2" d="M737.5,767.7c-20.7,0-37.4-16.8-37.4-37.4c0-20.7,16.8-37.4,37.4-37.4c20.7,0,37.4,16.8,37.4,37.4
		C774.9,750.9,758.2,767.6,737.5,767.7z M737.5,693.6c-20.2,0-36.6,16.4-36.6,36.6c0,20.2,16.4,36.6,36.6,36.6
		c20.2,0,36.6-16.4,36.6-36.6C774.1,710,757.7,693.7,737.5,693.6z"/>
	<path class="st2" d="M990.5,341.5c-16.8,0-30.4-13.6-30.4-30.4c0-16.8,13.6-30.4,30.4-30.4s30.4,13.6,30.4,30.4
		C1020.9,327.9,1007.3,341.5,990.5,341.5z M990.5,281.7c-16.2,0-29.3,13.1-29.3,29.3c0,16.2,13.1,29.3,29.3,29.3
		c16.2,0,29.3-13.1,29.3-29.3l0,0C1019.8,294.9,1006.7,281.7,990.5,281.7z"/>
	
		<linearGradient id="SVGID_1_" gradientUnits="userSpaceOnUse" x1="355.6686" y1="78.3293" x2="355.6686" y2="471.0217" gradientTransform="matrix(1 0 0 -1 -37.6617 704.634)">
		<stop  offset="0" style="stop-color:#808080;stop-opacity:0.25"/>
		<stop  offset="0.5351" style="stop-color:#808080;stop-opacity:0.12"/>
		<stop  offset="1" style="stop-color:#808080;stop-opacity:0.1"/>
	</linearGradient>
	<path class="st9" d="M505.5,482.7c-2.4-13.6-3.9-27.3-4.5-41v0c-1-23.2-16.5-43.3-38.7-50.2c-3.9-1.2-8.3-2.4-13.1-3.4
		c-42.1-8.9-54.9-1.1-56.4-0.1c-1.2-2.2-2.3-4.6-3.2-7c-0.1-0.2-0.1-0.5-0.2-0.7c8.3-8.9,13.4-20.3,14.4-32.5
		c7-7.1,11.1-15.7,11.1-25c0-8-3-15.4-8.4-21.9v-12.6c0-30.2-24.5-54.7-54.7-54.7l0,0h-4.4c-30.2,0-54.7,24.5-54.7,54.7l0,0v13.6
		c-4.8,5.9-7.5,13.3-7.6,20.9c0,9.1,3.9,17.5,10.7,24.5c0.9,12.6,6.2,24.5,15,33.5c0.3,2.1,0.6,4.3,0.9,6.6l-75.4,15.9
		c0,0-29.1,1.2-47.8,39.8c-15.8,32.7-47.4,116.7-56.7,141.7h0l0,0c-1.7,4.5-2.6,7.1-2.6,7.1s0.3-0.3,0.9-0.8
		c-0.6,1.6-0.9,2.4-0.9,2.4s0.5-0.5,1.3-1.2c-1.3,10.5-1.5,28.4,12.2,30.7c11.5,1.9,41.1,2.6,63.5,3v0h1.6
		c14.8,0.2,26.1,0.2,26.1,0.2v-0.2h240.6v-2.5c0-2.2-0.4-4.5-1.3-6.5c0.1-0.1,0.2-0.3,0.3-0.4c1.3,1.7,2.1,3.7,2.5,5.8
		c0,0.2-0.1,0.4-0.1,0.6c0,0,0-0.1,0.1-0.4c0.1,0.7,0,1.3-0.1,2c0,0,30.9-79.5,30.5-127C506.7,492.7,506.3,487.6,505.5,482.7z
		 M313.1,398.2c-0.4-2.3-0.7-4.6-0.8-6.9l0-0.1C312.6,393.5,312.8,395.8,313.1,398.2z M219.5,569.1v19l-11.9,2.5L219.5,569.1z"/>
	<path class="st10" d="M348.5,241.3L348.5,241.3c30.2,0,54.7,24.5,54.7,54.7v23.3l0,0H293.8l0,0V296
		C293.8,265.8,318.3,241.3,348.5,241.3z"/>
	<ellipse class="st10" cx="348.8" cy="327" rx="62.4" ry="42.8"/>
	<path class="st11" d="M308.9,368.5c0,0,13,68.1,0,86.5c-13,18.4,39.8,25.6,39.8,25.6l54.7-19.9l7.7-49c0,0-33.3-18.7-26.4-56.6
		L308.9,368.5z"/>
	<path class="st11" d="M470.3,598c0,0,3.4,14.9-15.3,17.6c-11.1,1.6-22.3,1.5-33.4-0.4l-4.1-37.5h43.6L470.3,598z"/>
	<path class="st11" d="M139.3,578.9c0,0-8.3,33.6,10.5,36.7s87.6,3.1,87.6,3.1v-39.8l-31.2,6.7l-29.3-28.1L139.3,578.9z"/>
	<path class="st8" d="M312.9,390.5L239.6,406c0,0-27.9,1.1-45.9,38.3s-57,143.1-57,143.1s33.3-33.7,72.3,2.3l26-47.1l-5.7,74.6
		h201.6v-35.2c0,0,42.1,22.6,39,35.2c0,0,36-92.8,28.3-134.9c-2.3-13-3.8-26.2-4.3-39.4v0c-0.9-22.3-15.8-41.7-37.2-48.3
		c-3.8-1.2-8-2.3-12.6-3.2c-43.2-9.2-54.3,0-54.3,0s-8.4,27.2-8.2,39.6c0.2,15.9-22.6,26.4-22.6,26.4s-33.7-8-35.2-14.5
		S310.2,398.1,312.9,390.5z"/>
	<path class="st12" d="M312.9,388.9l-73.3,15.5c0,0-27.9,1.1-45.9,38.3s-57,143.1-57,143.1S170,552.1,209,588l26-47.1l-5.7,74.6
		h201.6v-35.2c0,0,42.1,22.6,39,35.2c0,0,36-92.8,28.3-134.9c-2.3-13-3.8-26.2-4.3-39.4v0c-0.9-22.3-15.8-41.7-37.2-48.3
		c-3.8-1.2-8-2.3-12.6-3.2c-43.2-9.2-54.3,0-54.3,0s-8.4,27.2-8.2,39.6c0.2,15.9-22.6,26.4-22.6,26.4s-33.7-8-35.2-14.5
		S310.2,396.6,312.9,388.9z"/>
	<path class="st8" d="M387.8,385.7c-3.1-8.7-3.8-18.1-2-27.2L310,371.9c0,0,1.1,5.7,2.3,14.3c19.9,20.7,52.9,21.3,73.6,1.4
		C386.5,387,387.2,386.3,387.8,385.7L387.8,385.7z"/>
	<path class="st11" d="M400.7,346.7c0,28.7-23.3,52-52,52c-28.2,0-51.3-22.5-52-50.8c0-0.4,0-0.8,0-1.3c0-19.9,11.3-38,29.2-46.8
		c1.6-0.8,3.2-1.4,4.8-2.1c8.6-3.1,17.8-4,26.8-2.5c0,0,0,0,0,0c23.7,4,41.6,23.8,43.1,47.8C400.6,344.4,400.7,345.5,400.7,346.7z"
		/>
	<g class="st13">
		<path d="M330.5,299.1C330.6,299.1,330.6,299,330.5,299.1c-1.6,0.6-3.2,1.2-4.7,2c-17.9,8.7-29.2,26.9-29.2,46.8c0,0.4,0,0.8,0,1.3
			c1.6,0,3.2-0.4,4.7-1.1c12.7-5.9,20.3-24,23.3-36.7C325.7,306.8,326.7,301.7,330.5,299.1z"/>
		<path d="M370.4,300.5c-4.1-1.9-8.5-3.2-12.9-4c3.7,0.8,6.9,2.9,9.3,5.8c1.2,1.6,2.1,3.3,2.8,5.1c-14-6.1-30-5.8-43.8,0.9
			c3.3,7.2,13.4,11.1,20.2,13.7c7.4,2.9,14.9,5.5,22.5,7.8c-2.2-1.8-4.5-3.6-6.7-5.4c5,0.8,10.1,1.6,15.1,2.4c0.2-3-0.2-6-1.1-8.9
			c2.9,2.3,6.7,3.1,9.9,5.1c5.9,3.7,8.3,10.9,11.5,17c0.7,1.7,1.9,3.2,3.4,4.3C399.3,325.3,387.7,308.5,370.4,300.5z"/>
	</g>
	<path class="st14" d="M330.5,297.9C330.6,297.9,330.6,297.9,330.5,297.9c-1.6,0.6-3.2,1.2-4.7,2c-17.9,8.7-29.2,26.9-29.2,46.8
		c0,0.4,0,0.8,0,1.3c1.6,0,3.2-0.4,4.7-1.1c12.7-5.9,20.3-24,23.3-36.7C325.7,305.6,326.7,300.5,330.5,297.9z"/>
	<path class="st14" d="M370.4,299.4c-4.1-1.9-8.5-3.2-12.9-4c3.7,0.8,6.9,2.9,9.3,5.8c1.2,1.6,2.1,3.3,2.8,5.1
		c-14-6.1-30-5.8-43.8,0.9c3.3,7.2,13.4,11.1,20.2,13.7c7.4,2.9,14.9,5.5,22.5,7.8c-2.2-1.8-4.5-3.6-6.7-5.4
		c5,0.8,10.1,1.6,15.1,2.4c0.2-3-0.2-6-1.1-8.9c2.9,2.3,6.7,3.1,9.9,5.1c5.9,3.7,8.3,10.9,11.5,17c0.7,1.7,1.9,3.2,3.4,4.3
		C399.3,324.2,387.7,307.3,370.4,299.4z"/>
	<path class="st8" d="M290.7,338.1c0,0,53.6-66.6,115.5,0l-5.4-14.9c0,0-29.1-42.5-49.7-33.3s-40.9,15.7-40.9,15.7L290.7,338.1z"/>
	<path class="st10" d="M290.7,336.9c0,0,53.6-66.6,115.5,0l-5.4-14.9c0,0-29.1-42.5-49.7-33.3s-40.9,15.7-40.9,15.7L290.7,336.9z"/>
	<path class="st8" d="M246.7,480.4c0,0-11.5,30.6,4.6,58.1c16.1,27.5-14.2,39-14.2,39"/>
	<path class="st8" d="M432.6,452.8c0,0,19.9,25.2,6.9,47.8c-13,22.6-12.2,76.9-12.2,76.9"/>
	<path class="st15" d="M229.1,600.1h221.1c10.1,0,18.4,8.2,18.4,18.4l0,0l0,0H210.7l0,0l0,0C210.7,608.3,219,600.1,229.1,600.1
		L229.1,600.1z"/>
	<path class="st15" d="M262.4,473.9H417c21.5,0,39,17.5,39,39v91.5l0,0H223.4l0,0v-91.5C223.4,491.3,240.8,473.9,262.4,473.9
		C262.4,473.9,262.4,473.9,262.4,473.9z"/>
	<circle class="st3" cx="339.5" cy="544.8" r="13.8"/>
	<path class="st16" d="M293.8,306.9c0,0,52.6-52.6,109.4-1"/>
	<rect x="411.2" y="303.5" class="st17" width="5.3" height="30"/>
	<path class="st18" d="M404.1,322.9L404.1,322.9c10.1,0,18.2,8.2,18.2,18.2v0v1.2c0,10.1-8.2,18.2-18.2,18.2h0l0,0l0,0V322.9
		L404.1,322.9z"/>
	<path class="st17" d="M404.7,321.1L404.7,321.1c2.3,0,4.1,1.8,4.1,4.1v32.9c0,2.3-1.8,4.1-4.1,4.1l0,0c-2.3,0-4.1-1.8-4.1-4.1
		v-32.9C400.6,323,402.5,321.1,404.7,321.1z"/>
	<rect x="279.9" y="304.1" class="st17" width="5.3" height="30"/>
	<path class="st18" d="M292.3,361.1L292.3,361.1c-10.1,0-18.2-8.2-18.2-18.2v0v-1.2c0-10.1,8.2-18.2,18.2-18.2h0l0,0l0,0V361.1
		L292.3,361.1z"/>
	<path class="st17" d="M291.7,362.8L291.7,362.8c-2.3,0-4.1-1.8-4.1-4.1v-32.9c0-2.3,1.8-4.1,4.1-4.1l0,0c2.3,0,4.1,1.8,4.1,4.1
		v32.9C295.8,361,293.9,362.8,291.7,362.8z"/>
	<path class="st18" d="M410.6,271.5c-7.2-14.9-22.7-32.9-56.4-34.3l0,0l-0.4,0l0,0l0,0l-11.9,0.6l0,0.1c-33.4,1.5-48.9,19.5-56,34.3
		c-4.7,10.1-7.3,21-7.4,32.1l4.1-0.1l4.1-0.1c0.2-9.9,2.5-19.7,6.7-28.6c9.1-18.6,25.7-28.5,49.6-29.4l0,0l10.5-0.6l0,0
		c23.8,0.9,40.5,10.8,49.6,29.4c4.2,9,6.5,18.7,6.7,28.6l4.1,0.1l4.1,0.1C417.8,292.5,415.3,281.5,410.6,271.5z"/>
	<rect x="37.6" y="618.7" class="st19" width="560.8" height="150.6"/>
	<rect x="37.6" y="628.8" class="st8" width="560.8" height="19.5"/>
	<rect y="616.5" class="st19" width="636" height="19.5"/>
	<path class="st20" d="M435.5,567.9c0,0,24,44,84,32s31,111,31,111s-9.8,58.7-2.9,58.3"/>
</g>
</svg>
