<svg id="Layer_1" data-name="Layer 1" xmlns="http://www.w3.org/2000/svg" viewBox="0 0 1484.7 800"><defs><style>.cls-1{fill:#fff;}.cls-2{fill:#b918ab;}</style></defs><path class="cls-1" d="M487.09,447.57c-6.91-8-10.28-19.48-10.28-34.9V387.33c0-15.23,3.37-26.75,10.28-34.73s19.13-12,36.67-12,29.77,4.07,36.67,12,10.28,19.5,10.28,34.73v25.34c0,15.24-3.54,26.93-10.45,34.9s-19,11.87-36.5,11.87S494,455.55,487.09,447.57Zm64.84-60.24c0-10.45-1.95-17.89-5.67-22.32-3.72-4.61-11.16-6.91-22.5-6.91S505,360.4,501.26,365c-3.73,4.43-5.67,11.87-5.67,22.32v25.34c0,10.1,1.94,17.54,5.67,22.32,3.72,4.61,11.17,6.91,22.5,6.91s18.78-2.3,22.5-6.91c3.72-4.78,5.67-12.22,5.67-22.32Z"/><path class="cls-1" d="M607.43,424.72c0,12.58,5,17.36,20.36,17.36S648,437.3,648,424.72V377.41c0-6.38,1.59-8,8-8h2.3c6.38,0,8,1.59,8,8v47.31c0,23.21-12,34.55-38.45,34.55-25.68,0-38.62-11.52-38.62-34.55V377.41c0-6.38,1.6-8,8-8h2.3c6.37,0,8,1.59,8,8Z"/><path class="cls-1" d="M703.13,449.35c0,6.37-1.6,8-8,8h-2.31c-6.37,0-8-1.6-8-8v-50.5q0-31.37,33.5-31.36a16.19,16.19,0,0,1,3.54.18c5.85.71,7.44,2.12,7.44,8.32v2.49c0,5.84-1.24,7.08-7.44,6.2a16.19,16.19,0,0,0-3.54-.18c-11.52,0-15.24,4.43-15.24,15.59Z"/><path class="cls-1" d="M741.09,350.3c0-6.37,1.59-8,8-8h73.88c6.39,0,8,1.6,8,8v1.6c0,6.37-1.59,8-8,8H795.48v89.47c0,6.56-1.59,8.15-8.15,8.15h-2.48c-6.55,0-8.15-1.59-8.15-8.15V359.87H749.06c-6.38,0-8-1.6-8-8Z"/><path class="cls-1" d="M920.43,412.14c-.71,6.55-2.49,8.15-9,8.15H862.14v3.89c0,12.93,7.43,18.07,25.34,18.07a96.2,96.2,0,0,0,23-2.83c5.67-1.42,7.27,0,7.27,6.2v2.3c0,5.85-1.06,7.09-7.27,8.69a84.45,84.45,0,0,1-23,2.83c-30,0-43.59-11.52-43.59-37.92V406.11c0-25.69,13.1-38.45,39.33-38.45,24.62,0,37.56,12.58,37.56,36.68C920.78,405.93,920.6,408.59,920.43,412.14Zm-58.29-6.74h41.45V401c0-11.69-6.91-17.54-20.9-17.54-13.64,0-20.55,5.85-20.55,17.54Z"/><path class="cls-1" d="M1007.62,431.1c0,19.66-11.51,28.34-37.73,28.34-23.92,0-36-9-36-27.29,0-18.6,12.23-26.75,36.15-26.75h19.48v-8.68c0-10.1-6.2-13.47-20.9-13.47a96.09,96.09,0,0,0-18.61,1.6c-5.13.89-6.55-.18-6.55-5.67V376.7c0-5.14,1.42-6.73,6.38-7.62a120.12,120.12,0,0,1,17.71-1.42c26.4,0,40,8.51,40,29.06Zm-18.07-11.88H970.07c-12.23,0-17.9,3.55-17.9,12.58s6,12.23,17.37,12.23c14.17,0,20-3.19,20-13.82Z"/><path class="cls-1" d="M1043.27,449.52c0,6.38-1.6,8-8,8H1033c-6.37,0-8-1.59-8-8V402c0-22.86,12.06-34.38,36-34.38,12.94,0,21.8,4.25,26.58,12.94,4.79-8.69,13.64-12.94,26.58-12.94,24.63,0,35.79,11.52,35.79,34.38v47.48c0,6.38-1.6,8-8,8h-2.31c-6.38,0-8-1.59-8-8V402c0-12.58-4.25-17.37-17.54-17.37s-17.9,5.14-17.9,17.37v47.48c0,6.38-1.59,8-8,8h-1.77c-6.38,0-8-1.59-8-8V402c0-12.58-4.26-17.37-17.55-17.37s-17.71,4.79-17.71,17.37Z"/><path class="cls-1" d="M1166.56,362.53c0-14.18,6-20.2,20.21-20.2h14.7c18.6,0,32.07,3.36,40,9.92s12,18.43,12,35.44v24.45c0,32.06-15.42,45.35-52.09,45.35h-14.7c-14.18,0-20.21-6-20.21-20.2ZM1201.47,440c12.94,0,21.61-1.95,26-6q6.91-6.12,6.91-21.79V387.69c0-10.28-2.3-17.54-6.91-21.62-4.78-4.08-13.46-6.2-26-6.2h-9.39c-4.61,0-6.92,2.3-6.92,6.73v66.62c0,4.43,2.31,6.73,6.92,6.73Z"/><path class="cls-1" d="M1347.32,412.14c-.71,6.55-2.48,8.15-9,8.15H1289v3.89c0,12.93,7.44,18.07,25.33,18.07a96.22,96.22,0,0,0,23-2.83c5.67-1.42,7.27,0,7.27,6.2v2.3c0,5.85-1.06,7.09-7.27,8.69a84.52,84.52,0,0,1-23,2.83c-29.94,0-43.58-11.52-43.58-37.92V406.11c0-25.69,13.11-38.45,39.33-38.45,24.63,0,37.57,12.58,37.57,36.68C1347.68,405.93,1347.49,408.59,1347.32,412.14ZM1289,405.4h41.45V401c0-11.69-6.9-17.54-20.9-17.54-13.65,0-20.55,5.85-20.55,17.54Z"/><path class="cls-1" d="M1395.18,435c1.6,6.56,3.72,8.5,8.86,8.5,5.49,0,7.27-1.59,8.86-8.5l13.82-57.58c1.41-6.2,3.37-7.8,9.74-7.8h2.66c6.38,0,7.62,1.6,6,7.8L1431,435.88c-2.12,8.68-5,14.88-8.32,18.24s-9.57,5.14-18.61,5.14-15.23-1.59-18.6-5-6.2-9.56-8.33-18.42l-14.18-58.47c-1.59-6.2-.35-7.8,6-7.8h2.66c6.38,0,8.32,1.6,9.74,7.8Z"/><path class="cls-2" d="M112.72,400A36.87,36.87,0,1,0,90,434.09a37.24,37.24,0,0,0,8-4.64A36.86,36.86,0,0,0,112.72,400Z"/><path class="cls-2" d="M202.16,266.44a36.77,36.77,0,0,0,58.85,0,33.91,33.91,0,0,0,4.64-8,36.9,36.9,0,1,0-68.13,0A33.91,33.91,0,0,0,202.16,266.44Z"/><path class="cls-2" d="M261,533.56a36.48,36.48,0,1,0,4.64,8A36.76,36.76,0,0,0,261,533.56Z"/><path class="cls-2" d="M387.35,363.12a37.09,37.09,0,0,0-14.2,2.84,33.84,33.84,0,0,0-8,4.64,36.79,36.79,0,0,0,0,58.85,34.54,34.54,0,0,0,8,4.64,36.9,36.9,0,1,0,14.2-71Z"/><path class="cls-2" d="M366.71,436.09s0,0-.09,0a4.46,4.46,0,0,0-5.94,1.3,68.06,68.06,0,0,1-51.8,30.4V332.26a67.9,67.9,0,0,1,51.8,30.44,4.46,4.46,0,0,0,5.94,1.3c.05,0,.05,0,.09,0a4.58,4.58,0,0,0,1.53-6.55,77,77,0,0,0-59.5-34.48h0a77.1,77.1,0,0,0-34.49-59.55,4.57,4.57,0,0,0-6.54,1.53,0,0,0,0,0-.05,0,4.46,4.46,0,0,0,1.3,6,67.87,67.87,0,0,1,30.45,51.8H163.88a67.89,67.89,0,0,1,30.36-51.8,4.45,4.45,0,0,0,1.34-5.94.19.19,0,0,0,0-.09,4.59,4.59,0,0,0-6.55-1.53,77,77,0,0,0-34.44,59.5A77.18,77.18,0,0,0,95,357.41,4.58,4.58,0,0,0,96.44,364s.1,0,.1.09a4.47,4.47,0,0,0,6-1.35,68.07,68.07,0,0,1,51.85-30.44V467.74a68.14,68.14,0,0,1-51.85-30.4,4.41,4.41,0,0,0-6-1.3c-.05,0-.05,0-.1,0A4.56,4.56,0,0,0,95,442.63a77.21,77.21,0,0,0,59.55,34.49h0A77.09,77.09,0,0,0,189,536.66a4.58,4.58,0,0,0,6.55-1.48s0-.09,0-.14a4.47,4.47,0,0,0-1.29-6,67.93,67.93,0,0,1-30.41-51.8H299.37a68,68,0,0,1-30.45,51.8,4.44,4.44,0,0,0-1.35,6c.05.05.05.09.1.14a4.56,4.56,0,0,0,6.54,1.48,77.31,77.31,0,0,0,34.53-59.59,77,77,0,0,0,59.5-34.44A4.58,4.58,0,0,0,366.71,436.09ZM163.65,468V332h136V468Z"/></svg>